<svg xmlns="http://www.w3.org/2000/svg" width="16" height="16" viewBox="0 0 16 16">
  <g id="cn" transform="translate(-88 -88)">
    <path id="路径_8687" data-name="路径 8687" d="M103.429,94v5.714A2.293,2.293,0,0,1,101.143,102H91.429v.571a1.684,1.684,0,0,0,1.714,1.715h9.429L105.143,106V95.714A1.683,1.683,0,0,0,103.429,94Z" transform="translate(-1.143 -2)" fill="#ffbb96"/>
    <path id="路径_8688" data-name="路径 8688" d="M90.571,98.857,88,100.571V89.714A1.683,1.683,0,0,1,89.714,88h9.715a1.683,1.683,0,0,1,1.714,1.714v7.429a1.684,1.684,0,0,1-1.714,1.715Z" transform="translate(0 0)" fill="#ff7a45"/>
    <path id="路径_8689" data-name="路径 8689" d="M90.571,95.714a.857.857,0,1,0,.857-.857A.858.858,0,0,0,90.571,95.714Z" transform="translate(-0.857 -2.286)" fill="#ffd8bf"/>
    <path id="路径_8690" data-name="路径 8690" d="M96.571,95.714a.857.857,0,0,0,1.715,0h0a.857.857,0,0,0-1.715,0Z" transform="translate(-2.857 -2.286)" fill="#ffd8bf"/>
    <path id="路径_8691" data-name="路径 8691" d="M102.571,95.714a.857.857,0,1,0,.857-.857A.858.858,0,0,0,102.571,95.714Z" transform="translate(-4.857 -2.286)" fill="#ffd8bf"/>
  </g>
</svg>
