<svg xmlns="http://www.w3.org/2000/svg" width="19.281" height="19.996" viewBox="0 0 19.281 19.996">
  <g id="ru" transform="translate(-85.29 -88)">
    <path id="路径_8672" data-name="路径 8672" d="M86.055,102.585a.32.32,0,0,1,.572-.286.835.835,0,0,0,.786.572.857.857,0,0,0,0-1.714.307.307,0,0,1-.286-.286V99.086a.285.285,0,1,1,.571,0v1.428a1.51,1.51,0,1,1-1.642,2.071Z" transform="translate(-0.123 -1.802)" fill="#d46b08"/>
    <path id="路径_8673" data-name="路径 8673" d="M87.365,103.614a1.757,1.757,0,0,1-1.571-1,.318.318,0,0,1,0-.357.559.559,0,0,1,.286-.286.317.317,0,0,1,.357,0,.559.559,0,0,1,.286.286.687.687,0,0,0,.643.428.716.716,0,0,0,.714-.714.675.675,0,0,0-.714-.714.488.488,0,0,1-.5-.5V99.043a.5.5,0,0,1,1,0v1.286a1.692,1.692,0,0,1,1.214,1.642,1.674,1.674,0,0,1-.5,1.214,1.94,1.94,0,0,1-1.214.429Zm-1.215-1.143a1.322,1.322,0,0,0,1.215.786,1.151,1.151,0,0,0,.928-.428,1.505,1.505,0,0,0,.357-.929,1.3,1.3,0,0,0-1.071-1.285h-.143V99.043a.153.153,0,0,0-.142-.143c-.072,0-.072.072-.072.143v1.714a.153.153,0,0,0,.143.142,1.071,1.071,0,0,1,0,2.143,1.208,1.208,0,0,1-1-.643c0-.071,0-.071-.072-.071H86.15c-.071,0-.071,0-.071.071.071,0,.071,0,.071.072Z" transform="translate(-0.075 -1.759)" fill="#d46b09"/>
    <path id="路径_8674" data-name="路径 8674" d="M86.861,92.286h1.428A.675.675,0,0,1,89,93v4.285a.675.675,0,0,1-.714.714H86.861a.675.675,0,0,1-.714-.714V93A.675.675,0,0,1,86.861,92.286Z" transform="translate(-0.143 -0.715)" fill="#ffc53d"/>
    <path id="路径_8675" data-name="路径 8675" d="M86,90.571h17.853a.675.675,0,0,1,.714.715v1.428a.674.674,0,0,1-.714.714H86a.674.674,0,0,1-.714-.714V91.286A.675.675,0,0,1,86,90.571Z" transform="translate(0 -0.429)" fill="#ffd666"/>
    <path id="路径_8676" data-name="路径 8676" d="M95.432,88h2.857a.675.675,0,0,1,.714.714v16.425a.675.675,0,0,1-.714.715H95.432a.675.675,0,0,1-.714-.715V88.714A.675.675,0,0,1,95.432,88Z" transform="translate(-1.573 0)" fill="#ffc53d"/>
    <path id="路径_8677" data-name="路径 8677" d="M87.718,108.571h15.711a.675.675,0,0,1,.714.715v1.428a.675.675,0,0,1-.714.714H87.718a.675.675,0,0,1-.714-.714v-1.428A.675.675,0,0,1,87.718,108.571Z" transform="translate(-0.286 -3.432)" fill="#faad14"/>
    <path id="路径_8678" data-name="路径 8678" d="M91.147,106h10a.675.675,0,0,1,.714.714v1.428a.675.675,0,0,1-.714.715h-10a.675.675,0,0,1-.715-.715v-1.428A.675.675,0,0,1,91.147,106Z" transform="translate(-0.858 -3.003)" fill="#faad14"/>
  </g>
</svg>
