<svg xmlns="http://www.w3.org/2000/svg" width="24" height="28" viewBox="0 0 24 28">
  <g id="file-unknown" transform="translate(8028 -5546)">
    <g id="全部文件_-_11" data-name="全部文件 - 11" transform="translate(-8032 5544)">
      <path id="路径_8771" data-name="路径 8771" d="M7,2H20l8,8V27a3,3,0,0,1-3,3H7a3,3,0,0,1-3-3V5A3,3,0,0,1,7,2Z" fill="#e6e8eb"/>
      <path id="路径_8772" data-name="路径 8772" d="M20,2l8,8H23a3,3,0,0,1-3-3Z" fill="#c6c8cc" fill-rule="evenodd"/>
      <g id="组_16162" data-name="组 16162" opacity="0.3">
        <path id="路径_8773" data-name="路径 8773" d="M16,21.866c-.2,0-.4,0-.592-.007v.863a.592.592,0,0,0,1.184,0v-.863c-.2,0-.394.007-.592.007Zm-3.9-.316-.341.976a.592.592,0,0,0,1.118.391l.419-1.2q-.6-.067-1.2-.17Zm8.145.976-.341-.975q-.6.1-1.2.17l.42,1.2a.592.592,0,1,0,1.117-.39Zm-.081-6.6a4.285,4.285,0,0,1,.163,1.178,1.183,1.183,0,0,1-.7,1.081,9.694,9.694,0,0,1-3.587.721,9.7,9.7,0,0,1-3.587-.72,1.184,1.184,0,0,1-.7-1.082,4.327,4.327,0,0,1,.168-1.194c-1.58.317-3.414.954-3.414,2.2,0,.84.825,1.5,2.453,1.967a13.3,13.3,0,0,0,1.542.337c.383.063.785.115,1.2.155q1.149.112,2.305.11t2.305-.11c.415-.04.817-.092,1.2-.155a13.363,13.363,0,0,0,1.543-.337c1.627-.466,2.452-1.127,2.452-1.967,0-1.228-1.79-1.863-3.338-2.183Z" fill="#455166" fill-rule="evenodd"/>
        <path id="路径_8774" data-name="路径 8774" d="M18.844,15.781a3.107,3.107,0,0,0-5.913,1.327,8.109,8.109,0,0,0,6.21,0,3.1,3.1,0,0,0-.3-1.327Z" fill="#455166" fill-rule="evenodd"/>
      </g>
    </g>
  </g>
</svg>
