<svg xmlns="http://www.w3.org/2000/svg" width="24" height="28" viewBox="0 0 24 28">
  <g id="file-doc" transform="translate(-6 -4)">
    <path id="_3" data-name="3" d="M7,2H20l8,8V27a3,3,0,0,1-3,3H7a3,3,0,0,1-3-3V5A3,3,0,0,1,7,2Z" transform="translate(2 2)" fill="#1b63d1"/>
    <path id="_2" data-name="2" d="M10.474,23a2.335,2.335,0,0,0,1.728-.63,2.146,2.146,0,0,0,.612-1.188,4.811,4.811,0,0,0,.054-.666v-1.44a4.811,4.811,0,0,0-.054-.666,2.146,2.146,0,0,0-.612-1.188,2.335,2.335,0,0,0-1.728-.63H8.1V23h2.376Zm-.108-1.4H9.673V18h.693a.848.848,0,0,1,.756.36.905.905,0,0,1,.135.378,10.212,10.212,0,0,1,.036,1.062v.186a8.63,8.63,0,0,1-.036.876.9.9,0,0,1-.135.378.848.848,0,0,1-.756.36Zm5.823,1.458a2.431,2.431,0,0,0,1.791-.72,2.116,2.116,0,0,0,.576-1.161,4.053,4.053,0,0,0,.063-.666q.01-.175.009-.351v-.72q0-.176-.009-.351a4.053,4.053,0,0,0-.063-.666,2.116,2.116,0,0,0-.576-1.161,2.588,2.588,0,0,0-3.582,0,2.116,2.116,0,0,0-.576,1.161,4.053,4.053,0,0,0-.063.666q-.01.175-.009.351v.72q0,.2.009.351a4.053,4.053,0,0,0,.063.666,2.116,2.116,0,0,0,.576,1.161A2.431,2.431,0,0,0,16.189,23.054Zm0-1.4a.739.739,0,0,1-.63-.288.784.784,0,0,1-.1-.162,1.064,1.064,0,0,1-.072-.252,7.232,7.232,0,0,1-.063-1.152V19.6a6.248,6.248,0,0,1,.062-.957.938.938,0,0,1,.171-.423.851.851,0,0,1,1.26,0,.938.938,0,0,1,.171.423,7.232,7.232,0,0,1,.063,1.152,7.231,7.231,0,0,1-.063,1.152,1.064,1.064,0,0,1-.072.252.784.784,0,0,1-.1.162.739.739,0,0,1-.63.288Zm5.751,1.4a2.314,2.314,0,0,0,2.43-2.088h-1.6a1.084,1.084,0,0,1-.252.477.766.766,0,0,1-.567.207.733.733,0,0,1-.621-.27.784.784,0,0,1-.1-.162,1.7,1.7,0,0,1-.081-.261,7.524,7.524,0,0,1-.063-1.161,7.524,7.524,0,0,1,.063-1.161,1.7,1.7,0,0,1,.081-.261.784.784,0,0,1,.1-.162.733.733,0,0,1,.621-.27.766.766,0,0,1,.567.207,1.085,1.085,0,0,1,.252.477h1.6a2.314,2.314,0,0,0-2.43-2.088,2.42,2.42,0,0,0-1.782.72,2.116,2.116,0,0,0-.576,1.161,4.053,4.053,0,0,0-.063.666q-.01.175-.009.351v.72q0,.2.009.351a4.053,4.053,0,0,0,.063.666,2.116,2.116,0,0,0,.576,1.161,2.42,2.42,0,0,0,1.782.72Z" transform="translate(2 2)" fill="#fff" opacity="0.9"/>
    <path id="_1" data-name="1" d="M20,2l8,8H23a3,3,0,0,1-3-3Z" transform="translate(2 2)" fill="#fff" fill-rule="evenodd" opacity="0.4"/>
  </g>
</svg>
