<svg xmlns="http://www.w3.org/2000/svg" width="24" height="28" viewBox="0 0 24 28">
  <g id="file-pdf" transform="translate(-6 -4)">
    <path id="_3" data-name="3" d="M7,2H20l8,8V27a3,3,0,0,1-3,3H7a3,3,0,0,1-3-3V5A3,3,0,0,1,7,2Z" transform="translate(2 2)" fill="#dd3633"/>
    <path id="_2" data-name="2" d="M9.79,23V20.714h.963a2.151,2.151,0,0,0,1.629-.639,2.091,2.091,0,0,0,0-2.844,2.151,2.151,0,0,0-1.629-.639H8.215V23Zm.891-3.7H9.79v-1.3h.891q.684,0,.684.648t-.684.648ZM16.234,23a2.335,2.335,0,0,0,1.728-.63,2.146,2.146,0,0,0,.612-1.188,4.811,4.811,0,0,0,.054-.666v-1.44a4.811,4.811,0,0,0-.054-.666,2.146,2.146,0,0,0-.612-1.188,2.335,2.335,0,0,0-1.728-.63H13.858V23Zm-.108-1.4h-.693V18h.693a.848.848,0,0,1,.756.36.905.905,0,0,1,.135.378,10.212,10.212,0,0,1,.036,1.062v.186a8.629,8.629,0,0,1-.036.876.905.905,0,0,1-.135.378.848.848,0,0,1-.756.36ZM21.292,23V20.525h2.376v-1.4H21.292V18h2.781v-1.4H19.717V23Z" transform="translate(2 2)" fill="#fff" opacity="0.9"/>
    <path id="_1" data-name="1" d="M20,2l8,8H23a3,3,0,0,1-3-3Z" transform="translate(2 2)" fill="#fff" fill-rule="evenodd" opacity="0.4"/>
  </g>
</svg>
