<svg xmlns="http://www.w3.org/2000/svg" width="24" height="28" viewBox="0 0 24 28">
  <g id="file-zip" transform="translate(-4 -2)">
    <path id="路径_8767" data-name="路径 8767" d="M7,2H20l8,8V27a3,3,0,0,1-3,3H7a3,3,0,0,1-3-3V5A3,3,0,0,1,7,2Z" fill="#ffc642"/>
    <path id="路径_8768" data-name="路径 8768" d="M9,18v2h2V18Zm2-2v2h2V16ZM9,14v2h2V14Zm2-2v2h2V12ZM9,10v2h2V10Zm2-2v2h2V8ZM9,6V8h2V6Zm2-2V6h2V4ZM9,2V4h2V2Z" fill="#fff" fill-rule="evenodd" opacity="0.9"/>
    <path id="路径_8769" data-name="路径 8769" d="M20,2l8,8H23a3,3,0,0,1-3-3Z" fill="#fff" fill-rule="evenodd" opacity="0.4"/>
  </g>
</svg>
