<svg xmlns="http://www.w3.org/2000/svg" xmlns:xlink="http://www.w3.org/1999/xlink" width="980" height="490" viewBox="0 0 980 490">
  <defs>
    <filter id="矩形_4893" x="38.5" y="41.5" width="903" height="413" filterUnits="userSpaceOnUse">
      <feOffset dy="3" input="SourceAlpha"/>
      <feGaussianBlur stdDeviation="3" result="blur"/>
      <feFlood flood-opacity="0.161"/>
      <feComposite operator="in" in2="blur"/>
      <feComposite in="SourceGraphic"/>
    </filter>
    <clipPath id="clip-a-2">
      <rect width="980" height="490"/>
    </clipPath>
  </defs>
  <g id="a-2" clip-path="url(#clip-a-2)">
    <rect width="980" height="490" fill="#fff"/>
    <g id="组件_443_10" data-name="组件 443 – 10">
      <g id="矩形_4553" data-name="矩形 4553" fill="#f5f7fc" stroke="#edeff6" stroke-width="1">
        <rect width="980" height="490" rx="4" stroke="none"/>
        <rect x="0.5" y="0.5" width="979" height="489" rx="3.5" fill="none"/>
      </g>
    </g>
    <g id="组_15851" data-name="组 15851" transform="translate(474 405)">
      <text id="底部" transform="translate(16 14)" fill="rgba(0,0,0,0.8)" font-size="16" font-family="MicrosoftYaHeiUI, Microsoft YaHei UI"><tspan x="-16" y="0">底部</tspan></text>
    </g>
    <g id="组_15852" data-name="组 15852">
      <g transform="matrix(1, 0, 0, 1, 0, 0)" filter="url(#矩形_4893)">
        <rect id="矩形_4893-2" data-name="矩形 4893" width="884" height="394" rx="4" transform="translate(48 48)" fill="#fff" stroke="#e9eaed" stroke-width="1"/>
      </g>
      <path id="矩形_4896" data-name="矩形 4896" d="M4,0H881a4,4,0,0,1,4,4V20a0,0,0,0,1,0,0H0a0,0,0,0,1,0,0V4A4,4,0,0,1,4,0Z" transform="translate(48 48)" fill="#eceded"/>
      <g id="组_15849" data-name="组 15849" transform="translate(1174 13281.25)">
        <circle id="椭圆_482" data-name="椭圆 482" cx="4.5" cy="4.5" r="4.5" transform="translate(-1116 -13228)" fill="#fa664c"/>
        <circle id="椭圆_483" data-name="椭圆 483" cx="4.5" cy="4.5" r="4.5" transform="translate(-1103 -13228)" fill="#fbda32"/>
        <circle id="椭圆_484" data-name="椭圆 484" cx="4.5" cy="4.5" r="4.5" transform="translate(-1090 -13228)" fill="#5ac262"/>
      </g>
      <g id="矩形_4901" data-name="矩形 4901" transform="translate(164 124)" fill="rgba(55,124,253,0.05)" stroke="rgba(55,124,253,0.2)" stroke-width="1" stroke-dasharray="4">
        <rect width="653" height="262" stroke="none"/>
        <rect x="0.5" y="0.5" width="652" height="261" fill="none"/>
      </g>
      <rect id="矩形_4894" data-name="矩形 4894" width="884" height="56" transform="translate(48 68)" fill="#377CFD"/>
      <path id="矩形_4895" data-name="矩形 4895" d="M0,0H884a0,0,0,0,1,0,0V52a4,4,0,0,1-4,4H4a4,4,0,0,1-4-4V0A0,0,0,0,1,0,0Z" transform="translate(48 386)" fill="#f4f5f5"/>
      <text id="顶部导航" transform="translate(490 102.5)" fill="#fff" font-size="16" font-family="MicrosoftYaHeiUI, Microsoft YaHei UI"><tspan x="-32" y="0">顶部导航</tspan></text>
      <g id="组_15850" data-name="组 15850" transform="translate(440 206.4)">
        <text id="内容区域_Auto" data-name="内容区域 Auto" transform="translate(51 14)" fill="rgba(0,0,0,0.8)" font-size="16" font-family="MicrosoftYaHeiUI, Microsoft YaHei UI"><tspan x="-52.992" y="0">内容区域 Auto</tspan></text>
        <text id="_自适应_" data-name="（自适应）" transform="translate(51 38)" fill="rgba(0,0,0,0.8)" font-size="16" font-family="MicrosoftYaHeiUI, Microsoft YaHei UI"><tspan x="-40" y="0">（自适应）</tspan></text>
      </g>
      <g id="组件_450_1" data-name="组件 450 – 1" transform="translate(164 261.089)" opacity="0.4">
        <path id="联合_75" data-name="联合 75" d="M632,21V12.5H21V21h0L0,10.5,21,0V9.5H632V0l21,10.5L632,21h0Z" fill="#377CFD"/>
      </g>
    </g>
  </g>
</svg>
