<svg xmlns="http://www.w3.org/2000/svg" xmlns:xlink="http://www.w3.org/1999/xlink" width="980" height="589" viewBox="0 0 980 589">
  <defs>
    <filter id="矩形_4893" x="38.5" y="41.5" width="903" height="511" filterUnits="userSpaceOnUse">
      <feOffset dy="3" input="SourceAlpha"/>
      <feGaussianBlur stdDeviation="3" result="blur"/>
      <feFlood flood-opacity="0.161"/>
      <feComposite operator="in" in2="blur"/>
      <feComposite in="SourceGraphic"/>
    </filter>
    <clipPath id="clip-b-1">
      <rect width="980" height="589"/>
    </clipPath>
  </defs>
  <g id="b-1" clip-path="url(#clip-b-1)">
    <rect width="980" height="589" fill="#fff"/>
    <g id="组件_443_12" data-name="组件 443 – 12">
      <g id="矩形_4553" data-name="矩形 4553" fill="#f5f7fc" stroke="#edeff6" stroke-width="1">
        <rect width="980" height="589" rx="4" stroke="none"/>
        <rect x="0.5" y="0.5" width="979" height="588" rx="3.5" fill="none"/>
      </g>
    </g>
    <g id="组_15854" data-name="组 15854" transform="translate(-16 -22)">
      <g transform="matrix(1, 0, 0, 1, 16, 22)" filter="url(#矩形_4893)">
        <rect id="矩形_4893-2" data-name="矩形 4893" width="884" height="492" rx="4" transform="translate(48 48)" fill="#fff" stroke="#e9eaed" stroke-width="1"/>
      </g>
      <g id="矩形_4903" data-name="矩形 4903" transform="translate(791 146)" fill="rgba(55,124,253,0.05)" stroke="rgba(55,124,253,0.2)" stroke-width="1" stroke-dasharray="4" style="mix-blend-mode: luminosity;isolation: isolate">
        <rect width="157" height="416" stroke="none"/>
        <rect x="0.5" y="0.5" width="156" height="415" fill="none"/>
      </g>
      <path id="矩形_4896" data-name="矩形 4896" d="M4,0H881a4,4,0,0,1,4,4V20a0,0,0,0,1,0,0H0a0,0,0,0,1,0,0V4A4,4,0,0,1,4,0Z" transform="translate(64 70)" fill="#eceded"/>
      <g id="组_15849" data-name="组 15849" transform="translate(1190 13303.25)">
        <circle id="椭圆_482" data-name="椭圆 482" cx="4.5" cy="4.5" r="4.5" transform="translate(-1116 -13228)" fill="#fa664c"/>
        <circle id="椭圆_483" data-name="椭圆 483" cx="4.5" cy="4.5" r="4.5" transform="translate(-1103 -13228)" fill="#fbda32"/>
        <circle id="椭圆_484" data-name="椭圆 484" cx="4.5" cy="4.5" r="4.5" transform="translate(-1090 -13228)" fill="#5ac262"/>
      </g>
      <g id="矩形_4901" data-name="矩形 4901" transform="translate(64 146)" fill="rgba(55,124,253,0.2)" stroke="rgba(55,124,253,0.2)" stroke-width="1" stroke-dasharray="4">
        <rect width="91" height="416" stroke="none"/>
        <rect x="0.5" y="0.5" width="90" height="415" fill="none"/>
      </g>
      <g id="矩形_4902" data-name="矩形 4902" transform="translate(154 146)" fill="rgba(55,124,253,0.15)" stroke="rgba(55,124,253,0.2)" stroke-width="1" stroke-dasharray="4" opacity="0.5">
        <rect width="156" height="416" stroke="none"/>
        <rect x="0.5" y="0.5" width="155" height="415" fill="none"/>
      </g>
      <rect id="矩形_4894" data-name="矩形 4894" width="884" height="56" transform="translate(64 90)" fill="#377CFD"/>
      <text id="顶部导航" transform="translate(506 124.5)" fill="#fff" font-size="16" font-family="MicrosoftYaHeiUI, Microsoft YaHei UI"><tspan x="-32" y="0">顶部导航</tspan></text>
      <g id="矩形_4904" data-name="矩形 4904" transform="translate(696 354)" fill="rgba(55,124,253,0.15)" stroke="rgba(55,124,253,0.2)" stroke-width="1" stroke-dasharray="4">
        <rect width="253" height="208" stroke="none"/>
        <rect x="0.5" y="0.5" width="252" height="207" fill="none"/>
      </g>
      <g id="组_15850" data-name="组 15850" transform="translate(500 334)">
        <text id="内容区域_Auto" data-name="内容区域 Auto" transform="translate(51 14)" fill="rgba(0,0,0,0.8)" font-size="16" font-family="MicrosoftYaHeiUI, Microsoft YaHei UI"><tspan x="-52.992" y="0">内容区域 Auto</tspan></text>
        <text id="_自适应_" data-name="（自适应）" transform="translate(51 38)" fill="rgba(0,0,0,0.8)" font-size="16" font-family="MicrosoftYaHeiUI, Microsoft YaHei UI"><tspan x="-40" y="0">（自适应）</tspan></text>
      </g>
      <text id="一级_导航" data-name="一级
导航" transform="translate(109 350)" fill="#377CFD" font-size="16" font-family="MicrosoftYaHeiUI, Microsoft YaHei UI"><tspan x="-16" y="0">一级</tspan><tspan x="-16" y="20">导航</tspan></text>
      <text id="浮层" transform="translate(823 464)" fill="#377CFD" font-size="16" font-family="MicrosoftYaHeiUI, Microsoft YaHei UI"><tspan x="-16" y="0">浮层</tspan></text>
      <text id="二级_导航" data-name="二级
导航" transform="translate(232 350)" fill="#377CFD" font-size="16" font-family="MicrosoftYaHeiUI, Microsoft YaHei UI"><tspan x="-16" y="0">二级</tspan><tspan x="-16" y="20">导航</tspan></text>
      <g id="组_15853" data-name="组 15853" transform="translate(819 270)">
        <text id="辅助功能区" transform="translate(51 14)" fill="rgba(0,0,0,0.8)" font-size="16" font-family="MicrosoftYaHeiUI, Microsoft YaHei UI"><tspan x="-40" y="0">辅助功能区</tspan></text>
      </g>
    </g>
  </g>
</svg>
