<svg xmlns="http://www.w3.org/2000/svg" xmlns:xlink="http://www.w3.org/1999/xlink" width="980" height="240" viewBox="0 0 980 240">
  <defs>
    <clipPath id="clip-c-1">
      <rect width="980" height="240"/>
    </clipPath>
  </defs>
  <g id="c-1" clip-path="url(#clip-c-1)">
    <rect width="980" height="240" fill="#fff"/>
    <g id="组件_443_14" data-name="组件 443 – 14">
      <g id="矩形_4553" data-name="矩形 4553" fill="#f5f7fc" stroke="#edeff6" stroke-width="1">
        <rect width="980" height="240" rx="4" stroke="none"/>
        <rect x="0.5" y="0.5" width="979" height="239" rx="3.5" fill="none"/>
      </g>
    </g>
    <g id="组_15863" data-name="组 15863">
      <g id="组_15862" data-name="组 15862" transform="translate(-2 -13)">
        <g id="组_15859" data-name="组 15859">
          <rect id="矩形_4905" data-name="矩形 4905" width="54" height="184" transform="translate(900 41)" fill="#377CFD" opacity="0.1"/>
          <rect id="矩形_4905-2" data-name="矩形 4905" width="54" height="184" transform="translate(842 41)" fill="#377CFD" opacity="0.1"/>
          <rect id="矩形_4905-3" data-name="矩形 4905" width="54" height="184" transform="translate(784 41)" fill="#377CFD" opacity="0.1"/>
          <rect id="矩形_4905-4" data-name="矩形 4905" width="54" height="184" transform="translate(726 41)" fill="#377CFD" opacity="0.1"/>
          <rect id="矩形_4905-5" data-name="矩形 4905" width="54" height="184" transform="translate(668 41)" fill="#377CFD" opacity="0.1"/>
          <rect id="矩形_4905-6" data-name="矩形 4905" width="54" height="184" transform="translate(610 41)" fill="#377CFD" opacity="0.1"/>
          <rect id="矩形_4905-7" data-name="矩形 4905" width="54" height="184" transform="translate(552 41)" fill="#377CFD" opacity="0.1"/>
          <rect id="矩形_4905-8" data-name="矩形 4905" width="54" height="184" transform="translate(494 41)" fill="#377CFD" opacity="0.1"/>
          <rect id="矩形_4905-9" data-name="矩形 4905" width="54" height="184" transform="translate(436 41)" fill="#377CFD" opacity="0.1"/>
          <rect id="矩形_4906" data-name="矩形 4906" width="54" height="184" transform="translate(378 41)" fill="#377CFD" opacity="0.1"/>
          <rect id="矩形_4905-10" data-name="矩形 4905" width="54" height="184" transform="translate(320 41)" fill="#377CFD" opacity="0.1"/>
          <rect id="矩形_4905-11" data-name="矩形 4905" width="54" height="184" transform="translate(262 41)" fill="#377CFD" opacity="0.1"/>
          <rect id="矩形_4905-12" data-name="矩形 4905" width="54" height="184" transform="translate(204 41)" fill="#377CFD" opacity="0.1"/>
          <rect id="矩形_4905-13" data-name="矩形 4905" width="54" height="184" transform="translate(146 41)" fill="#377CFD" opacity="0.1"/>
          <rect id="矩形_4905-14" data-name="矩形 4905" width="54" height="184" transform="translate(88 41)" fill="#377CFD" opacity="0.1"/>
          <g id="组_15860" data-name="组 15860" transform="translate(0 41)">
            <rect id="矩形_4905-15" data-name="矩形 4905" width="54" height="184" transform="translate(30)" fill="#377CFD" opacity="0.1"/>
            <rect id="矩形_4907" data-name="矩形 4907" width="54" height="184" transform="translate(30)" fill="#377CFD" opacity="0.1"/>
          </g>
        </g>
        <g id="组_15861" data-name="组 15861">
          <rect id="矩形_4911" data-name="矩形 4911" width="924" height="43" transform="translate(30 182)" fill="#377CFD" opacity="0.05"/>
          <rect id="矩形_4910" data-name="矩形 4910" width="924" height="43" transform="translate(30 135)" fill="#377CFD" opacity="0.05"/>
          <rect id="矩形_4909" data-name="矩形 4909" width="924" height="43" transform="translate(30 88)" fill="#377CFD" opacity="0.05"/>
          <rect id="矩形_4908" data-name="矩形 4908" width="924" height="43" transform="translate(30 41)" fill="#377CFD" opacity="0.1"/>
        </g>
      </g>
      <g id="组件_452_2" data-name="组件 452 – 2" transform="translate(36 36)">
        <g id="组_13975" data-name="组 13975" transform="translate(-21)">
          <rect id="矩形_4594" data-name="矩形 4594" width="37" height="30" rx="4" transform="translate(21 -2)" fill="#333"/>
          <text id="列" transform="translate(39 18)" fill="#fff" font-size="13" font-family="MicrosoftYaHeiUI, Microsoft YaHei UI"><tspan x="-6.5" y="0">列</tspan></text>
        </g>
        <path id="减去_78" data-name="减去 78" d="M5,4.692H5L0,0H10L5,4.691Z" transform="translate(14 27)" fill="#333"/>
      </g>
      <g id="组件_452_3" data-name="组件 452 – 3" transform="translate(903.308 36)">
        <g id="组_13975-2" data-name="组 13975" transform="translate(-16.308)">
          <rect id="矩形_4594-2" data-name="矩形 4594" width="37" height="30" rx="4" transform="translate(21 -2)" fill="#333"/>
          <text id="行" transform="translate(39 18)" fill="#fff" font-size="13" font-family="MicrosoftYaHeiUI, Microsoft YaHei UI"><tspan x="-6.5" y="0">行</tspan></text>
        </g>
        <path id="减去_78-2" data-name="减去 78" d="M5,4.692H5L0,0H10L5,4.691Z" transform="translate(4.692 9) rotate(90)" fill="#333"/>
      </g>
    </g>
  </g>
</svg>
