<svg xmlns="http://www.w3.org/2000/svg" xmlns:xlink="http://www.w3.org/1999/xlink" width="980" height="240" viewBox="0 0 980 240">
  <defs>
    <clipPath id="clip-c-2">
      <rect width="980" height="240"/>
    </clipPath>
  </defs>
  <g id="c-2" clip-path="url(#clip-c-2)">
    <rect width="980" height="240" fill="#fff"/>
    <g id="组件_443_15" data-name="组件 443 – 15">
      <g id="矩形_4553" data-name="矩形 4553" fill="#f5f7fc" stroke="#edeff6" stroke-width="1">
        <rect width="980" height="240" rx="4" stroke="none"/>
        <rect x="0.5" y="0.5" width="979" height="239" rx="3.5" fill="none"/>
      </g>
    </g>
    <rect id="矩形_4905" data-name="矩形 4905" width="54" height="184" transform="translate(898 28)" fill="#377CFD" opacity="0.1"/>
    <rect id="矩形_4905-2" data-name="矩形 4905" width="54" height="184" transform="translate(840 28)" fill="#377CFD" opacity="0.1"/>
    <rect id="矩形_4905-3" data-name="矩形 4905" width="54" height="184" transform="translate(782 28)" fill="#377CFD" opacity="0.1"/>
    <rect id="矩形_4905-4" data-name="矩形 4905" width="54" height="184" transform="translate(724 28)" fill="#377CFD" opacity="0.1"/>
    <rect id="矩形_4905-5" data-name="矩形 4905" width="54" height="184" transform="translate(666 28)" fill="#377CFD" opacity="0.1"/>
    <rect id="矩形_4905-6" data-name="矩形 4905" width="54" height="184" transform="translate(608 28)" fill="#377CFD" opacity="0.1"/>
    <rect id="矩形_4905-7" data-name="矩形 4905" width="54" height="184" transform="translate(550 28)" fill="#377CFD" opacity="0.1"/>
    <rect id="矩形_4905-8" data-name="矩形 4905" width="54" height="184" transform="translate(492 28)" fill="#377CFD" opacity="0.1"/>
    <rect id="矩形_4905-9" data-name="矩形 4905" width="54" height="184" transform="translate(434 28)" fill="#377CFD" opacity="0.1"/>
    <rect id="矩形_4906" data-name="矩形 4906" width="54" height="184" transform="translate(376 28)" fill="#377CFD" opacity="0.1"/>
    <rect id="矩形_4905-10" data-name="矩形 4905" width="54" height="184" transform="translate(318 28)" fill="#377CFD" opacity="0.1"/>
    <rect id="矩形_4905-11" data-name="矩形 4905" width="54" height="184" transform="translate(260 28)" fill="#377CFD" opacity="0.1"/>
    <rect id="矩形_4905-12" data-name="矩形 4905" width="54" height="184" transform="translate(202 28)" fill="#377CFD" opacity="0.1"/>
    <rect id="矩形_4905-13" data-name="矩形 4905" width="54" height="184" transform="translate(144 28)" fill="#377CFD" opacity="0.1"/>
    <rect id="矩形_4905-14" data-name="矩形 4905" width="54" height="184" transform="translate(86 28)" fill="#377CFD" opacity="0.1"/>
    <rect id="矩形_4905-15" data-name="矩形 4905" width="54" height="184" transform="translate(28 28)" fill="#377CFD" opacity="0.1"/>
    <rect id="矩形_4907" data-name="矩形 4907" width="54" height="184" transform="translate(86 28)" fill="#377CFD" opacity="0.1"/>
    <rect id="矩形_4912" data-name="矩形 4912" width="54" height="184" transform="translate(260 28)" fill="#377CFD" opacity="0.1"/>
    <rect id="矩形_4913" data-name="矩形 4913" width="4" height="184" transform="translate(372 28)" fill="#cfe0fc"/>
    <g id="组件_452_4" data-name="组件 452 – 4" transform="translate(54 36)">
      <g id="组_13975" data-name="组 13975" transform="translate(20)">
        <rect id="矩形_4594" data-name="矩形 4594" width="124" height="30" rx="4" transform="translate(-23 -2)" fill="#333"/>
        <text id="_1列_1小列_间隙" data-name="1列=1小列+间隙" transform="translate(39 18)" fill="#fff" font-size="13" font-family="MicrosoftYaHeiUI, Microsoft YaHei UI"><tspan x="-49.766" y="0">1列=1小列+间隙</tspan></text>
      </g>
      <path id="减去_78" data-name="减去 78" d="M5,4.692H5L0,0H10L5,4.691Z" transform="translate(55 27)" fill="#333"/>
    </g>
    <g id="组件_452_6" data-name="组件 452 – 6" transform="translate(261 36)">
      <g id="组_13975-2" data-name="组 13975" transform="translate(-14)">
        <rect id="矩形_4594-2" data-name="矩形 4594" width="50" height="30" rx="4" transform="translate(14 -2)" fill="#333"/>
        <text id="小列" transform="translate(39 18)" fill="#fff" font-size="13" font-family="MicrosoftYaHeiUI, Microsoft YaHei UI"><tspan x="-13" y="0">小列</tspan></text>
      </g>
      <path id="减去_78-2" data-name="减去 78" d="M5,4.692H5L0,0H10L5,4.691Z" transform="translate(21 27)" fill="#333"/>
    </g>
    <g id="组件_452_7" data-name="组件 452 – 7" transform="translate(348 36)">
      <g id="组_13975-3" data-name="组 13975" transform="translate(-14)">
        <rect id="矩形_4594-3" data-name="矩形 4594" width="50" height="30" rx="4" transform="translate(14 -2)" fill="#333"/>
        <text id="间隙" transform="translate(39 18)" fill="#fff" font-size="13" font-family="MicrosoftYaHeiUI, Microsoft YaHei UI"><tspan x="-13" y="0">间隙</tspan></text>
      </g>
      <path id="减去_78-3" data-name="减去 78" d="M5,4.692H5L0,0H10L5,4.691Z" transform="translate(21 27)" fill="#333"/>
    </g>
  </g>
</svg>
