<svg xmlns="http://www.w3.org/2000/svg" xmlns:xlink="http://www.w3.org/1999/xlink" width="980" height="645" viewBox="0 0 980 645">
  <defs>
    <clipPath id="clip-c-4">
      <rect width="980" height="645"/>
    </clipPath>
  </defs>
  <g id="c-4" clip-path="url(#clip-c-4)">
    <rect width="980" height="645" fill="#fff"/>
    <g id="组件_443_17" data-name="组件 443 – 17">
      <g id="矩形_4553" data-name="矩形 4553" fill="#f5f7fc" stroke="#edeff6" stroke-width="1">
        <rect width="980" height="645" rx="4" stroke="none"/>
        <rect x="0.5" y="0.5" width="979" height="644" rx="3.5" fill="none"/>
      </g>
    </g>
    <g id="组_15865" data-name="组 15865" transform="translate(0 55)">
      <g id="矩形_4929" data-name="矩形 4929" transform="translate(28 28)" fill="#fff" stroke="#e9eaed" stroke-width="1">
        <rect width="925" height="538" stroke="none"/>
        <rect x="-0.5" y="-0.5" width="926" height="539" fill="none"/>
      </g>
      <rect id="矩形_4914" data-name="矩形 4914" width="926" height="75" transform="translate(28 28)" fill="#f3f3f3"/>
      <rect id="矩形_4915" data-name="矩形 4915" width="113" height="463" transform="translate(28 103)" fill="#f8f8f8" opacity="0.9" style="mix-blend-mode: multiply;isolation: isolate"/>
      <rect id="矩形_4946" data-name="矩形 4946" width="32" height="463" transform="translate(901 103)" fill="#377CFD" opacity="0.07"/>
      <rect id="矩形_4945" data-name="矩形 4945" width="32" height="463" transform="translate(857 103)" fill="#377CFD" opacity="0.07"/>
      <rect id="矩形_4944" data-name="矩形 4944" width="32" height="463" transform="translate(813 103)" fill="#377CFD" opacity="0.07"/>
      <rect id="矩形_4943" data-name="矩形 4943" width="32" height="463" transform="translate(769 103)" fill="#377CFD" opacity="0.07"/>
      <rect id="矩形_4942" data-name="矩形 4942" width="32" height="463" transform="translate(725 103)" fill="#377CFD" opacity="0.07"/>
      <rect id="矩形_4941" data-name="矩形 4941" width="32" height="463" transform="translate(681 103)" fill="#377CFD" opacity="0.07"/>
      <rect id="矩形_4940" data-name="矩形 4940" width="32" height="463" transform="translate(637 103)" fill="#377CFD" opacity="0.07"/>
      <rect id="矩形_4939" data-name="矩形 4939" width="32" height="463" transform="translate(593 103)" fill="#377CFD" opacity="0.07"/>
      <rect id="矩形_4925" data-name="矩形 4925" width="32" height="463" transform="translate(549 103)" fill="#377CFD" opacity="0.07"/>
      <rect id="矩形_4926" data-name="矩形 4926" width="32" height="463" transform="translate(505 103)" fill="#377CFD" opacity="0.07"/>
      <rect id="矩形_4920" data-name="矩形 4920" width="32" height="463" transform="translate(461 103)" fill="#377CFD" opacity="0.07"/>
      <rect id="矩形_4921" data-name="矩形 4921" width="32" height="463" transform="translate(417 103)" fill="#377CFD" opacity="0.07"/>
      <rect id="矩形_4922" data-name="矩形 4922" width="32" height="463" transform="translate(373 103)" fill="#377CFD" opacity="0.07"/>
      <rect id="矩形_4923" data-name="矩形 4923" width="32" height="463" transform="translate(329 103)" fill="#377CFD" opacity="0.07"/>
      <rect id="矩形_4918" data-name="矩形 4918" width="32" height="463" transform="translate(285 103)" fill="#377CFD" opacity="0.07"/>
      <rect id="矩形_4919" data-name="矩形 4919" width="32" height="463" transform="translate(241 103)" fill="#377CFD" opacity="0.07"/>
      <rect id="矩形_4917" data-name="矩形 4917" width="32" height="463" transform="translate(197 103)" fill="#377CFD" opacity="0.07"/>
      <rect id="矩形_4916" data-name="矩形 4916" width="32" height="463" transform="translate(153 103)" fill="#377CFD" opacity="0.07"/>
      <rect id="矩形_4930" data-name="矩形 4930" width="252" height="140" transform="translate(153 117)" fill="#377CFD" opacity="0.2"/>
      <rect id="矩形_4948" data-name="矩形 4948" width="252" height="140" transform="translate(417 117)" fill="#377CFD" opacity="0.2"/>
      <rect id="矩形_4952" data-name="矩形 4952" width="252" height="140" transform="translate(681 117)" fill="#377CFD" opacity="0.2"/>
      <rect id="矩形_4931" data-name="矩形 4931" width="384" height="140" transform="translate(153 271)" fill="#377CFD" opacity="0.2"/>
      <rect id="矩形_4953" data-name="矩形 4953" width="384" height="140" transform="translate(549 271)" fill="#377CFD" opacity="0.2"/>
      <rect id="矩形_4932" data-name="矩形 4932" width="779" height="141" transform="translate(154 425)" fill="#377CFD" opacity="0.2"/>
      <rect id="矩形_4936" data-name="矩形 4936" width="12" height="55" transform="translate(405 156)" fill="#377CFD"/>
      <rect id="矩形_4938" data-name="矩形 4938" width="12" height="55" transform="translate(141 314)" fill="#377CFD"/>
      <text id="Gutter_16" data-name="Gutter=16" transform="translate(466 190)" fill="rgba(0,0,0,0.8)" font-size="16" font-family="MicrosoftYaHeiUI, Microsoft YaHei UI"><tspan x="-39.75" y="0">Gutter=16</tspan></text>
      <text id="Margin_16" data-name="Margin=16" transform="translate(201 347)" fill="rgba(0,0,0,0.8)" font-size="16" font-family="MicrosoftYaHeiUI, Microsoft YaHei UI"><tspan x="-42.785" y="0">Margin=16</tspan></text>
      <text id="顶部导航_页签" data-name="顶部导航、页签" transform="translate(490 72)" fill="#333b44" font-size="16" font-family="MicrosoftYaHeiUI, Microsoft YaHei UI"><tspan x="-56" y="0">顶部导航、页签</tspan></text>
      <text id="左侧导航" transform="translate(81 341)" fill="#333b44" font-size="16" font-family="MicrosoftYaHeiUI, Microsoft YaHei UI"><tspan x="-32" y="0">左侧导航</tspan></text>
      <rect id="矩形_4914-2" data-name="矩形 4914" width="925" height="1" transform="translate(28 102)" fill="#e9eaed"/>
      <rect id="矩形_4951" data-name="矩形 4951" width="1" height="463" transform="translate(140 103)" fill="#e9eaed"/>
    </g>
    <g id="组_15850" data-name="组 15850" transform="translate(438 14)">
      <text id="宽度_1024-1200_" data-name="宽度（1024-1200）" transform="translate(51 30)" fill="rgba(0,0,0,0.8)" font-size="16" font-family="MicrosoftYaHeiUI, Microsoft YaHei UI"><tspan x="-72.992" y="0">宽度（1024-1200）</tspan></text>
    </g>
    <g id="组件_450_3" data-name="组件 450 – 3" transform="translate(27 62)" opacity="0.4">
      <path id="联合_75" data-name="联合 75" d="M6,10.5,13,7v3H923V7l7,3.5L923,14V11H13v3Z" transform="translate(-6 -7.001)" fill="rgba(0,0,0,0.8)"/>
    </g>
  </g>
</svg>
