<svg xmlns="http://www.w3.org/2000/svg" xmlns:xlink="http://www.w3.org/1999/xlink" width="980" height="645" viewBox="0 0 980 645">
  <defs>
    <clipPath id="clip-c-5">
      <rect width="980" height="645"/>
    </clipPath>
  </defs>
  <g id="c-5" clip-path="url(#clip-c-5)">
    <rect width="980" height="645" fill="#fff"/>
    <g id="组件_443_18" data-name="组件 443 – 18">
      <g id="矩形_4553" data-name="矩形 4553" fill="#f5f7fc" stroke="#edeff6" stroke-width="1">
        <rect width="980" height="645" rx="4" stroke="none"/>
        <rect x="0.5" y="0.5" width="979" height="644" rx="3.5" fill="none"/>
      </g>
    </g>
    <g id="矩形_4929" data-name="矩形 4929" transform="translate(28 83)" fill="#fff" stroke="#e9eaed" stroke-width="1">
      <rect width="925" height="538" stroke="none"/>
      <rect x="-0.5" y="-0.5" width="926" height="539" fill="none"/>
    </g>
    <g id="组_15868" data-name="组 15868">
      <rect id="矩形_4915" data-name="矩形 4915" width="127" height="463" transform="translate(28 158)" fill="#f8f8f8" opacity="0.9" style="mix-blend-mode: multiply;isolation: isolate"/>
      <rect id="矩形_4951" data-name="矩形 4951" width="1" height="463" transform="translate(154 158)" fill="#e9eaed"/>
    </g>
    <rect id="矩形_4914" data-name="矩形 4914" width="926" height="75" transform="translate(28 83)" fill="#f3f3f3"/>
    <rect id="矩形_4968" data-name="矩形 4968" width="27" height="463" transform="translate(920 158)" fill="#377CFD" opacity="0.07"/>
    <rect id="矩形_4965" data-name="矩形 4965" width="27" height="463" transform="translate(887 158)" fill="#377CFD" opacity="0.07"/>
    <rect id="矩形_4964" data-name="矩形 4964" width="27" height="463" transform="translate(854 158)" fill="#377CFD" opacity="0.07"/>
    <rect id="矩形_4963" data-name="矩形 4963" width="27" height="463" transform="translate(821 158)" fill="#377CFD" opacity="0.07"/>
    <rect id="矩形_4955" data-name="矩形 4955" width="27" height="463" transform="translate(788 158)" fill="#377CFD" opacity="0.07"/>
    <rect id="矩形_4954" data-name="矩形 4954" width="27" height="463" transform="translate(755 158)" fill="#377CFD" opacity="0.07"/>
    <rect id="矩形_4946" data-name="矩形 4946" width="27" height="463" transform="translate(722 158)" fill="#377CFD" opacity="0.07"/>
    <rect id="矩形_4945" data-name="矩形 4945" width="27" height="463" transform="translate(689 158)" fill="#377CFD" opacity="0.07"/>
    <rect id="矩形_4944" data-name="矩形 4944" width="27" height="463" transform="translate(656 158)" fill="#377CFD" opacity="0.07"/>
    <rect id="矩形_4943" data-name="矩形 4943" width="27" height="463" transform="translate(623 158)" fill="#377CFD" opacity="0.07"/>
    <rect id="矩形_4942" data-name="矩形 4942" width="27" height="463" transform="translate(590 158)" fill="#377CFD" opacity="0.07"/>
    <rect id="矩形_4941" data-name="矩形 4941" width="27" height="463" transform="translate(557 158)" fill="#377CFD" opacity="0.07"/>
    <rect id="矩形_4940" data-name="矩形 4940" width="27" height="463" transform="translate(524 158)" fill="#377CFD" opacity="0.07"/>
    <rect id="矩形_4939" data-name="矩形 4939" width="27" height="463" transform="translate(491 158)" fill="#377CFD" opacity="0.07"/>
    <rect id="矩形_4925" data-name="矩形 4925" width="27" height="463" transform="translate(458 158)" fill="#377CFD" opacity="0.07"/>
    <rect id="矩形_4926" data-name="矩形 4926" width="27" height="463" transform="translate(425 158)" fill="#377CFD" opacity="0.07"/>
    <rect id="矩形_4920" data-name="矩形 4920" width="27" height="463" transform="translate(392 158)" fill="#377CFD" opacity="0.07"/>
    <rect id="矩形_4921" data-name="矩形 4921" width="27" height="463" transform="translate(359 158)" fill="#377CFD" opacity="0.07"/>
    <rect id="矩形_4922" data-name="矩形 4922" width="27" height="463" transform="translate(326 158)" fill="#377CFD" opacity="0.07"/>
    <rect id="矩形_4923" data-name="矩形 4923" width="27" height="463" transform="translate(293 158)" fill="#377CFD" opacity="0.07"/>
    <rect id="矩形_4918" data-name="矩形 4918" width="27" height="463" transform="translate(260 158)" fill="#377CFD" opacity="0.07"/>
    <rect id="矩形_4919" data-name="矩形 4919" width="27" height="463" transform="translate(227 158)" fill="#377CFD" opacity="0.07"/>
    <rect id="矩形_4917" data-name="矩形 4917" width="27" height="463" transform="translate(194 158)" fill="#377CFD" opacity="0.07"/>
    <rect id="矩形_4916" data-name="矩形 4916" width="27" height="463" transform="translate(161 158)" fill="#377CFD" opacity="0.07"/>
    <rect id="矩形_4957" data-name="矩形 4957" width="258" height="140" transform="translate(161 172)" fill="#377CFD" opacity="0.2"/>
    <rect id="矩形_4977" data-name="矩形 4977" width="258" height="140" transform="translate(425 172)" fill="#377CFD" opacity="0.2"/>
    <rect id="矩形_4978" data-name="矩形 4978" width="258" height="140" transform="translate(689 172)" fill="#377CFD" opacity="0.2"/>
    <rect id="矩形_4931" data-name="矩形 4931" width="390" height="140" transform="translate(161 326)" fill="#377CFD" opacity="0.2"/>
    <rect id="矩形_4979" data-name="矩形 4979" width="390" height="140" transform="translate(557 326)" fill="#377CFD" opacity="0.2"/>
    <rect id="矩形_4932" data-name="矩形 4932" width="786" height="141" transform="translate(161 480)" fill="#377CFD" opacity="0.2"/>
    <rect id="矩形_4936" data-name="矩形 4936" width="6" height="55" transform="translate(419 211)" fill="#377CFD"/>
    <rect id="矩形_4980" data-name="矩形 4980" width="6" height="55" transform="translate(155 362)" fill="#377CFD"/>
    <text id="Gutter_8" data-name="Gutter=8" transform="translate(474 245)" fill="rgba(0,0,0,0.8)" font-size="16" font-family="MicrosoftYaHeiUI, Microsoft YaHei UI"><tspan x="-35.059" y="0">Gutter=8</tspan></text>
    <text id="Margin_8" data-name="Margin=8" transform="translate(173 395)" fill="rgba(0,0,0,0.8)" font-size="16" font-family="MicrosoftYaHeiUI, Microsoft YaHei UI"><tspan x="0" y="0">Margin=8</tspan></text>
    <text id="顶部导航_页签" data-name="顶部导航、页签" transform="translate(490 127)" fill="#333b44" font-size="16" font-family="MicrosoftYaHeiUI, Microsoft YaHei UI"><tspan x="-56" y="0">顶部导航、页签</tspan></text>
    <text id="左侧导航" transform="translate(92 396)" fill="#333b44" font-size="16" font-family="MicrosoftYaHeiUI, Microsoft YaHei UI"><tspan x="-32" y="0">左侧导航</tspan></text>
    <rect id="矩形_4914-2" data-name="矩形 4914" width="925" height="1" transform="translate(28 157)" fill="#e9eaed"/>
    <g id="组_15850" data-name="组 15850" transform="translate(438 14)">
      <text id="宽度小于1024" transform="translate(51 30)" fill="rgba(0,0,0,0.8)" font-size="16" font-family="MicrosoftYaHeiUI, Microsoft YaHei UI"><tspan x="-50.766" y="0">宽度小于1024</tspan></text>
    </g>
    <g id="组件_450_4" data-name="组件 450 – 4" transform="translate(27 62)" opacity="0.4">
      <path id="联合_75" data-name="联合 75" d="M6,10.5,13,7v3H923V7l7,3.5L923,14V11H13v3Z" transform="translate(-6 -7.001)" fill="rgba(0,0,0,0.8)"/>
    </g>
  </g>
</svg>
