<svg xmlns="http://www.w3.org/2000/svg" xmlns:xlink="http://www.w3.org/1999/xlink" width="980" height="180" viewBox="0 0 980 180">
  <defs>
    <clipPath id="clip-c-8">
      <rect width="980" height="180"/>
    </clipPath>
  </defs>
  <g id="c-8" clip-path="url(#clip-c-8)">
    <rect width="980" height="180" fill="#fff"/>
    <g id="组件_443_21" data-name="组件 443 – 21">
      <g id="矩形_4553" data-name="矩形 4553" fill="#f5f7fc" stroke="#edeff6" stroke-width="1">
        <rect width="980" height="180" rx="4" stroke="none"/>
        <rect x="0.5" y="0.5" width="979" height="179" rx="3.5" fill="none"/>
      </g>
    </g>
    <g id="组_15872" data-name="组 15872" transform="translate(24 -14)">
      <rect id="矩形_4994" data-name="矩形 4994" width="66" height="124" transform="translate(862 42)" fill="#377CFD" opacity="0.1"/>
      <rect id="矩形_4995" data-name="矩形 4995" width="66" height="124" transform="translate(784 42)" fill="#377CFD" opacity="0.1"/>
      <rect id="矩形_4996" data-name="矩形 4996" width="66" height="124" transform="translate(706 42)" fill="#377CFD" opacity="0.1"/>
      <rect id="矩形_4997" data-name="矩形 4997" width="66" height="124" transform="translate(628 42)" fill="#377CFD" opacity="0.1"/>
      <rect id="矩形_4998" data-name="矩形 4998" width="66" height="124" transform="translate(550 42)" fill="#377CFD" opacity="0.1"/>
      <rect id="矩形_4999" data-name="矩形 4999" width="66" height="124" transform="translate(472 42)" fill="#377CFD" opacity="0.1"/>
      <rect id="矩形_5000" data-name="矩形 5000" width="66" height="124" transform="translate(394 42)" fill="#377CFD" opacity="0.1"/>
      <rect id="矩形_5005" data-name="矩形 5005" width="66" height="124" transform="translate(316 42)" fill="#377CFD" opacity="0.1"/>
      <rect id="矩形_5001" data-name="矩形 5001" width="66" height="124" transform="translate(238 42)" fill="#377CFD" opacity="0.1"/>
      <rect id="矩形_5002" data-name="矩形 5002" width="66" height="124" transform="translate(160 42)" fill="#377CFD" opacity="0.1"/>
      <rect id="矩形_5004" data-name="矩形 5004" width="66" height="124" transform="translate(82 42)" fill="#377CFD" opacity="0.1"/>
      <rect id="矩形_5003" data-name="矩形 5003" width="66" height="124" transform="translate(4 42)" fill="#377CFD" opacity="0.1"/>
    </g>
    <g id="组_15873" data-name="组 15873">
      <rect id="矩形_5006" data-name="矩形 5006" width="456" height="68" transform="translate(28 55)" fill="#377CFD" opacity="0.7"/>
      <text id="_50_" data-name="50%" transform="translate(236 97)" fill="#fff" font-size="20" font-family="MicrosoftYaHeiUI, Microsoft YaHei UI"><tspan x="0" y="0">50%</tspan></text>
    </g>
    <g id="组_15874" data-name="组 15874" transform="translate(468)">
      <rect id="矩形_5006-2" data-name="矩形 5006" width="456" height="68" transform="translate(28 55)" fill="#377CFD" opacity="0.7"/>
      <text id="_50_2" data-name="50%" transform="translate(236 97)" fill="#fff" font-size="20" font-family="MicrosoftYaHeiUI, Microsoft YaHei UI"><tspan x="0" y="0">50%</tspan></text>
    </g>
  </g>
</svg>
