<svg xmlns="http://www.w3.org/2000/svg" xmlns:xlink="http://www.w3.org/1999/xlink" width="911" height="620" viewBox="0 0 911 620">
  <defs>
    <filter id="矩形_2428" x="268.5" y="80.499" width="208" height="228" filterUnits="userSpaceOnUse">
      <feOffset dy="2" input="SourceAlpha"/>
      <feGaussianBlur stdDeviation="1.5" result="blur"/>
      <feFlood flood-opacity="0.102"/>
      <feComposite operator="in" in2="blur"/>
      <feComposite in="SourceGraphic"/>
    </filter>
    <filter id="矩形_2428-2" x="360" y="153.999" width="223" height="243" filterUnits="userSpaceOnUse">
      <feOffset dy="3" input="SourceAlpha"/>
      <feGaussianBlur stdDeviation="4" result="blur-2"/>
      <feFlood flood-opacity="0.2"/>
      <feComposite operator="in" in2="blur-2"/>
      <feComposite in="SourceGraphic"/>
    </filter>
    <filter id="矩形_2428-3" x="450" y="230.999" width="230" height="249" filterUnits="userSpaceOnUse">
      <feOffset dy="4" input="SourceAlpha"/>
      <feGaussianBlur stdDeviation="5" result="blur-3"/>
      <feFlood flood-opacity="0.2"/>
      <feComposite operator="in" in2="blur-3"/>
      <feComposite in="SourceGraphic"/>
    </filter>
    <filter id="矩形_2428-4" x="531" y="297.999" width="259" height="277" filterUnits="userSpaceOnUse">
      <feOffset dy="3" input="SourceAlpha"/>
      <feGaussianBlur stdDeviation="10" result="blur-4"/>
      <feFlood flood-opacity="0.102"/>
      <feComposite operator="in" in2="blur-4"/>
      <feComposite in="SourceGraphic"/>
    </filter>
    <clipPath id="clip-d-1">
      <rect width="911" height="620"/>
    </clipPath>
  </defs>
  <g id="d-1" clip-path="url(#clip-d-1)">
    <rect width="911" height="620" fill="#fff"/>
    <g id="组件_443_27" data-name="组件 443 – 27">
      <g id="矩形_4553" data-name="矩形 4553" fill="#f5f7fc" stroke="#edeff6" stroke-width="1">
        <rect width="911" height="620" rx="4" stroke="none"/>
        <rect x="0.5" y="0.5" width="910" height="619" rx="3.5" fill="none"/>
      </g>
    </g>
    <g id="组_15882" data-name="组 15882" transform="translate(9.861 30.985)">
      <text id="y" transform="translate(88.139 64.015)" fill="#222" font-size="32" font-family="AlibabaSans-HeavyItalic, Alibaba Sans" font-weight="800" font-style="italic"><tspan x="0" y="0">y</tspan></text>
      <text id="z" transform="translate(373.139 522.015)" fill="#222" font-size="31" font-family="AlibabaSans-HeavyItalic, Alibaba Sans" font-weight="800" font-style="italic"><tspan x="0" y="0">z</tspan></text>
      <text id="x" transform="translate(783.139 249.015)" fill="#222" font-size="32" font-family="AlibabaSans-HeavyItalic, Alibaba Sans" font-weight="800" font-style="italic"><tspan x="0" y="0">x</tspan></text>
      <path id="路径_1223" data-name="路径 1223" d="M2800,3978v225.762l301.965,250.688" transform="translate(-2670.27 -3932.06)" fill="none" stroke="#222" stroke-width="3"/>
      <path id="路径_1226" data-name="路径 1226" d="M2824.844,4315.625l2.064,1.713,286.069,239.045" transform="translate(-2562.13 -4044.675)" fill="none" stroke="#222" stroke-width="4" stroke-dasharray="10 10"/>
      <path id="路径_1224" data-name="路径 1224" d="M3476.358,4291.942H2802.077" transform="translate(-2672.404 -4020.992)" fill="none" stroke="#222" stroke-width="3"/>
      <path id="路径_1225" data-name="路径 1225" d="M2942.372,4296.359" transform="translate(-2711.247 -4022.978)" fill="none" stroke="#707070" stroke-width="1"/>
      <path id="路径_1227" data-name="路径 1227" d="M2790.021,3983.3l7.231-7.892,7.23,7.892" transform="translate(-2667.397 -3930.603)" fill="none" stroke="#222" stroke-width="3"/>
      <path id="路径_1228" data-name="路径 1228" d="M0,7.892,7.231,0l7.231,7.892" transform="translate(804.275 263.718) rotate(90)" fill="none" stroke="#222" stroke-width="3"/>
      <path id="路径_1230" data-name="路径 1230" d="M3218.943,4632.277v11.311h-10.149" transform="translate(-2787.248 -4120.569)" fill="none" stroke="#222" stroke-width="3"/>
      <g transform="matrix(1, 0, 0, 1, -9.86, -30.98)" filter="url(#矩形_2428)">
        <rect id="矩形_2428-5" data-name="矩形 2428" width="199" height="219" rx="10" transform="translate(273 83)" fill="#fff"/>
      </g>
      <text id="S0" transform="translate(280.139 109.015)" fill="#377CFD" font-size="42" font-family="AlibabaSans-Heavy, Alibaba Sans" font-weight="800"><tspan x="0" y="0">S0</tspan></text>
      <text id="第0层" transform="translate(280.139 137.015)" fill="rgba(0,0,0,0.48)" font-size="14" font-family="MicrosoftYaHeiUI, Microsoft YaHei UI"><tspan x="0" y="0">第0层</tspan></text>
      <g transform="matrix(1, 0, 0, 1, -9.86, -30.98)" filter="url(#矩形_2428-2)">
        <rect id="矩形_2428-6" data-name="矩形 2428" width="199" height="219" rx="10" transform="translate(372 163)" fill="#fff"/>
      </g>
      <text id="S1" transform="translate(380.139 189.015)" fill="#377CFD" font-size="42" font-family="AlibabaSans-Heavy, Alibaba Sans" font-weight="800"><tspan x="0" y="0">S1</tspan></text>
      <text id="第1层" transform="translate(380.139 217.015)" fill="rgba(0,0,0,0.48)" font-size="14" font-family="MicrosoftYaHeiUI, Microsoft YaHei UI"><tspan x="0" y="0">第1层</tspan></text>
      <g transform="matrix(1, 0, 0, 1, -9.86, -30.98)" filter="url(#矩形_2428-3)">
        <rect id="矩形_2428-7" data-name="矩形 2428" width="200" height="219" rx="10" transform="translate(465 242)" fill="#fff"/>
      </g>
      <text id="S2" transform="translate(473.139 269.015)" fill="#377CFD" font-size="42" font-family="AlibabaSans-Heavy, Alibaba Sans" font-weight="800"><tspan x="0" y="0">S2</tspan></text>
      <text id="第2层" transform="translate(473.139 296.015)" fill="rgba(0,0,0,0.48)" font-size="14" font-family="MicrosoftYaHeiUI, Microsoft YaHei UI"><tspan x="0" y="0">第2层</tspan></text>
      <g transform="matrix(1, 0, 0, 1, -9.86, -30.98)" filter="url(#矩形_2428-4)">
        <rect id="矩形_2428-8" data-name="矩形 2428" width="199" height="217" rx="10" transform="translate(561 325)" fill="#fff"/>
      </g>
      <text id="S3" transform="translate(569.139 350.015)" fill="#377CFD" font-size="42" font-family="AlibabaSans-Heavy, Alibaba Sans" font-weight="800"><tspan x="0" y="0">S3</tspan></text>
      <text id="第3层" transform="translate(569.139 376.015)" fill="rgba(0,0,0,0.48)" font-size="14" font-family="MicrosoftYaHeiUI, Microsoft YaHei UI"><tspan x="0" y="0">第3层</tspan></text>
    </g>
  </g>
</svg>
