<svg xmlns="http://www.w3.org/2000/svg" xmlns:xlink="http://www.w3.org/1999/xlink" width="980" height="245" viewBox="0 0 980 245">
  <defs>
    <filter id="矩形_5079" x="133.5" y="13.5" width="154.626" height="155" filterUnits="userSpaceOnUse">
      <feOffset dy="1" input="SourceAlpha"/>
      <feGaussianBlur stdDeviation="2.5" result="blur"/>
      <feFlood flood-opacity="0.02"/>
      <feComposite operator="in" in2="blur"/>
      <feComposite in="SourceGraphic"/>
    </filter>
    <clipPath id="clip-f-13">
      <rect width="980" height="245"/>
    </clipPath>
  </defs>
  <g id="f-13" clip-path="url(#clip-f-13)">
    <rect width="980" height="245" fill="#fff"/>
    <g id="矩形_4556" data-name="矩形 4556" fill="#f5f7fc" stroke="#edeff6" stroke-width="1">
      <rect width="480" height="245" rx="4" stroke="none"/>
      <rect x="0.5" y="0.5" width="479" height="244" rx="3.5" fill="none"/>
    </g>
    <path id="矩形_4567" data-name="矩形 4567" d="M0,0H480a0,0,0,0,1,0,0V0a4,4,0,0,1-4,4H4A4,4,0,0,1,0,0V0A0,0,0,0,1,0,0Z" transform="translate(0 241)" fill="#44c261"/>
    <g id="组件_448_40" data-name="组件 448 – 40" transform="translate(20 201)">
      <circle id="椭圆_479" data-name="椭圆 479" cx="12" cy="12" r="12" fill="#44c261"/>
      <path id="路径_6439" data-name="路径 6439" d="M-13404.822-12343.829l3.727,3.408,6.229-7.4" transform="translate(13411.515 12356.083)" fill="none" stroke="#fff" stroke-width="2.5"/>
    </g>
    <text id="正确示范" transform="translate(54 219)" fill="#13ce66" font-size="16" font-family="MicrosoftYaHeiUI, Microsoft YaHei UI"><tspan x="0" y="0">正确示范</tspan></text>
    <g id="矩形_4556-2" data-name="矩形 4556" transform="translate(500)" fill="#f5f7fc" stroke="#edeff6" stroke-width="1">
      <rect width="480" height="245" rx="4" stroke="none"/>
      <rect x="0.5" y="0.5" width="479" height="244" rx="3.5" fill="none"/>
    </g>
    <path id="矩形_4567-2" data-name="矩形 4567" d="M0,0H480a0,0,0,0,1,0,0V0a4,4,0,0,1-4,4H4A4,4,0,0,1,0,0V0A0,0,0,0,1,0,0Z" transform="translate(500 241)" fill="#ff4949"/>
    <g id="组件_448_41" data-name="组件 448 – 41" transform="translate(520 201)">
      <g id="组_13960" data-name="组 13960" transform="translate(-0.146 -0.239)">
        <g id="组_13956" data-name="组 13956">
          <circle id="椭圆_479-2" data-name="椭圆 479" cx="12" cy="12" r="12" transform="translate(0.146 0.239)" fill="#ff4949"/>
        </g>
        <g id="组_13957" data-name="组 13957" transform="translate(8.356 8.356)">
          <g id="组_13959" data-name="组 13959" transform="translate(-0.304 -0.305)">
            <path id="路径_6440" data-name="路径 6440" d="M-13395.8-12073.376l-8.209,8.209" transform="translate(13404.005 12073.376)" fill="none" stroke="#fff" stroke-width="2.5"/>
            <path id="路径_6441" data-name="路径 6441" d="M-13404-12073.376l8.209,8.209" transform="translate(13404.005 12073.376)" fill="none" stroke="#fff" stroke-width="2.5"/>
          </g>
        </g>
      </g>
    </g>
    <text id="错误示范" transform="translate(554 219)" fill="#ff4949" font-size="16" font-family="MicrosoftYaHeiUI, Microsoft YaHei UI"><tspan x="0" y="0">错误示范</tspan></text>
    <g id="组_15922" data-name="组 15922">
      <g transform="matrix(1, 0, 0, 1, 0, 0)" filter="url(#矩形_5079)">
        <g id="矩形_5079-2" data-name="矩形 5079" transform="translate(141 20)" fill="#fff" stroke="#e6ecfc" stroke-width="1">
          <rect width="139.626" height="140" rx="4" stroke="none"/>
          <rect x="0.5" y="0.5" width="138.626" height="139" rx="3.5" fill="none"/>
        </g>
      </g>
      <path id="路径_6704" data-name="路径 6704" d="M0,0H137.875" transform="translate(211.285 21.313) rotate(90)" fill="none" stroke="#e5ebfc" stroke-linecap="round" stroke-width="1"/>
      <path id="路径_6705" data-name="路径 6705" d="M1438.574-12214h139.138" transform="translate(-1297.375 12304.475)" fill="none" stroke="#e5ebfc" stroke-linecap="round" stroke-width="1"/>
      <path id="路径_6706" data-name="路径 6706" d="M1439.392-12381l135.744,136.117" transform="translate(-1296.642 12402.677)" fill="none" stroke="#e5ebfc" stroke-linecap="round" stroke-width="1"/>
      <path id="路径_6707" data-name="路径 6707" d="M1576.082-12381l-136.69,137.068" transform="translate(-1296.638 12402.678)" fill="none" stroke="#e5ebfc" stroke-linecap="round" stroke-width="1"/>
      <g id="椭圆_506" data-name="椭圆 506" transform="translate(153.249 32.249)" fill="none" stroke="#e5ebfc" stroke-linecap="round" stroke-width="1">
        <ellipse cx="58.12" cy="58.307" rx="58.12" ry="58.307" stroke="none"/>
        <ellipse cx="58.12" cy="58.307" rx="57.62" ry="57.807" fill="none"/>
      </g>
      <g id="矩形_5074" data-name="矩形 5074" transform="translate(158 37.817)" fill="none" stroke="#e5ebfc" stroke-linecap="round" stroke-width="1">
        <rect width="105.105" height="105.479" stroke="none"/>
        <rect x="0.5" y="0.5" width="104.105" height="104.479" fill="none"/>
      </g>
      <g id="矩形_5075" data-name="矩形 5075" transform="translate(269.241 43.226) rotate(90)" fill="none" stroke="#e5ebfc" stroke-linecap="round" stroke-width="1">
        <rect width="94.654" height="116.241" stroke="none"/>
        <rect x="0.5" y="0.5" width="93.654" height="115.241" fill="none"/>
      </g>
      <g id="矩形_5076" data-name="矩形 5076" transform="translate(164 32.249)" fill="none" stroke="#e5ebfc" stroke-linecap="round" stroke-width="1">
        <rect width="93.969" height="116.615" stroke="none"/>
        <rect x="0.5" y="0.5" width="92.969" height="115.615" fill="none"/>
      </g>
      <g id="矩形_5077" data-name="矩形 5077" transform="translate(177.402 56.59)" fill="none" stroke="#e5ebfc" stroke-linecap="round" stroke-width="1">
        <rect width="67.928" height="67.928" stroke="none"/>
        <rect x="0.5" y="0.5" width="66.928" height="66.928" fill="none"/>
      </g>
      <g id="矩形_5080" data-name="矩形 5080" transform="translate(173.759 56.644)" fill="rgba(0,0,0,0)" stroke="#e5ebfc" stroke-linecap="round" stroke-width="1">
        <rect width="81.269" height="81.269" stroke="none"/>
        <rect x="0.5" y="0.5" width="80.269" height="80.269" fill="none"/>
      </g>
    </g>
    <g id="组_15925" data-name="组 15925" transform="translate(84)">
      <g id="组_15923" data-name="组 15923" transform="translate(445)">
        <g id="矩形_5079-3" data-name="矩形 5079" transform="translate(141 20)" fill="#fff" stroke="#e6ecfc" stroke-width="1">
          <rect width="139.626" height="140" rx="4" stroke="none"/>
          <rect x="0.5" y="0.5" width="138.626" height="139" rx="3.5" fill="none"/>
        </g>
        <path id="路径_6704-2" data-name="路径 6704" d="M0,0H137.875" transform="translate(211.285 21.313) rotate(90)" fill="none" stroke="#e5ebfc" stroke-linecap="round" stroke-width="1"/>
        <path id="路径_6705-2" data-name="路径 6705" d="M1438.574-12214h139.8" transform="translate(-1297.375 12304.475)" fill="none" stroke="#e5ebfc" stroke-linecap="round" stroke-width="1"/>
        <path id="路径_6706-2" data-name="路径 6706" d="M1439.392-12381l135.744,136.117" transform="translate(-1296.642 12402.677)" fill="none" stroke="#e5ebfc" stroke-linecap="round" stroke-width="1"/>
        <path id="路径_6707-2" data-name="路径 6707" d="M1576.082-12381l-136.69,137.068" transform="translate(-1296.638 12402.678)" fill="none" stroke="#e5ebfc" stroke-linecap="round" stroke-width="1"/>
        <g id="椭圆_506-2" data-name="椭圆 506" transform="translate(153.249 32.249)" fill="none" stroke="#e5ebfc" stroke-linecap="round" stroke-width="1">
          <ellipse cx="58.12" cy="58.307" rx="58.12" ry="58.307" stroke="none"/>
          <ellipse cx="58.12" cy="58.307" rx="57.62" ry="57.807" fill="none"/>
        </g>
        <g id="矩形_5074-2" data-name="矩形 5074" transform="translate(158.817 37.817)" fill="none" stroke="#e5ebfc" stroke-linecap="round" stroke-width="1">
          <rect width="105.105" height="105.479" stroke="none"/>
          <rect x="0.5" y="0.5" width="104.105" height="104.479" fill="none"/>
        </g>
        <g id="矩形_5075-2" data-name="矩形 5075" transform="translate(269.49 43.226) rotate(90)" fill="none" stroke="#e5ebfc" stroke-linecap="round" stroke-width="1">
          <rect width="94.654" height="116.241" stroke="none"/>
          <rect x="0.5" y="0.5" width="93.654" height="115.241" fill="none"/>
        </g>
        <g id="矩形_5076-2" data-name="矩形 5076" transform="translate(164.385 32.249)" fill="none" stroke="#e5ebfc" stroke-linecap="round" stroke-width="1">
          <rect width="93.969" height="116.615" stroke="none"/>
          <rect x="0.5" y="0.5" width="92.969" height="115.615" fill="none"/>
        </g>
        <g id="矩形_5077-2" data-name="矩形 5077" transform="translate(177.402 56.59)" fill="none" stroke="#e5ebfc" stroke-linecap="round" stroke-width="1">
          <rect width="67.928" height="67.928" stroke="none"/>
          <rect x="0.5" y="0.5" width="66.928" height="66.928" fill="none"/>
        </g>
        <g id="矩形_5080-2" data-name="矩形 5080" transform="translate(173.759 56.644)" fill="rgba(0,0,0,0)" stroke="#e5ebfc" stroke-linecap="round" stroke-width="1">
          <rect width="81.269" height="81.269" stroke="none"/>
          <rect x="0.5" y="0.5" width="80.269" height="80.269" fill="none"/>
        </g>
      </g>
    </g>
    <path id="联合_110" data-name="联合 110" d="M-1418,8362V8222h140v140Zm128-12V8234h-116v116Z" transform="translate(1559 -8202)" fill="#377CFD" opacity="0.2"/>
    <g id="联合_111" data-name="联合 111" transform="translate(1885.445 -8524.896)" fill="rgba(0,0,0,0)" stroke-miterlimit="10">
      <path d="M -1709.9208984375 8660.931640625 L -1709.9208984375 8648.51953125 L -1709.9208984375 8643.51953125 L -1714.9208984375 8643.51953125 L -1727.445068359375 8643.51953125 L -1727.445068359375 8567.8955078125 L -1621.446533203125 8567.8955078125 L -1621.446533203125 8643.51953125 L -1690.437255859375 8643.51953125 L -1692.50830078125 8643.51953125 L -1693.972778320312 8644.984375 L -1709.9208984375 8660.931640625 Z" stroke="none"/>
      <path d="M -1704.9208984375 8648.861328125 L -1694.579345703125 8638.51953125 L -1626.446533203125 8638.51953125 L -1626.446533203125 8572.8955078125 L -1722.445068359375 8572.8955078125 L -1722.445068359375 8638.51953125 L -1704.9208984375 8638.51953125 L -1704.9208984375 8648.861328125 M -1710.891357421875 8667.353515625 C -1712.947998046875 8667.353515625 -1714.9208984375 8665.7568359375 -1714.9208984375 8663.345703125 L -1714.9208984375 8648.51953125 L -1728.446411132812 8648.51953125 C -1730.654541015625 8648.51953125 -1732.445068359375 8646.7265625 -1732.445068359375 8644.5185546875 L -1732.445068359375 8566.896484375 C -1732.445068359375 8564.6884765625 -1730.654541015625 8562.8955078125 -1728.446411132812 8562.8955078125 L -1620.445190429688 8562.8955078125 C -1618.237060546875 8562.8955078125 -1616.446533203125 8564.6884765625 -1616.446533203125 8566.896484375 L -1616.446533203125 8644.5185546875 C -1616.446533203125 8646.7265625 -1618.237060546875 8648.51953125 -1620.445190429688 8648.51953125 L -1690.437255859375 8648.51953125 L -1708.091918945312 8666.173828125 C -1708.906494140625 8666.98828125 -1709.908569335938 8667.353515625 -1710.891357421875 8667.353515625 Z" stroke="none" fill="#333b44"/>
    </g>
    <g id="联合_112" data-name="联合 112" transform="translate(674.999 25.001)" fill="rgba(0,0,0,0)" stroke-miterlimit="10">
      <path d="M 24.64161109924316 124.0036773681641 L 24.64161109924316 106.5591125488281 L 24.64161109924316 101.5591125488281 L 19.64161109924316 101.5591125488281 L 5.000006198883057 101.5591125488281 L 5.000006198883057 5.000008583068848 L 125.0022964477539 5.000008583068848 L 125.0022964477539 101.5591125488281 L 47.07919311523438 101.5591125488281 L 44.85323715209961 101.5591125488281 L 43.36367416381836 103.2132415771484 L 24.64161109924316 124.0036773681641 Z" stroke="none"/>
      <path d="M 29.64161109924316 110.9794006347656 L 42.62727737426758 96.55908966064453 L 120.0023193359375 96.55908966064453 L 120.0023193359375 10.00000858306885 L 9.999985694885254 10.00000858306885 L 9.999985694885254 96.55908966064453 L 29.64161109924316 96.55908966064453 L 29.64161109924316 110.9794006347656 M 24.15556907653809 129.9989318847656 C 21.85123443603516 129.9992523193359 19.64161109924316 128.0125579833984 19.64161109924316 125.0109252929688 L 19.64161109924316 106.5590896606445 L 4.000485420227051 106.5590896606445 C 1.790985345840454 106.5590896606445 -1.462809268559795e-05 104.7680892944336 -1.462809268559795e-05 102.5595092773438 L -1.462809268559795e-05 4.000508785247803 C -1.462809268559795e-05 1.791008830070496 1.790985345840454 8.789062121650204e-06 4.000485420227051 8.789062121650204e-06 L 126.0018157958984 8.789062121650204e-06 C 128.2113189697266 8.789062121650204e-06 130.0023193359375 1.791008830070496 130.0023193359375 4.000508785247803 L 130.0023193359375 102.5595092773438 C 130.0023193359375 104.7680892944336 128.2113189697266 106.5590896606445 126.0018157958984 106.5590896606445 L 47.07919311523438 106.5590896606445 L 27.29340171813965 128.5308074951172 C 26.38015174865723 129.5447540283203 25.2568187713623 129.9987640380859 24.15556907653809 129.9989318847656 Z" stroke="none" fill="#333b44"/>
    </g>
    <g id="组_15939" data-name="组 15939" transform="translate(-2 7)">
      <rect id="矩形_5121" data-name="矩形 5121" width="62" height="10" transform="translate(182 56)" fill="#333b44"/>
      <rect id="矩形_5122" data-name="矩形 5122" width="52" height="10" transform="translate(182 82)" fill="#333b44"/>
    </g>
    <g id="组_15940" data-name="组 15940" transform="translate(703 55.092)">
      <rect id="矩形_5121-2" data-name="矩形 5121" width="74" height="12" transform="translate(0 -0.092)" fill="#333b44"/>
      <rect id="矩形_5122-2" data-name="矩形 5122" width="62" height="12" transform="translate(0 31.908)" fill="#333b44"/>
    </g>
    <path id="联合_113" data-name="联合 113" d="M-1418,8362V8222h140v140Zm128-12V8234h-116v116Z" transform="translate(2087.999 -8202)" fill="#377CFD" opacity="0.2"/>
  </g>
</svg>
