<svg xmlns="http://www.w3.org/2000/svg" xmlns:xlink="http://www.w3.org/1999/xlink" width="400" height="400" viewBox="0 0 400 400">
  <defs>
    <clipPath id="clip-f-6">
      <rect width="400" height="400"/>
    </clipPath>
  </defs>
  <g id="f-6" clip-path="url(#clip-f-6)">
    <rect width="400" height="400" fill="#fff"/>
    <g id="矩形_4553" data-name="矩形 4553" fill="#f5f7fc" stroke="#edeff6" stroke-width="1">
      <rect width="400" height="400" rx="4" stroke="none"/>
      <rect x="0.5" y="0.5" width="399" height="399" rx="3.5" fill="none"/>
    </g>
    <rect id="矩形_5024" data-name="矩形 5024" width="367.019" height="367.019" transform="translate(16.5 16.5)" fill="#fff" stroke="#e5ebfc" stroke-width="1"/>
    <path id="路径_6688" data-name="路径 6688" d="M1438.574-12214H1805.4" transform="translate(-12013.5 -1422.074) rotate(90)" fill="none" stroke="#e5ebfc" stroke-linecap="round" stroke-width="1"/>
    <path id="路径_6689" data-name="路径 6689" d="M1438.574-12214h367.019" transform="translate(-1422.074 12414.5)" fill="none" stroke="#e5ebfc" stroke-linecap="round" stroke-width="1"/>
    <path id="路径_6684" data-name="路径 6684" d="M1439.392-12381l367.019,367.018" transform="translate(-1422.892 12397.312)" fill="none" stroke="#e5ebfc" stroke-linecap="round" stroke-width="1"/>
    <path id="路径_6685" data-name="路径 6685" d="M1806.41-12381l-367.019,367.018" transform="translate(-1422.892 12397.312)" fill="none" stroke="#e5ebfc" stroke-linecap="round" stroke-width="1"/>
    <g id="椭圆_497" data-name="椭圆 497" transform="translate(46 46)" fill="none" stroke="#e5ebfc" stroke-linecap="round" stroke-width="1">
      <circle cx="154" cy="154" r="154" stroke="none"/>
      <circle cx="154" cy="154" r="153.5" fill="none"/>
    </g>
    <g id="矩形_5032" data-name="矩形 5032" transform="translate(60 60)" fill="none" stroke="#e5ebfc" stroke-linecap="round" stroke-width="1">
      <rect width="280" height="280" stroke="none"/>
      <rect x="0.5" y="0.5" width="279" height="279" fill="none"/>
    </g>
    <g id="矩形_5033" data-name="矩形 5033" transform="translate(354 76) rotate(90)" fill="none" stroke="#e5ebfc" stroke-linecap="round" stroke-width="1">
      <rect width="248" height="308" stroke="none"/>
      <rect x="0.5" y="0.5" width="247" height="307" fill="none"/>
    </g>
    <g id="矩形_5034" data-name="矩形 5034" transform="translate(76 46)" fill="none" stroke="#e5ebfc" stroke-linecap="round" stroke-width="1">
      <rect width="248" height="308" stroke="none"/>
      <rect x="0.5" y="0.5" width="247" height="307" fill="none"/>
    </g>
    <g id="矩形_5035" data-name="矩形 5035" transform="translate(107 107)" fill="none" stroke="#e5ebfc" stroke-linecap="round" stroke-width="1">
      <rect width="186" height="186" stroke="none"/>
      <rect x="0.5" y="0.5" width="185" height="185" fill="none"/>
    </g>
    <g id="矩形_5036" data-name="矩形 5036" transform="translate(123 123)" fill="rgba(0,0,0,0)" stroke="#e5ebfc" stroke-linecap="round" stroke-width="1">
      <rect width="155" height="155" stroke="none"/>
      <rect x="0.5" y="0.5" width="154" height="154" fill="none"/>
    </g>
    <g id="路径_6692" data-name="路径 6692" transform="translate(121.132 -252.587)" fill="none" stroke-miterlimit="10">
      <path d="M201.741,374.017c-.692-8.126-9.035-14.43-19.094-14.43H-22.646c-10.055,0-20.664,6.3-21.356,14.43L-61.086,574.022c-.764,8.958,8,16.565,19.094,16.565H199.731c11.087,0,19.858-7.606,19.09-16.565Z" stroke="none"/>
      <path d="M -13.38636779785156 391.5868530273438 L -27.65074157714844 558.5869140625 L 185.3863067626953 558.5869140625 L 171.1250915527344 391.5868530273438 L -13.38636779785156 391.5868530273438 M -22.6461181640625 359.5868530273438 L 182.6472930908203 359.5868530273438 C 192.7063446044922 359.5868530273438 201.0494079589844 365.8909912109375 201.7411651611328 374.0169067382812 L 218.8209381103516 574.0220947265625 C 219.5890502929688 582.9805297851562 210.8179931640625 590.5869140625 199.7309265136719 590.5869140625 L -41.99188232421875 590.5869140625 C -53.08282470703125 590.5869140625 -61.85012817382812 582.9805297851562 -61.08564758300781 574.0220947265625 L -44.00212097167969 374.0169067382812 C -43.31036376953125 365.8909912109375 -32.701416015625 359.5868530273438 -22.6461181640625 359.5868530273438 Z" stroke="none" fill="#333b44"/>
    </g>
    <g id="减去_83" data-name="减去 83" transform="translate(1529 -10978)" fill="rgba(0,0,0,0)">
      <path d="M -1267.096557617188 11098 L -1389.90283203125 11098 C -1389.510375976562 11090.9287109375 -1387.92431640625 11084.0703125 -1385.173461914062 11077.5673828125 C -1383.632446289062 11073.923828125 -1381.725952148438 11070.4111328125 -1379.506591796875 11067.126953125 C -1377.302490234375 11063.8642578125 -1374.7724609375 11060.798828125 -1371.987182617188 11058.0126953125 C -1369.201293945312 11055.2275390625 -1366.134521484375 11052.697265625 -1362.872680664062 11050.4931640625 C -1359.586303710938 11048.2734375 -1356.072875976562 11046.3662109375 -1352.432861328125 11044.826171875 C -1344.862915039062 11041.625 -1336.810668945312 11040.0009765625 -1328.501098632812 11040.0009765625 C -1320.190795898438 11040.0009765625 -1312.138061523438 11041.625 -1304.56640625 11044.8271484375 C -1300.92724609375 11046.3662109375 -1297.41357421875 11048.2734375 -1294.124389648438 11050.4951171875 C -1290.865234375 11052.697265625 -1287.798461914062 11055.2275390625 -1285.011962890625 11058.013671875 C -1282.225830078125 11060.80078125 -1279.695556640625 11063.8671875 -1277.493286132812 11067.1259765625 C -1275.273803710938 11070.4111328125 -1273.3671875 11073.923828125 -1271.826171875 11077.5673828125 C -1269.0751953125 11084.0703125 -1267.489135742188 11090.9287109375 -1267.096557617188 11098 Z" stroke="none"/>
      <path d="M -1287.370727539062 11082 C -1288.346069335938 11079.9501953125 -1289.478759765625 11077.966796875 -1290.750854492188 11076.083984375 C -1292.383422851562 11073.66796875 -1294.259887695312 11071.3935546875 -1296.324462890625 11069.3291015625 C -1298.391723632812 11067.26171875 -1300.666381835938 11065.384765625 -1303.07958984375 11063.7548828125 C -1305.513671875 11062.1103515625 -1308.111572265625 11060.7001953125 -1310.798950195312 11059.5634765625 C -1316.3876953125 11057.19921875 -1322.343505859375 11056.0009765625 -1328.501098632812 11056.0009765625 C -1334.657836914062 11056.0009765625 -1340.613037109375 11057.19921875 -1346.198852539062 11059.5615234375 C -1348.888305664062 11060.7001953125 -1351.486206054688 11062.1103515625 -1353.914428710938 11063.75 C -1356.333374023438 11065.384765625 -1358.60791015625 11067.26171875 -1360.673583984375 11069.3271484375 C -1362.7392578125 11071.392578125 -1364.615234375 11073.666015625 -1366.248901367188 11076.083984375 C -1367.520874023438 11077.966796875 -1368.653442382812 11079.94921875 -1369.62890625 11082 L -1287.370727539062 11082 M -1252.002685546875 11114 L -1404.996704101562 11114 C -1405.662475585938 11109.89453125 -1405.999633789062 11105.689453125 -1405.999633789062 11101.4990234375 C -1405.999633789062 11091.037109375 -1403.950561523438 11080.8876953125 -1399.909301757812 11071.333984375 C -1397.966430664062 11066.740234375 -1395.562377929688 11062.310546875 -1392.764038085938 11058.1689453125 C -1389.990600585938 11054.064453125 -1386.806640625 11050.205078125 -1383.300659179688 11046.69921875 C -1379.794189453125 11043.193359375 -1375.935302734375 11040.009765625 -1371.8310546875 11037.236328125 C -1367.687255859375 11034.4375 -1363.258178710938 11032.033203125 -1358.666748046875 11030.0908203125 C -1349.112670898438 11026.0498046875 -1338.963500976562 11024.0009765625 -1328.501098632812 11024.0009765625 C -1318.038208007812 11024.0009765625 -1307.888427734375 11026.0498046875 -1298.333862304688 11030.0908203125 C -1293.742309570312 11032.033203125 -1289.31298828125 11034.4375 -1285.169067382812 11037.236328125 C -1281.064697265625 11040.009765625 -1277.205688476562 11043.193359375 -1273.69921875 11046.69921875 C -1270.19287109375 11050.2060546875 -1267.008911132812 11054.064453125 -1264.235717773438 11058.1689453125 C -1261.437377929688 11062.310546875 -1259.033325195312 11066.740234375 -1257.090209960938 11071.333984375 C -1253.048950195312 11080.8876953125 -1250.999877929688 11091.0361328125 -1250.999877929688 11101.4990234375 C -1250.999877929688 11105.689453125 -1251.337158203125 11109.8955078125 -1252.002563476562 11113.9990234375 L -1252.002685546875 11114 Z" stroke="none" fill="#333b44"/>
    </g>
    <g id="路径_6694" data-name="路径 6694" transform="translate(123 46)" fill="rgba(55,124,253,0.1)">
      <path d="M 77.5 152.5 C 67.37395477294922 152.5 57.55215072631836 150.5173645019531 48.30739212036133 146.6071472167969 C 43.86386871337891 144.7276916503906 39.5778923034668 142.4013214111328 35.56852340698242 139.6926574707031 C 31.59660911560059 137.00927734375 27.86152267456055 133.9275360107422 24.46699905395508 130.5330047607422 C 21.07245635986328 127.1384811401367 17.9907169342041 123.4033889770508 15.30734825134277 119.4314804077148 C 12.59867382049561 115.4221115112305 10.27230453491211 111.1361312866211 8.392848014831543 106.6926116943359 C 4.482630252838135 97.44784545898438 2.5 87.62604522705078 2.5 77.5 C 2.5 67.37395477294922 4.482630252838135 57.55215072631836 8.392848014831543 48.30739212036133 C 10.27230453491211 43.86386871337891 12.59867382049561 39.5778923034668 15.30734825134277 35.56852340698242 C 17.9907169342041 31.59660911560059 21.07245635986328 27.86152267456055 24.46699905395508 24.46699905395508 C 27.86152267456055 21.07245635986328 31.59660911560059 17.9907169342041 35.56852340698242 15.30734825134277 C 39.5778923034668 12.59867382049561 43.86386871337891 10.27230453491211 48.30739212036133 8.392848014831543 C 57.55215072631836 4.482630252838135 67.37395477294922 2.5 77.5 2.5 C 87.62604522705078 2.5 97.44784545898438 4.482630252838135 106.6926116943359 8.392848014831543 C 111.1361312866211 10.27230453491211 115.4221115112305 12.59867382049561 119.4314804077148 15.30734825134277 C 123.4033889770508 17.9907169342041 127.1384811401367 21.07245635986328 130.5330047607422 24.46699905395508 C 133.9275360107422 27.86152267456055 137.00927734375 31.59660911560059 139.6926574707031 35.56852340698242 C 142.4013214111328 39.5778923034668 144.7276916503906 43.86386871337891 146.6071472167969 48.30739212036133 C 150.5173645019531 57.55215072631836 152.5 67.37395477294922 152.5 77.5 C 152.5 87.62604522705078 150.5173645019531 97.44784545898438 146.6071472167969 106.6926116943359 C 144.7276916503906 111.1361312866211 142.4013214111328 115.4221115112305 139.6926574707031 119.4314804077148 C 137.00927734375 123.4033889770508 133.9275360107422 127.1384811401367 130.5330047607422 130.5330047607422 C 127.1384811401367 133.9275360107422 123.4033889770508 137.00927734375 119.4314804077148 139.6926574707031 C 115.4221115112305 142.4013214111328 111.1361312866211 144.7276916503906 106.6926116943359 146.6071472167969 C 97.44784545898438 150.5173645019531 87.62604522705078 152.5 77.5 152.5 Z" stroke="none"/>
      <path d="M 77.5 5 C 67.71035766601562 5 58.21621704101562 6.916183471679688 49.28126525878906 10.69535827636719 C 44.98640441894531 12.51193237304688 40.84364318847656 14.76058959960938 36.96804809570312 17.37890625 C 33.12797546386719 19.97319030761719 29.51676177978516 22.95274353027344 26.23475646972656 26.23475646972656 C 22.95274353027344 29.51676177978516 19.97319030761719 33.12797546386719 17.37890625 36.96804809570312 C 14.76058959960938 40.84364318847656 12.51193237304688 44.98640441894531 10.69535827636719 49.28126525878906 C 6.916183471679688 58.21621704101562 5 67.71035766601562 5 77.5 C 5 87.28964233398438 6.916183471679688 96.78378295898438 10.69535827636719 105.7187347412109 C 12.51193237304688 110.0135955810547 14.76058959960938 114.1563568115234 17.37890625 118.0319519042969 C 19.97319030761719 121.8720245361328 22.95274353027344 125.4832382202148 26.23475646972656 128.7652435302734 C 29.51676177978516 132.0472564697266 33.12797546386719 135.0268096923828 36.96804809570312 137.62109375 C 40.84364318847656 140.2394104003906 44.98640441894531 142.4880676269531 49.28126525878906 144.3046417236328 C 58.21621704101562 148.0838165283203 67.71035766601562 150 77.5 150 C 87.28964233398438 150 96.78378295898438 148.0838165283203 105.7187347412109 144.3046417236328 C 110.0135955810547 142.4880676269531 114.1563568115234 140.2394104003906 118.0319519042969 137.62109375 C 121.8720245361328 135.0268096923828 125.4832382202148 132.0472564697266 128.7652435302734 128.7652435302734 C 132.0472564697266 125.4832382202148 135.0268096923828 121.8720245361328 137.62109375 118.0319519042969 C 140.2394104003906 114.1563568115234 142.4880676269531 110.0135955810547 144.3046417236328 105.7187347412109 C 148.0838165283203 96.78378295898438 150 87.28964233398438 150 77.5 C 150 67.71035766601562 148.0838165283203 58.21621704101562 144.3046417236328 49.28126525878906 C 142.4880676269531 44.98640441894531 140.2394104003906 40.84364318847656 137.62109375 36.96804809570312 C 135.0268096923828 33.12797546386719 132.0472564697266 29.51676177978516 128.7652435302734 26.23475646972656 C 125.4832382202148 22.95274353027344 121.8720245361328 19.97319030761719 118.0319519042969 17.37890625 C 114.1563568115234 14.76058959960938 110.0135955810547 12.51193237304688 105.7187347412109 10.69535827636719 C 96.78378295898438 6.916183471679688 87.28964233398438 5 77.5 5 M 77.5 0 C 120.3020706176758 0 155 34.69792938232422 155 77.5 C 155 120.3020706176758 120.3020706176758 155 77.5 155 C 34.69792938232422 155 0 120.3020706176758 0 77.5 C 0 34.69792938232422 34.69792938232422 0 77.5 0 Z" stroke="none" fill="#377CFD"/>
    </g>
  </g>
</svg>
