<svg xmlns="http://www.w3.org/2000/svg" xmlns:xlink="http://www.w3.org/1999/xlink" width="980" height="245" viewBox="0 0 980 245">
  <defs>
    <filter id="矩形_5079" x="133.5" y="13.5" width="154.626" height="155" filterUnits="userSpaceOnUse">
      <feOffset dy="1" input="SourceAlpha"/>
      <feGaussianBlur stdDeviation="2.5" result="blur"/>
      <feFlood flood-opacity="0.02"/>
      <feComposite operator="in" in2="blur"/>
      <feComposite in="SourceGraphic"/>
    </filter>
    <clipPath id="clip-f-8">
      <rect width="980" height="245"/>
    </clipPath>
  </defs>
  <g id="f-8" clip-path="url(#clip-f-8)">
    <rect width="980" height="245" fill="#fff"/>
    <g id="矩形_4556" data-name="矩形 4556" fill="#f5f7fc" stroke="#edeff6" stroke-width="1">
      <rect width="480" height="245" rx="4" stroke="none"/>
      <rect x="0.5" y="0.5" width="479" height="244" rx="3.5" fill="none"/>
    </g>
    <path id="矩形_4567" data-name="矩形 4567" d="M0,0H480a0,0,0,0,1,0,0V0a4,4,0,0,1-4,4H4A4,4,0,0,1,0,0V0A0,0,0,0,1,0,0Z" transform="translate(0 241)" fill="#44c261"/>
    <g id="组件_448_1" data-name="组件 448 – 1" transform="translate(20 201)">
      <circle id="椭圆_479" data-name="椭圆 479" cx="12" cy="12" r="12" fill="#44c261"/>
      <path id="路径_6439" data-name="路径 6439" d="M-13404.822-12343.829l3.727,3.408,6.229-7.4" transform="translate(13411.515 12356.083)" fill="none" stroke="#fff" stroke-width="2.5"/>
    </g>
    <text id="正确示范" transform="translate(54 219)" fill="#13ce66" font-size="16" font-family="MicrosoftYaHeiUI, Microsoft YaHei UI"><tspan x="0" y="0">正确示范</tspan></text>
    <g id="矩形_4556-2" data-name="矩形 4556" transform="translate(500)" fill="#f5f7fc" stroke="#edeff6" stroke-width="1">
      <rect width="480" height="245" rx="4" stroke="none"/>
      <rect x="0.5" y="0.5" width="479" height="244" rx="3.5" fill="none"/>
    </g>
    <path id="矩形_4567-2" data-name="矩形 4567" d="M0,0H480a0,0,0,0,1,0,0V0a4,4,0,0,1-4,4H4A4,4,0,0,1,0,0V0A0,0,0,0,1,0,0Z" transform="translate(500 241)" fill="#ff4949"/>
    <g id="组件_448_1-2" data-name="组件 448 – 1" transform="translate(520 201)">
      <g id="组_13960" data-name="组 13960" transform="translate(-0.146 -0.239)">
        <g id="组_13956" data-name="组 13956">
          <circle id="椭圆_479-2" data-name="椭圆 479" cx="12" cy="12" r="12" transform="translate(0.146 0.239)" fill="#ff4949"/>
        </g>
        <g id="组_13957" data-name="组 13957" transform="translate(8.356 8.356)">
          <g id="组_13959" data-name="组 13959" transform="translate(-0.304 -0.305)">
            <path id="路径_6440" data-name="路径 6440" d="M-13395.8-12073.376l-8.209,8.209" transform="translate(13404.005 12073.376)" fill="none" stroke="#fff" stroke-width="2.5"/>
            <path id="路径_6441" data-name="路径 6441" d="M-13404-12073.376l8.209,8.209" transform="translate(13404.005 12073.376)" fill="none" stroke="#fff" stroke-width="2.5"/>
          </g>
        </g>
      </g>
    </g>
    <text id="错误示范" transform="translate(554 219)" fill="#ff4949" font-size="16" font-family="MicrosoftYaHeiUI, Microsoft YaHei UI"><tspan x="0" y="0">错误示范</tspan></text>
    <g id="组_15922" data-name="组 15922">
      <g transform="matrix(1, 0, 0, 1, 0, 0)" filter="url(#矩形_5079)">
        <g id="矩形_5079-2" data-name="矩形 5079" transform="translate(141 20)" fill="#fff" stroke="#e6ecfc" stroke-width="1">
          <rect width="139.626" height="140" rx="4" stroke="none"/>
          <rect x="0.5" y="0.5" width="138.626" height="139" rx="3.5" fill="none"/>
        </g>
      </g>
      <path id="路径_6704" data-name="路径 6704" d="M0,0H137.875" transform="translate(211.285 21.313) rotate(90)" fill="none" stroke="#e5ebfc" stroke-linecap="round" stroke-width="1"/>
      <path id="路径_6705" data-name="路径 6705" d="M1438.574-12214h139.8" transform="translate(-1297.375 12304.475)" fill="none" stroke="#e5ebfc" stroke-linecap="round" stroke-width="1"/>
      <path id="路径_6706" data-name="路径 6706" d="M1439.392-12381l135.744,136.117" transform="translate(-1296.642 12402.677)" fill="none" stroke="#e5ebfc" stroke-linecap="round" stroke-width="1"/>
      <path id="路径_6707" data-name="路径 6707" d="M1576.082-12381l-136.69,137.068" transform="translate(-1296.638 12402.678)" fill="none" stroke="#e5ebfc" stroke-linecap="round" stroke-width="1"/>
      <g id="椭圆_506" data-name="椭圆 506" transform="translate(153.249 32.249)" fill="none" stroke="#e5ebfc" stroke-linecap="round" stroke-width="1">
        <ellipse cx="58.12" cy="58.307" rx="58.12" ry="58.307" stroke="none"/>
        <ellipse cx="58.12" cy="58.307" rx="57.62" ry="57.807" fill="none"/>
      </g>
      <g id="矩形_5074" data-name="矩形 5074" transform="translate(158.817 37.817)" fill="none" stroke="#e5ebfc" stroke-linecap="round" stroke-width="1">
        <rect width="105.105" height="105.479" stroke="none"/>
        <rect x="0.5" y="0.5" width="104.105" height="104.479" fill="none"/>
      </g>
      <g id="矩形_5075" data-name="矩形 5075" transform="translate(269.49 43.226) rotate(90)" fill="none" stroke="#e5ebfc" stroke-linecap="round" stroke-width="1">
        <rect width="94.654" height="116.241" stroke="none"/>
        <rect x="0.5" y="0.5" width="93.654" height="115.241" fill="none"/>
      </g>
      <g id="矩形_5076" data-name="矩形 5076" transform="translate(164.385 32.249)" fill="none" stroke="#e5ebfc" stroke-linecap="round" stroke-width="1">
        <rect width="93.969" height="116.615" stroke="none"/>
        <rect x="0.5" y="0.5" width="92.969" height="115.615" fill="none"/>
      </g>
      <g id="矩形_5077" data-name="矩形 5077" transform="translate(177.402 56.59)" fill="none" stroke="#e5ebfc" stroke-linecap="round" stroke-width="1">
        <rect width="67.928" height="67.928" stroke="none"/>
        <rect x="0.5" y="0.5" width="66.928" height="66.928" fill="none"/>
      </g>
      <g id="矩形_5080" data-name="矩形 5080" transform="translate(173.759 56.644)" fill="rgba(0,0,0,0)" stroke="#e5ebfc" stroke-linecap="round" stroke-width="1">
        <rect width="81.269" height="81.269" stroke="none"/>
        <rect x="0.5" y="0.5" width="80.269" height="80.269" fill="none"/>
      </g>
    </g>
    <g id="组_15921" data-name="组 15921">
      <g id="椭圆_337" data-name="椭圆 337" transform="translate(153.249 32.249)" fill="none" stroke="#333b44" stroke-miterlimit="10" stroke-width="10">
        <circle cx="58.307" cy="58.307" r="58.307" stroke="none"/>
        <circle cx="58.307" cy="58.307" r="53.307" fill="none"/>
      </g>
      <ellipse id="椭圆_338" data-name="椭圆 338" cx="6.524" cy="8.027" rx="6.524" ry="8.027" transform="translate(185.204 65.473)" fill="#333b44"/>
      <ellipse id="椭圆_339" data-name="椭圆 339" cx="6.524" cy="8.027" rx="6.524" ry="8.027" transform="translate(224.858 65.473)" fill="#333b44"/>
      <path id="路径_5306" data-name="路径 5306" d="M-3378.616-2500.386a141.221,141.221,0,0,0-20.041,1.411.587.587,0,0,0-.495.6c.489,12.489,9.484,22.45,20.536,22.45s20.047-9.961,20.541-22.45a.586.586,0,0,0-.5-.6A141.236,141.236,0,0,0-3378.616-2500.386Z" transform="translate(3590.173 2596.898)" fill="none" stroke="#333b44" stroke-miterlimit="10" stroke-width="10"/>
    </g>
    <g id="组_15925" data-name="组 15925" transform="translate(84)">
      <g id="组_15923" data-name="组 15923" transform="translate(445)">
        <g id="矩形_5079-3" data-name="矩形 5079" transform="translate(141 20)" fill="#fff" stroke="#e6ecfc" stroke-width="1">
          <rect width="139.626" height="140" rx="4" stroke="none"/>
          <rect x="0.5" y="0.5" width="138.626" height="139" rx="3.5" fill="none"/>
        </g>
        <path id="路径_6704-2" data-name="路径 6704" d="M0,0H137.875" transform="translate(211.285 21.313) rotate(90)" fill="none" stroke="#e5ebfc" stroke-linecap="round" stroke-width="1"/>
        <path id="路径_6705-2" data-name="路径 6705" d="M1438.574-12214h139.8" transform="translate(-1297.375 12304.475)" fill="none" stroke="#e5ebfc" stroke-linecap="round" stroke-width="1"/>
        <path id="路径_6706-2" data-name="路径 6706" d="M1439.392-12381l135.744,136.117" transform="translate(-1296.642 12402.677)" fill="none" stroke="#e5ebfc" stroke-linecap="round" stroke-width="1"/>
        <path id="路径_6707-2" data-name="路径 6707" d="M1576.082-12381l-136.69,137.068" transform="translate(-1296.638 12402.678)" fill="none" stroke="#e5ebfc" stroke-linecap="round" stroke-width="1"/>
        <g id="椭圆_506-2" data-name="椭圆 506" transform="translate(153.249 32.249)" fill="none" stroke="#e5ebfc" stroke-linecap="round" stroke-width="1">
          <ellipse cx="58.12" cy="58.307" rx="58.12" ry="58.307" stroke="none"/>
          <ellipse cx="58.12" cy="58.307" rx="57.62" ry="57.807" fill="none"/>
        </g>
        <g id="矩形_5074-2" data-name="矩形 5074" transform="translate(158.817 37.817)" fill="none" stroke="#e5ebfc" stroke-linecap="round" stroke-width="1">
          <rect width="105.105" height="105.479" stroke="none"/>
          <rect x="0.5" y="0.5" width="104.105" height="104.479" fill="none"/>
        </g>
        <g id="矩形_5075-2" data-name="矩形 5075" transform="translate(269.49 43.226) rotate(90)" fill="none" stroke="#e5ebfc" stroke-linecap="round" stroke-width="1">
          <rect width="94.654" height="116.241" stroke="none"/>
          <rect x="0.5" y="0.5" width="93.654" height="115.241" fill="none"/>
        </g>
        <g id="矩形_5076-2" data-name="矩形 5076" transform="translate(164.385 32.249)" fill="none" stroke="#e5ebfc" stroke-linecap="round" stroke-width="1">
          <rect width="93.969" height="116.615" stroke="none"/>
          <rect x="0.5" y="0.5" width="92.969" height="115.615" fill="none"/>
        </g>
        <g id="矩形_5077-2" data-name="矩形 5077" transform="translate(177.402 56.59)" fill="none" stroke="#e5ebfc" stroke-linecap="round" stroke-width="1">
          <rect width="67.928" height="67.928" stroke="none"/>
          <rect x="0.5" y="0.5" width="66.928" height="66.928" fill="none"/>
        </g>
        <g id="矩形_5080-2" data-name="矩形 5080" transform="translate(173.759 56.644)" fill="rgba(0,0,0,0)" stroke="#e5ebfc" stroke-linecap="round" stroke-width="1">
          <rect width="81.269" height="81.269" stroke="none"/>
          <rect x="0.5" y="0.5" width="80.269" height="80.269" fill="none"/>
        </g>
      </g>
      <g id="组_15926" data-name="组 15926" transform="translate(1356.454 -746.234)">
        <path id="路径_6633" data-name="路径 6633" d="M-758.457,837.495a58.775,58.775,0,0,1,58.838-58.768,58.773,58.773,0,0,1,58.674,58.8,58.779,58.779,0,0,1-58.8,58.736A58.777,58.777,0,0,1-758.457,837.495Zm100.723-4.176c0,.425.01.776,0,1.124a38.042,38.042,0,0,1-.213,5.165,12.461,12.461,0,0,1-12.49,10.472q-5.018.021-10.034,0a11.362,11.362,0,0,1-10.962-6.908c-1.075-2.266-1.972-4.616-2.938-6.933a4.23,4.23,0,0,0-4.156-2.82c-.721,0-1.443,0-2.164,0a4.227,4.227,0,0,0-4.266,2.85c-1.042,2.452-1.99,4.949-3.163,7.335a11.006,11.006,0,0,1-10.1,6.459c-3.69.123-7.388.051-11.081.012A12.581,12.581,0,0,1-741.169,841a17.679,17.679,0,0,1-.5-5.2c.008-.823,0-1.647,0-2.472h-8.365c-1.263,20.845,8.974,38.967,26.344,48.466a50.541,50.541,0,0,0,55.462-4.81,49.536,49.536,0,0,0,16.532-23.6,47.293,47.293,0,0,0,2.323-20.067ZM-741.7,824.88c.335-2.6,1.927-4.162,4.273-4.166q12.982-.018,25.966,0a8.051,8.051,0,0,1,5.586,2.237c.513.474,1.012.965,1.486,1.479a1.375,1.375,0,0,0,1.14.486c1.768-.031,3.549-.12,5.308.018a4.53,4.53,0,0,0,4.15-1.673,7.767,7.767,0,0,1,6.162-2.556c2.207.006,4.415,0,6.622,0q9.477,0,18.951,0a4.181,4.181,0,0,1,4.144,3c.108.37.153.76.227,1.142h6.657a50.141,50.141,0,0,0-50.6-37.694c-24.991.95-42.5,19.364-46.729,37.717Z" transform="translate(0)" fill="#333b44"/>
        <path id="路径_6634" data-name="路径 6634" d="M-712.107,838.271a47.4,47.4,0,0,1-19.957-4.3,34.566,34.566,0,0,1-12.276-9.411,4.343,4.343,0,0,1-1.128-3.627,3.994,3.994,0,0,1,3.081-3.381,3.986,3.986,0,0,1,4.414,1.561,23.235,23.235,0,0,0,5.56,5.137,32.147,32.147,0,0,0,12.983,4.973,42.263,42.263,0,0,0,19.258-1.1,28.936,28.936,0,0,0,12.942-7.764c.39-.411.733-.866,1.1-1.3a4.187,4.187,0,0,1,5.776-.617,4.116,4.116,0,0,1,.76,5.787,33.005,33.005,0,0,1-10.978,8.976,42.763,42.763,0,0,1-16.567,4.751C-708.792,838.094-710.451,838.167-712.107,838.271Z" transform="translate(12.387 37.067)" fill="#333b44"/>
        <path id="路径_6635" data-name="路径 6635" d="M-729.007,789.439a4.011,4.011,0,0,1,3.239,1.345,3.973,3.973,0,0,1,.8,4.5,3.968,3.968,0,0,1-3.86,2.55,16.3,16.3,0,0,0-9.372,2.861,6.44,6.44,0,0,1-2.466,1.283,4.227,4.227,0,0,1-4.573-2.415,4.09,4.09,0,0,1,1.214-4.949A24.9,24.9,0,0,1-729.007,789.439Z" transform="translate(12.314 10.258)" fill="#333b44"/>
        <path id="路径_6636" data-name="路径 6636" d="M-711.555,802.116c-2.053,0-4.107.01-6.16,0a4.2,4.2,0,0,1-4.309-4.172,4.187,4.187,0,0,1,4.276-4.2q6.257-.018,12.515,0a4.173,4.173,0,0,1,4.146,3.645,4.16,4.16,0,0,1-2.895,4.514,5.385,5.385,0,0,1-1.481.208C-707.493,802.13-709.524,802.118-711.555,802.116Z" transform="translate(34.923 14.379)" fill="#333b44"/>
      </g>
    </g>
  </g>
</svg>
