<svg xmlns="http://www.w3.org/2000/svg" xmlns:xlink="http://www.w3.org/1999/xlink" width="980" height="245" viewBox="0 0 980 245">
  <defs>
    <filter id="矩形_4572" x="12.5" y="13.5" width="455" height="156" filterUnits="userSpaceOnUse">
      <feOffset dy="1" input="SourceAlpha"/>
      <feGaussianBlur stdDeviation="2.5" result="blur"/>
      <feFlood flood-opacity="0.02"/>
      <feComposite operator="in" in2="blur"/>
      <feComposite in="SourceGraphic"/>
    </filter>
    <filter id="矩形_5081" x="512.5" y="13.5" width="455" height="156" filterUnits="userSpaceOnUse">
      <feOffset dy="1" input="SourceAlpha"/>
      <feGaussianBlur stdDeviation="2.5" result="blur-2"/>
      <feFlood flood-opacity="0.02"/>
      <feComposite operator="in" in2="blur-2"/>
      <feComposite in="SourceGraphic"/>
    </filter>
    <clipPath id="clip-f-9">
      <rect width="980" height="245"/>
    </clipPath>
  </defs>
  <g id="f-9" clip-path="url(#clip-f-9)">
    <rect width="980" height="245" fill="#fff"/>
    <g id="矩形_4556" data-name="矩形 4556" fill="#f5f7fc" stroke="#edeff6" stroke-width="1">
      <rect width="480" height="245" rx="4" stroke="none"/>
      <rect x="0.5" y="0.5" width="479" height="244" rx="3.5" fill="none"/>
    </g>
    <g transform="matrix(1, 0, 0, 1, 0, 0)" filter="url(#矩形_4572)">
      <g id="矩形_4572-2" data-name="矩形 4572" transform="translate(20 20)" fill="#fff" stroke="rgba(231,235,246,0.7)" stroke-width="1">
        <rect width="440" height="141" rx="4" stroke="none"/>
        <rect x="0.5" y="0.5" width="439" height="140" rx="3.5" fill="none"/>
      </g>
    </g>
    <path id="矩形_4567" data-name="矩形 4567" d="M0,0H480a0,0,0,0,1,0,0V0a4,4,0,0,1-4,4H4A4,4,0,0,1,0,0V0A0,0,0,0,1,0,0Z" transform="translate(0 241)" fill="#44c261"/>
    <g id="组件_448_30" data-name="组件 448 – 30" transform="translate(20 201)">
      <circle id="椭圆_479" data-name="椭圆 479" cx="12" cy="12" r="12" fill="#44c261"/>
      <path id="路径_6439" data-name="路径 6439" d="M-13404.822-12343.829l3.727,3.408,6.229-7.4" transform="translate(13411.515 12356.083)" fill="none" stroke="#fff" stroke-width="2.5"/>
    </g>
    <text id="正确示范" transform="translate(54 219)" fill="#13ce66" font-size="16" font-family="MicrosoftYaHeiUI, Microsoft YaHei UI"><tspan x="0" y="0">正确示范</tspan></text>
    <g id="矩形_4556-2" data-name="矩形 4556" transform="translate(500)" fill="#f5f7fc" stroke="#edeff6" stroke-width="1">
      <rect width="480" height="245" rx="4" stroke="none"/>
      <rect x="0.5" y="0.5" width="479" height="244" rx="3.5" fill="none"/>
    </g>
    <path id="矩形_4567-2" data-name="矩形 4567" d="M0,0H480a0,0,0,0,1,0,0V0a4,4,0,0,1-4,4H4A4,4,0,0,1,0,0V0A0,0,0,0,1,0,0Z" transform="translate(500 241)" fill="#ff4949"/>
    <g id="组件_448_31" data-name="组件 448 – 31" transform="translate(520 201)">
      <g id="组_13960" data-name="组 13960" transform="translate(-0.146 -0.239)">
        <g id="组_13956" data-name="组 13956">
          <circle id="椭圆_479-2" data-name="椭圆 479" cx="12" cy="12" r="12" transform="translate(0.146 0.239)" fill="#ff4949"/>
        </g>
        <g id="组_13957" data-name="组 13957" transform="translate(8.356 8.356)">
          <g id="组_13959" data-name="组 13959" transform="translate(-0.304 -0.305)">
            <path id="路径_6440" data-name="路径 6440" d="M-13395.8-12073.376l-8.209,8.209" transform="translate(13404.005 12073.376)" fill="none" stroke="#fff" stroke-width="2.5"/>
            <path id="路径_6441" data-name="路径 6441" d="M-13404-12073.376l8.209,8.209" transform="translate(13404.005 12073.376)" fill="none" stroke="#fff" stroke-width="2.5"/>
          </g>
        </g>
      </g>
    </g>
    <text id="错误示范" transform="translate(554 219)" fill="#ff4949" font-size="16" font-family="MicrosoftYaHeiUI, Microsoft YaHei UI"><tspan x="0" y="0">错误示范</tspan></text>
    <g id="组_15927" data-name="组 15927" transform="translate(39 6.949)">
      <g id="组_14164" data-name="组 14164" transform="translate(54.448 63.6)">
        <g id="组_10833" data-name="组 10833" transform="translate(5.552 5.552)">
          <path id="Shape" d="M-3576.823-2381.612c-.022-2.161-.462-2.714-7.809-6.77-1.517-.835-4.713-2.154-2.6-5.186.165-.239,2.529-4.183,2.593-6.011h.012s0-1.954-.03-2.6c-.18-4.183-3.734-5.858-6.48-5.858s-6.3,1.582-6.48,5.858c-.027.651-.028,2.6-.028,2.6h.011c.062,1.828,2.426,5.773,2.591,6.011,2.109,3.032-1.088,4.35-2.6,5.186-7.348,4.056-7.789,4.609-7.811,6.77v.508a1.707,1.707,0,0,0,1.706,1.706h25.23a1.707,1.707,0,0,0,1.707-1.706l0-.508Z" transform="translate(3605.463 2408.041)" fill="none" stroke="#333b44" stroke-linejoin="round" stroke-width="2.5" fill-rule="evenodd"/>
        </g>
        <g id="Page-1" transform="translate(17.469 23.128)">
          <g id="Offical_accounts-Copy" data-name="Offical accounts-Copy">
            <g id="公众号">
              <path id="Path" d="M-3597.971-2389.458l1.542,1.47h0a.653.653,0,0,0,.893,0l1.584-1.469h0a1.3,1.3,0,0,0,.342-1.385l-2.374-6.749-2.319,6.764h0A1.3,1.3,0,0,0-3597.971-2389.458Z" transform="translate(3598.375 2397.588)" fill="#333b44" stroke="#333b44" stroke-width="1" fill-rule="evenodd"/>
            </g>
          </g>
        </g>
      </g>
      <g id="组_14165" data-name="组 14165" transform="translate(106.764 64.841)">
        <g id="组_10823" data-name="组 10823" transform="translate(3.188 5.054)">
          <ellipse id="椭圆_343" data-name="椭圆 343" cx="2.428" cy="2.428" rx="2.428" ry="2.428" transform="translate(19.299 5.872)" fill="#333b44"/>
          <g id="矩形_3304" data-name="矩形 3304" fill="none" stroke="#333b44" stroke-miterlimit="10" stroke-width="2.5">
            <rect width="30.755" height="27.155" rx="1.263" stroke="none"/>
            <rect x="1.25" y="1.25" width="28.255" height="24.655" rx="0.013" fill="none"/>
          </g>
          <path id="路径_5353" data-name="路径 5353" d="M-3337.687-2392.5l.673-.533,7.32-8.1,7.992,8.1,5.009-4.156,7.46,7.886" transform="translate(3338.614 2412.239)" fill="none" stroke="#333b44" stroke-linejoin="round" stroke-miterlimit="10" stroke-width="2.5"/>
        </g>
      </g>
      <g id="组_14166" data-name="组 14166" transform="translate(157.929 64.396)">
        <g id="组_11044" data-name="组 11044" transform="translate(4.071 3.655)">
          <path id="路径_5506" data-name="路径 5506" d="M-3725.713-2001.492c-8.287,0-15.006,6.349-15.006,14.178a13.8,13.8,0,0,0,4.948,10.5l-.038,6.167,4.809-3.413a15.729,15.729,0,0,0,5.288.923c8.289,0,15.008-6.347,15.008-14.176S-3717.424-2001.492-3725.713-2001.492Z" transform="translate(3740.719 2001.492)" fill="none" stroke="#333b44" stroke-linecap="round" stroke-linejoin="round" stroke-miterlimit="10" stroke-width="2.5"/>
          <g id="组_11043" data-name="组 11043" transform="translate(5.005 11.689)">
            <ellipse id="椭圆_367" data-name="椭圆 367" cx="2.383" cy="2.383" rx="2.383" ry="2.383" transform="translate(15.238)" fill="#333b44"/>
            <ellipse id="椭圆_368" data-name="椭圆 368" cx="2.383" cy="2.383" rx="2.383" ry="2.383" fill="#333b44"/>
            <ellipse id="椭圆_369" data-name="椭圆 369" cx="2.383" cy="2.383" rx="2.383" ry="2.383" transform="translate(7.619)" fill="#333b44"/>
          </g>
        </g>
      </g>
      <g id="组_14167" data-name="组 14167" transform="translate(206.192 63.916)">
        <g id="组_13605" data-name="组 13605">
          <g id="组_10609" data-name="组 10609" transform="translate(5.659 5.501)">
            <path id="路径_5191" data-name="路径 5191" d="M-3443.97-2808.469l-7.407-7.343-19.691,19.516v7.264h7.328Z" transform="translate(3471.068 2815.812)" fill="none" stroke="#333b44" stroke-miterlimit="10" stroke-width="2.5"/>
            <line id="直线_497" data-name="直线 497" x2="6.674" y2="6.694" transform="translate(14.16 6.211)" fill="none" stroke="#333b44" stroke-linecap="round" stroke-linejoin="round" stroke-width="2.5"/>
            <line id="直线_498" data-name="直线 498" x2="12.394" transform="translate(13.987 26.78)" fill="none" stroke="#333b44" stroke-miterlimit="10" stroke-width="2.5"/>
          </g>
        </g>
      </g>
      <g id="组_14168" data-name="组 14168" transform="translate(257.202 63.916)">
        <g id="组_11351" data-name="组 11351" transform="translate(4.383 4.379)">
          <path id="路径_5660" data-name="路径 5660" d="M-3712.641-1491.217l-13.216-.147a1.24,1.24,0,0,0-.89.362l-13.234,13.234a1.856,1.856,0,0,0,0,2.622l12.738,12.738a1.855,1.855,0,0,0,2.622,0l13.226-13.226a1.243,1.243,0,0,0,.36-.909l-.384-13.473A1.239,1.239,0,0,0-3712.641-1491.217Z" transform="translate(3740.523 1491.364)" fill="none" stroke="#333b44" stroke-miterlimit="10" stroke-width="2.5"/>
          <ellipse id="椭圆_384" data-name="椭圆 384" cx="2.391" cy="2.391" rx="2.391" ry="2.391" transform="translate(18.614 5.769)" fill="#333b44"/>
        </g>
      </g>
      <g id="组_14186" data-name="组 14186" transform="translate(309.983 64.917)">
        <path id="路径_5748" data-name="路径 5748" d="M-3125.885-1259.948h-10.394v-27.494h24.558v6.672" transform="translate(3140.296 1291.906)" fill="none" stroke="#333b44" stroke-linejoin="round" stroke-miterlimit="10" stroke-width="2.5"/>
        <line id="直线_688" data-name="直线 688" x2="12.594" transform="translate(8.682 10.55)" fill="none" stroke="#333b44" stroke-linejoin="round" stroke-width="2.5"/>
        <line id="直线_689" data-name="直线 689" x2="5.569" transform="translate(8.682 16.29)" fill="none" stroke="#333b44" stroke-linejoin="round" stroke-width="2.5"/>
        <g id="组_11575" data-name="组 11575" transform="translate(16.097 15.419)">
          <ellipse id="椭圆_402" data-name="椭圆 402" cx="8.431" cy="8.431" rx="8.431" ry="8.431" fill="#fff" stroke="#333b44" stroke-linejoin="round" stroke-width="2.5"/>
        </g>
        <path id="路径_5749" data-name="路径 5749" d="M-3117.644-1272.5h-4.908v-4.908" transform="translate(3146.879 1296.719)" fill="none" stroke="#333b44" stroke-linejoin="round" stroke-miterlimit="10" stroke-width="2.5"/>
      </g>
    </g>
    <g transform="matrix(1, 0, 0, 1, 0, 0)" filter="url(#矩形_5081)">
      <g id="矩形_5081-2" data-name="矩形 5081" transform="translate(520 20)" fill="#fff" stroke="rgba(231,235,246,0.7)" stroke-width="1">
        <rect width="440" height="141" rx="4" stroke="none"/>
        <rect x="0.5" y="0.5" width="439" height="140" rx="3.5" fill="none"/>
      </g>
    </g>
    <g id="组_15928" data-name="组 15928" transform="translate(490.845 -40.58)">
      <g id="组_14175" data-name="组 14175" transform="translate(275.533 29.587)">
        <path id="路径_6643" data-name="路径 6643" d="M100.035,116.007a16.007,16.007,0,1,1,9.321-29.031,1.029,1.029,0,0,1,.252,1.433l-.005.008a1.05,1.05,0,0,1-1.441.246,13.684,13.684,0,0,0-8.127-2.613A13.95,13.95,0,1,0,113.985,100h0a1.028,1.028,0,1,1,2.057,0A16.027,16.027,0,0,1,100.035,116.007Z" fill="#333b44"/>
        <path id="路径_6644" data-name="路径 6644" d="M104.15,104.835a1.093,1.093,0,0,1-.555-.165l-5.062-3.291a1.03,1.03,0,0,1-.555-.865V89.9a1.049,1.049,0,0,1,1.029-1.029,1.029,1.029,0,0,1,1.028,1.029V100l4.589,2.983a1.03,1.03,0,0,1,.288,1.42.989.989,0,0,1-.762.432Zm2.387-14.052a1.05,1.05,0,0,1-1.029-.865,1.029,1.029,0,0,1,.862-1.172h0l3-.453-.452-3a1.007,1.007,0,0,1,.843-1.149l.021,0A1.029,1.029,0,0,1,110.96,85v0l.6,4.115a1,1,0,0,1-.185.761,1.087,1.087,0,0,1-.679.391l-4.012.617Z" fill="#333b44"/>
      </g>
      <g id="组_14177" data-name="组 14177" transform="translate(20.552 31.236)">
        <path id="路径_6648" data-name="路径 6648" d="M100,101.067a8.534,8.534,0,1,1,8.533-8.534h0A8.533,8.533,0,0,1,100,101.067Zm0-12.8a4.267,4.267,0,1,0,4.267,4.266h0A4.267,4.267,0,0,0,100,88.267Zm0,23.466,2.133-8.533H97.867ZM97.867,116H89.8l-3.2-12.8h7v4.267H92.064l1.067,4.266h4.736Zm12.33,0h-8.064v-4.267h4.736l1.067-4.266H106.4V103.2h7Z" fill="#333b44"/>
      </g>
      <g id="组_14183" data-name="组 14183" transform="translate(-647.807 -265.893)">
        <g id="组_14182" data-name="组 14182" transform="translate(718.514 297.128)">
          <path id="路径_6645" data-name="路径 6645" d="M114.458,112.145H85.542A1.542,1.542,0,0,1,84,110.6h0V89.4a1.542,1.542,0,0,1,1.542-1.543h28.916A1.542,1.542,0,0,1,116,89.4h0v21.2a1.542,1.542,0,0,1-1.542,1.543ZM87.084,109.06h25.832V90.94H87.084Z" fill="#333b44"/>
          <path id="路径_6646" data-name="路径 6646" d="M101.735,96.916a2.891,2.891,0,1,0,2.893-2.894,2.891,2.891,0,0,0-2.893,2.894v0Z" fill="#333b44"/>
          <path id="路径_6647" data-name="路径 6647" d="M110.94,112.145H89.687c-2.289,0-3.074-1.1-3.338-1.752s-.461-1.988,1.187-3.577l5.245-5.057a5.582,5.582,0,0,1,7.691,0l1.742,1.68a2.75,2.75,0,0,0,1.793.84.819.819,0,0,0,.647-.236,3.651,3.651,0,0,1,2.795-1.243,5.384,5.384,0,0,1,3.961,1.978l1.67,1.907c1.54,1.761,1.266,3.134.966,3.8a3.106,3.106,0,0,1-3.106,1.665ZM89.653,109.06h21.369a3.247,3.247,0,0,0-.263-.343l-1.67-1.907a2.373,2.373,0,0,0-1.64-.924.571.571,0,0,0-.473.189,3.87,3.87,0,0,1-2.968,1.289,5.8,5.8,0,0,1-3.935-1.7l-1.741-1.68a2.5,2.5,0,0,0-3.41,0l-5.245,5.057Z" fill="#333b44"/>
        </g>
      </g>
      <g id="组_14172" data-name="组 14172" transform="translate(123.349 31.816)">
        <path id="路径_6637" data-name="路径 6637" d="M110.7,84H89.3a5.378,5.378,0,0,0-5.362,5.362v14.06a5.377,5.377,0,0,0,5.362,5.361h4.958V116l8.936-7.217h7.5a5.376,5.376,0,0,0,5.361-5.361V89.36A5.376,5.376,0,0,0,110.7,84Zm2.011,19.422a2.038,2.038,0,0,1-2.011,2.01h-8.689l-.921.744-3.479,2.811V105.43H89.3a2.038,2.038,0,0,1-2.011-2.01V89.36A2.037,2.037,0,0,1,89.3,87.35h21.4a2.037,2.037,0,0,1,2.011,2.01v14.06Z" fill="#333b44"/>
        <path id="路径_6638" data-name="路径 6638" d="M91.172,96.391a1.953,1.953,0,0,0,3.905,0h0a1.953,1.953,0,0,0-3.905,0Z" fill="#333b44"/>
        <path id="路径_6639" data-name="路径 6639" d="M98.046,96.391A1.952,1.952,0,1,0,100,94.439,1.953,1.953,0,0,0,98.046,96.391Z" fill="#333b44"/>
        <path id="路径_6640" data-name="路径 6640" d="M104.92,96.391a1.952,1.952,0,0,0,3.9,0h0a1.952,1.952,0,0,0-3.9,0Z" fill="#333b44"/>
      </g>
      <g id="组_14181" data-name="组 14181" transform="translate(-496.833 -308.764)">
        <g id="组_14179" data-name="组 14179" transform="translate(-2)">
          <g id="组_14173" data-name="组 14173" transform="translate(669.154 342.846)">
            <path id="路径_6641" data-name="路径 6641" d="M110.7,80.154,87.846,103.011v9.143h9.143L119.846,89.3ZM114.68,89.3,112.7,91.278l-1.219-1.219-1.523-1.524-1.219-1.219,1.981-1.981Zm-6.262.762-12.5,12.5L94.7,101.335l12.5-12.5ZM95.48,108.5H91.5V104.52l1.676-1.677,1.22,1.219,1.523,1.524,1.219,1.219,1.524-1.524-1.219-1.219,12.5-12.495,1.219,1.219Z" fill="#333b44"/>
          </g>
          <g id="组_14174" data-name="组 14174" transform="translate(723 340)">
            <path id="路径_6642" data-name="路径 6642" d="M97,116,84,103l19-19h13V97Zm0-5.6L112,96V88h-8L89.6,103l7.4,7.4ZM108,90a2,2,0,1,1-2,2A1.89,1.89,0,0,1,108,90Z" fill="#333b44"/>
          </g>
        </g>
      </g>
    </g>
  </g>
</svg>
