<svg xmlns="http://www.w3.org/2000/svg" xmlns:xlink="http://www.w3.org/1999/xlink" width="612" height="188" viewBox="0 0 612 188">
  <defs>
    <filter id="矩形_4556" x="12.5" y="13.5" width="587" height="163" filterUnits="userSpaceOnUse">
      <feOffset dy="1" input="SourceAlpha"/>
      <feGaussianBlur stdDeviation="2.5" result="blur"/>
      <feFlood flood-opacity="0.02"/>
      <feComposite operator="in" in2="blur"/>
      <feComposite in="SourceGraphic"/>
    </filter>
    <clipPath id="clip-h-4">
      <rect width="612" height="188"/>
    </clipPath>
  </defs>
  <g id="h-4" clip-path="url(#clip-h-4)">
    <rect width="612" height="188" fill="#fff"/>
    <g id="组件_443_34" data-name="组件 443 – 34">
      <g id="矩形_4553" data-name="矩形 4553" fill="#f5f7fc" stroke="#edeff6" stroke-width="1">
        <rect width="612" height="188" rx="4" stroke="none"/>
        <rect x="0.5" y="0.5" width="611" height="187" rx="3.5" fill="none"/>
      </g>
      <g transform="matrix(1, 0, 0, 1, 0, 0)" filter="url(#矩形_4556)">
        <g id="矩形_4556-2" data-name="矩形 4556" transform="translate(20 20)" fill="#fff" stroke="rgba(231,235,246,0.7)" stroke-width="1">
          <rect width="572" height="148" rx="4" stroke="none"/>
          <rect x="0.5" y="0.5" width="571" height="147" rx="3.5" fill="none"/>
        </g>
      </g>
    </g>
    <g id="组_16009" data-name="组 16009" transform="translate(0 -45)">
      <text id="_8px" data-name="8px" transform="translate(69 99)" fill="#377CFD" font-size="18" font-family="MicrosoftYaHeiUI, Microsoft YaHei UI"><tspan x="0" y="0">8px</tspan></text>
      <g id="组_16008" data-name="组 16008">
        <rect id="矩形_5041" data-name="矩形 5041" width="8" height="32" transform="translate(76 123)" fill="#377CFD" opacity="0.8"/>
        <g id="组件_460_10" data-name="组件 460 – 10" transform="translate(84 106.499) rotate(90)">
          <rect id="矩形_5051" data-name="矩形 5051" width="11.001" height="1.641" fill="#377CFD"/>
          <rect id="矩形_5052" data-name="矩形 5052" width="11.001" height="1.641" transform="translate(0 6.359)" fill="#377CFD"/>
          <rect id="矩形_5053" data-name="矩形 5053" width="7.026" height="1.572" transform="translate(6.286 0.41) rotate(90)" fill="#377CFD"/>
        </g>
        <g id="组_16007" data-name="组 16007" transform="translate(-3668 11863)">
          <g id="矩形_4207" data-name="矩形 4207" transform="translate(3752 -11740)" fill="#fff" stroke="#e4e5eb" stroke-width="1">
            <rect width="480" height="32" rx="4" stroke="none"/>
            <rect x="0.5" y="0.5" width="479" height="31" rx="3.5" fill="none"/>
          </g>
          <text id="请输入文字" transform="translate(3760 -11719)" fill="rgba(0,0,0,0.24)" font-size="14" font-family="SourceHanSansCN-Normal, Source Han Sans CN"><tspan x="0" y="0">请输入文字</tspan></text>
          <text id="文字" transform="translate(3744 -11719)" fill="rgba(0,0,0,0.8)" font-size="14" font-family="SourceHanSansCN-Normal, Source Han Sans CN"><tspan x="-28" y="0">文字</tspan></text>
        </g>
      </g>
    </g>
  </g>
</svg>
