<svg xmlns="http://www.w3.org/2000/svg" xmlns:xlink="http://www.w3.org/1999/xlink" width="612" height="128" viewBox="0 0 612 128">
  <defs>
    <filter id="矩形_4556" x="12.5" y="13.5" width="587" height="103" filterUnits="userSpaceOnUse">
      <feOffset dy="1" input="SourceAlpha"/>
      <feGaussianBlur stdDeviation="2.5" result="blur"/>
      <feFlood flood-opacity="0.02"/>
      <feComposite operator="in" in2="blur"/>
      <feComposite in="SourceGraphic"/>
    </filter>
    <clipPath id="clip-h-8">
      <rect width="612" height="128"/>
    </clipPath>
  </defs>
  <g id="h-8" clip-path="url(#clip-h-8)">
    <rect width="612" height="128" fill="#fff"/>
    <g id="组件_443_38" data-name="组件 443 – 38">
      <g id="矩形_4553" data-name="矩形 4553" fill="#f5f7fc" stroke="#edeff6" stroke-width="1">
        <rect width="612" height="128" rx="4" stroke="none"/>
        <rect x="0.5" y="0.5" width="611" height="127" rx="3.5" fill="none"/>
      </g>
      <g transform="matrix(1, 0, 0, 1, 0, 0)" filter="url(#矩形_4556)">
        <g id="矩形_4556-2" data-name="矩形 4556" transform="translate(20 20)" fill="#fff" stroke="rgba(231,235,246,0.7)" stroke-width="1">
          <rect width="572" height="88" rx="4" stroke="none"/>
          <rect x="0.5" y="0.5" width="571" height="87" rx="3.5" fill="none"/>
        </g>
      </g>
    </g>
    <g id="组件_460_18" data-name="组件 460 – 18" transform="translate(302 62.5) rotate(-90)">
      <rect id="矩形_5051" data-name="矩形 5051" width="11.001" height="1.641" fill="#377CFD"/>
      <rect id="矩形_5052" data-name="矩形 5052" width="11.001" height="1.641" transform="translate(0 6.358)" fill="#377CFD"/>
      <rect id="矩形_5053" data-name="矩形 5053" width="7.026" height="1.572" transform="translate(6.286 0.41) rotate(90)" fill="#377CFD"/>
    </g>
    <rect id="矩形_1625" data-name="矩形 1625" width="16" height="16" transform="translate(515 56)" fill="none" opacity="0.3"/>
    <text id="_16px" data-name="16px" transform="translate(32 26)" fill="#377CFD" font-size="18" font-family="MicrosoftYaHeiUI, Microsoft YaHei UI"><tspan x="0" y="0">16px</tspan></text>
    <text id="_16px-2" data-name="16px" transform="translate(540 26)" fill="#377CFD" font-size="18" font-family="MicrosoftYaHeiUI, Microsoft YaHei UI"><tspan x="0" y="0">16px</tspan></text>
    <g id="矩形_1473" data-name="矩形 1473" transform="translate(44 48)" fill="#fff" stroke="#e4e5eb" stroke-width="1">
      <rect width="524" height="32" rx="4" stroke="none"/>
      <rect x="0.5" y="0.5" width="523" height="31" rx="3.5" fill="none"/>
    </g>
    <path id="计划页_-_aaa333_-_哈哈哈哈" data-name="计划页 - aaa333 - 哈哈哈哈" d="M10.7,9.06l2.957,2.956a1.164,1.164,0,0,1-1.646,1.646L9.06,10.7A5.838,5.838,0,1,1,10.7,9.06Zm-4.849-6.7A3.492,3.492,0,1,0,9.348,5.855,3.492,3.492,0,0,0,5.855,2.363Z" transform="translate(537.997 57.667)" fill="#9699ac" fill-rule="evenodd"/>
    <text id="搜索" transform="translate(60 69)" fill="rgba(0,0,0,0.24)" font-size="14" font-family="MicrosoftYaHeiUI, Microsoft YaHei UI"><tspan x="0" y="0">搜索</tspan></text>
    <rect id="矩形_5160" data-name="矩形 5160" width="32" height="16" transform="translate(44 80) rotate(-90)" fill="#377CFD" opacity="0.3"/>
    <rect id="矩形_5161" data-name="矩形 5161" width="32" height="16" transform="translate(552 80) rotate(-90)" fill="#377CFD" opacity="0.3"/>
    <g id="组件_460_19" data-name="组件 460 – 19" transform="translate(44 43.5) rotate(-90)">
      <rect id="矩形_5051-2" data-name="矩形 5051" width="11.001" height="1.641" fill="#377CFD"/>
      <rect id="矩形_5052-2" data-name="矩形 5052" width="11.001" height="1.641" transform="translate(0 14.359)" fill="#377CFD"/>
      <rect id="矩形_5053-2" data-name="矩形 5053" width="15.026" height="1.572" transform="translate(6.286 0.41) rotate(90)" fill="#377CFD"/>
    </g>
    <g id="组件_460_20" data-name="组件 460 – 20" transform="translate(552 43.5) rotate(-90)">
      <rect id="矩形_5051-3" data-name="矩形 5051" width="11.001" height="1.641" fill="#377CFD"/>
      <rect id="矩形_5052-3" data-name="矩形 5052" width="11.001" height="1.641" transform="translate(0 14.359)" fill="#377CFD"/>
      <rect id="矩形_5053-3" data-name="矩形 5053" width="15.026" height="1.572" transform="translate(6.286 0.41) rotate(90)" fill="#377CFD"/>
    </g>
  </g>
</svg>
