<svg xmlns="http://www.w3.org/2000/svg" xmlns:xlink="http://www.w3.org/1999/xlink" width="980" height="831" viewBox="0 0 980 831">
  <defs>
    <filter id="矩形_4572" x="512.5" y="13.5" width="455" height="156" filterUnits="userSpaceOnUse">
      <feOffset dy="1" input="SourceAlpha"/>
      <feGaussianBlur stdDeviation="2.5" result="blur"/>
      <feFlood flood-opacity="0.02"/>
      <feComposite operator="in" in2="blur"/>
      <feComposite in="SourceGraphic"/>
    </filter>
    <filter id="矩形_4572-2" x="12.5" y="13.5" width="455" height="156" filterUnits="userSpaceOnUse">
      <feOffset dy="1" input="SourceAlpha"/>
      <feGaussianBlur stdDeviation="2.5" result="blur-2"/>
      <feFlood flood-opacity="0.02"/>
      <feComposite operator="in" in2="blur-2"/>
      <feComposite in="SourceGraphic"/>
    </filter>
    <filter id="矩形_4572-3" x="512.5" y="306.5" width="455" height="156" filterUnits="userSpaceOnUse">
      <feOffset dy="1" input="SourceAlpha"/>
      <feGaussianBlur stdDeviation="2.5" result="blur-3"/>
      <feFlood flood-opacity="0.02"/>
      <feComposite operator="in" in2="blur-3"/>
      <feComposite in="SourceGraphic"/>
    </filter>
    <filter id="矩形_4572-4" x="12.5" y="306.5" width="455" height="156" filterUnits="userSpaceOnUse">
      <feOffset dy="1" input="SourceAlpha"/>
      <feGaussianBlur stdDeviation="2.5" result="blur-4"/>
      <feFlood flood-opacity="0.02"/>
      <feComposite operator="in" in2="blur-4"/>
      <feComposite in="SourceGraphic"/>
    </filter>
    <filter id="矩形_4572-5" x="512.5" y="599.5" width="455" height="156" filterUnits="userSpaceOnUse">
      <feOffset dy="1" input="SourceAlpha"/>
      <feGaussianBlur stdDeviation="2.5" result="blur-5"/>
      <feFlood flood-opacity="0.02"/>
      <feComposite operator="in" in2="blur-5"/>
      <feComposite in="SourceGraphic"/>
    </filter>
    <filter id="矩形_4572-6" x="12.5" y="599.5" width="455" height="156" filterUnits="userSpaceOnUse">
      <feOffset dy="1" input="SourceAlpha"/>
      <feGaussianBlur stdDeviation="2.5" result="blur-6"/>
      <feFlood flood-opacity="0.02"/>
      <feComposite operator="in" in2="blur-6"/>
      <feComposite in="SourceGraphic"/>
    </filter>
    <clipPath id="clip-image-31">
      <rect width="980" height="831"/>
    </clipPath>
  </defs>
  <g id="image-31" clip-path="url(#clip-image-31)">
    <rect width="980" height="831" fill="#fff"/>
    <g id="组_14038" data-name="组 14038">
      <g id="矩形_4556" data-name="矩形 4556" transform="translate(500)" fill="#f5f7fc" stroke="#edeff6" stroke-width="1">
        <rect width="480" height="245" rx="4" stroke="none"/>
        <rect x="0.5" y="0.5" width="479" height="244" rx="3.5" fill="none"/>
      </g>
      <g id="矩形_4556-2" data-name="矩形 4556" fill="#f5f7fc" stroke="#edeff6" stroke-width="1">
        <rect width="480" height="245" rx="4" stroke="none"/>
        <rect x="0.5" y="0.5" width="479" height="244" rx="3.5" fill="none"/>
      </g>
      <g transform="matrix(1, 0, 0, 1, 0, 0)" filter="url(#矩形_4572)">
        <g id="矩形_4572-7" data-name="矩形 4572" transform="translate(520 20)" fill="#fff" stroke="rgba(231,235,246,0.7)" stroke-width="1">
          <rect width="440" height="141" rx="4" stroke="none"/>
          <rect x="0.5" y="0.5" width="439" height="140" rx="3.5" fill="none"/>
        </g>
      </g>
      <path id="矩形_4567" data-name="矩形 4567" d="M0,0H480a0,0,0,0,1,0,0V0a4,4,0,0,1-4,4H4A4,4,0,0,1,0,0V0A0,0,0,0,1,0,0Z" transform="translate(0 241)" fill="#44c261"/>
      <g id="组件_448_24" data-name="组件 448 – 24" transform="translate(20 201)">
        <circle id="椭圆_479" data-name="椭圆 479" cx="12" cy="12" r="12" fill="#44c261"/>
        <path id="路径_6439" data-name="路径 6439" d="M-13404.822-12343.829l3.727,3.408,6.229-7.4" transform="translate(13411.515 12356.083)" fill="none" stroke="#fff" stroke-width="2.5"/>
      </g>
      <g transform="matrix(1, 0, 0, 1, 0, 0)" filter="url(#矩形_4572-2)">
        <g id="矩形_4572-8" data-name="矩形 4572" transform="translate(20 20)" fill="#fff" stroke="rgba(231,235,246,0.7)" stroke-width="1">
          <rect width="440" height="141" rx="4" stroke="none"/>
          <rect x="0.5" y="0.5" width="439" height="140" rx="3.5" fill="none"/>
        </g>
      </g>
      <text id="摄像头链接出错" transform="translate(184 97)" fill="rgba(0,0,0,0.8)" font-size="16" font-family="MicrosoftYaHeiUI, Microsoft YaHei UI"><tspan x="0" y="0">摄像头链接出错</tspan></text>
      <text id="无法打开您的摄像头" transform="translate(668 97)" fill="rgba(0,0,0,0.8)" font-size="16" font-family="MicrosoftYaHeiUI, Microsoft YaHei UI"><tspan x="0" y="0">无法打开您的摄像头</tspan></text>
      <text id="正确示范" transform="translate(54 219)" fill="#13ce66" font-size="16" font-family="MicrosoftYaHeiUI, Microsoft YaHei UI"><tspan x="0" y="0">正确示范</tspan></text>
      <path id="矩形_4567-2" data-name="矩形 4567" d="M0,0H480a0,0,0,0,1,0,0V0a4,4,0,0,1-4,4H4A4,4,0,0,1,0,0V0A0,0,0,0,1,0,0Z" transform="translate(500 241)" fill="#ff4949"/>
      <g id="组件_448_25" data-name="组件 448 – 25" transform="translate(520 201)">
        <g id="组_13960" data-name="组 13960" transform="translate(-0.146 -0.239)">
          <g id="组_13956" data-name="组 13956">
            <circle id="椭圆_479-2" data-name="椭圆 479" cx="12" cy="12" r="12" transform="translate(0.146 0.239)" fill="#ff4949"/>
          </g>
          <g id="组_13957" data-name="组 13957" transform="translate(8.356 8.356)">
            <g id="组_13959" data-name="组 13959" transform="translate(-0.304 -0.305)">
              <path id="路径_6440" data-name="路径 6440" d="M-13395.8-12073.376l-8.209,8.209" transform="translate(13404.005 12073.376)" fill="none" stroke="#fff" stroke-width="2.5"/>
              <path id="路径_6441" data-name="路径 6441" d="M-13404-12073.376l8.209,8.209" transform="translate(13404.005 12073.376)" fill="none" stroke="#fff" stroke-width="2.5"/>
            </g>
          </g>
        </g>
      </g>
      <text id="错误示范" transform="translate(554 219)" fill="#ff4949" font-size="16" font-family="MicrosoftYaHeiUI, Microsoft YaHei UI"><tspan x="0" y="0">错误示范</tspan></text>
    </g>
    <g id="组_14039" data-name="组 14039" transform="translate(0 293)">
      <g id="矩形_4556-3" data-name="矩形 4556" transform="translate(500)" fill="#f5f7fc" stroke="#edeff6" stroke-width="1">
        <rect width="480" height="245" rx="4" stroke="none"/>
        <rect x="0.5" y="0.5" width="479" height="244" rx="3.5" fill="none"/>
      </g>
      <g id="矩形_4556-4" data-name="矩形 4556" fill="#f5f7fc" stroke="#edeff6" stroke-width="1">
        <rect width="480" height="245" rx="4" stroke="none"/>
        <rect x="0.5" y="0.5" width="479" height="244" rx="3.5" fill="none"/>
      </g>
      <g transform="matrix(1, 0, 0, 1, 0, -293)" filter="url(#矩形_4572-3)">
        <g id="矩形_4572-9" data-name="矩形 4572" transform="translate(520 313)" fill="#fff" stroke="rgba(231,235,246,0.7)" stroke-width="1">
          <rect width="440" height="141" rx="4" stroke="none"/>
          <rect x="0.5" y="0.5" width="439" height="140" rx="3.5" fill="none"/>
        </g>
      </g>
      <path id="矩形_4567-3" data-name="矩形 4567" d="M0,0H480a0,0,0,0,1,0,0V0a4,4,0,0,1-4,4H4A4,4,0,0,1,0,0V0A0,0,0,0,1,0,0Z" transform="translate(0 241)" fill="#44c261"/>
      <g id="组件_448_26" data-name="组件 448 – 26" transform="translate(20 201)">
        <circle id="椭圆_479-3" data-name="椭圆 479" cx="12" cy="12" r="12" fill="#44c261"/>
        <path id="路径_6439-2" data-name="路径 6439" d="M-13404.822-12343.829l3.727,3.408,6.229-7.4" transform="translate(13411.515 12356.083)" fill="none" stroke="#fff" stroke-width="2.5"/>
      </g>
      <g transform="matrix(1, 0, 0, 1, 0, -293)" filter="url(#矩形_4572-4)">
        <g id="矩形_4572-10" data-name="矩形 4572" transform="translate(20 313)" fill="#fff" stroke="rgba(231,235,246,0.7)" stroke-width="1">
          <rect width="440" height="141" rx="4" stroke="none"/>
          <rect x="0.5" y="0.5" width="439" height="140" rx="3.5" fill="none"/>
        </g>
      </g>
      <text id="页面出错了_重新刷新页面" data-name="页面出错了，重新刷新页面" transform="translate(144 97)" fill="rgba(0,0,0,0.8)" font-size="16" font-family="MicrosoftYaHeiUI, Microsoft YaHei UI"><tspan x="0" y="0">页面出错了，重新刷新页面</tspan></text>
      <text id="请求失败" transform="translate(708 97)" fill="rgba(0,0,0,0.8)" font-size="16" font-family="MicrosoftYaHeiUI, Microsoft YaHei UI"><tspan x="0" y="0">请求失败</tspan></text>
      <text id="正确示范-2" data-name="正确示范" transform="translate(54 219)" fill="#13ce66" font-size="16" font-family="MicrosoftYaHeiUI, Microsoft YaHei UI"><tspan x="0" y="0">正确示范</tspan></text>
      <path id="矩形_4567-4" data-name="矩形 4567" d="M0,0H480a0,0,0,0,1,0,0V0a4,4,0,0,1-4,4H4A4,4,0,0,1,0,0V0A0,0,0,0,1,0,0Z" transform="translate(500 241)" fill="#ff4949"/>
      <g id="组件_448_27" data-name="组件 448 – 27" transform="translate(520 201)">
        <g id="组_13960-2" data-name="组 13960" transform="translate(-0.146 -0.239)">
          <g id="组_13956-2" data-name="组 13956">
            <circle id="椭圆_479-4" data-name="椭圆 479" cx="12" cy="12" r="12" transform="translate(0.146 0.239)" fill="#ff4949"/>
          </g>
          <g id="组_13957-2" data-name="组 13957" transform="translate(8.356 8.356)">
            <g id="组_13959-2" data-name="组 13959" transform="translate(-0.304 -0.305)">
              <path id="路径_6440-2" data-name="路径 6440" d="M-13395.8-12073.376l-8.209,8.209" transform="translate(13404.005 12073.376)" fill="none" stroke="#fff" stroke-width="2.5"/>
              <path id="路径_6441-2" data-name="路径 6441" d="M-13404-12073.376l8.209,8.209" transform="translate(13404.005 12073.376)" fill="none" stroke="#fff" stroke-width="2.5"/>
            </g>
          </g>
        </g>
      </g>
      <text id="错误示范-2" data-name="错误示范" transform="translate(554 219)" fill="#ff4949" font-size="16" font-family="MicrosoftYaHeiUI, Microsoft YaHei UI"><tspan x="0" y="0">错误示范</tspan></text>
    </g>
    <g id="组_14040" data-name="组 14040" transform="translate(0 586)">
      <g id="矩形_4556-5" data-name="矩形 4556" transform="translate(500)" fill="#f5f7fc" stroke="#edeff6" stroke-width="1">
        <rect width="480" height="245" rx="4" stroke="none"/>
        <rect x="0.5" y="0.5" width="479" height="244" rx="3.5" fill="none"/>
      </g>
      <g id="矩形_4556-6" data-name="矩形 4556" fill="#f5f7fc" stroke="#edeff6" stroke-width="1">
        <rect width="480" height="245" rx="4" stroke="none"/>
        <rect x="0.5" y="0.5" width="479" height="244" rx="3.5" fill="none"/>
      </g>
      <g transform="matrix(1, 0, 0, 1, 0, -586)" filter="url(#矩形_4572-5)">
        <g id="矩形_4572-11" data-name="矩形 4572" transform="translate(520 606)" fill="#fff" stroke="rgba(231,235,246,0.7)" stroke-width="1">
          <rect width="440" height="141" rx="4" stroke="none"/>
          <rect x="0.5" y="0.5" width="439" height="140" rx="3.5" fill="none"/>
        </g>
      </g>
      <path id="矩形_4567-5" data-name="矩形 4567" d="M0,0H480a0,0,0,0,1,0,0V0a4,4,0,0,1-4,4H4A4,4,0,0,1,0,0V0A0,0,0,0,1,0,0Z" transform="translate(0 241)" fill="#44c261"/>
      <g id="组件_448_28" data-name="组件 448 – 28" transform="translate(20 201)">
        <circle id="椭圆_479-5" data-name="椭圆 479" cx="12" cy="12" r="12" fill="#44c261"/>
        <path id="路径_6439-3" data-name="路径 6439" d="M-13404.822-12343.829l3.727,3.408,6.229-7.4" transform="translate(13411.515 12356.083)" fill="none" stroke="#fff" stroke-width="2.5"/>
      </g>
      <g transform="matrix(1, 0, 0, 1, 0, -586)" filter="url(#矩形_4572-6)">
        <g id="矩形_4572-12" data-name="矩形 4572" transform="translate(20 606)" fill="#fff" stroke="rgba(231,235,246,0.7)" stroke-width="1">
          <rect width="440" height="141" rx="4" stroke="none"/>
          <rect x="0.5" y="0.5" width="439" height="140" rx="3.5" fill="none"/>
        </g>
      </g>
      <text id="如果有问题_请告诉我们" data-name="如果有问题，请告诉我们" transform="translate(152 97)" fill="rgba(0,0,0,0.8)" font-size="16" font-family="MicrosoftYaHeiUI, Microsoft YaHei UI"><tspan x="0" y="0">如果有问题，请告诉我们</tspan></text>
      <text id="反馈问题" transform="translate(708 97)" fill="rgba(0,0,0,0.8)" font-size="16" font-family="MicrosoftYaHeiUI, Microsoft YaHei UI"><tspan x="0" y="0">反馈问题</tspan></text>
      <text id="正确示范-3" data-name="正确示范" transform="translate(54 219)" fill="#13ce66" font-size="16" font-family="MicrosoftYaHeiUI, Microsoft YaHei UI"><tspan x="0" y="0">正确示范</tspan></text>
      <path id="矩形_4567-6" data-name="矩形 4567" d="M0,0H480a0,0,0,0,1,0,0V0a4,4,0,0,1-4,4H4A4,4,0,0,1,0,0V0A0,0,0,0,1,0,0Z" transform="translate(500 241)" fill="#ff4949"/>
      <g id="组件_448_29" data-name="组件 448 – 29" transform="translate(520 201)">
        <g id="组_13960-3" data-name="组 13960" transform="translate(-0.146 -0.239)">
          <g id="组_13956-3" data-name="组 13956">
            <circle id="椭圆_479-6" data-name="椭圆 479" cx="12" cy="12" r="12" transform="translate(0.146 0.239)" fill="#ff4949"/>
          </g>
          <g id="组_13957-3" data-name="组 13957" transform="translate(8.356 8.356)">
            <g id="组_13959-3" data-name="组 13959" transform="translate(-0.304 -0.305)">
              <path id="路径_6440-3" data-name="路径 6440" d="M-13395.8-12073.376l-8.209,8.209" transform="translate(13404.005 12073.376)" fill="none" stroke="#fff" stroke-width="2.5"/>
              <path id="路径_6441-3" data-name="路径 6441" d="M-13404-12073.376l8.209,8.209" transform="translate(13404.005 12073.376)" fill="none" stroke="#fff" stroke-width="2.5"/>
            </g>
          </g>
        </g>
      </g>
      <text id="错误示范-3" data-name="错误示范" transform="translate(554 219)" fill="#ff4949" font-size="16" font-family="MicrosoftYaHeiUI, Microsoft YaHei UI"><tspan x="0" y="0">错误示范</tspan></text>
    </g>
  </g>
</svg>
