<svg xmlns="http://www.w3.org/2000/svg" xmlns:xlink="http://www.w3.org/1999/xlink" width="980" height="209" viewBox="0 0 980 209">
  <defs>
    <filter id="矩形_4556" x="12.5" y="13.5" width="955" height="184" filterUnits="userSpaceOnUse">
      <feOffset dy="1" input="SourceAlpha"/>
      <feGaussianBlur stdDeviation="2.5" result="blur"/>
      <feFlood flood-opacity="0.02"/>
      <feComposite operator="in" in2="blur"/>
      <feComposite in="SourceGraphic"/>
    </filter>
    <clipPath id="clip-image-6">
      <rect width="980" height="209"/>
    </clipPath>
  </defs>
  <g id="image-6" clip-path="url(#clip-image-6)">
    <rect width="980" height="209" fill="#fff"/>
    <g id="组件_443_4" data-name="组件 443 – 4">
      <g id="矩形_4553" data-name="矩形 4553" fill="#f5f7fc" stroke="#edeff6" stroke-width="1">
        <rect width="980" height="209" rx="4" stroke="none"/>
        <rect x="0.5" y="0.5" width="979" height="208" rx="3.5" fill="none"/>
      </g>
      <g transform="matrix(1, 0, 0, 1, 0, 0)" filter="url(#矩形_4556)">
        <g id="矩形_4556-2" data-name="矩形 4556" transform="translate(20 20)" fill="#fff" stroke="rgba(231,235,246,0.7)" stroke-width="1">
          <rect width="940" height="169" rx="4" stroke="none"/>
          <rect x="0.5" y="0.5" width="939" height="168" rx="3.5" fill="none"/>
        </g>
      </g>
    </g>
    <g id="组_13964" data-name="组 13964" transform="translate(0 -12)">
      <path id="矩形_4575" data-name="矩形 4575" d="M4,0H541a0,0,0,0,1,0,0V38a0,0,0,0,1,0,0H4a4,4,0,0,1-4-4V4A4,4,0,0,1,4,0Z" transform="translate(40 80)" fill="#377CFD"/>
      <rect id="矩形_4576" data-name="矩形 4576" width="270" height="38" transform="translate(581 80)" fill="#44c2ff"/>
      <path id="矩形_4582" data-name="矩形 4582" d="M0,0H85a4,4,0,0,1,4,4V34a4,4,0,0,1-4,4H0a0,0,0,0,1,0,0V0A0,0,0,0,1,0,0Z" transform="translate(851 80)" fill="#ff5722"/>
      <text id="主色60_" data-name="主色60%" transform="translate(279 152)" fill="rgba(0,0,0,0.8)" font-size="16" font-family="MicrosoftYaHeiUI, Microsoft YaHei UI"><tspan x="0" y="0">主色60%</tspan></text>
      <text id="辅助色30_" data-name="辅助色30%" transform="translate(676 152)" fill="rgba(0,0,0,0.8)" font-size="16" font-family="MicrosoftYaHeiUI, Microsoft YaHei UI"><tspan x="0" y="0">辅助色30%</tspan></text>
      <text id="提示色10_" data-name="提示色10%" transform="translate(856 152)" fill="rgba(0,0,0,0.8)" font-size="16" font-family="MicrosoftYaHeiUI, Microsoft YaHei UI"><tspan x="0" y="0">提示色10%</tspan></text>
    </g>
  </g>
</svg>
