<svg xmlns="http://www.w3.org/2000/svg" xmlns:xlink="http://www.w3.org/1999/xlink" width="980" height="433" viewBox="0 0 980 433">
  <defs>
    <filter id="路径_6442" x="12.5" y="37.5" width="225" height="296" filterUnits="userSpaceOnUse">
      <feOffset dy="1" input="SourceAlpha"/>
      <feGaussianBlur stdDeviation="2.5" result="blur"/>
      <feFlood flood-opacity="0.02"/>
      <feComposite operator="in" in2="blur"/>
      <feComposite in="SourceGraphic"/>
    </filter>
    <filter id="路径_6442-2" x="242.5" y="37.5" width="225" height="296" filterUnits="userSpaceOnUse">
      <feOffset dy="1" input="SourceAlpha"/>
      <feGaussianBlur stdDeviation="2.5" result="blur-2"/>
      <feFlood flood-opacity="0.02"/>
      <feComposite operator="in" in2="blur-2"/>
      <feComposite in="SourceGraphic"/>
    </filter>
    <filter id="路径_6442-3" x="512.5" y="37.5" width="225" height="296" filterUnits="userSpaceOnUse">
      <feOffset dy="1" input="SourceAlpha"/>
      <feGaussianBlur stdDeviation="2.5" result="blur-3"/>
      <feFlood flood-opacity="0.02"/>
      <feComposite operator="in" in2="blur-3"/>
      <feComposite in="SourceGraphic"/>
    </filter>
    <filter id="路径_6442-4" x="742.5" y="37.5" width="225" height="296" filterUnits="userSpaceOnUse">
      <feOffset dy="1" input="SourceAlpha"/>
      <feGaussianBlur stdDeviation="2.5" result="blur-4"/>
      <feFlood flood-opacity="0.02"/>
      <feComposite operator="in" in2="blur-4"/>
      <feComposite in="SourceGraphic"/>
    </filter>
    <clipPath id="clip-image-7">
      <rect width="980" height="433"/>
    </clipPath>
  </defs>
  <g id="image-7" clip-path="url(#clip-image-7)">
    <rect width="980" height="433" fill="#fff"/>
    <g id="矩形_4556" data-name="矩形 4556" fill="#f5f7fc" stroke="#edeff6" stroke-width="1">
      <rect width="480" height="433" rx="4" stroke="none"/>
      <rect x="0.5" y="0.5" width="479" height="432" rx="3.5" fill="none"/>
    </g>
    <path id="矩形_4567" data-name="矩形 4567" d="M0,0H480a0,0,0,0,1,0,0V0a4,4,0,0,1-4,4H4A4,4,0,0,1,0,0V0A0,0,0,0,1,0,0Z" transform="translate(0 429)" fill="#44c261"/>
    <g id="组件_448_1" data-name="组件 448 – 1" transform="translate(20 389)">
      <circle id="椭圆_479" data-name="椭圆 479" cx="12" cy="12" r="12" fill="#44c261"/>
      <path id="路径_6439" data-name="路径 6439" d="M-13404.822-12343.829l3.727,3.408,6.229-7.4" transform="translate(13411.515 12356.083)" fill="none" stroke="#fff" stroke-width="2.5"/>
    </g>
    <text id="正确示范" transform="translate(54 407)" fill="#13ce66" font-size="16" font-family="MicrosoftYaHeiUI, Microsoft YaHei UI"><tspan x="0" y="0">正确示范</tspan></text>
    <g id="组_13966" data-name="组 13966" transform="translate(20 44)">
      <g transform="matrix(1, 0, 0, 1, -20, -44)" filter="url(#路径_6442)">
        <g id="路径_6442-5" data-name="路径 6442" transform="translate(20 44)" fill="#fff">
          <path d="M4.565,0h200.87A4.311,4.311,0,0,1,210,4V277a4.311,4.311,0,0,1-4.565,4H4.565A4.311,4.311,0,0,1,0,277V4A4.311,4.311,0,0,1,4.565,0Z" stroke="none"/>
          <path d="M 4.565216064453125 1 C 2.599349975585938 1 1 2.345794677734375 1 4 L 1 277 C 1 278.6542053222656 2.599349975585938 280 4.565216064453125 280 L 205.4347839355469 280 C 207.4006500244141 280 209 278.6542053222656 209 277 L 209 4 C 209 2.345794677734375 207.4006500244141 1 205.4347839355469 1 L 4.565216064453125 1 M 4.565216064453125 0 L 205.4347839355469 0 C 207.9560699462891 0 210 1.790863037109375 210 4 L 210 277 C 210 279.2091369628906 207.9560699462891 281 205.4347839355469 281 L 4.565216064453125 281 C 2.043899536132812 281 0 279.2091369628906 0 277 L 0 4 C 0 1.790863037109375 2.043899536132812 0 4.565216064453125 0 Z" stroke="none" fill="rgba(231,235,246,0.7)"/>
        </g>
      </g>
      <g id="组_13965" data-name="组 13965" transform="translate(68 127)">
        <rect id="矩形_4584" data-name="矩形 4584" width="74" height="27" rx="4" fill="#333"/>
        <text id="Toast提示" transform="translate(37 18)" fill="#fff" font-size="13" font-family="SourceHanSansCN-Light, Source Han Sans CN" font-weight="300"><tspan x="-28.743" y="0">Toast提示</tspan></text>
      </g>
      <text id="页面A" transform="translate(84 259)" fill="rgba(0,0,0,0.8)" font-size="16" font-family="MicrosoftYaHeiUI, Microsoft YaHei UI"><tspan x="0" y="0">页面A</tspan></text>
    </g>
    <g id="组_13967" data-name="组 13967" transform="translate(250 44)">
      <g transform="matrix(1, 0, 0, 1, -250, -44)" filter="url(#路径_6442-2)">
        <g id="路径_6442-6" data-name="路径 6442" transform="translate(250 44)" fill="#fff">
          <path d="M4.565,0h200.87A4.311,4.311,0,0,1,210,4V277a4.311,4.311,0,0,1-4.565,4H4.565A4.311,4.311,0,0,1,0,277V4A4.311,4.311,0,0,1,4.565,0Z" stroke="none"/>
          <path d="M 4.565216064453125 1 C 2.599349975585938 1 1 2.345794677734375 1 4 L 1 277 C 1 278.6542053222656 2.599349975585938 280 4.565216064453125 280 L 205.4347839355469 280 C 207.4006500244141 280 209 278.6542053222656 209 277 L 209 4 C 209 2.345794677734375 207.4006500244141 1 205.4347839355469 1 L 4.565216064453125 1 M 4.565216064453125 0 L 205.4347839355469 0 C 207.9560699462891 0 210 1.790863037109375 210 4 L 210 277 C 210 279.2091369628906 207.9560699462891 281 205.4347839355469 281 L 4.565216064453125 281 C 2.043899536132812 281 0 279.2091369628906 0 277 L 0 4 C 0 1.790863037109375 2.043899536132812 0 4.565216064453125 0 Z" stroke="none" fill="rgba(231,235,246,0.7)"/>
        </g>
      </g>
      <text id="页面B" transform="translate(84.092 259)" fill="rgba(0,0,0,0.8)" font-size="16" font-family="MicrosoftYaHeiUI, Microsoft YaHei UI"><tspan x="0" y="0">页面B</tspan></text>
    </g>
    <g id="组_13969" data-name="组 13969" transform="translate(318 171)">
      <rect id="矩形_4584-2" data-name="矩形 4584" width="74" height="27" rx="4" fill="#333"/>
      <text id="Toast提示-2" data-name="Toast提示" transform="translate(37 18)" fill="#fff" font-size="13" font-family="SourceHanSansCN-Light, Source Han Sans CN" font-weight="300"><tspan x="-28.743" y="0">Toast提示</tspan></text>
    </g>
    <g id="矩形_4556-2" data-name="矩形 4556" transform="translate(500)" fill="#f5f7fc" stroke="#edeff6" stroke-width="1">
      <rect width="480" height="433" rx="4" stroke="none"/>
      <rect x="0.5" y="0.5" width="479" height="432" rx="3.5" fill="none"/>
    </g>
    <path id="矩形_4567-2" data-name="矩形 4567" d="M0,0H480a0,0,0,0,1,0,0V0a4,4,0,0,1-4,4H4A4,4,0,0,1,0,0V0A0,0,0,0,1,0,0Z" transform="translate(500 429)" fill="#ff4949"/>
    <g id="组_13960" data-name="组 13960" transform="translate(520 389)">
      <g id="组_13956" data-name="组 13956">
        <circle id="椭圆_479-2" data-name="椭圆 479" cx="12" cy="12" r="12" transform="translate(0 0)" fill="#ff4949"/>
      </g>
      <g id="组_13957" data-name="组 13957" transform="translate(7.906 7.812)">
        <g id="组_13959" data-name="组 13959">
          <path id="路径_6440" data-name="路径 6440" d="M-13395.8-12073.376l-8.209,8.209" transform="translate(13404.005 12073.376)" fill="none" stroke="#fff" stroke-width="2.5"/>
          <path id="路径_6441" data-name="路径 6441" d="M-13404-12073.376l8.209,8.209" transform="translate(13404.005 12073.376)" fill="none" stroke="#fff" stroke-width="2.5"/>
        </g>
      </g>
    </g>
    <text id="错误示范" transform="translate(554 407)" fill="#ff4949" font-size="16" font-family="MicrosoftYaHeiUI, Microsoft YaHei UI"><tspan x="0" y="0">错误示范</tspan></text>
    <g id="组_13966-2" data-name="组 13966" transform="translate(520 44)">
      <g transform="matrix(1, 0, 0, 1, -520, -44)" filter="url(#路径_6442-3)">
        <g id="路径_6442-7" data-name="路径 6442" transform="translate(520 44)" fill="#fff">
          <path d="M4.565,0h200.87A4.311,4.311,0,0,1,210,4V277a4.311,4.311,0,0,1-4.565,4H4.565A4.311,4.311,0,0,1,0,277V4A4.311,4.311,0,0,1,4.565,0Z" stroke="none"/>
          <path d="M 4.565216064453125 1 C 2.599349975585938 1 1 2.345794677734375 1 4 L 1 277 C 1 278.6542053222656 2.599349975585938 280 4.565216064453125 280 L 205.4347839355469 280 C 207.4006500244141 280 209 278.6542053222656 209 277 L 209 4 C 209 2.345794677734375 207.4006500244141 1 205.4347839355469 1 L 4.565216064453125 1 M 4.565216064453125 0 L 205.4347839355469 0 C 207.9560699462891 0 210 1.790863037109375 210 4 L 210 277 C 210 279.2091369628906 207.9560699462891 281 205.4347839355469 281 L 4.565216064453125 281 C 2.043899536132812 281 0 279.2091369628906 0 277 L 0 4 C 0 1.790863037109375 2.043899536132812 0 4.565216064453125 0 Z" stroke="none" fill="rgba(231,235,246,0.7)"/>
        </g>
      </g>
      <g id="组_13965-2" data-name="组 13965" transform="translate(68 127)">
        <rect id="矩形_4584-3" data-name="矩形 4584" width="74" height="27" rx="4" fill="#333"/>
        <text id="Toast提示-3" data-name="Toast提示" transform="translate(37 18)" fill="#fff" font-size="13" font-family="SourceHanSansCN-Light, Source Han Sans CN" font-weight="300"><tspan x="-28.743" y="0">Toast提示</tspan></text>
      </g>
      <text id="页面A-2" data-name="页面A" transform="translate(84 259)" fill="rgba(0,0,0,0.8)" font-size="16" font-family="MicrosoftYaHeiUI, Microsoft YaHei UI"><tspan x="0" y="0">页面A</tspan></text>
    </g>
    <g id="组_13967-2" data-name="组 13967" transform="translate(750 44)">
      <g transform="matrix(1, 0, 0, 1, -750, -44)" filter="url(#路径_6442-4)">
        <g id="路径_6442-8" data-name="路径 6442" transform="translate(750 44)" fill="#fff">
          <path d="M4.565,0h200.87A4.311,4.311,0,0,1,210,4V277a4.311,4.311,0,0,1-4.565,4H4.565A4.311,4.311,0,0,1,0,277V4A4.311,4.311,0,0,1,4.565,0Z" stroke="none"/>
          <path d="M 4.565216064453125 1 C 2.599349975585938 1 1 2.345794677734375 1 4 L 1 277 C 1 278.6542053222656 2.599349975585938 280 4.565216064453125 280 L 205.4347839355469 280 C 207.4006500244141 280 209 278.6542053222656 209 277 L 209 4 C 209 2.345794677734375 207.4006500244141 1 205.4347839355469 1 L 4.565216064453125 1 M 4.565216064453125 0 L 205.4347839355469 0 C 207.9560699462891 0 210 1.790863037109375 210 4 L 210 277 C 210 279.2091369628906 207.9560699462891 281 205.4347839355469 281 L 4.565216064453125 281 C 2.043899536132812 281 0 279.2091369628906 0 277 L 0 4 C 0 1.790863037109375 2.043899536132812 0 4.565216064453125 0 Z" stroke="none" fill="rgba(231,235,246,0.7)"/>
        </g>
      </g>
      <g id="组_13965-3" data-name="组 13965" transform="translate(68 24)">
        <rect id="矩形_4584-4" data-name="矩形 4584" width="74" height="27" rx="4" fill="#fa3f3f"/>
        <text id="Toast提示-4" data-name="Toast提示" transform="translate(37 18)" fill="#fff" font-size="13" font-family="SourceHanSansCN-Light, Source Han Sans CN" font-weight="300"><tspan x="-28.743" y="0">Toast提示</tspan></text>
      </g>
      <text id="页面B-2" data-name="页面B" transform="translate(84.092 259)" fill="rgba(0,0,0,0.8)" font-size="16" font-family="MicrosoftYaHeiUI, Microsoft YaHei UI"><tspan x="0" y="0">页面B</tspan></text>
    </g>
  </g>
</svg>
