<svg xmlns="http://www.w3.org/2000/svg" xmlns:xlink="http://www.w3.org/1999/xlink" width="176" height="156" viewBox="0 0 176 156">
  <defs>
    <clipPath id="clip-j-1">
      <rect width="176" height="156"/>
    </clipPath>
  </defs>
  <g id="j-1" clip-path="url(#clip-j-1)">
    <g id="组_16056" data-name="组 16056" transform="translate(-15 -50)">
      <g id="组_16055" data-name="组 16055" transform="translate(-221 -407)">
        <g id="组_13233" data-name="组 13233" transform="translate(-32 -751)">
          <rect id="矩形_2484" data-name="矩形 2484" width="24" height="24" rx="4" transform="translate(268 1208)" fill="none"/>
          <rect id="矩形_2506" data-name="矩形 2506" width="1" height="22" transform="translate(291 1209)" fill="rgba(0,0,0,0.24)"/>
        </g>
        <g id="组_13237" data-name="组 13237" transform="translate(308 457)">
          <rect id="矩形_2484-2" data-name="矩形 2484" width="24" height="24" rx="4" fill="none"/>
          <rect id="矩形_2506-2" data-name="矩形 2506" width="1" height="22" transform="translate(0 1)" fill="rgba(0,0,0,0.24)"/>
        </g>
        <g id="矩形_4221" data-name="矩形 4221" transform="translate(236 457)" fill="rgba(255,255,255,0)" stroke="rgba(0,0,0,0.24)" stroke-width="1">
          <rect width="96" height="24" rx="4" stroke="none"/>
          <rect x="0.5" y="0.5" width="95" height="23" rx="3.5" fill="none"/>
        </g>
        <rect id="矩形_4222" data-name="矩形 4222" width="10" height="2" rx="1" transform="translate(243 468)" fill="rgba(0,0,0,0.48)" opacity="0.5"/>
        <path id="联合_67" data-name="联合 67" d="M7763,5109v-3h-3a1,1,0,1,1,0-2h3v-3a1,1,0,1,1,2,0v3h3a1,1,0,0,1,0,2h-3v3a1,1,0,1,1-2,0Z" transform="translate(-7444 -4636)" fill="rgba(0,0,0,0.48)"/>
        <text id="_1" data-name="1" transform="translate(273 460)" fill="rgba(0,0,0,0.8)" font-size="14" font-family="MicrosoftYaHeiUI, Microsoft YaHei UI"><tspan x="-4.105" y="14">1</tspan></text>
      </g>
      <g id="组_13240" data-name="组 13240" transform="translate(-702 -58)">
        <g id="路径_6385" data-name="路径 6385" transform="translate(717 162)" fill="none">
          <path d="M3.288,0H116.712C118.528,0,120,1.791,120,4V28c0,2.209-1.472,4-3.288,4H3.288C1.472,32,0,30.209,0,28V4C0,1.791,1.472,0,3.288,0Z" stroke="none"/>
          <path d="M 3.287666320800781 1 C 2.714202880859375 1 2.162948608398438 1.286434173583984 1.735481262207031 1.806533813476562 C 1.261199951171875 2.383583068847656 1 3.162567138671875 1 4 L 1 28 C 1 28.83743286132812 1.261199951171875 29.61641693115234 1.735481262207031 30.19346618652344 C 2.162948608398438 30.71356582641602 2.714202880859375 31 3.287666320800781 31 L 116.7123336791992 31 C 117.2857971191406 31 117.8370513916016 30.71356582641602 118.264518737793 30.19346618652344 C 118.7388000488281 29.61641693115234 119 28.83743286132812 119 28 L 119 4 C 119 3.162567138671875 118.7388000488281 2.383583068847656 118.264518737793 1.806533813476562 C 117.8370513916016 1.286434173583984 117.2857971191406 1 116.7123336791992 1 L 3.287666320800781 1 M 3.287666320800781 0 L 116.7123336791992 0 C 118.5280685424805 0 120 1.790866851806641 120 4 L 120 28 C 120 30.20913314819336 118.5280685424805 32 116.7123336791992 32 L 3.287666320800781 32 C 1.471931457519531 32 0 30.20913314819336 0 28 L 0 4 C 0 1.790866851806641 1.471931457519531 0 3.287666320800781 0 Z" stroke="none" fill="rgba(0,0,0,0.24)"/>
        </g>
        <text id="_1-2" data-name="1" transform="translate(773 182.842)" fill="rgba(0,0,0,0.8)" font-size="14" font-family="MicrosoftYaHeiUI, Microsoft YaHei UI"><tspan x="0" y="0">1</tspan></text>
        <g id="组_9833" data-name="组 9833" transform="translate(449 -1045)">
          <path id="矩形_2484-3" data-name="矩形 2484" d="M3.2,0H32a0,0,0,0,1,0,0V30a0,0,0,0,1,0,0H3.2A3.2,3.2,0,0,1,0,26.8V3.2A3.2,3.2,0,0,1,3.2,0Z" transform="translate(268 1208)" fill="none"/>
          <rect id="矩形_2506-3" data-name="矩形 2506" width="1" height="30" transform="translate(299 1208)" fill="rgba(0,0,0,0.24)"/>
        </g>
        <path id="路径_6386" data-name="路径 6386" d="M1,0H11a1,1,0,0,1,0,2H1A1,1,0,0,1,1,0Z" transform="translate(728 177)" fill="rgba(0,0,0,0.48)" opacity="0.5"/>
        <g id="组_13241" data-name="组 13241" transform="translate(-25)">
          <g id="组_9835" data-name="组 9835" transform="translate(442.915 -1045)">
            <path id="矩形_2486" data-name="矩形 2486" d="M0,0H28.8A3.2,3.2,0,0,1,32,3.2V26.8A3.2,3.2,0,0,1,28.8,30H0a0,0,0,0,1,0,0V0A0,0,0,0,1,0,0Z" transform="translate(387.085 1208)" fill="none"/>
            <rect id="矩形_2507" data-name="矩形 2507" width="1" height="30" transform="translate(387.085 1208)" fill="rgba(0,0,0,0.24)"/>
          </g>
          <g id="组_9834" data-name="组 9834" transform="translate(439 -1045)">
            <path id="联合_68" data-name="联合 68" d="M7325,6156v-4h-4a1,1,0,0,1,0-2h4v-4a1,1,0,0,1,2,0v4h4a1,1,0,0,1,0,2h-4v4a1,1,0,0,1-2,0Z" transform="translate(-6919 -4928)" fill="rgba(0,0,0,0.48)"/>
          </g>
        </g>
      </g>
      <g id="组_13243" data-name="组 13243" transform="translate(-702 4)">
        <g id="路径_6385-2" data-name="路径 6385" transform="translate(717 162)" fill="none">
          <path d="M4.822,0H171.178A4.913,4.913,0,0,1,176,5V35a4.913,4.913,0,0,1-4.822,5H4.822A4.913,4.913,0,0,1,0,35V5A4.913,4.913,0,0,1,4.822,0Z" stroke="none"/>
          <path d="M 4.821914672851562 1 C 2.714492797851562 1 1 2.794387817382812 1 5 L 1 35 C 1 37.20561218261719 2.714492797851562 39 4.821914672851562 39 L 171.1780853271484 39 C 173.2855072021484 39 175 37.20561218261719 175 35 L 175 5 C 175 2.794387817382812 173.2855072021484 1 171.1780853271484 1 L 4.821914672851562 1 M 4.821914672851562 0 L 171.1780853271484 0 C 173.8411560058594 0 176 2.238567352294922 176 5 L 176 35 C 176 37.76143264770508 173.8411560058594 40 171.1780853271484 40 L 4.821914672851562 40 C 2.158843994140625 40 0 37.76143264770508 0 35 L 0 5 C 0 2.238567352294922 2.158843994140625 0 4.821914672851562 0 Z" stroke="none" fill="rgba(0,0,0,0.24)"/>
        </g>
        <text id="_1-3" data-name="1" transform="translate(801 188)" fill="rgba(0,0,0,0.8)" font-size="16" font-family="MicrosoftYaHeiUI, Microsoft YaHei UI"><tspan x="0" y="0">1</tspan></text>
        <g id="组_9833-2" data-name="组 9833" transform="translate(449 -1045)">
          <path id="矩形_2484-4" data-name="矩形 2484" d="M3.2,0H40a0,0,0,0,1,0,0V38a0,0,0,0,1,0,0H3.2A3.2,3.2,0,0,1,0,34.8V3.2A3.2,3.2,0,0,1,3.2,0Z" transform="translate(268 1208)" fill="none"/>
          <rect id="矩形_2506-4" data-name="矩形 2506" width="1" height="38" transform="translate(307 1208)" fill="rgba(0,0,0,0.24)"/>
        </g>
        <path id="路径_6386-2" data-name="路径 6386" d="M1,0H11a1,1,0,0,1,0,2H1A1,1,0,0,1,1,0Z" transform="translate(731 182)" fill="rgba(0,0,0,0.48)" opacity="0.5"/>
        <g id="组_13241-2" data-name="组 13241" transform="translate(-25)">
          <g id="组_13244" data-name="组 13244" transform="translate(48)">
            <g id="组_9835-2" data-name="组 9835" transform="translate(442.915 -1045)">
              <path id="矩形_2486-2" data-name="矩形 2486" d="M0,0H36.8A3.2,3.2,0,0,1,40,3.2V34.8A3.2,3.2,0,0,1,36.8,38H0a0,0,0,0,1,0,0V0A0,0,0,0,1,0,0Z" transform="translate(387.085 1208)" fill="none"/>
              <rect id="矩形_2507-2" data-name="矩形 2507" width="1" height="38" transform="translate(387.085 1208)" fill="rgba(0,0,0,0.24)"/>
            </g>
            <g id="组_9834-2" data-name="组 9834" transform="translate(442.999 -1041)">
              <path id="联合_68-2" data-name="联合 68" d="M7325,6156v-4h-4a1,1,0,0,1,0-2h4v-4a1,1,0,0,1,2,0v4h4a1,1,0,0,1,0,2h-4v4a1,1,0,0,1-2,0Z" transform="translate(-6919 -4928)" fill="rgba(0,0,0,0.48)"/>
            </g>
          </g>
        </g>
      </g>
    </g>
  </g>
</svg>
