<svg xmlns="http://www.w3.org/2000/svg" xmlns:xlink="http://www.w3.org/1999/xlink" width="980" height="277" viewBox="0 0 980 277">
  <defs>
    <filter id="矩形_4556" x="12.5" y="13.5" width="955" height="252" filterUnits="userSpaceOnUse">
      <feOffset dy="1" input="SourceAlpha"/>
      <feGaussianBlur stdDeviation="2.5" result="blur"/>
      <feFlood flood-opacity="0.02"/>
      <feComposite operator="in" in2="blur"/>
      <feComposite in="SourceGraphic"/>
    </filter>
    <clipPath id="clip-j-3">
      <rect width="980" height="277"/>
    </clipPath>
  </defs>
  <g id="j-3" clip-path="url(#clip-j-3)">
    <rect width="980" height="277" fill="#fff"/>
    <g id="组件_443_40" data-name="组件 443 – 40">
      <g id="矩形_4553" data-name="矩形 4553" fill="#f5f7fc" stroke="#edeff6" stroke-width="1">
        <rect width="980" height="277" rx="4" stroke="none"/>
        <rect x="0.5" y="0.5" width="979" height="276" rx="3.5" fill="none"/>
      </g>
      <g transform="matrix(1, 0, 0, 1, 0, 0)" filter="url(#矩形_4556)">
        <g id="矩形_4556-2" data-name="矩形 4556" transform="translate(20 20)" fill="#fff" stroke="rgba(231,235,246,0.7)" stroke-width="1">
          <rect width="940" height="237" rx="4" stroke="none"/>
          <rect x="0.5" y="0.5" width="939" height="236" rx="3.5" fill="none"/>
        </g>
      </g>
    </g>
    <g id="组_16021" data-name="组 16021" transform="translate(-6)">
      <rect id="矩形_5183" data-name="矩形 5183" width="184" height="184" rx="4" transform="translate(206 47)" fill="none" stroke="#377CFD" stroke-width="7"/>
      <g id="路径_6711" data-name="路径 6711" transform="translate(206 47)" fill="#fff">
        <path d="M0,0H184V184H0Z" stroke="none"/>
        <path d="M 16 16 L 16 168 L 168 168 L 168 16 L 16 16 M 0 0 L 184 0 L 184 184 L 0 184 L 0 0 Z" stroke="none" fill="rgba(55,124,253,0.3)"/>
      </g>
    </g>
    <g id="矩形_5185" data-name="矩形 5185" transform="translate(596 47)" fill="#fff" stroke="#377CFD" stroke-width="3.5">
      <rect width="184" height="184" rx="8" stroke="none"/>
      <rect x="-1.75" y="-1.75" width="187.5" height="187.5" rx="9.75" fill="none"/>
    </g>
    <g id="矩形_5189" data-name="矩形 5189" transform="translate(596 47)" fill="#fff" stroke="rgba(55,124,253,0.3)" stroke-width="16">
      <rect width="184" height="184" rx="8" stroke="none"/>
      <rect x="8" y="8" width="168" height="168" fill="none"/>
    </g>
    <g id="组_16024" data-name="组 16024">
      <g id="组_16023" data-name="组 16023" transform="translate(-5667 12363)">
        <circle id="椭圆_511" data-name="椭圆 511" cx="4.5" cy="4.5" r="4.5" transform="translate(6048 -12239)" fill="#f22"/>
        <rect id="矩形_5187" data-name="矩形 5187" width="31" height="2" rx="1" transform="translate(6053 -12236)" fill="#f22"/>
      </g>
      <text id="边线" transform="translate(421.589 134)" fill="rgba(0,0,0,0.8)" font-size="16" font-family="MicrosoftYaHeiUI, Microsoft YaHei UI"><tspan x="0" y="0">边线</tspan></text>
    </g>
    <g id="组_16025" data-name="组 16025" transform="translate(396 104)">
      <g id="组_16023-2" data-name="组 16023" transform="translate(-5667 12363)">
        <circle id="椭圆_511-2" data-name="椭圆 511" cx="4.5" cy="4.5" r="4.5" transform="translate(6042 -12239)" fill="#f22"/>
        <rect id="矩形_5187-2" data-name="矩形 5187" width="36" height="2" rx="1" transform="translate(6048 -12236)" fill="#f22"/>
      </g>
      <text id="圆角" transform="translate(421.589 134)" fill="rgba(0,0,0,0.8)" font-size="16" font-family="MicrosoftYaHeiUI, Microsoft YaHei UI"><tspan x="0" y="0">圆角</tspan></text>
    </g>
  </g>
</svg>
