<svg xmlns="http://www.w3.org/2000/svg" xmlns:xlink="http://www.w3.org/1999/xlink" width="550" height="260" viewBox="0 0 550 260">
  <defs>
    <clipPath id="clip-k-6">
      <rect width="550" height="260"/>
    </clipPath>
  </defs>
  <g id="k-6" clip-path="url(#clip-k-6)">
    <rect width="550" height="260" fill="rgba(255,255,255,0)"/>
    <g id="组_16052" data-name="组 16052" transform="translate(-10667 13080)">
      <g id="组_16041" data-name="组 16041" transform="translate(9753 -13686)">
        <rect id="矩形_4815" data-name="矩形 4815" width="550" height="260" rx="10" transform="translate(914 606)" fill="rgba(255,255,255,0)"/>
        <text id="环形图" transform="translate(938 646)" fill="#282f39" font-size="18" font-family="MicrosoftYaHeiUI, Microsoft YaHei UI"><tspan x="0" y="0">环形图</tspan></text>
        <g id="组_14610" data-name="组 14610" transform="translate(-160.641)">
          <g id="组_14595" data-name="组 14595" transform="translate(833 302)">
            <text id="事件" transform="translate(546.555 342)" fill="#1c3151" font-size="12" font-family="MicrosoftYaHeiUI, Microsoft YaHei UI"><tspan x="-12" y="0">事件</tspan></text>
          </g>
          <circle id="椭圆_519" data-name="椭圆 519" cx="5" cy="5" r="5" transform="translate(1353 635)" fill="#377CFD" opacity="0.9"/>
        </g>
        <g id="组_14610-2" data-name="组 14610" transform="translate(-107.641)">
          <g id="组_14595-2" data-name="组 14595" transform="translate(833 302)">
            <text id="事件-2" data-name="事件" transform="translate(546.555 342)" fill="#1c3151" font-size="12" font-family="MicrosoftYaHeiUI, Microsoft YaHei UI"><tspan x="-12" y="0">事件</tspan></text>
          </g>
          <circle id="椭圆_519-2" data-name="椭圆 519" cx="5" cy="5" r="5" transform="translate(1353 635)" fill="#13d4af" opacity="0.9"/>
        </g>
        <g id="组_14610-3" data-name="组 14610" transform="translate(-54.641)">
          <g id="组_14595-3" data-name="组 14595" transform="translate(833 302)">
            <text id="事件-3" data-name="事件" transform="translate(546.555 342)" fill="#1c3151" font-size="12" font-family="MicrosoftYaHeiUI, Microsoft YaHei UI"><tspan x="-12" y="0">事件</tspan></text>
          </g>
          <circle id="椭圆_519-3" data-name="椭圆 519" cx="5" cy="5" r="5" transform="translate(1353 635)" fill="#7585a2" opacity="0.9"/>
        </g>
        <g id="组_14610-4" data-name="组 14610" transform="translate(-1.641)">
          <g id="组_14595-4" data-name="组 14595" transform="translate(833 302)">
            <text id="事件-4" data-name="事件" transform="translate(546.555 342)" fill="#1c3151" font-size="12" font-family="MicrosoftYaHeiUI, Microsoft YaHei UI"><tspan x="-12" y="0">事件</tspan></text>
          </g>
          <circle id="椭圆_519-4" data-name="椭圆 519" cx="5" cy="5" r="5" transform="translate(1353 635)" fill="#f7c638" opacity="0.9"/>
        </g>
        <g id="组_14610-5" data-name="组 14610" transform="translate(51.359)">
          <g id="组_14595-5" data-name="组 14595" transform="translate(833 302)">
            <text id="事件-5" data-name="事件" transform="translate(546.555 342)" fill="#1c3151" font-size="12" font-family="MicrosoftYaHeiUI, Microsoft YaHei UI"><tspan x="-12" y="0">事件</tspan></text>
          </g>
          <circle id="椭圆_519-5" data-name="椭圆 519" cx="5" cy="5" r="5" transform="translate(1353 635)" fill="#eb7e65" opacity="0.9"/>
        </g>
      </g>
      <path id="路径_7912" data-name="路径 7912" d="M270.25,149.3a53.42,53.42,0,0,1,11.552,1.264l6.5-29.338a83.472,83.472,0,0,0-18.051-1.976Z" transform="translate(10671.998 -13133.471)" fill="#377CFD"/>
      <path id="路径_7912_-_轮廓" data-name="路径 7912 - 轮廓" d="M282.182,151.16l-.488-.108A53.009,53.009,0,0,0,270.25,149.8h-.5V118.75h.5a84.114,84.114,0,0,1,18.16,1.987l.488.108ZM270.75,148.8a54.027,54.027,0,0,1,10.671,1.168l6.283-28.363a83.122,83.122,0,0,0-16.955-1.856Z" transform="translate(10671.998 -13133.471)" fill="#fff"/>
      <path id="路径_7913" data-name="路径 7913" d="M281.1,150.444A53.422,53.422,0,0,1,317.019,227.1l26.7,13.781A83.472,83.472,0,0,0,287.6,121.105Z" transform="translate(10672.704 -13133.351)" fill="#13d4af"/>
      <path id="路径_7913_-_轮廓" data-name="路径 7913 - 轮廓" d="M287.216,120.509l.488.108a83.969,83.969,0,0,1,56.463,120.494l-.229.444-27.592-14.239.229-.444a52.922,52.922,0,0,0-35.585-75.94l-.488-.108Zm56.29,119.7a82.972,82.972,0,0,0-55.53-118.5l-6.283,28.363a53.92,53.92,0,0,1,36,76.819Z" transform="translate(10672.704 -13133.351)" fill="#fff"/>
      <path id="路径_7914" data-name="路径 7914" d="M321.42,220.628a53.422,53.422,0,0,1-86.213,12.287l-21.791,20.693a83.472,83.472,0,0,0,134.707-19.2Z" transform="translate(10668.303 -13126.877)" fill="rgba(93,112,146,0.85)"/>
      <path id="路径_7914_-_轮廓" data-name="路径 7914 - 轮廓" d="M321.205,219.954,348.8,234.193l-.229.444a83.969,83.969,0,0,1-135.514,19.314l-.344-.363,22.516-21.381.344.363A52.922,52.922,0,0,0,320.976,220.4Zm26.244,14.668L321.633,221.3a53.919,53.919,0,0,1-86.442,12.32l-21.066,20a82.972,82.972,0,0,0,133.324-19Z" transform="translate(10668.303 -13126.877)" fill="#fff"/>
      <path id="路径_7915" data-name="路径 7915" d="M236.609,235.323a53.422,53.422,0,0,1-13.823-46.339l-29.565-5.373a83.472,83.472,0,0,0,21.6,72.4Z" transform="translate(10666.901 -13129.285)" fill="rgba(246,189,22,0.85)"/>
      <path id="路径_7915_-_轮廓" data-name="路径 7915 - 轮廓" d="M214.8,256.722l-.344-.363a83.962,83.962,0,0,1-21.727-72.838l.089-.492,30.549,5.552-.089.492a53.1,53.1,0,0,0,13.694,45.905l.344.363Zm-21.176-72.53a83.264,83.264,0,0,0,21.213,71.115l21.066-20a53.915,53.915,0,0,1-13.7-45.916Z" transform="translate(10666.901 -13129.285)" fill="#fff"/>
      <path id="路径_7916" data-name="路径 7916" d="M222.7,193.17a53.422,53.422,0,0,1,52.562-43.87V119.25A83.472,83.472,0,0,0,193.138,187.8Z" transform="translate(10666.983 -13133.471)" fill="rgba(232,104,74,0.85)"/>
      <path id="路径_7916_-_轮廓" data-name="路径 7916 - 轮廓" d="M223.106,193.751,192.557,188.2l.089-.492a83.926,83.926,0,0,1,82.619-68.958h.5V149.8h-.5A52.9,52.9,0,0,0,223.2,193.259Zm-29.385-6.357,28.582,5.194A53.894,53.894,0,0,1,274.765,148.8V119.751A82.929,82.929,0,0,0,193.721,187.395Z" transform="translate(10666.983 -13133.471)" fill="#fff"/>
      <g id="组_16043" data-name="组 16043" transform="translate(10866.007 -13007.311)">
        <g id="组_14618" data-name="组 14618" transform="translate(0 0)">
          <g id="组_14617" data-name="组 14617">
            <text id="_97" data-name="97" transform="translate(82.297 11)" fill="#595959" font-size="10" font-family="SegoeUI, Segoe UI"><tspan x="-5.391" y="0">97</tspan></text>
            <path id="_97_-_轮廓" data-name="97 - 轮廓" d="M-2.681-8.119a2.991,2.991,0,0,1,1.4.326,2.811,2.811,0,0,1,.78.6A1,1,0,0,1,.479-8H4.932a1,1,0,0,1,1,1v.464a1,1,0,0,1-.135.5c-.1.178-.23.4-.376.672s-.3.563-.46.893-.331.694-.5,1.078-.323.766-.467,1.166-.269.8-.377,1.2A8.613,8.613,0,0,0,3.39.123,1,1,0,0,1,2.4,1H1.538A1,1,0,0,1,.783.656a1,1,0,0,1-.236-.8,10.786,10.786,0,0,1,.3-1.408c.129-.458.277-.914.44-1.356s.335-.863.515-1.269.353-.771.521-1.108H.479q-.045,0-.089,0A7.075,7.075,0,0,1,.512-3.921,8,8,0,0,1,.29-1.963a4.826,4.826,0,0,1-.708,1.6A3.465,3.465,0,0,1-1.672.741a3.591,3.591,0,0,1-1.658.382A3.879,3.879,0,0,1-4.971.785a1,1,0,0,1-.58-.907V-.889a1,1,0,0,1,.5-.863,1,1,0,0,1,1-.008,1.491,1.491,0,0,0,.75.2A.921.921,0,0,0-3.028-1.6a3.067,3.067,0,0,1-1.067-.234,2.893,2.893,0,0,1-.989-.685,3.059,3.059,0,0,1-.632-1.023A3.487,3.487,0,0,1-5.932-4.78a3.58,3.58,0,0,1,.237-1.312,3.212,3.212,0,0,1,.681-1.07,3.1,3.1,0,0,1,1.049-.709A3.336,3.336,0,0,1-2.681-8.119ZM-2.7-4.311a.33.33,0,0,0,.133-.025.4.4,0,0,0,.124-.08.308.308,0,0,0,.068-.1.29.29,0,0,0,.022-.122,1.458,1.458,0,0,0-.058-.436.806.806,0,0,0-.124-.254.306.306,0,0,0-.105-.09.225.225,0,0,0-.108-.022.266.266,0,0,0-.119.023.291.291,0,0,0-.1.076.547.547,0,0,0-.1.177.808.808,0,0,0-.044.278,1.073,1.073,0,0,0,.046.341.41.41,0,0,0,.077.144.234.234,0,0,0,.09.061A.528.528,0,0,0-2.7-4.311Z" transform="translate(82.297 11)" fill="#fff"/>
            <text id="_814" data-name="814" transform="translate(136.571 50.998)" fill="#595959" font-size="11" font-family="SegoeUI, Segoe UI"><tspan x="-8.895" y="0">814</tspan></text>
            <path id="_814_-_轮廓" data-name="814 - 轮廓" d="M-5.914,1.124A3.92,3.92,0,0,1-7.261.9,3.41,3.41,0,0,1-8.374.238,3.081,3.081,0,0,1-9.14-.82a3.261,3.261,0,0,1-.271-1.328,3.057,3.057,0,0,1,.142-.914,3.237,3.237,0,0,1,.4-.835,3.19,3.19,0,0,1,.3-.379l-.041-.06a2.686,2.686,0,0,1-.466-1.529,2.872,2.872,0,0,1,.254-1.2,2.892,2.892,0,0,1,.692-.949,3.1,3.1,0,0,1,1.011-.608,3.455,3.455,0,0,1,1.208-.21,3.43,3.43,0,0,1,1.219.215,3.14,3.14,0,0,1,1.006.608A2.859,2.859,0,0,1-3-7.053a2.886,2.886,0,0,1,.248,1.187,2.686,2.686,0,0,1-.466,1.529l-.041.059a3.232,3.232,0,0,1,.3.379,3.237,3.237,0,0,1,.4.835,3.057,3.057,0,0,1,.142.914A3.291,3.291,0,0,1-2.682-.825a3.067,3.067,0,0,1-.76,1.06A3.374,3.374,0,0,1-4.56.9,3.96,3.96,0,0,1-5.914,1.124Zm.005-3.91a.615.615,0,0,0-.236.041.471.471,0,0,0-.161.1.5.5,0,0,0-.107.167.652.652,0,0,0-.043.251.841.841,0,0,0,.045.295.412.412,0,0,0,.088.147.357.357,0,0,0,.135.083.785.785,0,0,0,.279.044A.684.684,0,0,0-5.653-1.7.453.453,0,0,0-5.5-1.8a.435.435,0,0,0,.1-.152.748.748,0,0,0,.045-.275.651.651,0,0,0-.042-.24.51.51,0,0,0-.108-.172.476.476,0,0,0-.162-.11A.613.613,0,0,0-5.908-2.787Zm0-3.3a.32.32,0,0,0-.118.018.252.252,0,0,0-.085.056.209.209,0,0,0-.046.075.4.4,0,0,0-.024.144.3.3,0,0,0,.02.116.282.282,0,0,0,.061.092.289.289,0,0,0,.094.062.235.235,0,0,0,.1.018.231.231,0,0,0,.1-.018.287.287,0,0,0,.093-.062.342.342,0,0,0,.07-.107.242.242,0,0,0,.018-.1.33.33,0,0,0-.021-.128.261.261,0,0,0-.057-.089A.268.268,0,0,0-5.8-6.07.269.269,0,0,0-5.908-6.09ZM7.53,1H6.66a1,1,0,0,1-1-1V-.81H3.04a1,1,0,0,1-1-1v-.763a1,1,0,0,1,.252-.663c.323-.365.655-.76.987-1.176s.65-.841.951-1.267.578-.85.831-1.269a11.207,11.207,0,0,0,.619-1.165A1,1,0,0,1,6.59-8.7h.94a1,1,0,0,1,1,1v4.086a1,1,0,0,1,.988,1v.806a1,1,0,0,1-.988,1V0A1,1,0,0,1,7.53,1ZM.924,1H.043a1,1,0,0,1-1-1V-4.944a4.661,4.661,0,0,1-.541.172,1,1,0,0,1-.858-.182,1,1,0,0,1-.385-.788v-.892A1,1,0,0,1-2.008-7.6a4.145,4.145,0,0,0,.494-.175c.186-.079.373-.168.554-.265s.355-.2.515-.307a3.742,3.742,0,0,0,.381-.284,1,1,0,0,1,.656-.245H.924a1,1,0,0,1,1,1V0A1,1,0,0,1,.924,1Z" transform="translate(136.571 50.998)" fill="#fff"/>
            <text id="_848" data-name="848" transform="translate(84.249 147.804)" fill="#595959" font-size="11" font-family="SegoeUI, Segoe UI"><tspan x="-8.895" y="0">848</tspan></text>
            <path id="_848_-_轮廓" data-name="848 - 轮廓" d="M5.946,1.124A3.92,3.92,0,0,1,4.6.9,3.41,3.41,0,0,1,3.485.238,3.081,3.081,0,0,1,2.72-.819,1.008,1.008,0,0,1,2.6-.81V0a1,1,0,0,1-1,1H.73a1,1,0,0,1-1-1V-.81H-2.689A3.066,3.066,0,0,1-3.442.235,3.373,3.373,0,0,1-4.56.9a3.96,3.96,0,0,1-1.353.226A3.92,3.92,0,0,1-7.261.9,3.41,3.41,0,0,1-8.374.238,3.081,3.081,0,0,1-9.14-.82a3.262,3.262,0,0,1-.271-1.328,3.058,3.058,0,0,1,.142-.914,3.238,3.238,0,0,1,.4-.835,3.19,3.19,0,0,1,.3-.379l-.041-.06a2.686,2.686,0,0,1-.467-1.529,2.871,2.871,0,0,1,.254-1.2,2.892,2.892,0,0,1,.692-.949,3.1,3.1,0,0,1,1.011-.608,3.455,3.455,0,0,1,1.208-.21,3.431,3.431,0,0,1,1.219.215,3.14,3.14,0,0,1,1.006.608A2.859,2.859,0,0,1-3-7.053a2.886,2.886,0,0,1,.248,1.187,2.686,2.686,0,0,1-.467,1.529l-.041.059a3.251,3.251,0,0,1,.247.306q.179-.216.358-.441c.33-.414.65-.84.951-1.267s.578-.849.831-1.269A11.211,11.211,0,0,0-.251-8.114,1,1,0,0,1,.661-8.7H1.6a1,1,0,0,1,1,1v4.086a1,1,0,0,1,.209.024A3.237,3.237,0,0,1,2.991-3.9a3.189,3.189,0,0,1,.3-.379l-.041-.06a2.686,2.686,0,0,1-.467-1.529,2.871,2.871,0,0,1,.254-1.2,2.892,2.892,0,0,1,.692-.949,3.1,3.1,0,0,1,1.011-.608,3.455,3.455,0,0,1,1.208-.21,3.43,3.43,0,0,1,1.219.215,3.14,3.14,0,0,1,1.006.608,2.859,2.859,0,0,1,.692.955A2.886,2.886,0,0,1,9.11-5.865a2.686,2.686,0,0,1-.467,1.529L8.6-4.277a3.233,3.233,0,0,1,.3.379,3.238,3.238,0,0,1,.4.835,3.057,3.057,0,0,1,.142.914A3.291,3.291,0,0,1,9.177-.825a3.067,3.067,0,0,1-.76,1.06A3.373,3.373,0,0,1,7.3.9,3.96,3.96,0,0,1,5.946,1.124Zm.005-3.91a.615.615,0,0,0-.236.041.471.471,0,0,0-.161.1.5.5,0,0,0-.107.167.652.652,0,0,0-.043.251.841.841,0,0,0,.045.3.412.412,0,0,0,.088.147.357.357,0,0,0,.135.083.785.785,0,0,0,.279.044A.684.684,0,0,0,6.206-1.7a.453.453,0,0,0,.157-.1.435.435,0,0,0,.1-.152A.748.748,0,0,0,6.5-2.224a.651.651,0,0,0-.042-.241.51.51,0,0,0-.108-.172.476.476,0,0,0-.162-.11A.613.613,0,0,0,5.951-2.787Zm-11.859,0a.615.615,0,0,0-.236.041.472.472,0,0,0-.161.1.5.5,0,0,0-.107.167.652.652,0,0,0-.043.251.841.841,0,0,0,.045.295.412.412,0,0,0,.088.147.357.357,0,0,0,.135.083.785.785,0,0,0,.279.044A.684.684,0,0,0-5.654-1.7.453.453,0,0,0-5.5-1.8a.435.435,0,0,0,.1-.152.748.748,0,0,0,.045-.275.651.651,0,0,0-.042-.24.51.51,0,0,0-.108-.172.477.477,0,0,0-.162-.11A.613.613,0,0,0-5.908-2.787ZM5.951-6.09a.32.32,0,0,0-.118.018.252.252,0,0,0-.085.056A.209.209,0,0,0,5.7-5.94a.4.4,0,0,0-.024.144.3.3,0,0,0,.02.116.282.282,0,0,0,.061.092.29.29,0,0,0,.094.062.235.235,0,0,0,.1.018.231.231,0,0,0,.1-.018.287.287,0,0,0,.093-.062.342.342,0,0,0,.07-.107.242.242,0,0,0,.018-.1.329.329,0,0,0-.021-.128.261.261,0,0,0-.057-.089.269.269,0,0,0-.09-.058A.269.269,0,0,0,5.951-6.09Zm-11.859,0a.32.32,0,0,0-.118.018.252.252,0,0,0-.085.056.209.209,0,0,0-.046.075.4.4,0,0,0-.024.144.3.3,0,0,0,.02.116.282.282,0,0,0,.061.092.29.29,0,0,0,.094.062.235.235,0,0,0,.1.018.231.231,0,0,0,.1-.018.288.288,0,0,0,.093-.062.342.342,0,0,0,.07-.107.242.242,0,0,0,.018-.1.33.33,0,0,0-.021-.128.261.261,0,0,0-.057-.089A.268.268,0,0,0-5.8-6.07.269.269,0,0,0-5.908-6.09Z" transform="translate(84.249 147.804)" fill="#fff"/>
            <text id="_418" data-name="418" transform="translate(9 99.607)" fill="#595959" font-size="11" font-family="SegoeUI, Segoe UI"><tspan x="-8.895" y="0">418</tspan></text>
            <path id="_418_-_轮廓" data-name="418 - 轮廓" d="M.591-8.874H.924a1,1,0,0,1,1,1V0a1,1,0,0,1-1,1H.043a1,1,0,0,1-1-1V-4.944a4.661,4.661,0,0,1-.541.172,1,1,0,0,1-.858-.182,1,1,0,0,1-.385-.788v-.892A1,1,0,0,1-2.008-7.6a4.145,4.145,0,0,0,.494-.175c.186-.079.373-.168.553-.265s.355-.2.515-.307a3.742,3.742,0,0,0,.381-.284A1,1,0,0,1,.591-8.874Zm5.355.043a3.43,3.43,0,0,1,1.219.215,3.14,3.14,0,0,1,1.006.608,2.86,2.86,0,0,1,.692.955A2.886,2.886,0,0,1,9.11-5.865a2.686,2.686,0,0,1-.467,1.529L8.6-4.277a3.233,3.233,0,0,1,.3.379,3.238,3.238,0,0,1,.4.835,3.058,3.058,0,0,1,.142.914A3.291,3.291,0,0,1,9.177-.825a3.067,3.067,0,0,1-.76,1.06A3.373,3.373,0,0,1,7.3.9a3.96,3.96,0,0,1-1.353.226A3.921,3.921,0,0,1,4.6.9,3.41,3.41,0,0,1,3.485.238,3.081,3.081,0,0,1,2.719-.82a3.262,3.262,0,0,1-.271-1.328,3.058,3.058,0,0,1,.142-.914,3.237,3.237,0,0,1,.4-.835,3.191,3.191,0,0,1,.3-.379l-.041-.06a2.686,2.686,0,0,1-.467-1.529,2.871,2.871,0,0,1,.254-1.2,2.892,2.892,0,0,1,.692-.949,3.1,3.1,0,0,1,1.011-.608A3.455,3.455,0,0,1,5.946-8.831Zm.005,3.325a.231.231,0,0,0,.1-.018.287.287,0,0,0,.093-.062.342.342,0,0,0,.07-.107.242.242,0,0,0,.018-.1.329.329,0,0,0-.021-.128.261.261,0,0,0-.056-.089.268.268,0,0,0-.09-.058.269.269,0,0,0-.111-.02.32.32,0,0,0-.118.018.252.252,0,0,0-.085.056A.209.209,0,0,0,5.7-5.94a.4.4,0,0,0-.024.144.3.3,0,0,0,.02.116.282.282,0,0,0,.061.093.29.29,0,0,0,.094.062A.235.235,0,0,0,5.951-5.506Zm0,3.851A.684.684,0,0,0,6.206-1.7a.453.453,0,0,0,.157-.1.435.435,0,0,0,.1-.152A.748.748,0,0,0,6.5-2.224a.651.651,0,0,0-.042-.241.51.51,0,0,0-.108-.172.476.476,0,0,0-.162-.11.613.613,0,0,0-.241-.041.615.615,0,0,0-.236.041.471.471,0,0,0-.161.1.5.5,0,0,0-.107.167.652.652,0,0,0-.043.251.841.841,0,0,0,.045.3.412.412,0,0,0,.088.147.357.357,0,0,0,.135.083A.785.785,0,0,0,5.951-1.655ZM-5.269-8.7h.94a1,1,0,0,1,1,1v4.086a1,1,0,0,1,.988,1v.806a1,1,0,0,1-.988,1V0a1,1,0,0,1-1,1H-5.2a1,1,0,0,1-1-1V-.81h-2.62a1,1,0,0,1-1-1v-.763a1,1,0,0,1,.252-.663c.323-.365.655-.76.987-1.176s.65-.841.951-1.267.578-.85.831-1.269A11.207,11.207,0,0,0-6.18-8.114,1,1,0,0,1-5.269-8.7Z" transform="translate(9 99.607)" fill="#fff"/>
            <text id="_619" data-name="619" transform="translate(30.732 27.492)" fill="#595959" font-size="11" font-family="SegoeUI, Segoe UI"><tspan x="-8.895" y="0">619</tspan></text>
            <path id="_619_-_轮廓" data-name="619 - 轮廓" d="M5.231,1.134A4.168,4.168,0,0,1,3.469.773a1,1,0,0,1-.58-.907V-.978a1,1,0,0,1,.5-.863,1,1,0,0,1,1-.008,1.738,1.738,0,0,0,.874.231.991.991,0,0,0,.469-.1.851.851,0,0,0,.2-.144q-.1,0-.194,0a3.315,3.315,0,0,1-1.3-.253,3.083,3.083,0,0,1-1.054-.73A3.266,3.266,0,0,1,2.7-3.933,3.736,3.736,0,0,1,2.47-5.258a3.839,3.839,0,0,1,.254-1.407A3.434,3.434,0,0,1,3.452-7.81a3.312,3.312,0,0,1,1.12-.757,3.57,3.57,0,0,1,1.374-.264,3.192,3.192,0,0,1,1.491.347A3.06,3.06,0,0,1,8.555-7.479,4.376,4.376,0,0,1,9.167-6.05a7.324,7.324,0,0,1,.19,1.737,8.7,8.7,0,0,1-.24,2.129A5.209,5.209,0,0,1,8.353-.458,3.712,3.712,0,0,1,7.01.726,3.851,3.851,0,0,1,5.231,1.134Zm.639-7.219A.4.4,0,0,0,5.7-6.05a.421.421,0,0,0-.144.108.7.7,0,0,0-.128.226.973.973,0,0,0-.054.34,1.277,1.277,0,0,0,.056.407.547.547,0,0,0,.105.193.356.356,0,0,0,.134.092.678.678,0,0,0,.256.043.459.459,0,0,0,.186-.036.533.533,0,0,0,.167-.108.435.435,0,0,0,.1-.144A.423.423,0,0,0,6.407-5.1a1.7,1.7,0,0,0-.069-.51.985.985,0,0,0-.153-.31.437.437,0,0,0-.15-.127A.346.346,0,0,0,5.871-6.084Zm-11.7,7.219A3.2,3.2,0,0,1-7.333.777a3.2,3.2,0,0,1-1.131-1A4.342,4.342,0,0,1-9.1-1.666a7.032,7.032,0,0,1-.2-1.723A7.969,7.969,0,0,1-9.04-5.475a5.443,5.443,0,0,1,.781-1.716,3.926,3.926,0,0,1,1.329-1.2,3.655,3.655,0,0,1,1.774-.439,4.044,4.044,0,0,1,1.693.31,1,1,0,0,1,.585.91v.833a1,1,0,0,1-.479.853,1,1,0,0,1-.978.036,1.713,1.713,0,0,0-.8-.2.884.884,0,0,0-.442.1,1.032,1.032,0,0,0-.221.167q.093,0,.19,0a3.314,3.314,0,0,1,1.3.251,2.968,2.968,0,0,1,1.041.732A3.192,3.192,0,0,1-2.62-3.748a3.859,3.859,0,0,1,.214,1.3,3.861,3.861,0,0,1-.25,1.4A3.5,3.5,0,0,1-3.363.093a3.26,3.26,0,0,1-1.1.77A3.438,3.438,0,0,1-5.828,1.134Zm.021-4.206a.492.492,0,0,0-.2.038.517.517,0,0,0-.167.114.56.56,0,0,0-.115.18.57.57,0,0,0-.041.22,1.4,1.4,0,0,0,.064.434.925.925,0,0,0,.15.293.507.507,0,0,0,.166.14.329.329,0,0,0,.162.034A.447.447,0,0,0-5.6-1.652a.353.353,0,0,0,.127-.094.647.647,0,0,0,.114-.212,1.159,1.159,0,0,0,.054-.372,1.42,1.42,0,0,0-.055-.423.6.6,0,0,0-.1-.2.266.266,0,0,0-.1-.074A.608.608,0,0,0-5.806-3.071ZM.924,1H.043a1,1,0,0,1-1-1V-4.944a4.661,4.661,0,0,1-.541.172,1,1,0,0,1-.858-.182,1,1,0,0,1-.385-.788v-.892A1,1,0,0,1-2.008-7.6a4.145,4.145,0,0,0,.494-.175c.187-.079.373-.168.553-.265s.355-.2.515-.307a3.742,3.742,0,0,0,.381-.284,1,1,0,0,1,.656-.245H.924a1,1,0,0,1,1,1V0A1,1,0,0,1,.924,1Z" transform="translate(30.732 27.492)" fill="#fff"/>
          </g>
        </g>
      </g>
      <g id="组_16044" data-name="组 16044" transform="translate(10866.007 -13007.311)">
        <g id="组_14618-2" data-name="组 14618" transform="translate(0 0)">
          <g id="组_14617-2" data-name="组 14617">
            <text id="_97-2" data-name="97" transform="translate(82.297 11)" fill="#595959" font-size="10" font-family="SegoeUI, Segoe UI"><tspan x="-5.391" y="0">97</tspan></text>
            <text id="_814-2" data-name="814" transform="translate(136.571 50.998)" fill="#595959" font-size="11" font-family="SegoeUI, Segoe UI"><tspan x="-8.895" y="0">814</tspan></text>
            <text id="_848-2" data-name="848" transform="translate(84.249 147.804)" fill="#595959" font-size="11" font-family="SegoeUI, Segoe UI"><tspan x="-8.895" y="0">848</tspan></text>
            <text id="_418-2" data-name="418" transform="translate(9 99.607)" fill="#595959" font-size="11" font-family="SegoeUI, Segoe UI"><tspan x="-8.895" y="0">418</tspan></text>
            <text id="_619-2" data-name="619" transform="translate(30.732 27.492)" fill="#595959" font-size="11" font-family="SegoeUI, Segoe UI"><tspan x="-8.895" y="0">619</tspan></text>
          </g>
        </g>
      </g>
    </g>
  </g>
</svg>
