<svg xmlns="http://www.w3.org/2000/svg" xmlns:xlink="http://www.w3.org/1999/xlink" width="550" height="260" viewBox="0 0 550 260">
  <defs>
    <clipPath id="clip-k-9">
      <rect width="550" height="260"/>
    </clipPath>
  </defs>
  <g id="k-9" clip-path="url(#clip-k-9)">
    <rect width="550" height="260" fill="rgba(255,255,255,0)"/>
    <g id="组_16049" data-name="组 16049" transform="translate(-1298 -891)">
      <g id="组_14706" data-name="组 14706" transform="translate(613 587)">
        <g id="组件_371_10" data-name="组件 371 – 10" transform="translate(685 304)">
          <rect id="矩形_4805" data-name="矩形 4805" width="550" height="260" rx="10" fill="rgba(255,255,255,0)"/>
          <g id="组_14553" data-name="组 14553" transform="translate(-685 -304)">
            <text id="百分比堆叠柱状图" transform="translate(709 344)" fill="#282f39" font-size="18" font-family="MicrosoftYaHeiUI, Microsoft YaHei UI"><tspan x="0" y="0">百分比堆叠柱状图</tspan></text>
            <path id="路径_7909" data-name="路径 7909" d="M0,11H8v8H0Z" transform="translate(1125 322)" fill="#377CFD" opacity="0.9"/>
            <text id="事件" transform="translate(1150 342)" fill="#1c3151" font-size="12" font-family="MicrosoftYaHeiUI, Microsoft YaHei UI"><tspan x="-12" y="0">事件</tspan></text>
            <path id="路径_7911" data-name="路径 7911" d="M63.5,11h8v8h-8Z" transform="translate(1110.5 322)" fill="#13d4af" opacity="0.9"/>
            <text id="事件-2" data-name="事件" transform="translate(1199 342)" fill="#1c3151" font-size="12" font-family="MicrosoftYaHeiUI, Microsoft YaHei UI"><tspan x="-12" y="0">事件</tspan></text>
          </g>
        </g>
      </g>
      <g id="组_14709" data-name="组 14709" transform="translate(-5764.5 3165)">
        <g id="组_14712" data-name="组 14712" transform="translate(7063 -2279)">
          <g id="组_14711" data-name="组 14711">
            <path id="路径_8190" data-name="路径 8190" d="M525.5,234H24.5v-1h501Z" fill="rgba(0,0,0,0.45)"/>
            <g id="组_14710" data-name="组 14710">
              <text id="标题" transform="translate(87.125 254.5)" fill="rgba(0,0,0,0.45)" font-size="12" font-family="MicrosoftJhengHeiUIRegular, Microsoft JhengHei UI"><tspan x="-12" y="0">标题</tspan></text>
              <text id="标题-2" data-name="标题" transform="translate(212.375 254.5)" fill="rgba(0,0,0,0.45)" font-size="12" font-family="MicrosoftJhengHeiUIRegular, Microsoft JhengHei UI"><tspan x="-12" y="0">标题</tspan></text>
              <text id="标题-3" data-name="标题" transform="translate(337.625 254.5)" fill="rgba(0,0,0,0.45)" font-size="12" font-family="MicrosoftJhengHeiUIRegular, Microsoft JhengHei UI"><tspan x="-12" y="0">标题</tspan></text>
              <text id="标题-4" data-name="标题" transform="translate(462.875 254.5)" fill="rgba(0,0,0,0.45)" font-size="12" font-family="MicrosoftJhengHeiUIRegular, Microsoft JhengHei UI"><tspan x="-12" y="0">标题</tspan></text>
            </g>
          </g>
        </g>
        <g id="组_14716" data-name="组 14716" transform="translate(7063 -2279)">
          <path id="路径_8191" data-name="路径 8191" d="M24.5,78.5h501v155H24.5Z" fill="rgba(255,255,255,0)"/>
          <g id="组_14715" data-name="组 14715">
            <g id="组_14714" data-name="组 14714">
              <path id="路径_8192" data-name="路径 8192" d="M49.55,215.862V78.5H124.7V215.862Z" fill="#377CFD" opacity="0.85"/>
              <path id="路径_8193" data-name="路径 8193" d="M174.8,164.646V78.5h75.15v86.146Z" fill="#377CFD" opacity="0.85"/>
              <path id="路径_8194" data-name="路径 8194" d="M300.05,104.041V78.5H375.2v25.541Z" fill="#377CFD" opacity="0.85"/>
              <path id="路径_8195" data-name="路径 8195" d="M425.3,145.375V78.5h75.15v66.875Z" fill="#377CFD" opacity="0.85"/>
              <path id="路径_8196" data-name="路径 8196" d="M49.55,233.5V215.862H124.7V233.5Z" fill="#13d4af" opacity="0.85"/>
              <path id="路径_8197" data-name="路径 8197" d="M174.8,233.5V164.646h75.15V233.5Z" fill="#13d4af" opacity="0.85"/>
              <path id="路径_8198" data-name="路径 8198" d="M300.05,233.5V104.041H375.2V233.5Z" fill="#13d4af" opacity="0.85"/>
              <path id="路径_8199" data-name="路径 8199" d="M425.3,233.5V145.375h75.15V233.5Z" fill="#13d4af" opacity="0.85"/>
            </g>
          </g>
        </g>
        <g id="组_14720" data-name="组 14720" transform="translate(7063 -2279)">
          <g id="组_14719" data-name="组 14719">
            <g id="组_14718" data-name="组 14718">
              <g id="组_14717" data-name="组 14717">
                <text id="_88.6_" data-name="88.6%" transform="translate(87.125 152.181)" fill="#f6f6f6" font-size="12" font-family="SegoeUI, Segoe UI"><tspan x="-15.914" y="0">88.6%</tspan></text>
                <text id="_55.6_" data-name="55.6%" transform="translate(212.375 126.573)" fill="#f6f6f6" font-size="12" font-family="SegoeUI, Segoe UI"><tspan x="-15.914" y="0">55.6%</tspan></text>
                <text id="_16.5_" data-name="16.5%" transform="translate(337.625 96.27)" fill="#f6f6f6" font-size="12" font-family="SegoeUI, Segoe UI"><tspan x="-15.914" y="0">16.5%</tspan></text>
                <text id="_43.1_" data-name="43.1%" transform="translate(462.875 116.938)" fill="#f6f6f6" font-size="12" font-family="SegoeUI, Segoe UI"><tspan x="-15.914" y="0">43.1%</tspan></text>
                <text id="_11.4_" data-name="11.4%" transform="translate(87.125 229.681)" font-size="12" font-family="SegoeUI, Segoe UI"><tspan x="-15.914" y="0">11.4%</tspan></text>
                <path id="_11.4_-_轮廓" data-name="11.4% - 轮廓" d="M13.465,1.129A2.77,2.77,0,0,1,11.338.223a2.944,2.944,0,0,1-.688-1.371L9.539.6a1,1,0,0,1-.843.463H7.857A1,1,0,0,1,7.014-.478L8.747-3.2q-.141.012-.286.012a2.775,2.775,0,0,1-2.125-.9,2.983,2.983,0,0,1-.73-1.6v1.832h.078a1,1,0,0,1,1,1v.879a1,1,0,0,1-1,1H5.605V0a1,1,0,0,1-1,1H3.656a1,1,0,0,1-1-1V-.975H-.067a1.675,1.675,0,0,1,.06.447A1.623,1.623,0,0,1-.494.643a1.63,1.63,0,0,1-1.176.486A1.613,1.613,0,0,1-2.842.637,1.629,1.629,0,0,1-3.32-.527a1.639,1.639,0,0,1,.473-1.162,1.607,1.607,0,0,1,1.178-.5,1.7,1.7,0,0,1,.377.041v-.659a1,1,0,0,1,.252-.663c.354-.4.717-.832,1.079-1.287s.711-.92,1.04-1.386.633-.93.91-1.39a12.315,12.315,0,0,0,.68-1.281A1,1,0,0,1,3.58-9.4H4.605a1,1,0,0,1,1,1v1.487A3.105,3.105,0,0,1,6.367-8.6a2.894,2.894,0,0,1,2.211-.929,2.746,2.746,0,0,1,2.139.892,2.887,2.887,0,0,1,.653,1.315L12.4-8.939a1,1,0,0,1,.844-.463h.844a1,1,0,0,1,.877.519,1,1,0,0,1-.033,1.018L13.236-5.208q.169-.017.346-.017a2.741,2.741,0,0,1,2.137.9,3.268,3.268,0,0,1,.749,2.239A3.269,3.269,0,0,1,15.654.2,2.879,2.879,0,0,1,13.465,1.129Zm-.008-2.662a.351.351,0,0,0,.067.006.272.272,0,0,0,.054,0l.008-.01a.9.9,0,0,0,.11-.533.9.9,0,0,0-.09-.479l0,0a.274.274,0,0,0-.054,0,.243.243,0,0,0-.079.009s-.005,0-.013.015a.868.868,0,0,0-.108.522.847.847,0,0,0,.1.468A.082.082,0,0,0,13.457-1.533Zm-5-4.312a.352.352,0,0,0,.067.006.274.274,0,0,0,.057,0l.007-.009a.9.9,0,0,0,.108-.533.829.829,0,0,0-.1-.491l-.005-.006a.268.268,0,0,0-.046,0,.213.213,0,0,0-.073.008.172.172,0,0,0-.018.02.926.926,0,0,0-.111.519.794.794,0,0,0,.1.48A.082.082,0,0,0,8.453-5.845ZM-5.2,1h-.961a1,1,0,0,1-1-1V-5.527a5.1,5.1,0,0,1-.7.234,1,1,0,0,1-.858-.182,1,1,0,0,1-.385-.788v-.973A1,1,0,0,1-8.377-8.2a4.615,4.615,0,0,0,.55-.2c.206-.087.412-.185.612-.293s.392-.222.569-.34a4.175,4.175,0,0,0,.425-.317,1,1,0,0,1,.656-.245H-5.2a1,1,0,0,1,1,1V0A1,1,0,0,1-5.2,1Zm-6.469,0h-.961a1,1,0,0,1-1-1V-5.527a5.1,5.1,0,0,1-.7.234,1,1,0,0,1-.858-.182,1,1,0,0,1-.385-.788v-.973a1,1,0,0,1,.732-.964,4.615,4.615,0,0,0,.55-.2c.206-.087.412-.185.612-.293s.392-.222.569-.34a4.175,4.175,0,0,0,.425-.317,1,1,0,0,1,.656-.245h.363a1,1,0,0,1,1,1V0A1,1,0,0,1-11.672,1Z" transform="translate(87.125 229.681)" fill="#fff"/>
                <text id="_44.4_" data-name="44.4%" transform="translate(212.375 204.073)" font-size="12" font-family="SegoeUI, Segoe UI"><tspan x="-15.914" y="0">44.4%</tspan></text>
                <path id="_44.4_-_轮廓" data-name="44.4% - 轮廓" d="M8.578-9.531a2.746,2.746,0,0,1,2.139.892,2.887,2.887,0,0,1,.653,1.315L12.4-8.939a1,1,0,0,1,.844-.463h.844a1,1,0,0,1,.877.519,1,1,0,0,1-.033,1.018L13.236-5.208q.169-.017.346-.017a2.741,2.741,0,0,1,2.137.9,3.268,3.268,0,0,1,.749,2.239A3.269,3.269,0,0,1,15.654.2a2.879,2.879,0,0,1-2.189.932A2.77,2.77,0,0,1,11.338.223a2.944,2.944,0,0,1-.688-1.371L9.539.6a1,1,0,0,1-.843.463H7.857A1,1,0,0,1,7.014-.478L8.747-3.2q-.141.012-.286.012a2.775,2.775,0,0,1-2.125-.9,2.983,2.983,0,0,1-.73-1.6v1.832h.078a1,1,0,0,1,1,1v.879a1,1,0,0,1-1,1H5.605V0a1,1,0,0,1-1,1H3.656a1,1,0,0,1-1-1V-.975H-.067a1.674,1.674,0,0,1,.06.447A1.623,1.623,0,0,1-.494.643a1.63,1.63,0,0,1-1.176.486A1.612,1.612,0,0,1-2.842.637,1.629,1.629,0,0,1-3.32-.527a1.682,1.682,0,0,1,.062-.455,1.009,1.009,0,0,1-.128.008h-.078V0a1,1,0,0,1-1,1h-.949a1,1,0,0,1-1-1V-.975H-9.363a1,1,0,0,1-.246-.031,1,1,0,0,1-.246.031h-.078V0a1,1,0,0,1-1,1h-.949a1,1,0,0,1-1-1V-.975h-2.949a1,1,0,0,1-1-1v-.832a1,1,0,0,1,.252-.663c.354-.4.717-.832,1.079-1.287s.711-.92,1.04-1.386.633-.93.91-1.39a12.315,12.315,0,0,0,.68-1.281,1,1,0,0,1,.911-.589h1.025a1,1,0,0,1,1,1v4.549h.078l.076,0c.247-.289.5-.592.748-.906.361-.453.711-.92,1.04-1.386s.633-.93.91-1.39A12.315,12.315,0,0,0-6.4-8.814,1,1,0,0,1-5.49-9.4h1.025a1,1,0,0,1,1,1v4.549h.078a1,1,0,0,1,1,1v.827a1.617,1.617,0,0,1,.717-.163,1.7,1.7,0,0,1,.377.041v-.659a1,1,0,0,1,.252-.663c.354-.4.717-.832,1.079-1.287s.711-.92,1.04-1.386.633-.93.91-1.39a12.318,12.318,0,0,0,.68-1.281A1,1,0,0,1,3.58-9.4H4.605a1,1,0,0,1,1,1v1.487A3.105,3.105,0,0,1,6.367-8.6,2.894,2.894,0,0,1,8.578-9.531Zm.011,2.648a.268.268,0,0,0-.046,0,.212.212,0,0,0-.073.008.169.169,0,0,0-.018.02.926.926,0,0,0-.111.519.794.794,0,0,0,.1.48.081.081,0,0,0,.014.015.352.352,0,0,0,.067.006.274.274,0,0,0,.057,0l.007-.009a.9.9,0,0,0,.108-.533.829.829,0,0,0-.1-.491ZM13.6-2.558a.274.274,0,0,0-.054,0,.243.243,0,0,0-.079.009s-.005,0-.013.015a.868.868,0,0,0-.108.522.847.847,0,0,0,.1.468.082.082,0,0,0,.014.015.352.352,0,0,0,.067.006.272.272,0,0,0,.054,0l.008-.01a.9.9,0,0,0,.11-.533.9.9,0,0,0-.09-.479Z" transform="translate(212.375 204.073)" fill="#fff"/>
                <text id="_83.5_" data-name="83.5%" transform="translate(337.625 173.77)" font-size="12" font-family="SegoeUI, Segoe UI"><tspan x="-15.914" y="0">83.5%</tspan></text>
                <path id="_83.5_-_轮廓" data-name="83.5% - 轮廓" d="M2.326,1.146A4.271,4.271,0,0,1,.06.645,1,1,0,0,1-.252.34a1.707,1.707,0,0,1-.242.3,1.63,1.63,0,0,1-1.176.486A1.612,1.612,0,0,1-2.842.637,1.629,1.629,0,0,1-3.32-.527q0-.056,0-.11a3.282,3.282,0,0,1-.714.852A3.792,3.792,0,0,1-5.3.914a4.794,4.794,0,0,1-1.517.233A4.471,4.471,0,0,1-9.266.53,1,1,0,0,1-9.71-.14a3.234,3.234,0,0,1-.316.329,3.59,3.59,0,0,1-1.19.7,4.23,4.23,0,0,1-1.445.242A4.186,4.186,0,0,1-14.1.893a3.63,3.63,0,0,1-1.186-.7A3.271,3.271,0,0,1-16.1-.931a3.468,3.468,0,0,1-.288-1.412,3.244,3.244,0,0,1,.151-.97A3.441,3.441,0,0,1-15.81-4.2a3.406,3.406,0,0,1,.368-.457q-.045-.061-.087-.123A2.841,2.841,0,0,1-16.023-6.4a3.042,3.042,0,0,1,.269-1.27,3.064,3.064,0,0,1,.733-1.006,3.294,3.294,0,0,1,1.074-.645,3.678,3.678,0,0,1,1.286-.224,3.652,3.652,0,0,1,1.3.229,3.335,3.335,0,0,1,1.068.646,3.029,3.029,0,0,1,.733,1.012A2.968,2.968,0,0,1-9.4-7.2v-.864a1,1,0,0,1,.486-.858,4.65,4.65,0,0,1,2.424-.622,3.943,3.943,0,0,1,1.279.2,3.192,3.192,0,0,1,1.063.6,2.819,2.819,0,0,1,.728.977,2.955,2.955,0,0,1,.256,1.227,3.123,3.123,0,0,1-.64,1.992l.081.077a2.871,2.871,0,0,1,.633.928,2.938,2.938,0,0,1,.23,1.164,3.655,3.655,0,0,1-.087.8q.047-.058.1-.112a1.607,1.607,0,0,1,1.178-.5,1.624,1.624,0,0,1,1.181.495,1.769,1.769,0,0,1,.129.146A1,1,0,0,1,.107-2.1a1,1,0,0,1,1.02.037,2.2,2.2,0,0,0,1.211.392,1.393,1.393,0,0,0,.478-.073A.836.836,0,0,0,3.1-1.915a.6.6,0,0,0,.15-.224.968.968,0,0,0,.064-.369.6.6,0,0,0-.2-.523,1.532,1.532,0,0,0-.954-.229c-.1,0-.212,0-.326.005l-.36.014c-.118.006-.235.012-.348.019S.943-3.206.863-3.2a1,1,0,0,1-.808-.268,1,1,0,0,1-.309-.793L.034-8.47a1,1,0,0,1,1-.932H4.916a1,1,0,0,1,1,1v.461A2.9,2.9,0,0,1,6.367-8.6a2.894,2.894,0,0,1,2.211-.929,2.746,2.746,0,0,1,2.139.892,2.887,2.887,0,0,1,.653,1.315L12.4-8.939a1,1,0,0,1,.844-.463h.844a1,1,0,0,1,.877.519,1,1,0,0,1-.033,1.018L13.236-5.208q.169-.017.346-.017a2.741,2.741,0,0,1,2.137.9,3.268,3.268,0,0,1,.749,2.239A3.269,3.269,0,0,1,15.654.2a2.879,2.879,0,0,1-2.189.932A2.77,2.77,0,0,1,11.338.223a2.944,2.944,0,0,1-.688-1.371L9.539.6a1,1,0,0,1-.843.463H7.857A1,1,0,0,1,7.014-.478L8.747-3.2q-.141.012-.286.012a2.775,2.775,0,0,1-2.125-.9,3.167,3.167,0,0,1-.773-2.2A4.536,4.536,0,0,1,5.59-6.8a1,1,0,0,1-.674.262H2.8l-.031.445a4.591,4.591,0,0,1,1.212.219,3.537,3.537,0,0,1,1.241.7A3.1,3.1,0,0,1,6.04-4,3.808,3.808,0,0,1,6.3-2.566a3.833,3.833,0,0,1-.29,1.5,3.438,3.438,0,0,1-.845,1.2A3.7,3.7,0,0,1,3.882.9,4.69,4.69,0,0,1,2.326,1.146Zm11.13-2.679a.352.352,0,0,0,.067.006.272.272,0,0,0,.054,0l.008-.01a.9.9,0,0,0,.11-.533.9.9,0,0,0-.09-.479l0,0a.274.274,0,0,0-.054,0,.244.244,0,0,0-.079.009s-.005,0-.013.015a.868.868,0,0,0-.108.522.847.847,0,0,0,.1.468A.081.081,0,0,0,13.457-1.533ZM-8.725-2.342a1,1,0,0,1,.618.214,2.07,2.07,0,0,0,1.327.454,1.666,1.666,0,0,0,.494-.065.8.8,0,0,0,.271-.139.434.434,0,0,0,.122-.158.615.615,0,0,0,.046-.255c0-.3-.1-.374-.161-.417a2.108,2.108,0,0,0-1.183-.23h-.7a1,1,0,0,1-1-1v-.814a1,1,0,0,1,1-1h.662a1.65,1.65,0,0,0,.958-.188c.038-.028.116-.087.116-.359a.536.536,0,0,0-.066-.33.9.9,0,0,0-.516-.1,1.707,1.707,0,0,0-1.061.391,1,1,0,0,1-1.051.1,1,1,0,0,1-.473-.493A3.255,3.255,0,0,1-9.3-6.4a2.841,2.841,0,0,1-.493,1.617q-.042.063-.087.123a3.453,3.453,0,0,1,.367.457,3.441,3.441,0,0,1,.425.888,3.245,3.245,0,0,1,.151.97q0,.012,0,.025A1,1,0,0,1-8.725-2.342Zm-3.931-.789a.759.759,0,0,0-.292.051.61.61,0,0,0-.205.133.634.634,0,0,0-.137.212.8.8,0,0,0-.054.308,1.006,1.006,0,0,0,.055.354.537.537,0,0,0,.117.192.493.493,0,0,0,.179.111.945.945,0,0,0,.337.054.835.835,0,0,0,.311-.053.59.59,0,0,0,.2-.128.562.562,0,0,0,.125-.2.905.905,0,0,0,.055-.333.8.8,0,0,0-.052-.3.654.654,0,0,0-.136-.217.615.615,0,0,0-.206-.141A.756.756,0,0,0-12.656-3.131ZM8.453-5.845a.351.351,0,0,0,.067.006.274.274,0,0,0,.057,0l.007-.009a.9.9,0,0,0,.108-.533.829.829,0,0,0-.1-.491l-.005-.006a.269.269,0,0,0-.046,0,.213.213,0,0,0-.073.008.172.172,0,0,0-.018.02.926.926,0,0,0-.111.519.794.794,0,0,0,.1.48A.081.081,0,0,0,8.453-5.845Zm-21.109-.889a.419.419,0,0,0-.165.028.369.369,0,0,0-.122.081.324.324,0,0,0-.069.113.52.52,0,0,0-.032.19.41.41,0,0,0,.029.162.4.4,0,0,0,.086.13.4.4,0,0,0,.13.087.353.353,0,0,0,.144.027.343.343,0,0,0,.142-.028.4.4,0,0,0,.13-.087.467.467,0,0,0,.1-.144.358.358,0,0,0,.028-.148.447.447,0,0,0-.03-.175.379.379,0,0,0-.081-.126.386.386,0,0,0-.127-.083A.388.388,0,0,0-12.656-6.734Z" transform="translate(337.625 173.77)" fill="#fff"/>
                <text id="_56.9_" data-name="56.9%" transform="translate(462.875 194.438)" font-size="12" font-family="SegoeUI, Segoe UI"><tspan x="-15.914" y="0">56.9%</tspan></text>
                <path id="_56.9_-_轮廓" data-name="56.9% - 轮廓" d="M2.1,1.146A4.457,4.457,0,0,1,.213.761,1,1,0,0,1-.246.33,1.7,1.7,0,0,1-.494.643a1.63,1.63,0,0,1-1.176.486A1.612,1.612,0,0,1-2.842.637a1.629,1.629,0,0,1-.443-.82q-.091.115-.192.222A3.466,3.466,0,0,1-4.652.858,3.66,3.66,0,0,1-6.1,1.146,3.4,3.4,0,0,1-7.7.768,3.4,3.4,0,0,1-8.9-.3a4.331,4.331,0,0,1-.526-1.029q-.045.136-.1.266a3.438,3.438,0,0,1-.845,1.2A3.7,3.7,0,0,1-11.657.9a4.69,4.69,0,0,1-1.556.25,4.271,4.271,0,0,1-2.266-.5,1,1,0,0,1-.474-.85v-1.02a1,1,0,0,1,.521-.878,1,1,0,0,1,1.02.037,2.2,2.2,0,0,0,1.211.392,1.393,1.393,0,0,0,.478-.073.836.836,0,0,0,.288-.168.6.6,0,0,0,.15-.224.967.967,0,0,0,.065-.369.6.6,0,0,0-.2-.523,1.532,1.532,0,0,0-.954-.229c-.1,0-.212,0-.326.005l-.36.014c-.118.006-.235.012-.348.019s-.192.015-.271.024a1,1,0,0,1-.808-.268,1,1,0,0,1-.309-.793l.287-4.213a1,1,0,0,1,1-.932h3.885a1,1,0,0,1,1,1v.867a1,1,0,0,1-1,1h-2.119l-.031.445a4.592,4.592,0,0,1,1.212.219,3.537,3.537,0,0,1,1.241.7,3.061,3.061,0,0,1,.557.656,7.967,7.967,0,0,1,.246-1.437,5.847,5.847,0,0,1,.839-1.843A4.193,4.193,0,0,1-7.259-9.075a3.9,3.9,0,0,1,1.892-.468,4.324,4.324,0,0,1,1.809.33,1,1,0,0,1,.585.91v.908a1,1,0,0,1-.479.853,1,1,0,0,1-.978.036,1.957,1.957,0,0,0-.914-.224A1.052,1.052,0,0,0-5.87-6.6a1.3,1.3,0,0,0-.41.369,4.125,4.125,0,0,1,.421-.021,3.526,3.526,0,0,1,1.383.267,3.147,3.147,0,0,1,1.1.776,3.392,3.392,0,0,1,.687,1.155,4.12,4.12,0,0,1,.228,1.392,4.423,4.423,0,0,1-.056.708,1.605,1.605,0,0,1,.843-.232,1.624,1.624,0,0,1,1.181.495,1.738,1.738,0,0,1,.2.242A1,1,0,0,1,.128-1.93a1,1,0,0,1,1-.008,1.984,1.984,0,0,0,1,.264,1.17,1.17,0,0,0,.553-.121A1.1,1.1,0,0,0,3.06-2.14a3.846,3.846,0,0,1-.424.023,3.526,3.526,0,0,1-1.379-.269A3.273,3.273,0,0,1,.139-3.161,3.472,3.472,0,0,1-.578-4.322,3.986,3.986,0,0,1-.824-5.736a4.1,4.1,0,0,1,.271-1.5A3.655,3.655,0,0,1,.222-8.456a3.523,3.523,0,0,1,1.191-.805,3.8,3.8,0,0,1,1.464-.281,3.392,3.392,0,0,1,1.584.368A3.248,3.248,0,0,1,5.648-8.108q.1.153.2.321A2.913,2.913,0,0,1,6.367-8.6a2.894,2.894,0,0,1,2.211-.929,2.746,2.746,0,0,1,2.139.892,2.887,2.887,0,0,1,.653,1.315L12.4-8.939a1,1,0,0,1,.844-.463h.844a1,1,0,0,1,.877.519,1,1,0,0,1-.033,1.018L13.236-5.208q.169-.017.346-.017a2.741,2.741,0,0,1,2.137.9,3.268,3.268,0,0,1,.749,2.239A3.269,3.269,0,0,1,15.654.2a2.879,2.879,0,0,1-2.189.932A2.77,2.77,0,0,1,11.338.223a2.944,2.944,0,0,1-.688-1.371L9.539.6a1,1,0,0,1-.843.463H7.857A1,1,0,0,1,7.014-.478L8.747-3.2q-.141.012-.286.012a2.8,2.8,0,0,1-1.978-.75,8.585,8.585,0,0,1-.234,1.535,5.592,5.592,0,0,1-.82,1.853A3.96,3.96,0,0,1,4,.711,4.111,4.111,0,0,1,2.1,1.146ZM13.457-1.533a.351.351,0,0,0,.067.006.272.272,0,0,0,.054,0l.008-.01a.9.9,0,0,0,.11-.533.9.9,0,0,0-.09-.479l0,0a.274.274,0,0,0-.054,0,.243.243,0,0,0-.079.009s-.005,0-.013.015a.868.868,0,0,0-.108.522.847.847,0,0,0,.1.468A.082.082,0,0,0,13.457-1.533ZM-6.076-3.441a.626.626,0,0,0-.258.049.653.653,0,0,0-.211.145.7.7,0,0,0-.144.225.711.711,0,0,0-.051.274,1.622,1.622,0,0,0,.074.5,1.1,1.1,0,0,0,.179.348.649.649,0,0,0,.21.177.445.445,0,0,0,.219.047.575.575,0,0,0,.244-.046.478.478,0,0,0,.169-.126A.8.8,0,0,0-5.5-2.108a1.353,1.353,0,0,0,.063-.435,1.638,1.638,0,0,0-.065-.489.737.737,0,0,0-.13-.254.377.377,0,0,0-.146-.106A.75.75,0,0,0-6.076-3.441ZM2.795-6.729a.522.522,0,0,0-.226.046.548.548,0,0,0-.187.14.851.851,0,0,0-.157.275,1.151,1.151,0,0,0-.065.4,1.482,1.482,0,0,0,.066.474.685.685,0,0,0,.134.243.481.481,0,0,0,.179.123.828.828,0,0,0,.314.054.6.6,0,0,0,.238-.046.671.671,0,0,0,.21-.136.57.57,0,0,0,.126-.186.556.556,0,0,0,.043-.226,1.947,1.947,0,0,0-.079-.583,1.163,1.163,0,0,0-.182-.367.564.564,0,0,0-.194-.163A.472.472,0,0,0,2.795-6.729Zm5.658.883a.352.352,0,0,0,.067.006.274.274,0,0,0,.057,0l.007-.009a.9.9,0,0,0,.108-.533.829.829,0,0,0-.1-.491l-.005-.006a.268.268,0,0,0-.046,0,.213.213,0,0,0-.073.008.172.172,0,0,0-.018.02.926.926,0,0,0-.111.519.794.794,0,0,0,.1.48A.082.082,0,0,0,8.453-5.845Z" transform="translate(462.875 194.438)" fill="#fff"/>
              </g>
            </g>
          </g>
        </g>
        <text id="_11.4_2" data-name="11.4%" transform="translate(7150.125 -2049.319)" font-size="12" font-family="SegoeUI, Segoe UI"><tspan x="-15.914" y="0">11.4%</tspan></text>
        <text id="_44.4_2" data-name="44.4%" transform="translate(7275.375 -2074.927)" font-size="12" font-family="SegoeUI, Segoe UI"><tspan x="-15.914" y="0">44.4%</tspan></text>
        <text id="_83.5_2" data-name="83.5%" transform="translate(7400.625 -2105.23)" font-size="12" font-family="SegoeUI, Segoe UI"><tspan x="-15.914" y="0">83.5%</tspan></text>
        <text id="_56.9_2" data-name="56.9%" transform="translate(7525.875 -2084.562)" font-size="12" font-family="SegoeUI, Segoe UI"><tspan x="-15.914" y="0">56.9%</tspan></text>
      </g>
    </g>
  </g>
</svg>
