<svg xmlns="http://www.w3.org/2000/svg" width="73.423" height="89.313" viewBox="0 0 73.423 89.313">
  <g id="logo" transform="translate(-71.25 -61.271)">
    <rect id="矩形_5097" data-name="矩形 5097" width="73.423" height="89.248" transform="translate(71.25 61.278)" fill="#d20110"/>
    <path id="路径_8286" data-name="路径 8286" d="M87.909,150.526s-6.866-9.189-9.212-13.467-5.83-12.276-6.152-13.8c-.248-1.18.444,6.382,1.183,10.5a13.413,13.413,0,0,0,.548,2.061,47.661,47.661,0,0,0,5.387,10.171,51.1,51.1,0,0,1,2.852,4.554Z" fill="#fff" fill-rule="evenodd"/>
    <path id="路径_8287" data-name="路径 8287" d="M100.273,150.584c-13.821-13.451-23.5-30.421-26.59-49.593-2.761-17.113.414-27.28,4.186-32.065A19.131,19.131,0,0,1,88.45,62.3c1.84-.46,6.073-1.288,12.881,1.1a56.7,56.7,0,0,1,17.482,10.857c2.852,2.852,8.833,8.649,8.833,8.649s1.1.552.23,1.265,1.541,1.541,1.541,1.541a1.9,1.9,0,0,1-.315,1.017c-.142.168.929.964.628.9-.943-.207-9.261-8.264-15.517-11.346S102.436,69.754,96,70.445c-5.388.577-8.993,2.944-11.272,6.424-11.272,17.212,5.6,53.292,18.219,67.8,3.68,4.233,5.348,5.854,5.348,5.854Z" fill="#fff" fill-rule="evenodd"/>
    <path id="路径_8288" data-name="路径 8288" d="M92.994,88.352s.171.608.474,1.645c.254.867.6,2.036,1.016,3.4,1.341,4.393,3.4,10.8,5.411,15.66,3.637,8.8,11.911,30.8,23.6,30.383,8.576-.309,1.68-15.7.046-19.25-.909-1.976-1.876-3.9,0-1.058.83,1.258,2.935,6.8,3.082,6.21a37.09,37.09,0,0,0-1.61-4.554l-1.058-2.6c-2.5-4.634.438-.325.529-.69.138-.552-.046-.829.276-.691,2.153.923,6.061,7.739,6.694,9.638,1.84,5.521,2.446,7.637,2.668,12.007.348,6.831-4.384,11.982-12.442,8.967-5.347-2-12.642-11.34-15.581-16.15a116.908,116.908,0,0,1-9.016-19.191c-1.732-4.537-3.084-9.138-4.456-13.465a.732.732,0,0,1,.276-.322c.161-.069.039.136-.069-.392-.1-.508-.195-2.615.6-3.174.191-.135.276.253.207-.207a39.414,39.414,0,0,0-.645-6.164" fill="#fff" fill-rule="evenodd"/>
    <path id="路径_8289" data-name="路径 8289" d="M105.127,97.882a14.837,14.837,0,0,0,1.187,6.433c1.032,2.447,3.439,7.3,5.776,9.288.085.073.216.279.3.344.054.041.178-.2.36-.229.25-.039.109.252.36.441a12.132,12.132,0,0,1,1.522,1.128,2.291,2.291,0,0,0,.277.2c.2.161.094-.024-.238-.665a48.931,48.931,0,0,1-2.364-5.528c-.161-.759,2.78,4.784,2.977,5.166.021.042-8.421-15.912-1.279-18.174,2.377-.753,5.535.191,7.826,1.283,5.047,2.406,11.558,12.6,13.626,17.512.368.874,2.668,5.751,3.358,8.1.305,1.037.836,2.668,1.309,4.293.6,2.051,1.1,4.091.945,4.908-.29,1.515.821-1.256.529-3.382-1.71-12.459-13.641-39.081-27.027-39.977a9.587,9.587,0,0,0-5.852,1.327c-2.8,1.745-3.456,4.25-3.593,7.536" fill="#fff" fill-rule="evenodd"/>
    <path id="路径_8290" data-name="路径 8290" d="M128.226,68.086s-2.167-1.22-1.661-.783a20.546,20.546,0,0,0,2.512,2.118,5.747,5.747,0,0,1,1.211,1.439c1.059,1.432.311,1.085-.25.489a19.022,19.022,0,0,0-3.621-2.967c-.931-.594-2.066-.937-3.056-1.63,0,0,1.31,1.151,2.162,1.875,1.172,1,.672,1.441,1.92,2.116a23.873,23.873,0,0,1,1.887,1.714,1,1,0,0,1,.494,1.069c-.135,1.49,2.424,2.545,2.622,2.726.153.14-.1.463-.69.322-.736-.177-2.217-1.647-2.222-1.171a1.916,1.916,0,0,0,.612.895c.379.293,1.182,1.349,1.656,1.058.136-.083.65.173,1.2.593a5.287,5.287,0,0,1,1.225,1.635c.168.312.451.269.3.353-.22.124-.532-.255-1.01-.59-.889-.621-1.66-2.113-1.647-1.261a3.207,3.207,0,0,0-.024.443c.879,1.015,1.679,1.283,2.645,2.508l2.14,3.174a19.659,19.659,0,0,0,1.932,2.875c.087-.008-1.3-2.841-1.974-4.537-.249-.624-.6-1.072-.545-1.19.024-.055.091.088.206.3a41.62,41.62,0,0,0,2.459,4.689,1.751,1.751,0,0,1,.171.867c.039.479.785,1.357,1.07,1.851,1.359,2.359,3.878,7.312,4.72,8.979V84.927a70.338,70.338,0,0,0-11.536-14.011c-6.741-6.468-16.368-9.826-16.469-9.638.821.412,2.773,1.373,3.469,1.735C127.963,67.083,128.226,68.086,128.226,68.086Z" fill="#fff" fill-rule="evenodd"/>
  </g>
</svg>
