<svg xmlns="http://www.w3.org/2000/svg" width="155.244" height="35.925" viewBox="0 0 155.244 35.925">
  <g id="logo-light-wenzi" transform="translate(-11508 8881)">
    <g id="logo" transform="translate(11436.75 -8942.271)">
      <rect id="矩形_5097" data-name="矩形 5097" width="29.533" height="35.898" transform="translate(71.25 61.274)" fill="#d20110"/>
      <path id="路径_8286" data-name="路径 8286" d="M78.694,134.153s-2.762-3.7-3.705-5.417a40.986,40.986,0,0,1-2.475-5.551,33.038,33.038,0,0,0,.476,4.223,5.394,5.394,0,0,0,.22.829,19.171,19.171,0,0,0,2.167,4.091,20.553,20.553,0,0,1,1.147,1.832Z" transform="translate(-0.743 -36.981)" fill="#fff" fill-rule="evenodd"/>
      <path id="路径_8287" data-name="路径 8287" d="M83.754,97.5a35.829,35.829,0,0,1-10.7-19.948c-1.111-6.883.167-10.973,1.684-12.9A7.7,7.7,0,0,1,79,61.989a8.655,8.655,0,0,1,5.181.442A22.806,22.806,0,0,1,91.212,66.8c1.147,1.147,3.553,3.479,3.553,3.479s.442.222.093.509.62.62.62.62a.764.764,0,0,1-.127.409c-.057.068.374.388.253.362-.379-.083-3.725-3.324-6.241-4.564s-4.737-2.626-7.326-2.348A5.836,5.836,0,0,0,77.5,67.849c-4.534,6.923,2.252,21.436,7.328,27.271,1.48,1.7,2.151,2.355,2.151,2.355Z" transform="translate(-0.83 -0.304)" fill="#fff" fill-rule="evenodd"/>
      <path id="路径_8288" data-name="路径 8288" d="M92.775,88.352s.069.245.191.662c.1.349.241.819.409,1.368.539,1.767,1.368,4.344,2.176,6.3,1.463,3.54,4.791,12.389,9.493,12.221,3.45-.124.676-6.315.019-7.743-.366-.795-.755-1.569,0-.426.334.506,1.181,2.735,1.24,2.5a14.919,14.919,0,0,0-.648-1.832l-.426-1.046c-1.006-1.864.176-.131.213-.278.056-.222-.018-.333.111-.278.866.371,2.438,3.113,2.693,3.877a15.233,15.233,0,0,1,1.073,4.83c.14,2.748-1.763,4.82-5,3.607-2.151-.8-5.085-4.561-6.267-6.5A47.022,47.022,0,0,1,94.419,97.9c-.7-1.825-1.24-3.676-1.792-5.416a.3.3,0,0,1,.111-.13c.065-.028.016.055-.028-.158s-.078-1.052.241-1.277c.077-.054.111.1.083-.083a15.853,15.853,0,0,0-.259-2.479" transform="translate(-12.778 -16.188)" fill="#fff" fill-rule="evenodd"/>
      <path id="路径_8289" data-name="路径 8289" d="M105.12,92.56a5.968,5.968,0,0,0,.477,2.588,11.973,11.973,0,0,0,2.323,3.736c.034.029.087.112.121.138s.072-.08.145-.092c.1-.016.044.1.145.177a4.881,4.881,0,0,1,.612.454.922.922,0,0,0,.111.08c.08.065.038-.01-.1-.267a19.68,19.68,0,0,1-.951-2.224,17.992,17.992,0,0,1,1.2,2.078c.008.017-3.387-6.4-.514-7.31a4.733,4.733,0,0,1,3.148.516c2.03.968,4.649,5.068,5.481,7.044.148.352,1.073,2.313,1.351,3.258.123.417.336,1.073.527,1.727a6.362,6.362,0,0,1,.38,1.974c-.117.609.33-.505.213-1.36-.688-5.011-5.487-15.72-10.871-16.08a3.856,3.856,0,0,0-2.354.534,3.277,3.277,0,0,0-1.445,3.031" transform="translate(-20.244 -16.564)" fill="#fff" fill-rule="evenodd"/>
      <path id="路径_8290" data-name="路径 8290" d="M121.315,64.012s-.872-.491-.668-.315a8.264,8.264,0,0,0,1.01.852,2.311,2.311,0,0,1,.487.579c.426.576.125.436-.1.2a7.652,7.652,0,0,0-1.456-1.193c-.374-.239-.831-.377-1.229-.656,0,0,.527.463.87.754.471.4.27.58.772.851a9.6,9.6,0,0,1,.759.689.4.4,0,0,1,.2.43c-.054.6.975,1.024,1.055,1.1.062.056-.04.186-.278.13-.3-.071-.892-.662-.894-.471a.771.771,0,0,0,.246.36c.152.118.475.543.666.426.055-.033.261.07.483.239a2.127,2.127,0,0,1,.493.658c.068.125.181.108.121.142-.089.05-.214-.1-.406-.237-.358-.25-.668-.85-.662-.507a1.29,1.29,0,0,0-.01.178c.354.408.675.516,1.064,1.009L124.7,70.5a7.908,7.908,0,0,0,.777,1.156c.035,0-.523-1.143-.794-1.825-.1-.251-.241-.431-.219-.479.01-.022.037.035.083.121a16.738,16.738,0,0,0,.989,1.886.7.7,0,0,1,.069.349c.016.193.316.546.43.745.547.949,1.56,2.941,1.9,3.612V70.786a28.292,28.292,0,0,0-4.64-5.636,18.044,18.044,0,0,0-6.624-3.877c.33.166,1.115.552,1.4.7C121.209,63.608,121.315,64.012,121.315,64.012Z" transform="translate(-27.148 0)" fill="#fff" fill-rule="evenodd"/>
    </g>
    <path id="路径_8726" data-name="路径 8726" d="M21.308-19.124H16.352c1.68-.756,1.792-4.2-4.116-4.7l-.224.168A10.074,10.074,0,0,1,14.364-19.4a2.438,2.438,0,0,0,.532.28H7.532l-4.088-1.4v8.6C3.444-7.14,3.248-1.82.7,2.3l.252.224c5.656-3.808,6.02-9.8,6.02-14.476v-6.356H25.928c.392,0,.7-.14.784-.448-1.288-1.2-3.472-3.024-3.472-3.024Zm15.036,5.376a17.53,17.53,0,0,0,5.572-5.264h8.568a37.941,37.941,0,0,1-1.232,4.032l.252.168a25.029,25.029,0,0,0,4.4-3.528,1.676,1.676,0,0,0,1.092-.336L52.052-21.5,50.344-19.8h-7.9a20.634,20.634,0,0,0,1.568-2.884c.7-.028.9-.168.98-.5l-4.592-.56c-.644,3.444-2.268,7.476-4.312,9.772Zm-6.16-8.764a7.563,7.563,0,0,1,2.072,4.032c2.744,2.016,5.376-3.36-1.848-4.2Zm6.1,21.924v-6.16H47.544v6.16ZM47.264-7.56H36.512l-2.3-.924a1.657,1.657,0,0,0,.9-1.512c.056-1.736-.812-2.492-.84-3.5a4.574,4.574,0,0,1,.644-1.848c.42-.784,2.772-4.256,3.836-5.852l-.392-.224c-5.18,5.684-5.18,5.684-5.936,6.44a1.036,1.036,0,0,1-1.008.392H29.988v.56a3.289,3.289,0,0,1,1.344.392c.672.336.784,1.876.476,4.2.168.756.644,1.2,1.2,1.2h.14V2.408h.476c1.288,0,2.66-.7,2.66-1.008V.224H47.544V2.1h.56a4.729,4.729,0,0,0,2.688-.868V-6.216a2.176,2.176,0,0,0,1.12-.588l-3.164-2.38Zm-4.4-10.808c-.168,4.088-.784,7.112-7.336,9.632l.224.476c7.476-1.68,9.268-4.144,9.94-7.28A10.725,10.725,0,0,0,52.78-7.756a2.784,2.784,0,0,1,2.492-2.884l.028-.308c-5.712-1.12-8.484-3.248-9.408-5.768l.084-.588a.931.931,0,0,0,.952-.756ZM72.3-10.052a7.626,7.626,0,0,1,1.512,3.584,1.685,1.685,0,0,0,1.092.42l-1.2,1.6H71.232V-10.78h4.816c.392,0,.672-.14.728-.448-.952-.952-2.6-2.3-2.6-2.3l-1.428,1.932H71.232V-16.8H76.72c.392,0,.672-.14.756-.448-1.036-.924-2.772-2.3-2.772-2.3l-1.512,1.988h-10.5l.224.756h5.32v5.208H63.784l.224.812h4.228v6.328h-5.88l.224.784H77.252c.392,0,.672-.14.756-.448-.784-.728-1.9-1.652-2.436-2.1,1.2-.644,1.288-3.108-3-4ZM61.516-.588v-20.44H78.372V-.588ZM79.688-23.6l-1.6,1.764H61.8L58.3-23.3V2.492h.56c1.372,0,2.66-.812,2.66-1.232V.224H78.372V2.352H78.9a4.083,4.083,0,0,0,2.744-1.064V-20.5a2.278,2.278,0,0,0,1.176-.588Zm29.232,3.416c.392,0,.7-.14.784-.448-1.2-1.092-3.22-2.66-3.22-2.66L104.748-21H96.292l.224.812ZM92.988-23.38l-1.652,1.6H89.292L85.96-23.072V2.52h.56a2.836,2.836,0,0,0,2.436-.952V-21h2.6c-.336,2.072-.98,5.124-1.456,6.86A8.974,8.974,0,0,1,91.952-8.6c0,.812-.2,1.26-.532,1.484a.968.968,0,0,1-.588.14H89.32v.364a1.923,1.923,0,0,1,1.176.7,6.714,6.714,0,0,1,.336,2.38c3.024-.056,4.032-1.568,4.032-4.2a7.811,7.811,0,0,0-4.088-6.5,46.72,46.72,0,0,0,3.976-5.936,1.613,1.613,0,0,0,1.26-.364ZM96.1-11.368A32.762,32.762,0,0,1,93.324-.532l.28.252c2.772-2.464,4.62-6.16,5.74-8.988.672,0,.9-.2,1.036-.5Zm8.568.644a23.05,23.05,0,0,1,2.688,9.24c3.164,3.052,6.076-4.172-2.352-9.408Zm1.232-3.612H93.576l.224.812h6.748v12.1c0,.336-.112.5-.56.5-.588,0-3.332-.168-3.332-.168v.364A3.777,3.777,0,0,1,99.064.308a4.24,4.24,0,0,1,.588,2.268c3.7-.308,4.228-1.764,4.228-3.92v-12.18h6.58c.42,0,.7-.14.784-.448-1.288-1.176-3.444-2.884-3.444-2.884Z" transform="translate(11552 -8852.172)" fill="rgba(0,0,0,0.8)"/>
  </g>
</svg>
