<svg xmlns="http://www.w3.org/2000/svg" xmlns:xlink="http://www.w3.org/1999/xlink" width="204" height="102" viewBox="0 0 204 102">
  <defs>
    <clipPath id="clip-m-2">
      <rect width="204" height="102"/>
    </clipPath>
  </defs>
  <g id="m-2" clip-path="url(#clip-m-2)">
    <rect width="204" height="102" fill="#fff"/>
    <g id="组_16061" data-name="组 16061" transform="translate(-9391 12786)">
      <g id="组_16060" data-name="组 16060" transform="translate(-84 -65)">
        <g id="组_13824" data-name="组 13824" transform="translate(9306 -13922)">
          <g id="组_13822" data-name="组 13822" transform="translate(-14 457)">
            <g id="组_13808" data-name="组 13808" transform="translate(0 -1)">
              <rect id="矩形_4458" data-name="矩形 4458" width="168" height="8" rx="4" transform="translate(183 797)" fill="rgba(0,0,0,0.08)"/>
              <rect id="矩形_4459" data-name="矩形 4459" width="84" height="8" rx="4" transform="translate(183 797)" fill="#fe5722"/>
            </g>
          </g>
          <g id="组_13823" data-name="组 13823" transform="translate(1 421)" style="mix-blend-mode: multiply;isolation: isolate">
            <g id="组_13820" data-name="组 13820" transform="translate(-20.839 178.037)">
              <path id="路径_6412" data-name="路径 6412" d="M-5325.464,5985.963l7.677,7.677" transform="translate(5691.464 -5332)" fill="none" stroke="#ff4949" stroke-width="1.8"/>
              <path id="路径_6413" data-name="路径 6413" d="M-5317.786,5985.963l-7.677,7.677" transform="translate(5691.463 -5332)" fill="none" stroke="#ff4949" stroke-width="1.8"/>
            </g>
          </g>
        </g>
        <g id="组_13826" data-name="组 13826" transform="translate(9306 -13969)">
          <g id="组_13822-2" data-name="组 13822" transform="translate(-14 457)">
            <g id="组_13808-2" data-name="组 13808" transform="translate(0 -1)">
              <rect id="矩形_4458-2" data-name="矩形 4458" width="168" height="8" rx="4" transform="translate(183 797)" fill="#13ce66"/>
            </g>
          </g>
          <g id="组_13823-2" data-name="组 13823" transform="translate(1 421)" style="mix-blend-mode: multiply;isolation: isolate">
            <rect id="矩形_4464" data-name="矩形 4464" width="18" height="18" transform="translate(340 827)" fill="none"/>
            <path id="路径_6414" data-name="路径 6414" d="M444.69,665.243l3.564,3.564,8.16-8.16" transform="translate(-101.19 170.853)" fill="none" stroke="#13ce66" stroke-width="2"/>
          </g>
        </g>
      </g>
    </g>
    <g id="组_13814" data-name="组 13814" transform="translate(-183 -705)">
      <rect id="矩形_4458-3" data-name="矩形 4458" width="168" height="8" rx="4" transform="translate(183 796)" fill="rgba(0,0,0,0.04)"/>
      <rect id="矩形_4459-2" data-name="矩形 4459" width="84" height="8" rx="4" transform="translate(183 796)" fill="rgba(0,0,0,0.04)"/>
      <text id="_50_" data-name="50%" transform="translate(359 805)" fill="rgba(0,0,0,0.24)" font-size="14" font-family="MicrosoftYaHeiUI, Microsoft YaHei UI"><tspan x="0" y="0">50%</tspan></text>
    </g>
  </g>
</svg>
