<svg xmlns="http://www.w3.org/2000/svg" xmlns:xlink="http://www.w3.org/1999/xlink" width="367" height="175" viewBox="0 0 367 175">
  <defs>
    <clipPath id="clip-m-3">
      <rect width="367" height="175"/>
    </clipPath>
  </defs>
  <g id="m-3" clip-path="url(#clip-m-3)">
    <rect width="367" height="175" fill="#fff"/>
    <g id="组_16059" data-name="组 16059" transform="translate(-102.5 -30.5)">
      <g id="组_16058" data-name="组 16058" transform="translate(-32)">
        <g id="组_13815" data-name="组 13815" transform="translate(142 -184)">
          <g id="组_9706" data-name="组 9706" transform="translate(188 218)">
            <path id="路径_1652" data-name="路径 1652" d="M84,0A83.894,83.894,0,1,1,35.391,15.447,84,84,0,0,1,84,0Z" transform="translate(0)" fill="#fff"/>
            <path id="路径_1652_-_轮廓" data-name="路径 1652 - 轮廓" d="M84-3.5A87.5,87.5,0,1,1-3.5,84,88.569,88.569,0,0,1,1.6,54.494,87.394,87.394,0,0,1,84-3.5Zm0,168A80.558,80.558,0,1,0,3.5,84,80.591,80.591,0,0,0,84,164.5Z" transform="translate(0)" fill="rgba(0,0,0,0.04)"/>
            <path id="路径_1653" data-name="路径 1653" d="M84,171.5A87.6,87.6,0,0,1-3.5,84,88.569,88.569,0,0,1,1.6,54.494a3.5,3.5,0,1,1,6.6,2.327A80.514,80.514,0,1,0,84,3.5,3.5,3.5,0,0,1,80.5,0,3.5,3.5,0,0,1,84-3.5a87.5,87.5,0,0,1,0,175Z" transform="translate(0)" fill="#377CFD"/>
          </g>
          <text id="_80_" data-name="80%" transform="translate(239 315)" fill="rgba(0,0,0,0.8)" font-size="32" font-family="MicrosoftYaHeiUI, Microsoft YaHei UI"><tspan x="0" y="0">80%</tspan></text>
        </g>
      </g>
      <g id="组_13816" data-name="组 13816" transform="translate(-81.5 -160)">
        <g id="组_9706-2" data-name="组 9706" transform="translate(188 218)">
          <path id="路径_1652-2" data-name="路径 1652" d="M60,0A59.924,59.924,0,1,1,25.279,11.034,60,60,0,0,1,60,0Z" transform="translate(0)" fill="#fff"/>
          <path id="路径_1652_-_轮廓-2" data-name="路径 1652 - 轮廓" d="M60-4A64,64,0,1,1-4,60,64.76,64.76,0,0,1-.271,38.426,63.924,63.924,0,0,1,60-4Zm0,120A56.041,56.041,0,1,0,4,60,56.063,56.063,0,0,0,60,116Z" transform="translate(0)" fill="rgba(0,0,0,0.04)"/>
          <path id="路径_1653-2" data-name="路径 1653" d="M60,124A64.072,64.072,0,0,1-4,60,64.76,64.76,0,0,1-.271,38.426a4,4,0,1,1,7.545,2.659A56.01,56.01,0,1,0,60,4a4,4,0,0,1-4-4,4,4,0,0,1,4-4,64,64,0,0,1,0,128Z" transform="translate(0)" fill="#377CFD"/>
        </g>
        <text id="_80_2" data-name="80%" transform="translate(219 289)" fill="rgba(0,0,0,0.8)" font-size="28" font-family="MicrosoftYaHeiUI, Microsoft YaHei UI"><tspan x="0" y="0">80%</tspan></text>
      </g>
    </g>
  </g>
</svg>
