<svg xmlns="http://www.w3.org/2000/svg" xmlns:xlink="http://www.w3.org/1999/xlink" width="328" height="97" viewBox="0 0 328 97">
  <defs>
    <clipPath id="clip-n-4">
      <rect width="328" height="97"/>
    </clipPath>
  </defs>
  <g id="n-4" clip-path="url(#clip-n-4)">
    <rect width="328" height="97" fill="#fff"/>
    <g id="组_16068" data-name="组 16068" transform="translate(-77 -303)">
      <g id="组_13254" data-name="组 13254" transform="translate(77 303)">
        <rect id="矩形_4230" data-name="矩形 4230" width="328" height="80" rx="4" fill="#fff"/>
        <path id="矩形_4230_-_轮廓" data-name="矩形 4230 - 轮廓" d="M4,1A3,3,0,0,0,1,4V76a3,3,0,0,0,3,3H324a3,3,0,0,0,3-3V4a3,3,0,0,0-3-3H4M4,0H324a4,4,0,0,1,4,4V76a4,4,0,0,1-4,4H4a4,4,0,0,1-4-4V4A4,4,0,0,1,4,0Z" fill="#ff5722"/>
        <text id="已输入" transform="translate(12 24)" fill="rgba(0,0,0,0.8)" font-size="14" font-family="MicrosoftYaHeiUI, Microsoft YaHei UI"><tspan x="0" y="0">已输入</tspan></text>
        <text id="_0_100" data-name="0/100" transform="translate(285 66)" fill="rgba(0,0,0,0.48)" font-size="12" font-family="MicrosoftYaHeiUI, Microsoft YaHei UI"><tspan x="0" y="0">0/100</tspan></text>
      </g>
      <text id="错误描述" transform="translate(77 399)" fill="#ff5722" font-size="12" font-family="MicrosoftYaHeiUI, Microsoft YaHei UI"><tspan x="0" y="0">错误描述</tspan></text>
    </g>
  </g>
</svg>
