<svg xmlns="http://www.w3.org/2000/svg" xmlns:xlink="http://www.w3.org/1999/xlink" width="496" height="418" viewBox="0 0 496 418">
  <defs>
    <clipPath id="clip-p-1">
      <rect width="496" height="418"/>
    </clipPath>
  </defs>
  <g id="p-1" clip-path="url(#clip-p-1)">
    <rect width="496" height="418" fill="#fff"/>
    <g id="组_13573" data-name="组 13573" transform="translate(-238 -330)">
      <g id="组_13572" data-name="组 13572" transform="translate(93 -6)">
        <g id="组_8677" data-name="组 8677" transform="translate(-567 82)">
          <g id="组件_299_78" data-name="组件 299 – 78" transform="translate(948 456)">
            <rect id="矩形_2342" data-name="矩形 2342" width="24" height="24" rx="2" fill="#377CFD"/>
            <g id="组件_424_3" data-name="组件 424 – 3" transform="translate(4 4)">
              <rect id="矩形_4289" data-name="矩形 4289" width="16" height="16" fill="none"/>
              <path id="路径_6390" data-name="路径 6390" d="M95.754,96.45l3.963-3.964-3.963-3.964" transform="translate(-89.254 -84.423)" fill="none" stroke="#fff" stroke-miterlimit="10" stroke-width="1.5"/>
            </g>
          </g>
          <g id="组件_299_79" data-name="组件 299 – 79" transform="translate(948 492)">
            <g id="矩形_2342-2" data-name="矩形 2342" fill="rgba(233,234,237,0.5)" stroke="#e4e5eb" stroke-width="1">
              <rect width="24" height="24" rx="2" stroke="none"/>
              <rect x="0.5" y="0.5" width="23" height="23" rx="1.5" fill="none"/>
            </g>
            <g id="组件_424_4" data-name="组件 424 – 4" transform="translate(20 20) rotate(180)">
              <rect id="矩形_4289-2" data-name="矩形 4289" width="16" height="16" fill="none"/>
              <path id="路径_6390-2" data-name="路径 6390" d="M95.754,96.45l3.963-3.964-3.963-3.964" transform="translate(-89.254 -84.423)" fill="none" stroke="#c1c4cb" stroke-miterlimit="10" stroke-width="1.5"/>
            </g>
          </g>
        </g>
        <g id="矩形_2340" data-name="矩形 2340" transform="translate(145 381)" fill="#fff" stroke="#e4e5eb" stroke-width="1">
          <rect width="220" height="373" stroke="none"/>
          <rect x="0.5" y="0.5" width="219" height="372" fill="none"/>
        </g>
        <g id="组_13570" data-name="组 13570" transform="translate(-335 127)">
          <g id="矩形_1473" data-name="矩形 1473" transform="translate(492 266)" fill="#fff" stroke="#e4e5eb" stroke-width="1">
            <rect width="196" height="32" rx="4" stroke="none"/>
            <rect x="0.5" y="0.5" width="195" height="31" rx="3.5" fill="none"/>
          </g>
          <path id="计划页_-_aaa333_-_哈哈哈哈" data-name="计划页 - aaa333 - 哈哈哈哈" d="M10.7,9.06l2.957,2.956a1.164,1.164,0,0,1-1.646,1.646L9.06,10.7A5.838,5.838,0,1,1,10.7,9.06Zm-4.849-6.7A3.492,3.492,0,1,0,9.348,5.855,3.492,3.492,0,0,0,5.855,2.363Z" transform="translate(662.349 275.667)" fill="#9699ac" fill-rule="evenodd"/>
        </g>
        <text id="搜索" transform="translate(169 414)" fill="#c1c4cb" font-size="14" font-family="MicrosoftYaHeiUI, Microsoft YaHei UI"><tspan x="0" y="0">搜索</tspan></text>
        <g id="组件_294_302" data-name="组件 294 – 302" transform="translate(157 445)">
          <g id="组_9673" data-name="组 9673">
            <text id="广州市" transform="translate(24 15)" fill="#333b44" font-size="14" font-family="MicrosoftYaHei, Microsoft YaHei"><tspan x="0" y="0">广州市</tspan></text>
            <g id="组件_386_45" data-name="组件 386 – 45" transform="translate(0 2)">
              <g id="矩形_2773" data-name="矩形 2773" fill="#f5f7fa" stroke="#dcdfe6" stroke-width="1">
                <rect width="16" height="16" rx="2" stroke="none"/>
                <rect x="0.5" y="0.5" width="15" height="15" rx="1.5" fill="none"/>
              </g>
              <path id="路径_1755" data-name="路径 1755" d="M14536.05,6541.787l2.615,2.205,5.026-4.975" transform="translate(-14532 -6534)" fill="none" stroke="#dcdfe6" stroke-width="2"/>
            </g>
          </g>
        </g>
        <g id="组_13575" data-name="组 13575">
          <g id="组件_294_301" data-name="组件 294 – 301" transform="translate(157 523)">
            <g id="组_9673-2" data-name="组 9673">
              <g id="组_9674" data-name="组 9674">
                <text id="阳江市" transform="translate(26 15)" fill="#333b44" font-size="14" font-family="MicrosoftYaHei, Microsoft YaHei"><tspan x="0" y="0">阳江市</tspan></text>
                <g id="组件_96_16" data-name="组件 96 – 16" transform="translate(0 2)">
                  <g id="矩形_644" data-name="矩形 644" fill="#fff" stroke="#c1c4cb" stroke-width="1">
                    <rect width="16" height="16" rx="3" stroke="none"/>
                    <rect x="0.5" y="0.5" width="15" height="15" rx="2.5" fill="none"/>
                  </g>
                </g>
              </g>
            </g>
          </g>
          <g id="组件_294_303" data-name="组件 294 – 303" transform="translate(157 484)">
            <g id="组_9673-3" data-name="组 9673">
              <text id="珠海市" transform="translate(26 15)" fill="#333b44" font-size="14" font-family="MicrosoftYaHei, Microsoft YaHei"><tspan x="0" y="0">珠海市</tspan></text>
              <g id="组件_96_16-2" data-name="组件 96 – 16" transform="translate(0 2)">
                <g id="矩形_644-2" data-name="矩形 644" fill="#fff" stroke="#c1c4cb" stroke-width="1">
                  <rect width="16" height="16" rx="3" stroke="none"/>
                  <rect x="0.5" y="0.5" width="15" height="15" rx="2.5" fill="none"/>
                </g>
              </g>
            </g>
          </g>
          <g id="组件_429" data-name="组件 429" transform="translate(157 562)">
            <g id="组_9673-4" data-name="组 9673">
              <text id="佛山市" transform="translate(26 15)" fill="#333b44" font-size="14" font-family="MicrosoftYaHei, Microsoft YaHei"><tspan x="0" y="0">佛山市</tspan></text>
              <g id="组件_96_16-3" data-name="组件 96 – 16" transform="translate(0 2)">
                <g id="矩形_644-3" data-name="矩形 644" fill="#fff" stroke="#c1c4cb" stroke-width="1">
                  <rect width="16" height="16" rx="3" stroke="none"/>
                  <rect x="0.5" y="0.5" width="15" height="15" rx="2.5" fill="none"/>
                </g>
              </g>
            </g>
          </g>
        </g>
        <g id="组件_430" data-name="组件 430" transform="translate(157 601)">
          <g id="组_9673-5" data-name="组 9673">
            <text id="清远市" transform="translate(26 15)" fill="#333b44" font-size="14" font-family="MicrosoftYaHei, Microsoft YaHei"><tspan x="0" y="0">清远市</tspan></text>
            <g id="组件_96_16-4" data-name="组件 96 – 16" transform="translate(0 2)">
              <g id="矩形_644-4" data-name="矩形 644" fill="#fff" stroke="#c1c4cb" stroke-width="1">
                <rect width="16" height="16" rx="3" stroke="none"/>
                <rect x="0.5" y="0.5" width="15" height="15" rx="2.5" fill="none"/>
              </g>
            </g>
          </g>
        </g>
        <g id="组件_431" data-name="组件 431" transform="translate(157 640)">
          <g id="组_9673-6" data-name="组 9673">
            <text id="茂名市" transform="translate(26 15)" fill="#333b44" font-size="14" font-family="MicrosoftYaHei, Microsoft YaHei"><tspan x="0" y="0">茂名市</tspan></text>
            <g id="组件_96_16-5" data-name="组件 96 – 16" transform="translate(0 2)">
              <g id="矩形_644-5" data-name="矩形 644" fill="#fff" stroke="#c1c4cb" stroke-width="1">
                <rect width="16" height="16" rx="3" stroke="none"/>
                <rect x="0.5" y="0.5" width="15" height="15" rx="2.5" fill="none"/>
              </g>
            </g>
          </g>
        </g>
        <g id="组件_432" data-name="组件 432" transform="translate(157 679)">
          <g id="组_9673-7" data-name="组 9673">
            <text id="汕尾市" transform="translate(26 15)" fill="#333b44" font-size="14" font-family="MicrosoftYaHei, Microsoft YaHei"><tspan x="0" y="0">汕尾市</tspan></text>
            <g id="组件_96_16-6" data-name="组件 96 – 16" transform="translate(0 2)">
              <g id="矩形_644-6" data-name="矩形 644" fill="#fff" stroke="#c1c4cb" stroke-width="1">
                <rect width="16" height="16" rx="3" stroke="none"/>
                <rect x="0.5" y="0.5" width="15" height="15" rx="2.5" fill="none"/>
              </g>
            </g>
          </g>
        </g>
        <g id="组件_433" data-name="组件 433" transform="translate(157 718)">
          <g id="组_9673-8" data-name="组 9673">
            <text id="茂名市-2" data-name="茂名市" transform="translate(26 15)" fill="#333b44" font-size="14" font-family="MicrosoftYaHei, Microsoft YaHei"><tspan x="0" y="0">茂名市</tspan></text>
            <g id="组件_96_16-7" data-name="组件 96 – 16" transform="translate(0 2)">
              <g id="矩形_644-7" data-name="矩形 644" fill="#fff" stroke="#c1c4cb" stroke-width="1">
                <rect width="16" height="16" rx="3" stroke="none"/>
                <rect x="0.5" y="0.5" width="15" height="15" rx="2.5" fill="none"/>
              </g>
            </g>
          </g>
        </g>
        <g id="矩形_2340-2" data-name="矩形 2340" transform="translate(421 381)" fill="#fff" stroke="#e4e5eb" stroke-width="1">
          <rect width="220" height="373" stroke="none"/>
          <rect x="0.5" y="0.5" width="219" height="372" fill="none"/>
        </g>
        <g id="路径_1190" data-name="路径 1190" transform="translate(433 483)" fill="none" opacity="0.1">
          <path d="M1.461,0H185.539C186.346,0,187,2.047,187,4.571V27.429c0,2.525-.654,4.571-1.461,4.571H1.461C.654,32,0,29.953,0,27.429V4.571C0,2.047.654,0,1.461,0Z" stroke="none"/>
          <path d="M 1.658859252929688 1 C 1.402847290039062 1.371576309204102 1 2.654525756835938 1 4.571428298950195 L 1 27.4285717010498 C 1 29.34547424316406 1.402847290039062 30.6284236907959 1.658859252929688 31 L 185.3411407470703 31 C 185.5971527099609 30.6284236907959 186 29.34547424316406 186 27.4285717010498 L 186 4.571428298950195 C 186 2.654525756835938 185.5971527099609 1.371576309204102 185.3411407470703 1 L 1.658859252929688 1 M 1.460922241210938 0 L 185.5390472412109 0 C 186.3459320068359 0 187 2.046689987182617 187 4.571428298950195 L 187 27.4285717010498 C 187 29.95331001281738 186.3459320068359 32 185.5390472412109 32 L 1.460922241210938 32 C 0.6540679931640625 32 0 29.95331001281738 0 27.4285717010498 L 0 4.571428298950195 C 0 2.046689987182617 0.6540679931640625 0 1.460922241210938 0 Z" stroke="none" fill="#e4e5eb"/>
        </g>
        <rect id="矩形_1998" data-name="矩形 1998" width="83" height="32" transform="translate(145 336)" fill="none"/>
        <text id="城市列表" transform="translate(145 364)" fill="rgba(0,0,0,0.8)" font-size="18" font-family="MicrosoftYaHeiUI-Bold, Microsoft YaHei UI" font-weight="700"><tspan x="0" y="0">城市列表</tspan></text>
        <text id="已选择" transform="translate(421 364)" fill="rgba(0,0,0,0.8)" font-size="18" font-family="MicrosoftYaHeiUI-Bold, Microsoft YaHei UI" font-weight="700"><tspan x="0" y="0">已选择</tspan></text>
        <text id="_共212个_" data-name="(共212个)" transform="translate(229 363)" fill="rgba(0,0,0,0.48)" font-size="14" font-family="MicrosoftYaHeiUI, Microsoft YaHei UI"><tspan x="0" y="0">(共212个)</tspan></text>
        <text id="_共1个_" data-name="(共1个)" transform="translate(487 363)" fill="rgba(0,0,0,0.48)" font-size="14" font-family="MicrosoftYaHeiUI, Microsoft YaHei UI"><tspan x="0" y="0">(共1个)</tspan></text>
        <g id="组件_294_301-2" data-name="组件 294 – 301" transform="translate(433 399)">
          <g id="组_9673-9" data-name="组 9673">
            <g id="组_9674-2" data-name="组 9674">
              <text id="越秀区" transform="translate(24 15)" fill="#333b44" font-size="14" font-family="MicrosoftYaHei, Microsoft YaHei"><tspan x="0" y="0">越秀区</tspan></text>
              <g id="组件_386_46" data-name="组件 386 – 46" transform="translate(0 2)">
                <rect id="矩形_2773-2" data-name="矩形 2773" width="16" height="16" rx="2" fill="#377CFD"/>
                <path id="路径_1755-2" data-name="路径 1755" d="M14536.05,6541.787l2.615,2.205,5.026-4.975" transform="translate(-14532 -6534)" fill="none" stroke="#fff" stroke-width="2"/>
              </g>
            </g>
          </g>
        </g>
      </g>
    </g>
  </g>
</svg>
