<svg xmlns="http://www.w3.org/2000/svg" xmlns:xlink="http://www.w3.org/1999/xlink" width="156" height="126" viewBox="0 0 156 126">
  <defs>
    <clipPath id="clip-path">
      <path id="Star" d="M-3100.938-2266.594l-3.7,1.946a.793.793,0,0,1-1.07-.333.792.792,0,0,1-.08-.5l.707-4.122-3-2.92a.792.792,0,0,1-.014-1.12.79.79,0,0,1,.453-.231l4.14-.6,1.851-3.751a.793.793,0,0,1,1.061-.36.8.8,0,0,1,.36.36l1.851,3.751,4.14.6a.793.793,0,0,1,.67.9.79.79,0,0,1-.231.453l-3,2.92.707,4.122a.792.792,0,0,1-.647.915.793.793,0,0,1-.5-.08Z" transform="translate(3390.318 3373.672)" fill="#ebebeb" clip-rule="evenodd"/>
    </clipPath>
    <clipPath id="clip-path-2">
      <path id="Star-2" data-name="Star" d="M-3099.938-2264.882l-4.2,2.222a.9.9,0,0,1-1.215-.38.91.91,0,0,1-.09-.574l.8-4.706-3.4-3.334a.908.908,0,0,1-.016-1.279.894.894,0,0,1,.514-.264l4.7-.687,2.1-4.283a.9.9,0,0,1,1.205-.411.908.908,0,0,1,.409.411l2.1,4.283,4.7.687a.9.9,0,0,1,.761,1.025.9.9,0,0,1-.262.517l-3.4,3.334.8,4.706a.9.9,0,0,1-.735,1.045.9.9,0,0,1-.571-.091Z" transform="translate(3108.318 2278.672)" fill="#ebebeb" clip-rule="evenodd"/>
    </clipPath>
    <clipPath id="clip-path-3">
      <path id="Star-3" data-name="Star" d="M-3098.938-2263.171l-4.706,2.5a1,1,0,0,1-1.36-.427,1.028,1.028,0,0,1-.1-.646l.9-5.29-3.808-3.748a1.023,1.023,0,0,1-.017-1.437,1,1,0,0,1,.576-.3l5.262-.772,2.353-4.814a1,1,0,0,1,1.349-.462,1.016,1.016,0,0,1,.458.462l2.353,4.814,5.262.772a1.016,1.016,0,0,1,.852,1.152,1.017,1.017,0,0,1-.294.582l-3.807,3.748.9,5.29a1.017,1.017,0,0,1-.823,1.175,1,1,0,0,1-.639-.1Z" transform="translate(3108.318 2278.672)" fill="#ff4949" clip-rule="evenodd"/>
    </clipPath>
    <clipPath id="clip-r-1">
      <rect width="156" height="126"/>
    </clipPath>
  </defs>
  <g id="r-1" clip-path="url(#clip-r-1)">
    <rect width="156" height="126" fill="#fff"/>
    <g id="组_16074" data-name="组 16074" transform="translate(-19 -54)">
      <g id="组_13585" data-name="组 13585" transform="translate(-202 -1040)">
        <g id="组件_434_19" data-name="组件 434 – 19" transform="translate(241 1094)">
          <rect id="矩形_4332" data-name="矩形 4332" width="16" height="16" fill="none"/>
          <path id="Star-4" data-name="Star" d="M-3100.938-2266.594l-3.7,1.946a.793.793,0,0,1-1.07-.333.792.792,0,0,1-.08-.5l.707-4.122-3-2.92a.792.792,0,0,1-.014-1.12.79.79,0,0,1,.453-.231l4.14-.6,1.851-3.751a.793.793,0,0,1,1.061-.36.8.8,0,0,1,.36.36l1.851,3.751,4.14.6a.793.793,0,0,1,.67.9.79.79,0,0,1-.231.453l-3,2.92.707,4.122a.792.792,0,0,1-.647.915.793.793,0,0,1-.5-.08Z" transform="translate(3109.318 2279.672)" fill="#f3940d" fill-rule="evenodd"/>
        </g>
        <g id="组件_434_20" data-name="组件 434 – 20" transform="translate(261 1094)">
          <rect id="矩形_4332-2" data-name="矩形 4332" width="16" height="16" fill="none"/>
          <path id="Star-5" data-name="Star" d="M-3100.938-2266.594l-3.7,1.946a.793.793,0,0,1-1.07-.333.792.792,0,0,1-.08-.5l.707-4.122-3-2.92a.792.792,0,0,1-.014-1.12.79.79,0,0,1,.453-.231l4.14-.6,1.851-3.751a.793.793,0,0,1,1.061-.36.8.8,0,0,1,.36.36l1.851,3.751,4.14.6a.793.793,0,0,1,.67.9.79.79,0,0,1-.231.453l-3,2.92.707,4.122a.792.792,0,0,1-.647.915.793.793,0,0,1-.5-.08Z" transform="translate(3109.318 2279.672)" fill="#f3940d" fill-rule="evenodd"/>
        </g>
        <g id="组件_434_21" data-name="组件 434 – 21" transform="translate(281 1094)">
          <rect id="矩形_4332-3" data-name="矩形 4332" width="16" height="16" fill="none"/>
          <path id="Star-6" data-name="Star" d="M-3100.938-2266.594l-3.7,1.946a.793.793,0,0,1-1.07-.333.792.792,0,0,1-.08-.5l.707-4.122-3-2.92a.792.792,0,0,1-.014-1.12.79.79,0,0,1,.453-.231l4.14-.6,1.851-3.751a.793.793,0,0,1,1.061-.36.8.8,0,0,1,.36.36l1.851,3.751,4.14.6a.793.793,0,0,1,.67.9.79.79,0,0,1-.231.453l-3,2.92.707,4.122a.792.792,0,0,1-.647.915.793.793,0,0,1-.5-.08Z" transform="translate(3109.318 2279.672)" fill="#f3940d" fill-rule="evenodd"/>
          <g id="蒙版组_5" data-name="蒙版组 5" transform="translate(-281 -1094)" clip-path="url(#clip-path)">
            <rect id="矩形_4333" data-name="矩形 4333" width="8" height="16" transform="translate(289.3 1094)" fill="#ebebeb"/>
          </g>
        </g>
        <g id="组件_434_22" data-name="组件 434 – 22" transform="translate(301 1094)">
          <rect id="矩形_4332-4" data-name="矩形 4332" width="16" height="16" fill="none"/>
          <path id="Star-7" data-name="Star" d="M-3100.938-2266.594l-3.7,1.946a.793.793,0,0,1-1.07-.333.792.792,0,0,1-.08-.5l.707-4.122-3-2.92a.792.792,0,0,1-.014-1.12.79.79,0,0,1,.453-.231l4.14-.6,1.851-3.751a.793.793,0,0,1,1.061-.36.8.8,0,0,1,.36.36l1.851,3.751,4.14.6a.793.793,0,0,1,.67.9.79.79,0,0,1-.231.453l-3,2.92.707,4.122a.792.792,0,0,1-.647.915.793.793,0,0,1-.5-.08Z" transform="translate(3109.318 2279.672)" fill="rgba(0,0,0,0.08)" fill-rule="evenodd"/>
        </g>
        <g id="组件_434_23" data-name="组件 434 – 23" transform="translate(221 1094)">
          <rect id="矩形_4332-5" data-name="矩形 4332" width="16" height="16" fill="none"/>
          <path id="Star-8" data-name="Star" d="M-3100.938-2266.594l-3.7,1.946a.793.793,0,0,1-1.07-.333.792.792,0,0,1-.08-.5l.707-4.122-3-2.92a.792.792,0,0,1-.014-1.12.79.79,0,0,1,.453-.231l4.14-.6,1.851-3.751a.793.793,0,0,1,1.061-.36.8.8,0,0,1,.36.36l1.851,3.751,4.14.6a.793.793,0,0,1,.67.9.79.79,0,0,1-.231.453l-3,2.92.707,4.122a.792.792,0,0,1-.647.915.793.793,0,0,1-.5-.08Z" transform="translate(3109.318 2279.672)" fill="#f3940d" fill-rule="evenodd"/>
        </g>
        <text id="_3.5" data-name="3.5" transform="translate(329 1107)" fill="rgba(0,0,0,0.8)" font-size="14" font-family="MicrosoftYaHeiUI, Microsoft YaHei UI"><tspan x="0" y="0">3.5</tspan></text>
      </g>
      <g id="组_13588" data-name="组 13588" transform="translate(-605 -248)">
        <g id="组件_434_24" data-name="组件 434 – 24" transform="translate(646 354)">
          <rect id="矩形_4332-6" data-name="矩形 4332" width="18" height="18" fill="none"/>
          <path id="Star-9" data-name="Star" d="M-3099.938-2264.882l-4.2,2.222a.9.9,0,0,1-1.215-.38.91.91,0,0,1-.09-.574l.8-4.706-3.4-3.334a.908.908,0,0,1-.016-1.279.894.894,0,0,1,.514-.264l4.7-.687,2.1-4.283a.9.9,0,0,1,1.205-.411.908.908,0,0,1,.409.411l2.1,4.283,4.7.687a.9.9,0,0,1,.761,1.025.9.9,0,0,1-.262.517l-3.4,3.334.8,4.706a.9.9,0,0,1-.735,1.045.9.9,0,0,1-.571-.091Z" transform="translate(3109.318 2279.672)" fill="#f3940d" fill-rule="evenodd"/>
        </g>
        <g id="组件_434_25" data-name="组件 434 – 25" transform="translate(668 354)">
          <rect id="矩形_4332-7" data-name="矩形 4332" width="18" height="18" fill="none"/>
          <path id="Star-10" data-name="Star" d="M-3099.938-2264.882l-4.2,2.222a.9.9,0,0,1-1.215-.38.91.91,0,0,1-.09-.574l.8-4.706-3.4-3.334a.908.908,0,0,1-.016-1.279.894.894,0,0,1,.514-.264l4.7-.687,2.1-4.283a.9.9,0,0,1,1.205-.411.908.908,0,0,1,.409.411l2.1,4.283,4.7.687a.9.9,0,0,1,.761,1.025.9.9,0,0,1-.262.517l-3.4,3.334.8,4.706a.9.9,0,0,1-.735,1.045.9.9,0,0,1-.571-.091Z" transform="translate(3109.318 2279.672)" fill="#f3940d" fill-rule="evenodd"/>
        </g>
        <g id="组件_434_26" data-name="组件 434 – 26" transform="translate(690 354)">
          <rect id="矩形_4332-8" data-name="矩形 4332" width="18" height="18" fill="none"/>
          <path id="Star-11" data-name="Star" d="M-3099.938-2264.882l-4.2,2.222a.9.9,0,0,1-1.215-.38.91.91,0,0,1-.09-.574l.8-4.706-3.4-3.334a.908.908,0,0,1-.016-1.279.894.894,0,0,1,.514-.264l4.7-.687,2.1-4.283a.9.9,0,0,1,1.205-.411.908.908,0,0,1,.409.411l2.1,4.283,4.7.687a.9.9,0,0,1,.761,1.025.9.9,0,0,1-.262.517l-3.4,3.334.8,4.706a.9.9,0,0,1-.735,1.045.9.9,0,0,1-.571-.091Z" transform="translate(3109.318 2279.672)" fill="#f3940d" fill-rule="evenodd"/>
          <g id="蒙版组_5-2" data-name="蒙版组 5" transform="translate(1 1)" clip-path="url(#clip-path-2)">
            <rect id="矩形_4333-2" data-name="矩形 4333" width="9.084" height="18.267" transform="translate(8.289 -1.142)" fill="#ebebeb"/>
          </g>
        </g>
        <g id="组件_434_27" data-name="组件 434 – 27" transform="translate(712 354)">
          <rect id="矩形_4332-9" data-name="矩形 4332" width="18" height="18" fill="none"/>
          <path id="Star-12" data-name="Star" d="M-3099.938-2264.882l-4.2,2.222a.9.9,0,0,1-1.215-.38.91.91,0,0,1-.09-.574l.8-4.706-3.4-3.334a.908.908,0,0,1-.016-1.279.894.894,0,0,1,.514-.264l4.7-.687,2.1-4.283a.9.9,0,0,1,1.205-.411.908.908,0,0,1,.409.411l2.1,4.283,4.7.687a.9.9,0,0,1,.761,1.025.9.9,0,0,1-.262.517l-3.4,3.334.8,4.706a.9.9,0,0,1-.735,1.045.9.9,0,0,1-.571-.091Z" transform="translate(3109.318 2279.672)" fill="#ebebeb" fill-rule="evenodd"/>
        </g>
        <text id="_3.5-2" data-name="3.5" transform="translate(742 369)" fill="rgba(0,0,0,0.8)" font-size="16" font-family="MicrosoftYaHeiUI, Microsoft YaHei UI"><tspan x="0" y="0">3.5</tspan></text>
        <g id="组_13587" data-name="组 13587" transform="translate(-24.429)">
          <g id="组件_434_28" data-name="组件 434 – 28" transform="translate(648.429 354)">
            <rect id="矩形_4332-10" data-name="矩形 4332" width="18" height="18" fill="none"/>
            <path id="Star-13" data-name="Star" d="M-3099.817-2264.76l-4.264,2.241a.913.913,0,0,1-1.233-.384.911.911,0,0,1-.092-.579l.814-4.748-3.451-3.364a.913.913,0,0,1-.016-1.291.91.91,0,0,1,.522-.266l4.769-.693,2.132-4.321a.913.913,0,0,1,1.222-.415.916.916,0,0,1,.415.415l2.132,4.321,4.769.693a.913.913,0,0,1,.772,1.034.909.909,0,0,1-.266.522l-3.45,3.364.814,4.748a.913.913,0,0,1-.746,1.054.913.913,0,0,1-.579-.092Z" transform="translate(3109.47 2279.824)" fill="#f3940d" fill-rule="evenodd"/>
          </g>
        </g>
      </g>
      <text id="_3.5-3" data-name="3.5" transform="translate(147 178)" fill="rgba(0,0,0,0.8)" font-size="20" font-family="MicrosoftYaHeiUI, Microsoft YaHei UI"><tspan x="0" y="0">3.5</tspan></text>
      <g id="组_13590" data-name="组 13590" transform="translate(-1040 -191)">
        <g id="组件_434_29" data-name="组件 434 – 29" transform="translate(1083 351)">
          <rect id="矩形_4332-11" data-name="矩形 4332" width="20" height="20" fill="none"/>
          <path id="Star-14" data-name="Star" d="M-3098.938-2263.171l-4.706,2.5a1,1,0,0,1-1.36-.427,1.028,1.028,0,0,1-.1-.646l.9-5.29-3.808-3.748a1.023,1.023,0,0,1-.017-1.437,1,1,0,0,1,.576-.3l5.262-.772,2.353-4.814a1,1,0,0,1,1.349-.462,1.016,1.016,0,0,1,.458.462l2.353,4.814,5.262.772a1.016,1.016,0,0,1,.852,1.152,1.017,1.017,0,0,1-.294.582l-3.807,3.748.9,5.29a1.017,1.017,0,0,1-.823,1.175,1,1,0,0,1-.639-.1Z" transform="translate(3109.318 2279.672)" fill="#f3940d" fill-rule="evenodd"/>
        </g>
        <g id="组件_434_30" data-name="组件 434 – 30" transform="translate(1107 351)">
          <rect id="矩形_4332-12" data-name="矩形 4332" width="20" height="20" fill="none"/>
          <path id="Star-15" data-name="Star" d="M-3098.938-2263.171l-4.706,2.5a1,1,0,0,1-1.36-.427,1.028,1.028,0,0,1-.1-.646l.9-5.29-3.808-3.748a1.023,1.023,0,0,1-.017-1.437,1,1,0,0,1,.576-.3l5.262-.772,2.353-4.814a1,1,0,0,1,1.349-.462,1.016,1.016,0,0,1,.458.462l2.353,4.814,5.262.772a1.016,1.016,0,0,1,.852,1.152,1.017,1.017,0,0,1-.294.582l-3.807,3.748.9,5.29a1.017,1.017,0,0,1-.823,1.175,1,1,0,0,1-.639-.1Z" transform="translate(3109.318 2279.672)" fill="#f3940d" fill-rule="evenodd"/>
        </g>
        <g id="组件_434_31" data-name="组件 434 – 31" transform="translate(1131 351)">
          <rect id="矩形_4332-13" data-name="矩形 4332" width="20" height="20" fill="none"/>
          <path id="Star-16" data-name="Star" d="M-3098.938-2263.171l-4.706,2.5a1,1,0,0,1-1.36-.427,1.028,1.028,0,0,1-.1-.646l.9-5.29-3.808-3.748a1.023,1.023,0,0,1-.017-1.437,1,1,0,0,1,.576-.3l5.262-.772,2.353-4.814a1,1,0,0,1,1.349-.462,1.016,1.016,0,0,1,.458.462l2.353,4.814,5.262.772a1.016,1.016,0,0,1,.852,1.152,1.017,1.017,0,0,1-.294.582l-3.807,3.748.9,5.29a1.017,1.017,0,0,1-.823,1.175,1,1,0,0,1-.639-.1Z" transform="translate(3109.318 2279.672)" fill="#f3940d" fill-rule="evenodd"/>
          <g id="蒙版组_5-3" data-name="蒙版组 5" transform="translate(1 1)" clip-path="url(#clip-path-3)">
            <rect id="矩形_4333-3" data-name="矩形 4333" width="10.168" height="20.534" transform="translate(9.278 -1.283)" fill="#ebebeb"/>
          </g>
        </g>
        <g id="组件_434_32" data-name="组件 434 – 32" transform="translate(1155 351)">
          <rect id="矩形_4332-14" data-name="矩形 4332" width="20" height="20" fill="none"/>
          <path id="Star-17" data-name="Star" d="M-3098.938-2263.171l-4.706,2.5a1,1,0,0,1-1.36-.427,1.028,1.028,0,0,1-.1-.646l.9-5.29-3.808-3.748a1.023,1.023,0,0,1-.017-1.437,1,1,0,0,1,.576-.3l5.262-.772,2.353-4.814a1,1,0,0,1,1.349-.462,1.016,1.016,0,0,1,.458.462l2.353,4.814,5.262.772a1.016,1.016,0,0,1,.852,1.152,1.017,1.017,0,0,1-.294.582l-3.807,3.748.9,5.29a1.017,1.017,0,0,1-.823,1.175,1,1,0,0,1-.639-.1Z" transform="translate(3109.318 2279.672)" fill="#ebebeb" fill-rule="evenodd"/>
        </g>
        <g id="组_13587-2" data-name="组 13587" transform="translate(411.001 -2.57)">
          <g id="组件_434_33" data-name="组件 434 – 33" transform="translate(647.999 353.57)">
            <rect id="矩形_4332-15" data-name="矩形 4332" width="20" height="20" fill="none"/>
            <path id="Star-18" data-name="Star" d="M-3099.076-2263.546l-4.636,2.437a.992.992,0,0,1-1.34-.417.99.99,0,0,1-.1-.629l.885-5.163-3.752-3.657a.992.992,0,0,1-.017-1.4.988.988,0,0,1,.567-.289l5.184-.753,2.318-4.7a.993.993,0,0,1,1.329-.451,1,1,0,0,1,.451.451l2.318,4.7,5.184.753a.993.993,0,0,1,.839,1.125.991.991,0,0,1-.289.568l-3.751,3.657.885,5.163a.992.992,0,0,1-.811,1.146.992.992,0,0,1-.629-.1Z" transform="translate(3109.57 2279.924)" fill="#f3940d" fill-rule="evenodd"/>
          </g>
        </g>
      </g>
    </g>
  </g>
</svg>
