<svg xmlns="http://www.w3.org/2000/svg" xmlns:xlink="http://www.w3.org/1999/xlink" width="320" height="180" viewBox="0 0 320 180">
  <defs>
    <clipPath id="clip-s-9">
      <rect width="320" height="180"/>
    </clipPath>
  </defs>
  <g id="s-9" clip-path="url(#clip-s-9)">
    <rect width="320" height="180" fill="rgba(255,255,255,0)"/>
    <g id="组_13350" data-name="组 13350" transform="translate(-80 -1589)">
      <g id="组_13347" data-name="组 13347" transform="translate(80 1589)">
        <g id="矩形_2780" data-name="矩形 2780" fill="#fff" stroke="rgba(0,0,0,0.24)" stroke-width="1" stroke-dasharray="3">
          <rect width="320" height="180" rx="4" stroke="none"/>
          <rect x="0.5" y="0.5" width="319" height="179" rx="3.5" fill="none"/>
        </g>
        <g id="组_13344" data-name="组 13344" transform="translate(54.432 46)">
          <text id="将文件拖到此处_或点击上传" data-name="将文件拖到此处，或点击上传" transform="translate(14 65)" fill="rgba(0,0,0,0.8)" font-size="14" font-family="MicrosoftYaHeiUI, Microsoft YaHei UI"><tspan x="0" y="0">将文件拖到此处，或点击上传</tspan></text>
          <text id="只能上传jpg_png文件_且不超过500kb" data-name="只能上传jpg/png文件，且不超过500kb" transform="translate(0 86)" fill="rgba(0,0,0,0.48)" font-size="12" font-family="MicrosoftYaHeiUI, Microsoft YaHei UI"><tspan x="0" y="0">只能上传jpg/png文件，且不超过500kb</tspan></text>
          <path id="云上传" d="M87.953,230.912H85.2v6.08c0,1.876-2.349,1.52-3.985,1.52-.963,0-1.941-.364-1.941-1.317v-6.283c-1.8,0-4.6.4-4.6-1.317,0-.958,1.162-1.811,1.711-2.357l4.239-4.1c1.885-1.873,2.241-.969,4.75,1.52A22.344,22.344,0,0,0,87.5,226.7a12.622,12.622,0,0,1,2.05,2.121c.564,1.3-.194,2.092-1.6,2.092ZM71.4,217.737c-1.067,0-2.241-.813-4.832.274-2.207.926-4.157,3.4-4.157,5.6a6.714,6.714,0,0,0,.306,2.837,9.676,9.676,0,0,0-4.9,8.107,9.388,9.388,0,0,0,3.09,7.474,9.963,9.963,0,0,0,7.126,2.762H95a11.485,11.485,0,0,0,10.12-5.77c1.632-2.7,1.323-4.448,1.323-7.5a10.331,10.331,0,0,0-1.424-3.959,11.453,11.453,0,0,0-7.109-5.211c-1.085-.245-.194-.148-1.158-3.005a12.813,12.813,0,0,0-2.741-4.78,5.8,5.8,0,0,0-.981-1.054,14.486,14.486,0,0,0-4.275-2.651,13.776,13.776,0,0,0-12.917,1.548c-1.533,1.1-4.034,3.62-4.437,5.328Z" transform="translate(23.185 -209.927)" fill="rgba(0,0,0,0.48)"/>
        </g>
      </g>
    </g>
  </g>
</svg>
