<svg xmlns="http://www.w3.org/2000/svg" xmlns:xlink="http://www.w3.org/1999/xlink" width="400" height="480" viewBox="0 0 400 480">
  <defs>
    <filter id="矩形_4379" x="22" y="155" width="162" height="194" filterUnits="userSpaceOnUse">
      <feOffset dy="2" input="SourceAlpha"/>
      <feGaussianBlur stdDeviation="3" result="blur"/>
      <feFlood flood-opacity="0.161"/>
      <feComposite operator="in" in2="blur"/>
      <feComposite in="SourceGraphic"/>
    </filter>
    <filter id="矩形_4381" x="214" y="151" width="164" height="139" filterUnits="userSpaceOnUse">
      <feOffset dy="2" input="SourceAlpha"/>
      <feGaussianBlur stdDeviation="3" result="blur-2"/>
      <feFlood flood-opacity="0.161"/>
      <feComposite operator="in" in2="blur-2"/>
      <feComposite in="SourceGraphic"/>
    </filter>
    <clipPath id="clip-t-4">
      <rect width="400" height="480"/>
    </clipPath>
  </defs>
  <g id="t-4" clip-path="url(#clip-t-4)">
    <rect width="400" height="480" fill="#fff"/>
    <g id="组_16089" data-name="组 16089" transform="translate(-66 -2900)">
      <g id="组_13653" data-name="组 13653" transform="translate(-124 -452)">
        <g id="组_13651" data-name="组 13651" transform="translate(109)">
          <text id="显示更多" transform="translate(112 3507)" fill="#377CFD" font-size="14" font-family="MicrosoftYaHeiUI, Microsoft YaHei UI"><tspan x="0" y="0">显示更多</tspan></text>
          <g id="组件_424_15" data-name="组件 424 – 15" transform="translate(175 3494)">
            <rect id="矩形_4289" data-name="矩形 4289" width="16" height="16" fill="none"/>
            <path id="路径_6390" data-name="路径 6390" d="M95.754,96.574l4.025-4.026-4.025-4.026" transform="translate(100.074 -90.254) rotate(90)" fill="none" stroke="#377CFD" stroke-miterlimit="10" stroke-width="1.5"/>
          </g>
        </g>
        <g transform="matrix(1, 0, 0, 1, 190, 3352)" filter="url(#矩形_4379)">
          <rect id="矩形_4379-2" data-name="矩形 4379" width="144" height="176" rx="4" transform="translate(31 162)" fill="#fff"/>
        </g>
        <g id="组_13652" data-name="组 13652">
          <g id="组件_439_22" data-name="组件 439 – 22" transform="translate(221 3650)">
            <rect id="矩形_4380" data-name="矩形 4380" width="144" height="32" fill="#fff"/>
            <text id="退出登录" transform="translate(8 21)" fill="#333b44" font-size="14" font-family="MicrosoftYaHeiUI, Microsoft YaHei UI"><tspan x="0" y="0">退出登录</tspan></text>
          </g>
          <g id="组件_439_23" data-name="组件 439 – 23" transform="translate(221 3618)">
            <rect id="矩形_4380-2" data-name="矩形 4380" width="144" height="32" fill="#fff"/>
            <text id="联系我们" transform="translate(8 21)" fill="#333b44" font-size="14" font-family="MicrosoftYaHeiUI, Microsoft YaHei UI"><tspan x="0" y="0">联系我们</tspan></text>
          </g>
          <g id="组件_439_24" data-name="组件 439 – 24" transform="translate(221 3586)">
            <rect id="矩形_4380-3" data-name="矩形 4380" width="144" height="32" fill="#fff"/>
            <text id="服务条款" transform="translate(8 21)" fill="#333b44" font-size="14" font-family="MicrosoftYaHeiUI, Microsoft YaHei UI"><tspan x="0" y="0">服务条款</tspan></text>
          </g>
          <g id="组件_439_25" data-name="组件 439 – 25" transform="translate(221 3554)">
            <rect id="矩形_4380-4" data-name="矩形 4380" width="144" height="32" fill="#fff"/>
            <text id="帮助中心" transform="translate(8 21)" fill="#333b44" font-size="14" font-family="MicrosoftYaHeiUI, Microsoft YaHei UI"><tspan x="0" y="0">帮助中心</tspan></text>
          </g>
          <g id="组件_439_26" data-name="组件 439 – 26" transform="translate(221 3522)">
            <rect id="矩形_4380-5" data-name="矩形 4380" width="144" height="32" fill="#fff"/>
            <text id="个人设置" transform="translate(8 21)" fill="#333b44" font-size="14" font-family="MicrosoftYaHeiUI, Microsoft YaHei UI"><tspan x="0" y="0">个人设置</tspan></text>
          </g>
        </g>
      </g>
      <g id="组_13657" data-name="组 13657" transform="translate(-1 16)">
        <g id="组_13656" data-name="组 13656" transform="translate(-25 -703)">
          <g transform="matrix(1, 0, 0, 1, 92, 3587)" filter="url(#矩形_4381)">
            <rect id="矩形_4381-2" data-name="矩形 4381" width="146" height="121" rx="4" transform="translate(223 158)" fill="#fff"/>
          </g>
          <g id="组_13654" data-name="组 13654" transform="translate(94 231)">
            <g id="组件_439_27" data-name="组件 439 – 27" transform="translate(221 3554)">
              <rect id="矩形_4380-6" data-name="矩形 4380" width="144" height="32" fill="#fff"/>
              <text id="账户设置" transform="translate(32 21)" fill="#333b44" font-size="14" font-family="MicrosoftYaHeiUI, Microsoft YaHei UI"><tspan x="0" y="0">账户设置</tspan></text>
              <g id="组件_440_1" data-name="组件 440 – 1" transform="translate(8 8)">
                <rect id="矩形_4385" data-name="矩形 4385" width="16" height="16" fill="none"/>
                <g id="临时任务" transform="translate(3272.322 2614.588)">
                  <path id="path-1" d="M-3269.248-2605.932a4.866,4.866,0,0,1-.047-.635,4.87,4.87,0,0,1,.047-.635l-1.405-1.069a.321.321,0,0,1-.08-.415l1.332-2.241a.339.339,0,0,1,.406-.142l1.657.648a4.926,4.926,0,0,1,1.125-.635l.254-1.716a.322.322,0,0,1,.326-.272h2.664a.322.322,0,0,1,.326.272l.253,1.716a5.161,5.161,0,0,1,1.124.635l1.659-.648a.329.329,0,0,1,.406.142l1.332,2.241a.316.316,0,0,1-.08.415l-1.405,1.069a5,5,0,0,1,.046.635,5,5,0,0,1-.046.635l1.405,1.069a.321.321,0,0,1,.08.414l-1.332,2.241a.338.338,0,0,1-.406.144l-1.659-.648a4.855,4.855,0,0,1-1.124.635l-.253,1.717a.322.322,0,0,1-.326.271h-2.664a.322.322,0,0,1-.326-.271l-.254-1.717a5.154,5.154,0,0,1-1.125-.635l-1.657.648a.329.329,0,0,1-.406-.144l-1.332-2.241a.319.319,0,0,1,.08-.414Zm4.947,1.632a2.3,2.3,0,0,0,2.33-2.266,2.3,2.3,0,0,0-2.33-2.267,2.3,2.3,0,0,0-2.331,2.267A2.3,2.3,0,0,0-3264.3-2604.3Z" transform="translate(0 0)" fill="none" stroke="rgba(0,0,0,0.48)" stroke-linejoin="round" stroke-width="1.5"/>
                </g>
              </g>
            </g>
            <g id="组件_439_28" data-name="组件 439 – 28" transform="translate(221 3522)">
              <rect id="矩形_4380-7" data-name="矩形 4380" width="144" height="32" fill="#fff"/>
              <text id="个人中心" transform="translate(32 21)" fill="#333b44" font-size="14" font-family="MicrosoftYaHeiUI, Microsoft YaHei UI"><tspan x="0" y="0">个人中心</tspan></text>
              <g id="组件_440_1-2" data-name="组件 440 – 1" transform="translate(8 8)">
                <rect id="矩形_4385-2" data-name="矩形 4385" width="16" height="16" fill="none"/>
                <path id="Shape" d="M-3715.513-2909.991c-.011-.975-.212-1.224-3.577-3.054-.7-.378-2.16-.972-1.193-2.341a8.666,8.666,0,0,0,1.187-2.711s0-.881-.008-1.175a2.8,2.8,0,0,0-2.968-2.643,2.775,2.775,0,0,0-2.969,2.643c-.011.293-.008,1.175-.008,1.175a8.653,8.653,0,0,0,1.188,2.711c.966,1.369-.5,1.963-1.193,2.341-3.365,1.829-3.566,2.079-3.577,3.054v.229a.775.775,0,0,0,.781.769h11.557a.776.776,0,0,0,.783-.769l0-.229Z" transform="translate(3730.072 2923.453)" fill="none" stroke="rgba(0,0,0,0.48)" stroke-linejoin="round" stroke-width="1.5" fill-rule="evenodd"/>
              </g>
            </g>
          </g>
          <g id="组件_439_29" data-name="组件 439 – 29" transform="translate(315 3826)">
            <rect id="矩形_4380-8" data-name="矩形 4380" width="144" height="32" fill="#fff"/>
            <text id="退出登录-2" data-name="退出登录" transform="translate(32 21)" fill="#333b44" font-size="14" font-family="MicrosoftYaHeiUI, Microsoft YaHei UI"><tspan x="0" y="0">退出登录</tspan></text>
            <g id="组件_440_1-3" data-name="组件 440 – 1" transform="translate(8 8)">
              <rect id="矩形_4385-3" data-name="矩形 4385" width="16" height="16" fill="none"/>
              <g id="组_13655" data-name="组 13655" transform="translate(-321.691 -72.403)">
                <path id="路径_6402" data-name="路径 6402" d="M326.746,75.106a6.3,6.3,0,1,0,5.89,0" transform="translate(0 -0.408)" fill="none" stroke="rgba(0,0,0,0.48)" stroke-linecap="round" stroke-linejoin="round" stroke-width="1.5"/>
                <line id="直线_874" data-name="直线 874" y1="3.492" transform="translate(329.691 74.105)" fill="none" stroke="rgba(0,0,0,0.48)" stroke-linecap="round" stroke-linejoin="round" stroke-width="1.5"/>
              </g>
            </g>
          </g>
          <rect id="矩形_4386" data-name="矩形 4386" width="146" height="1" transform="translate(315 3821)" fill="rgba(0,0,0,0.04)"/>
        </g>
      </g>
    </g>
  </g>
</svg>
