<svg xmlns="http://www.w3.org/2000/svg" xmlns:xlink="http://www.w3.org/1999/xlink" width="459" height="92" viewBox="0 0 459 92">
  <defs>
    <clipPath id="clip-t-6">
      <rect width="459" height="92"/>
    </clipPath>
  </defs>
  <g id="t-6" clip-path="url(#clip-t-6)">
    <rect width="459" height="92" fill="#fff"/>
    <path id="路径_8202" data-name="路径 8202" d="M4,0H20a4,4,0,0,1,4,4V20a4,4,0,0,1-4,4H4a4,4,0,0,1-4-4V4A4,4,0,0,1,4,0Z" transform="translate(271)" fill="#fff"/>
    <path id="路径_8202_-_轮廓" data-name="路径 8202 - 轮廓" d="M4,1A3,3,0,0,0,1,4V20a3,3,0,0,0,3,3H20a3,3,0,0,0,3-3V4a3,3,0,0,0-3-3H4M4,0H20a4,4,0,0,1,4,4V20a4,4,0,0,1-4,4H4a4,4,0,0,1-4-4V4A4,4,0,0,1,4,0Z" transform="translate(271)" fill="rgba(0,0,0,0.24)"/>
    <path id="路径_473" data-name="路径 473" d="M27.073,516.683l-1.061-1.061,2.816-2.816-2.816-2.816,1.061-1.061,3.876,3.876Z" transform="translate(254.825 -500.7)" fill="rgba(0,0,0,0.24)"/>
    <path id="路径_8203" data-name="路径 8203" d="M4,0H20a4,4,0,0,1,4,4V20a4,4,0,0,1-4,4H4a4,4,0,0,1-4-4V4A4,4,0,0,1,4,0Z" transform="translate(239)" fill="#fff"/>
    <path id="路径_8203_-_轮廓" data-name="路径 8203 - 轮廓" d="M4,1A3,3,0,0,0,1,4V20a3,3,0,0,0,3,3H20a3,3,0,0,0,3-3V4a3,3,0,0,0-3-3H4M4,0H20a4,4,0,0,1,4,4V20a4,4,0,0,1-4,4H4a4,4,0,0,1-4-4V4A4,4,0,0,1,4,0Z" transform="translate(239)" fill="rgba(0,0,0,0.24)"/>
    <path id="路径_8204" data-name="路径 8204" d="M7.687,14V4.942a4.5,4.5,0,0,1-1.063.7,6.336,6.336,0,0,1-1.384.547V4.881a8.937,8.937,0,0,0,1.8-.742,7.847,7.847,0,0,0,1.47-.96h.506V14Zm4.929-5.086a7.877,7.877,0,0,1,.93-4.242,3.013,3.013,0,0,1,2.693-1.439q3.363,0,3.363,5.428a7.381,7.381,0,0,1-.947,4.1A3.016,3.016,0,0,1,16,14.178a2.823,2.823,0,0,1-2.5-1.347A7.151,7.151,0,0,1,12.615,8.914Zm1.367-.062q0,4.218,2.14,4.218,2.105,0,2.105-4.286,0-4.437-2.064-4.437Q13.982,4.348,13.982,8.853Z" transform="translate(239 3)" fill="rgba(0,0,0,0.8)"/>
    <g id="路径_8205" data-name="路径 8205" opacity="0">
      <path id="路径_8205-2" data-name="路径 8205" d="M4,0H20a4,4,0,0,1,4,4V20a4,4,0,0,1-4,4H4a4,4,0,0,1-4-4V4A4,4,0,0,1,4,0Z" transform="translate(207)" fill="#fff"/>
      <path id="路径_8205_-_轮廓" data-name="路径 8205 - 轮廓" d="M4,1A3,3,0,0,0,1,4V20a3,3,0,0,0,3,3H20a3,3,0,0,0,3-3V4a3,3,0,0,0-3-3H4M4,0H20a4,4,0,0,1,4,4V20a4,4,0,0,1-4,4H4a4,4,0,0,1-4-4V4A4,4,0,0,1,4,0Z" transform="translate(207)" fill="#e1e6f0"/>
    </g>
    <path id="路径_474" data-name="路径 474" d="M290.425,513.693a1.415,1.415,0,1,0,1.415,1.416A1.415,1.415,0,0,0,290.425,513.693Z" transform="translate(-76.01 -502.693)" fill="#8f959e"/>
    <path id="路径_8206" data-name="路径 8206" d="M1.415,0A1.415,1.415,0,1,1,0,1.415,1.415,1.415,0,0,1,1.415,0Z" transform="translate(217.596 11)" fill="#8f959e"/>
    <path id="路径_475" data-name="路径 475" d="M299.617,513.693a1.415,1.415,0,1,0,1.415,1.416A1.416,1.416,0,0,0,299.617,513.693Z" transform="translate(-76.01 -502.693)" fill="#8f959e"/>
    <path id="路径_8207" data-name="路径 8207" d="M2,0H22a2,2,0,0,1,2,2V22a2,2,0,0,1-2,2H2a2,2,0,0,1-2-2V2A2,2,0,0,1,2,0Z" transform="translate(175)" fill="#fff"/>
    <path id="路径_8207_-_轮廓" data-name="路径 8207 - 轮廓" d="M2,1A1,1,0,0,0,1,2V22a1,1,0,0,0,1,1H22a1,1,0,0,0,1-1V2a1,1,0,0,0-1-1H2M2,0H22a2,2,0,0,1,2,2V22a2,2,0,0,1-2,2H2a2,2,0,0,1-2-2V2A2,2,0,0,1,2,0Z" transform="translate(175)" fill="rgba(0,0,0,0.24)"/>
    <path id="路径_8208" data-name="路径 8208" d="M8.873,12.229a3.907,3.907,0,0,0,2.454.841,2.61,2.61,0,0,0,1.733-.537,1.783,1.783,0,0,0,.639-1.439q0-2.01-2.878-2.01H9.939V7.978h.841q2.55,0,2.55-1.887,0-1.743-1.948-1.743a3.4,3.4,0,0,0-2.1.752V3.835a4.757,4.757,0,0,1,2.427-.6,3.212,3.212,0,0,1,2.174.708,2.31,2.31,0,0,1,.82,1.835,2.575,2.575,0,0,1-2.119,2.673v.027a2.858,2.858,0,0,1,1.815.81A2.362,2.362,0,0,1,15.066,11a2.877,2.877,0,0,1-1.029,2.3,4.083,4.083,0,0,1-2.738.875,4.632,4.632,0,0,1-2.427-.561Z" transform="translate(175 3)" fill="rgba(0,0,0,0.8)"/>
    <path id="路径_8209" data-name="路径 8209" d="M2,0H22a2,2,0,0,1,2,2V22a2,2,0,0,1-2,2H2a2,2,0,0,1-2-2V2A2,2,0,0,1,2,0Z" transform="translate(143)" fill="#fff"/>
    <path id="路径_8209_-_轮廓" data-name="路径 8209 - 轮廓" d="M2,1A1,1,0,0,0,1,2V22a1,1,0,0,0,1,1H22a1,1,0,0,0,1-1V2a1,1,0,0,0-1-1H2M2,0H22a2,2,0,0,1,2,2V22a2,2,0,0,1-2,2H2a2,2,0,0,1-2-2V2A2,2,0,0,1,2,0Z" transform="translate(143)" fill="#377CFD"/>
    <path id="路径_8210" data-name="路径 8210" d="M13.726,6.187a1.72,1.72,0,0,0-.54-1.343,2.108,2.108,0,0,0-1.47-.489,2.947,2.947,0,0,0-1.326.335,4.429,4.429,0,0,0-1.251.957v-1.3a3.643,3.643,0,0,1,1.179-.827,3.856,3.856,0,0,1,1.548-.287A3.373,3.373,0,0,1,14.177,4a2.63,2.63,0,0,1,.875,2.082,3.726,3.726,0,0,1-.537,2.023,6.458,6.458,0,0,1-1.835,1.75,22.013,22.013,0,0,0-1.774,1.313,2.588,2.588,0,0,0-.625.759,1.988,1.988,0,0,0-.178.882h5.264V14H8.708v-.526a4.287,4.287,0,0,1,.25-1.555,3.87,3.87,0,0,1,.824-1.244,12.075,12.075,0,0,1,1.791-1.453,6.96,6.96,0,0,0,1.7-1.535A2.581,2.581,0,0,0,13.726,6.187Z" transform="translate(143 3)" fill="#377CFD"/>
    <path id="路径_8211" data-name="路径 8211" d="M2,0H22a2,2,0,0,1,2,2V22a2,2,0,0,1-2,2H2a2,2,0,0,1-2-2V2A2,2,0,0,1,2,0Z" transform="translate(111)" fill="#377CFD"/>
    <path id="路径_8212" data-name="路径 8212" d="M11.792,14V4.942a4.5,4.5,0,0,1-1.063.7,6.336,6.336,0,0,1-1.384.547V4.881a8.937,8.937,0,0,0,1.8-.742,7.847,7.847,0,0,0,1.47-.96h.506V14Z" transform="translate(111 3)" fill="#fff"/>
    <path id="路径_8213" data-name="路径 8213" d="M2,0H22a2,2,0,0,1,2,2V22a2,2,0,0,1-2,2H2a2,2,0,0,1-2-2V2A2,2,0,0,1,2,0Z" transform="translate(79)" fill="rgba(0,0,0,0.04)"/>
    <path id="路径_8213_-_轮廓" data-name="路径 8213 - 轮廓" d="M2,1A1,1,0,0,0,1,2V22a1,1,0,0,0,1,1H22a1,1,0,0,0,1-1V2a1,1,0,0,0-1-1H2M2,0H22a2,2,0,0,1,2,2V22a2,2,0,0,1-2,2H2a2,2,0,0,1-2-2V2A2,2,0,0,1,2,0Z" transform="translate(79)" fill="rgba(0,0,0,0.16)"/>
    <path id="路径_473-2" data-name="路径 473" d="M29.358,516.683l-3.876-3.876,3.876-3.876,1.061,1.061L27.6,512.807l2.816,2.816Z" transform="translate(62.744 -500.7)" fill="rgba(0,0,0,0.24)"/>
    <path id="路径_8606" data-name="路径 8606" d="M4,0H28a4,4,0,0,1,4,4V28a4,4,0,0,1-4,4H4a4,4,0,0,1-4-4V4A4,4,0,0,1,4,0Z" transform="translate(227 60)" fill="#377CFD"/>
    <path id="路径_8607" data-name="路径 8607" d="M11.292,14V4.942a4.5,4.5,0,0,1-1.063.7,6.336,6.336,0,0,1-1.384.547V4.881a8.937,8.937,0,0,0,1.8-.742,7.847,7.847,0,0,0,1.47-.96h.506V14Z" transform="translate(232 67)" fill="#fff"/>
    <path id="路径_8608" data-name="路径 8608" d="M4,0H28a4,4,0,0,1,4,4V28a4,4,0,0,1-4,4H4a4,4,0,0,1-4-4V4A4,4,0,0,1,4,0Z" transform="translate(267 60)" fill="#fff"/>
    <path id="路径_8608_-_轮廓" data-name="路径 8608 - 轮廓" d="M4,1A3,3,0,0,0,1,4V28a3,3,0,0,0,3,3H28a3,3,0,0,0,3-3V4a3,3,0,0,0-3-3H4M4,0H28a4,4,0,0,1,4,4V28a4,4,0,0,1-4,4H4a4,4,0,0,1-4-4V4A4,4,0,0,1,4,0Z" transform="translate(267 60)" fill="#377CFD"/>
    <path id="路径_8609" data-name="路径 8609" d="M13.226,6.187a1.72,1.72,0,0,0-.54-1.343,2.108,2.108,0,0,0-1.47-.489,2.947,2.947,0,0,0-1.326.335,4.429,4.429,0,0,0-1.251.957v-1.3a3.643,3.643,0,0,1,1.179-.827,3.856,3.856,0,0,1,1.548-.287A3.373,3.373,0,0,1,13.677,4a2.63,2.63,0,0,1,.875,2.082,3.726,3.726,0,0,1-.537,2.023,6.458,6.458,0,0,1-1.835,1.75,22.013,22.013,0,0,0-1.774,1.313,2.588,2.588,0,0,0-.625.759,1.988,1.988,0,0,0-.178.882h5.264V14H8.208v-.526a4.287,4.287,0,0,1,.25-1.555,3.87,3.87,0,0,1,.824-1.244,12.075,12.075,0,0,1,1.791-1.453,6.96,6.96,0,0,0,1.7-1.535A2.581,2.581,0,0,0,13.226,6.187Z" transform="translate(272 67)" fill="#377CFD"/>
    <path id="路径_8610" data-name="路径 8610" d="M4,0H28a4,4,0,0,1,4,4V28a4,4,0,0,1-4,4H4a4,4,0,0,1-4-4V4A4,4,0,0,1,4,0Z" transform="translate(307 60)" fill="#fff"/>
    <path id="路径_8610_-_轮廓" data-name="路径 8610 - 轮廓" d="M4,1A3,3,0,0,0,1,4V28a3,3,0,0,0,3,3H28a3,3,0,0,0,3-3V4a3,3,0,0,0-3-3H4M4,0H28a4,4,0,0,1,4,4V28a4,4,0,0,1-4,4H4a4,4,0,0,1-4-4V4A4,4,0,0,1,4,0Z" transform="translate(307 60)" fill="rgba(0,0,0,0.24)"/>
    <path id="路径_8611" data-name="路径 8611" d="M8.373,12.229a3.907,3.907,0,0,0,2.454.841,2.61,2.61,0,0,0,1.733-.537,1.783,1.783,0,0,0,.639-1.439q0-2.01-2.878-2.01H9.439V7.978h.841q2.55,0,2.55-1.887,0-1.743-1.948-1.743a3.4,3.4,0,0,0-2.1.752V3.835a4.757,4.757,0,0,1,2.427-.6,3.212,3.212,0,0,1,2.174.708,2.31,2.31,0,0,1,.82,1.835,2.575,2.575,0,0,1-2.119,2.673v.027a2.858,2.858,0,0,1,1.815.81A2.362,2.362,0,0,1,14.566,11a2.877,2.877,0,0,1-1.029,2.3,4.083,4.083,0,0,1-2.738.875,4.632,4.632,0,0,1-2.427-.561Z" transform="translate(312 67)" fill="rgba(0,0,0,0.8)"/>
    <path id="路径_8612" data-name="路径 8612" d="M4,0H28a4,4,0,0,1,4,4V28a4,4,0,0,1-4,4H4a4,4,0,0,1-4-4V4A4,4,0,0,1,4,0Z" transform="translate(387 60)" fill="#fff"/>
    <path id="路径_8612_-_轮廓" data-name="路径 8612 - 轮廓" d="M4,1A3,3,0,0,0,1,4V28a3,3,0,0,0,3,3H28a3,3,0,0,0,3-3V4a3,3,0,0,0-3-3H4M4,0H28a4,4,0,0,1,4,4V28a4,4,0,0,1-4,4H4a4,4,0,0,1-4-4V4A4,4,0,0,1,4,0Z" transform="translate(387 60)" fill="rgba(0,0,0,0.24)"/>
    <path id="路径_8613" data-name="路径 8613" d="M7.187,14V4.942a4.5,4.5,0,0,1-1.063.7,6.336,6.336,0,0,1-1.384.547V4.881a8.937,8.937,0,0,0,1.8-.742,7.847,7.847,0,0,0,1.47-.96h.506V14Zm4.929-5.086a7.877,7.877,0,0,1,.93-4.242,3.013,3.013,0,0,1,2.693-1.439q3.363,0,3.363,5.428a7.381,7.381,0,0,1-.947,4.1A3.016,3.016,0,0,1,15.5,14.178,2.823,2.823,0,0,1,13,12.831,7.151,7.151,0,0,1,12.115,8.914Zm1.367-.062q0,4.218,2.14,4.218,2.105,0,2.105-4.286,0-4.437-2.064-4.437Q13.482,4.348,13.482,8.853Z" transform="translate(392 67)" fill="rgba(0,0,0,0.8)"/>
    <path id="路径_8614" data-name="路径 8614" d="M4,0H28a4,4,0,0,1,4,4V28a4,4,0,0,1-4,4H4a4,4,0,0,1-4-4V4A4,4,0,0,1,4,0Z" transform="translate(187 60)" fill="rgba(0,0,0,0.04)"/>
    <path id="路径_8614_-_轮廓" data-name="路径 8614 - 轮廓" d="M4,1A3,3,0,0,0,1,4V28a3,3,0,0,0,3,3H28a3,3,0,0,0,3-3V4a3,3,0,0,0-3-3H4M4,0H28a4,4,0,0,1,4,4V28a4,4,0,0,1-4,4H4a4,4,0,0,1-4-4V4A4,4,0,0,1,4,0Z" transform="translate(187 60)" fill="rgba(0,0,0,0.16)"/>
    <path id="路径_473-3" data-name="路径 473" d="M30.4,518.775l-4.922-4.922,4.922-4.922,1.061,1.061L27.6,513.853l3.861,3.861Z" transform="translate(173.959 -437.962)" fill="rgba(0,0,0,0.24)"/>
    <path id="路径_8622" data-name="路径 8622" d="M4,0H28a4,4,0,0,1,4,4V28a4,4,0,0,1-4,4H4a4,4,0,0,1-4-4V4A4,4,0,0,1,4,0Z" transform="translate(427 60)" fill="#fff"/>
    <path id="路径_8622_-_轮廓" data-name="路径 8622 - 轮廓" d="M4,1A3,3,0,0,0,1,4V28a3,3,0,0,0,3,3H28a3,3,0,0,0,3-3V4a3,3,0,0,0-3-3H4M4,0H28a4,4,0,0,1,4,4V28a4,4,0,0,1-4,4H4a4,4,0,0,1-4-4V4A4,4,0,0,1,4,0Z" transform="translate(427 60)" fill="rgba(0,0,0,0.24)"/>
    <path id="路径_473-4" data-name="路径 473" d="M27.073,518.775l-1.061-1.061,3.861-3.861-3.861-3.861,1.061-1.061,4.922,4.922Z" transform="translate(414.564 -437.962)" fill="rgba(0,0,0,0.24)"/>
    <g id="路径_8615" data-name="路径 8615" opacity="0">
      <path id="路径_8615-2" data-name="路径 8615" d="M4,0H28a4,4,0,0,1,4,4V28a4,4,0,0,1-4,4H4a4,4,0,0,1-4-4V4A4,4,0,0,1,4,0Z" transform="translate(347 60)" fill="#fff"/>
      <path id="路径_8615_-_轮廓" data-name="路径 8615 - 轮廓" d="M4,1A3,3,0,0,0,1,4V28a3,3,0,0,0,3,3H28a3,3,0,0,0,3-3V4a3,3,0,0,0-3-3H4M4,0H28a4,4,0,0,1,4,4V28a4,4,0,0,1-4,4H4a4,4,0,0,1-4-4V4A4,4,0,0,1,4,0Z" transform="translate(347 60)" fill="#e1e6f0"/>
    </g>
    <path id="路径_474-2" data-name="路径 474" d="M290.425,513.693a1.415,1.415,0,1,0,1.415,1.416A1.415,1.415,0,0,0,290.425,513.693Z" transform="translate(67.99 -438.693)" fill="#8f959e"/>
    <path id="路径_8616" data-name="路径 8616" d="M1.415,0A1.415,1.415,0,1,1,0,1.415,1.415,1.415,0,0,1,1.415,0Z" transform="translate(361.596 75)" fill="#8f959e"/>
    <path id="路径_475-2" data-name="路径 475" d="M299.617,513.693a1.415,1.415,0,1,0,1.415,1.416A1.416,1.416,0,0,0,299.617,513.693Z" transform="translate(67.99 -438.693)" fill="#8f959e"/>
    <text id="共" transform="translate(7 81)" fill="rgba(0,0,0,0.8)" font-size="14" font-family="MicrosoftYaHeiUI, Microsoft YaHei UI"><tspan x="-7" y="0">共</tspan></text>
    <path id="路径_8617" data-name="路径 8617" d="M3.9,0V-9.058a4.5,4.5,0,0,1-1.063.7,6.336,6.336,0,0,1-1.384.547V-9.119a8.937,8.937,0,0,0,1.8-.742,7.847,7.847,0,0,0,1.47-.96h.506V0ZM8.825-5.086a7.877,7.877,0,0,1,.93-4.242,3.013,3.013,0,0,1,2.693-1.439q3.363,0,3.363,5.428a7.381,7.381,0,0,1-.947,4.1A3.016,3.016,0,0,1,12.209.178a2.823,2.823,0,0,1-2.5-1.347A7.151,7.151,0,0,1,8.825-5.086Zm1.367-.062q0,4.218,2.14,4.218,2.105,0,2.105-4.286,0-4.437-2.064-4.437Q10.192-9.652,10.192-5.147Zm6.843.062a7.877,7.877,0,0,1,.93-4.242,3.013,3.013,0,0,1,2.693-1.439q3.363,0,3.363,5.428a7.381,7.381,0,0,1-.947,4.1A3.016,3.016,0,0,1,20.419.178a2.823,2.823,0,0,1-2.5-1.347A7.151,7.151,0,0,1,17.035-5.086ZM18.4-5.147q0,4.218,2.14,4.218,2.105,0,2.105-4.286,0-4.437-2.064-4.437Q18.4-9.652,18.4-5.147Z" transform="translate(18 81)" fill="#377CFD"/>
    <path id="路径_8618" data-name="路径 8618" d="M.82-7.321a17.931,17.931,0,0,0,3.8-4.334H5.865q-.424.684-.868,1.313h6.692v.971A18.7,18.7,0,0,1,8.306-6.754a22.319,22.319,0,0,0,5.5,1.1,3.563,3.563,0,0,0-.6,1.189,24.587,24.587,0,0,1-6.05-1.675A30.361,30.361,0,0,1,.67-4.149a8.261,8.261,0,0,0-.492-.984A29.723,29.723,0,0,0,6.063-6.713,10.492,10.492,0,0,1,3.719-8.7,20.636,20.636,0,0,1,1.641-6.6,6.844,6.844,0,0,0,.82-7.321Zm.7,3.473H6.59V-5.2H7.67v1.354h4.744v.971H7.67V-.007q0,1.6-1.682,1.6-.738,0-1.723-.014-.082-.561-.205-1.2a14.526,14.526,0,0,0,1.6.109q.93,0,.93-1V-2.878H1.518Zm8.777-5.578H4.334A10.667,10.667,0,0,0,7.2-7.26,17.353,17.353,0,0,0,10.295-9.427ZM8.955-1.456l.629-.779Q11.84-1,13.563.116l-.656.957Q11.266-.1,8.955-1.456ZM4.1-2.372l.807.752a41.957,41.957,0,0,1-3.664,2.8Q.93.772.547.349A22.429,22.429,0,0,0,4.1-2.372Z" transform="translate(45 81)" fill="rgba(0,0,0,0.8)"/>
    <path id="路径_8605" data-name="路径 8605" d="M4,0H92a4,4,0,0,1,4,4V28a4,4,0,0,1-4,4H4a4,4,0,0,1-4-4V4A4,4,0,0,1,4,0Z" transform="translate(75 60)" fill="#fff"/>
    <path id="路径_8605_-_轮廓" data-name="路径 8605 - 轮廓" d="M4,1A3,3,0,0,0,1,4V28a3,3,0,0,0,3,3H92a3,3,0,0,0,3-3V4a3,3,0,0,0-3-3H4M4,0H92a4,4,0,0,1,4,4V28a4,4,0,0,1-4,4H4a4,4,0,0,1-4-4V4A4,4,0,0,1,4,0Z" transform="translate(75 60)" fill="rgba(0,0,0,0.24)"/>
    <path id="路径_8619" data-name="路径 8619" transform="translate(83 81)" fill="rgba(0,0,0,0.8)"/>
    <path id="路径_8620" data-name="路径 8620" d="M3.95,4.45h0L0,0H7.9L3.95,4.449Z" transform="translate(150.777 74)" fill="rgba(0,0,0,0.24)"/>
    <path id="路径_8621" data-name="路径 8621" d="M3.9,0V-9.058a4.5,4.5,0,0,1-1.063.7,6.336,6.336,0,0,1-1.384.547V-9.119a8.937,8.937,0,0,0,1.8-.742,7.847,7.847,0,0,0,1.47-.96h.506V0ZM8.825-5.086a7.877,7.877,0,0,1,.93-4.242,3.013,3.013,0,0,1,2.693-1.439q3.363,0,3.363,5.428a7.381,7.381,0,0,1-.947,4.1A3.016,3.016,0,0,1,12.209.178a2.823,2.823,0,0,1-2.5-1.347A7.151,7.151,0,0,1,8.825-5.086Zm1.367-.062q0,4.218,2.14,4.218,2.105,0,2.105-4.286,0-4.437-2.064-4.437Q10.192-9.652,10.192-5.147ZM17.24-7.321a17.931,17.931,0,0,0,3.8-4.334h1.244q-.424.684-.868,1.313h6.692v.971a18.7,18.7,0,0,1-3.384,2.618,22.319,22.319,0,0,0,5.5,1.1,3.563,3.563,0,0,0-.6,1.189,24.587,24.587,0,0,1-6.05-1.675A30.361,30.361,0,0,1,17.09-4.149a8.261,8.261,0,0,0-.492-.984,29.723,29.723,0,0,0,5.886-1.579A10.492,10.492,0,0,1,20.139-8.7,20.636,20.636,0,0,1,18.061-6.6,6.844,6.844,0,0,0,17.24-7.321Zm.7,3.473H23.01V-5.2h1.08v1.354h4.744v.971H24.09V-.007q0,1.6-1.682,1.6-.738,0-1.723-.014-.082-.561-.205-1.2a14.526,14.526,0,0,0,1.6.109q.93,0,.93-1V-2.878H17.938Zm8.777-5.578H20.754A10.667,10.667,0,0,0,23.618-7.26,17.353,17.353,0,0,0,26.715-9.427Zm-1.34,7.971L26-2.235Q28.26-1,29.982.116l-.656.957Q27.686-.1,25.375-1.456Zm-4.854-.916.807.752a41.957,41.957,0,0,1-3.664,2.8q-.314-.41-.7-.834A22.428,22.428,0,0,0,20.521-2.372Zm16-8.217L31.445,1.757H30.194l5.079-12.346Zm1.9,2.488h3.883q.178-.711.41-1.832H36.88v-1.012h13.1v1.012H43.935q-.287,1.066-.547,1.832h5.154v6.508H47.435v-5.5h-7.9v5.551H38.425ZM36.62.882A11.557,11.557,0,0,0,41.419-1a4.625,4.625,0,0,0,1.5-3.8V-6.337H44.03v1.586A7.731,7.731,0,0,1,43.675-2.3,68.308,68.308,0,0,1,49.95.8l-.7,1.025a61.864,61.864,0,0,0-5.988-3.2A4.608,4.608,0,0,1,42.021.034a12.388,12.388,0,0,1-4.689,1.928A9.74,9.74,0,0,0,36.62.882Z" transform="translate(84 81)" fill="#333b44"/>
  </g>
</svg>
