<svg xmlns="http://www.w3.org/2000/svg" xmlns:xlink="http://www.w3.org/1999/xlink" width="350" height="338" viewBox="0 0 350 338">
  <defs>
    <clipPath id="clip-t-7">
      <rect width="350" height="338"/>
    </clipPath>
  </defs>
  <g id="t-7" clip-path="url(#clip-t-7)">
    <rect width="350" height="338" fill="rgba(255,255,255,0)"/>
    <g id="组_16119" data-name="组 16119" transform="translate(-28 -72)">
      <g id="组_16118" data-name="组 16118">
        <text id="步骤一" transform="translate(75 156)" fill="rgba(0,0,0,0.8)" font-size="14" font-family="MicrosoftYaHeiUI, Microsoft YaHei UI"><tspan x="0" y="0">步骤一</tspan></text>
        <text id="_2021-08-27" data-name="2021-08-27" transform="translate(75 177)" fill="rgba(0,0,0,0.48)" font-size="12" font-family="MicrosoftYaHeiUI, Microsoft YaHei UI"><tspan x="0" y="0">2021-08-27</tspan></text>
        <circle id="椭圆_458" data-name="椭圆 458" cx="12" cy="12" r="12" transform="translate(43 144)" fill="rgba(55,124,253,0.1)"/>
        <path id="椭圆_458_-_轮廓" data-name="椭圆 458 - 轮廓" d="M12,1A11,11,0,0,0,4.222,19.778,11,11,0,0,0,19.778,4.222,10.928,10.928,0,0,0,12,1m0-1A12,12,0,1,1,0,12,12,12,0,0,1,12,0Z" transform="translate(43 144)" fill="#377CFD"/>
        <path id="路径_6403" data-name="路径 6403" d="M-5520.025-184.677l-3.552-3.552,1.061-1.061,2.508,2.507,6.483-6.285,1.044,1.077Z" transform="translate(5573 344.921)" fill="#377CFD"/>
        <text id="步骤二" transform="translate(193 156)" fill="rgba(0,0,0,0.8)" font-size="14" font-family="MicrosoftYaHeiUI, Microsoft YaHei UI"><tspan x="0" y="0">步骤二</tspan></text>
        <text id="_2021-08-27-2" data-name="2021-08-27" transform="translate(193 177)" fill="rgba(0,0,0,0.48)" font-size="12" font-family="MicrosoftYaHeiUI, Microsoft YaHei UI"><tspan x="0" y="0">2021-08-27</tspan></text>
        <circle id="椭圆_458-2" data-name="椭圆 458" cx="12" cy="12" r="12" transform="translate(161 144)" fill="#377CFD"/>
        <text id="_2" data-name="2" transform="translate(169 161)" fill="#fff" font-size="14" font-family="MicrosoftYaHeiUI, Microsoft YaHei UI"><tspan x="0" y="0">2</tspan></text>
        <text id="步骤三" transform="translate(311 156)" fill="rgba(0,0,0,0.24)" font-size="14" font-family="MicrosoftYaHeiUI, Microsoft YaHei UI"><tspan x="0" y="0">步骤三</tspan></text>
        <text id="_2021-08-27-3" data-name="2021-08-27" transform="translate(311 177)" fill="rgba(0,0,0,0.24)" font-size="12" font-family="MicrosoftYaHeiUI, Microsoft YaHei UI"><tspan x="0" y="0">2021-08-27</tspan></text>
        <circle id="椭圆_458-3" data-name="椭圆 458" cx="12" cy="12" r="12" transform="translate(279 144)" fill="#fff"/>
        <path id="椭圆_458_-_轮廓-2" data-name="椭圆 458 - 轮廓" d="M12,1A11,11,0,0,0,4.222,19.778,11,11,0,0,0,19.778,4.222,10.928,10.928,0,0,0,12,1m0-1A12,12,0,1,1,0,12,12,12,0,0,1,12,0Z" transform="translate(279 144)" fill="rgba(0,0,0,0.24)"/>
        <text id="_3" data-name="3" transform="translate(287 161)" fill="rgba(0,0,0,0.24)" font-size="14" font-family="MicrosoftYaHeiUI, Microsoft YaHei UI"><tspan x="0" y="0">3</tspan></text>
      </g>
      <text id="步骤一-2" data-name="步骤一" transform="translate(75 89)" fill="rgba(0,0,0,0.8)" font-size="14" font-family="MicrosoftYaHeiUI, Microsoft YaHei UI"><tspan x="0" y="0">步骤一</tspan></text>
      <circle id="椭圆_458-4" data-name="椭圆 458" cx="12" cy="12" r="12" transform="translate(43 72)" fill="rgba(55,124,253,0.1)"/>
      <path id="椭圆_458_-_轮廓-3" data-name="椭圆 458 - 轮廓" d="M12,1A11,11,0,0,0,4.222,19.778,11,11,0,0,0,19.778,4.222,10.928,10.928,0,0,0,12,1m0-1A12,12,0,1,1,0,12,12,12,0,0,1,12,0Z" transform="translate(43 72)" fill="#377CFD"/>
      <path id="路径_6403-2" data-name="路径 6403" d="M-5520.025-184.677l-3.552-3.552,1.061-1.061,2.508,2.507,6.483-6.285,1.044,1.077Z" transform="translate(5573 272.921)" fill="#377CFD"/>
      <circle id="椭圆_458-5" data-name="椭圆 458" cx="12" cy="12" r="12" transform="translate(141 72)" fill="#377CFD"/>
      <text id="_2-2" data-name="2" transform="translate(149 89)" fill="#fff" font-size="14" font-family="MicrosoftYaHeiUI, Microsoft YaHei UI"><tspan x="0" y="0">2</tspan></text>
      <text id="步骤二-2" data-name="步骤二" transform="translate(173 89)" fill="rgba(0,0,0,0.8)" font-size="14" font-family="MicrosoftYaHeiUI, Microsoft YaHei UI"><tspan x="0" y="0">步骤二</tspan></text>
      <circle id="椭圆_458-6" data-name="椭圆 458" cx="12" cy="12" r="12" transform="translate(239 72)" fill="#fff"/>
      <path id="椭圆_458_-_轮廓-4" data-name="椭圆 458 - 轮廓" d="M12,1A11,11,0,0,0,4.222,19.778,11,11,0,0,0,19.778,4.222,10.928,10.928,0,0,0,12,1m0-1A12,12,0,1,1,0,12,12,12,0,0,1,12,0Z" transform="translate(239 72)" fill="rgba(0,0,0,0.24)"/>
      <text id="_3-2" data-name="3" transform="translate(247 89)" fill="rgba(0,0,0,0.24)" font-size="14" font-family="MicrosoftYaHeiUI, Microsoft YaHei UI"><tspan x="0" y="0">3</tspan></text>
      <text id="步骤三-2" data-name="步骤三" transform="translate(271 89)" fill="rgba(0,0,0,0.24)" font-size="14" font-family="MicrosoftYaHeiUI, Microsoft YaHei UI"><tspan x="0" y="0">步骤三</tspan></text>
      <text id="步骤一-3" data-name="步骤一" transform="translate(38 282)" fill="rgba(0,0,0,0.8)" font-size="14" font-family="MicrosoftYaHeiUI, Microsoft YaHei UI"><tspan x="0" y="0">步骤一</tspan></text>
      <text id="步骤二-3" data-name="步骤二" transform="translate(176 282)" fill="rgba(0,0,0,0.8)" font-size="14" font-family="MicrosoftYaHeiUI, Microsoft YaHei UI"><tspan x="0" y="0">步骤二</tspan></text>
      <text id="步骤三-3" data-name="步骤三" transform="translate(314 282)" fill="rgba(0,0,0,0.24)" font-size="14" font-family="MicrosoftYaHeiUI, Microsoft YaHei UI"><tspan x="0" y="0">步骤三</tspan></text>
      <circle id="椭圆_458-7" data-name="椭圆 458" cx="16" cy="16" r="16" transform="translate(43 226)" fill="rgba(55,124,253,0.1)"/>
      <path id="椭圆_458_-_轮廓-5" data-name="椭圆 458 - 轮廓" d="M16,1A15,15,0,0,0,5.393,26.607,15,15,0,1,0,26.607,5.393,14.9,14.9,0,0,0,16,1m0-1A16,16,0,1,1,0,16,16,16,0,0,1,16,0Z" transform="translate(43 226)" fill="#377CFD"/>
      <path id="路径_6403-3" data-name="路径 6403" d="M-5519.521-183.189l-4.233-4.233,1.414-1.414,2.84,2.84,7.48-7.251,1.392,1.436Z" transform="translate(5576.547 431.028)" fill="#377CFD"/>
      <path id="路径_6404" data-name="路径 6404" d="M16,0A16,16,0,1,1,0,16,16,16,0,0,1,16,0Z" transform="translate(181 226)" fill="#377CFD"/>
      <text id="_2-3" data-name="2" transform="translate(193 248)" fill="#fff" font-size="16" font-family="MicrosoftYaHeiUI, Microsoft YaHei UI"><tspan x="0" y="0">2</tspan></text>
      <path id="路径_6404-2" data-name="路径 6404" d="M16,0A16,16,0,1,1,0,16,16,16,0,0,1,16,0Z" transform="translate(319 226)" fill="#fff"/>
      <path id="路径_6404_-_轮廓" data-name="路径 6404 - 轮廓" d="M16,1A15,15,0,0,0,5.393,26.607,15,15,0,1,0,26.607,5.393,14.9,14.9,0,0,0,16,1m0-1A16,16,0,1,1,0,16,16,16,0,0,1,16,0Z" transform="translate(319 226)" fill="rgba(0,0,0,0.24)"/>
      <text id="_3-3" data-name="3" transform="translate(331 248)" fill="rgba(0,0,0,0.24)" font-size="16" font-family="MicrosoftYaHeiUI, Microsoft YaHei UI"><tspan x="0" y="0">3</tspan></text>
      <rect id="矩形_4420" data-name="矩形 4420" width="98" height="2" transform="translate(79 240)" fill="#377CFD"/>
      <rect id="矩形_4421" data-name="矩形 4421" width="98" height="2" transform="translate(217 240)" fill="rgba(0,0,0,0.24)"/>
      <text id="步骤一-4" data-name="步骤一" transform="translate(38 388)" fill="rgba(0,0,0,0.8)" font-size="14" font-family="MicrosoftYaHeiUI, Microsoft YaHei UI"><tspan x="0" y="0">步骤一</tspan></text>
      <text id="步骤二-4" data-name="步骤二" transform="translate(176 388)" fill="rgba(0,0,0,0.8)" font-size="14" font-family="MicrosoftYaHeiUI, Microsoft YaHei UI"><tspan x="0" y="0">步骤二</tspan></text>
      <text id="步骤三-4" data-name="步骤三" transform="translate(314 388)" fill="rgba(0,0,0,0.24)" font-size="14" font-family="MicrosoftYaHeiUI, Microsoft YaHei UI"><tspan x="0" y="0">步骤三</tspan></text>
      <circle id="椭圆_458-8" data-name="椭圆 458" cx="16" cy="16" r="16" transform="translate(43 332)" fill="rgba(55,124,253,0.1)"/>
      <path id="椭圆_458_-_轮廓-6" data-name="椭圆 458 - 轮廓" d="M16,1A15,15,0,0,0,5.393,26.607,15,15,0,1,0,26.607,5.393,14.9,14.9,0,0,0,16,1m0-1A16,16,0,1,1,0,16,16,16,0,0,1,16,0Z" transform="translate(43 332)" fill="#377CFD"/>
      <path id="路径_6403-4" data-name="路径 6403" d="M-5519.521-183.189l-4.233-4.233,1.414-1.414,2.84,2.84,7.48-7.251,1.392,1.436Z" transform="translate(5576.547 537.028)" fill="#377CFD"/>
      <path id="路径_6404-3" data-name="路径 6404" d="M16,0A16,16,0,1,1,0,16,16,16,0,0,1,16,0Z" transform="translate(181 332)" fill="#377CFD"/>
      <text id="_2-4" data-name="2" transform="translate(193 354)" fill="#fff" font-size="16" font-family="MicrosoftYaHeiUI, Microsoft YaHei UI"><tspan x="0" y="0">2</tspan></text>
      <path id="路径_6404-4" data-name="路径 6404" d="M16,0A16,16,0,1,1,0,16,16,16,0,0,1,16,0Z" transform="translate(319 332)" fill="#fff"/>
      <path id="路径_6404_-_轮廓-2" data-name="路径 6404 - 轮廓" d="M16,1A15,15,0,0,0,5.393,26.607,15,15,0,1,0,26.607,5.393,14.9,14.9,0,0,0,16,1m0-1A16,16,0,1,1,0,16,16,16,0,0,1,16,0Z" transform="translate(319 332)" fill="rgba(0,0,0,0.24)"/>
      <text id="_3-4" data-name="3" transform="translate(331 354)" fill="rgba(0,0,0,0.24)" font-size="16" font-family="MicrosoftYaHeiUI, Microsoft YaHei UI"><tspan x="0" y="0">3</tspan></text>
      <rect id="矩形_4420-2" data-name="矩形 4420" width="98" height="2" transform="translate(79 346)" fill="#377CFD"/>
      <rect id="矩形_4421-2" data-name="矩形 4421" width="98" height="2" transform="translate(217 346)" fill="rgba(0,0,0,0.24)"/>
      <text id="_2021-08-27-4" data-name="2021-08-27" transform="translate(28 407)" fill="rgba(0,0,0,0.48)" font-size="12" font-family="MicrosoftYaHeiUI, Microsoft YaHei UI"><tspan x="0" y="0">2021-08-27</tspan></text>
      <text id="_2021-08-27-5" data-name="2021-08-27" transform="translate(166 407)" fill="rgba(0,0,0,0.48)" font-size="12" font-family="MicrosoftYaHeiUI, Microsoft YaHei UI"><tspan x="0" y="0">2021-08-27</tspan></text>
      <text id="_2021-08-27-6" data-name="2021-08-27" transform="translate(304 407)" fill="rgba(0,0,0,0.24)" font-size="12" font-family="MicrosoftYaHeiUI, Microsoft YaHei UI"><tspan x="0" y="0">2021-08-27</tspan></text>
    </g>
  </g>
</svg>
