<svg xmlns="http://www.w3.org/2000/svg" xmlns:xlink="http://www.w3.org/1999/xlink" width="380" height="360" viewBox="0 0 380 360">
  <defs>
    <filter id="路径_8285" x="62" y="53" width="256" height="297" filterUnits="userSpaceOnUse">
      <feOffset dy="3" input="SourceAlpha"/>
      <feGaussianBlur stdDeviation="3" result="blur"/>
      <feFlood flood-opacity="0.02"/>
      <feComposite operator="in" in2="blur"/>
      <feComposite in="SourceGraphic"/>
    </filter>
    <clipPath id="clip-u-4">
      <rect width="380" height="360"/>
    </clipPath>
  </defs>
  <g id="u-4" clip-path="url(#clip-u-4)">
    <rect width="380" height="360" fill="rgba(255,255,255,0)"/>
    <g id="组_16115" data-name="组 16115" transform="translate(-90)">
      <g transform="matrix(1, 0, 0, 1, 90, 0)" filter="url(#路径_8285)">
        <g id="路径_8285-2" data-name="路径 8285" transform="translate(71 59)" fill="#fff">
          <path d="M 234 278.5 L 4 278.5 C 2.070107221603394 278.5 0.5 276.9299011230469 0.5 275 L 0.5 4 C 0.5 2.070107221603394 2.070107221603394 0.5 4 0.5 L 234 0.5 C 235.9298858642578 0.5 237.5 2.070107221603394 237.5 4 L 237.5 275 C 237.5 276.9299011230469 235.9298858642578 278.5 234 278.5 Z" stroke="none"/>
          <path d="M 4 1 C 2.345779418945312 1 1 2.345794677734375 1 4 L 1 275 C 1 276.6542053222656 2.345779418945312 278 4 278 L 234 278 C 235.6542205810547 278 237 276.6542053222656 237 275 L 237 4 C 237 2.345794677734375 235.6542205810547 1 234 1 L 4 1 M 4 0 L 234 0 C 236.2091369628906 0 238 1.790863037109375 238 4 L 238 275 C 238 277.2091369628906 236.2091369628906 279 234 279 L 4 279 C 1.790863037109375 279 0 277.2091369628906 0 275 L 0 4 C 0 1.790863037109375 1.790863037109375 0 4 0 Z" stroke="none" fill="#e4e7ed"/>
        </g>
      </g>
      <g id="路径_8226" data-name="路径 8226" transform="translate(161 23)" fill="none">
        <path d="M4,0H234a4,4,0,0,1,4,4V28a4,4,0,0,1-4,4H4a4,4,0,0,1-4-4V4A4,4,0,0,1,4,0Z" stroke="none"/>
        <path d="M 4 1 C 2.345779418945312 1 1 2.345781326293945 1 4 L 1 28 C 1 29.65421867370605 2.345779418945312 31 4 31 L 234 31 C 235.6542205810547 31 237 29.65421867370605 237 28 L 237 4 C 237 2.345781326293945 235.6542205810547 1 234 1 L 4 1 M 4 0 L 234 0 C 236.2091217041016 0 238 1.790874481201172 238 4 L 238 28 C 238 30.20912551879883 236.2091217041016 32 234 32 L 4 32 C 1.790847778320312 32 0 30.20912551879883 0 28 L 0 4 C 0 1.790874481201172 1.790847778320312 0 4 0 Z" stroke="none" fill="#377CFD"/>
      </g>
      <path id="路径_8230" data-name="路径 8230" d="M5.831-7.813a1.72,1.72,0,0,0-.54-1.343,2.108,2.108,0,0,0-1.47-.489A2.947,2.947,0,0,0,2.5-9.311a4.429,4.429,0,0,0-1.251.957v-1.3a3.643,3.643,0,0,1,1.179-.827,3.856,3.856,0,0,1,1.548-.287A3.373,3.373,0,0,1,6.282-10a2.63,2.63,0,0,1,.875,2.082,3.726,3.726,0,0,1-.537,2.023,6.458,6.458,0,0,1-1.835,1.75A22.013,22.013,0,0,0,3.011-2.83a2.588,2.588,0,0,0-.625.759,1.988,1.988,0,0,0-.178.882H7.472V0H.813V-.526a4.287,4.287,0,0,1,.25-1.555,3.87,3.87,0,0,1,.824-1.244A12.075,12.075,0,0,1,3.678-4.778a6.96,6.96,0,0,0,1.7-1.535A2.581,2.581,0,0,0,5.831-7.813ZM8.825-5.086a7.877,7.877,0,0,1,.93-4.242,3.013,3.013,0,0,1,2.693-1.439q3.363,0,3.363,5.428a7.381,7.381,0,0,1-.947,4.1A3.016,3.016,0,0,1,12.209.178a2.823,2.823,0,0,1-2.5-1.347A7.151,7.151,0,0,1,8.825-5.086Zm1.367-.062q0,4.218,2.14,4.218,2.105,0,2.105-4.286,0-4.437-2.064-4.437Q10.192-9.652,10.192-5.147ZM22.251-7.813a1.72,1.72,0,0,0-.54-1.343,2.108,2.108,0,0,0-1.47-.489,2.947,2.947,0,0,0-1.326.335,4.429,4.429,0,0,0-1.251.957v-1.3a3.643,3.643,0,0,1,1.179-.827,3.856,3.856,0,0,1,1.548-.287A3.373,3.373,0,0,1,22.7-10a2.63,2.63,0,0,1,.875,2.082,3.726,3.726,0,0,1-.537,2.023,6.459,6.459,0,0,1-1.835,1.75A22.013,22.013,0,0,0,19.431-2.83a2.588,2.588,0,0,0-.625.759,1.988,1.988,0,0,0-.178.882h5.264V0H17.233V-.526a4.287,4.287,0,0,1,.25-1.555,3.87,3.87,0,0,1,.824-1.244A12.075,12.075,0,0,1,20.1-4.778a6.96,6.96,0,0,0,1.7-1.535A2.581,2.581,0,0,0,22.251-7.813ZM28.526,0V-9.058a4.5,4.5,0,0,1-1.063.7,6.336,6.336,0,0,1-1.384.547V-9.119a8.937,8.937,0,0,0,1.8-.742,7.847,7.847,0,0,0,1.47-.96h.506V0Zm9.406-3.678H33.906V-4.71h4.026Zm8.449-6.084a39.614,39.614,0,0,0-2.622,5.39A18.555,18.555,0,0,0,42.581,0H41.187a18.682,18.682,0,0,1,1.2-4.259,39.871,39.871,0,0,1,2.522-5.147h-5.25v-1.183h6.727ZM52.2-3.678H48.173V-4.71H52.2ZM57.06,0V-9.058a4.5,4.5,0,0,1-1.063.7,6.336,6.336,0,0,1-1.384.547V-9.119a8.937,8.937,0,0,0,1.8-.742,7.847,7.847,0,0,0,1.47-.96h.506V0Zm5.578-1.436a3.706,3.706,0,0,0,1.887.506,2.534,2.534,0,0,0,2.2-1.121,5.52,5.52,0,0,0,.783-3.186l-.014.007-.014-.007A2.438,2.438,0,0,1,65.14-3.91a2.924,2.924,0,0,1-2.208-.916,3.3,3.3,0,0,1-.875-2.379,3.554,3.554,0,0,1,.957-2.56,3.278,3.278,0,0,1,2.481-1,2.866,2.866,0,0,1,2.468,1.241,6.167,6.167,0,0,1,.889,3.613A7.584,7.584,0,0,1,67.7-1.4,3.712,3.712,0,0,1,64.524.178a4.423,4.423,0,0,1-1.887-.362Zm.772-5.94a2.481,2.481,0,0,0,.547,1.692,1.9,1.9,0,0,0,1.511.625,1.9,1.9,0,0,0,1.4-.571,1.891,1.891,0,0,0,.567-1.384,3.053,3.053,0,0,0-.564-1.89,1.773,1.773,0,0,0-1.487-.749A1.789,1.789,0,0,0,63.971-9,2.4,2.4,0,0,0,63.41-7.376Z" transform="translate(173 44)" fill="rgba(0,0,0,0.8)"/>
      <path id="路径_1302" data-name="路径 1302" d="M.964,4.821v7.714H12.536V1.929H10.607v.482a.482.482,0,1,1-.964,0V1.929H3.857v.482a.482.482,0,0,1-.964,0V1.929H.964V3.857H12.536v.964ZM3.857.964H9.643V.482a.482.482,0,0,1,.964,0V.964h2.411a.464.464,0,0,1,.482.482V13.018a.464.464,0,0,1-.482.482H.482A.464.464,0,0,1,0,13.018V1.446A.464.464,0,0,1,.482.964H2.893V.482a.482.482,0,0,1,.964,0ZM3.375,6.75h.964a.482.482,0,0,1,0,.964H3.375a.482.482,0,1,1,0-.964Zm0,2.893h.964a.482.482,0,0,1,0,.964H3.375a.482.482,0,1,1,0-.964ZM6.268,6.75h.964a.482.482,0,1,1,0,.964H6.268a.482.482,0,0,1,0-.964Zm0,2.893h.964a.482.482,0,0,1,0,.964H6.268a.482.482,0,0,1,0-.964ZM9.161,6.75h.964a.482.482,0,1,1,0,.964H9.161a.482.482,0,1,1,0-.964Zm0,2.893h.964a.482.482,0,1,1,0,.964H9.161a.482.482,0,1,1,0-.964Z" transform="translate(375.75 31.887)" fill="#c1c4cb" fill-rule="evenodd"/>
      <path id="路径_8229" data-name="路径 8229" d="M0,0H236V32H0Z" transform="translate(162 60)" fill="none"/>
      <path id="路径_1737" data-name="路径 1737" d="M12682.459,7014.777l-4.488,4.243,4.488,3.678" transform="translate(-12477 -6943)" fill="none" stroke="#9699ac" stroke-width="1.5"/>
      <path id="路径_1738" data-name="路径 1738" d="M12682.459,7014.777l-4.488,4.243,4.488,3.678" transform="translate(-12494 -6943)" fill="none" stroke="#9699ac" stroke-width="1.5"/>
      <path id="路径_1739" data-name="路径 1739" d="M12682.459,7014.777l-4.488,4.243,4.488,3.678" transform="translate(-12500 -6943)" fill="none" stroke="#9699ac" stroke-width="1.5"/>
      <path id="路径_1737-2" data-name="路径 1737" d="M4.488,0,0,4.243,4.488,7.921" transform="translate(361.383 79.698) rotate(180)" fill="none" stroke="#9699ac" stroke-width="1.5"/>
      <path id="路径_1738-2" data-name="路径 1738" d="M4.488,0,0,4.243,4.488,7.921" transform="translate(378.383 79.698) rotate(180)" fill="none" stroke="#9699ac" stroke-width="1.5"/>
      <path id="路径_1739-2" data-name="路径 1739" d="M4.488,0,0,4.243,4.488,7.921" transform="translate(384.383 79.698) rotate(180)" fill="none" stroke="#9699ac" stroke-width="1.5"/>
      <path id="路径_8233" data-name="路径 8233" d="M5.831-7.813a1.72,1.72,0,0,0-.54-1.343,2.108,2.108,0,0,0-1.47-.489A2.947,2.947,0,0,0,2.5-9.311a4.429,4.429,0,0,0-1.251.957v-1.3a3.643,3.643,0,0,1,1.179-.827,3.856,3.856,0,0,1,1.548-.287A3.373,3.373,0,0,1,6.282-10a2.63,2.63,0,0,1,.875,2.082,3.726,3.726,0,0,1-.537,2.023,6.458,6.458,0,0,1-1.835,1.75A22.013,22.013,0,0,0,3.011-2.83a2.588,2.588,0,0,0-.625.759,1.988,1.988,0,0,0-.178.882H7.472V0H.813V-.526a4.287,4.287,0,0,1,.25-1.555,3.87,3.87,0,0,1,.824-1.244A12.075,12.075,0,0,1,3.678-4.778a6.96,6.96,0,0,0,1.7-1.535A2.581,2.581,0,0,0,5.831-7.813ZM8.825-5.086a7.877,7.877,0,0,1,.93-4.242,3.013,3.013,0,0,1,2.693-1.439q3.363,0,3.363,5.428a7.381,7.381,0,0,1-.947,4.1A3.016,3.016,0,0,1,12.209.178a2.823,2.823,0,0,1-2.5-1.347A7.151,7.151,0,0,1,8.825-5.086Zm1.367-.062q0,4.218,2.14,4.218,2.105,0,2.105-4.286,0-4.437-2.064-4.437Q10.192-9.652,10.192-5.147ZM22.251-7.813a1.72,1.72,0,0,0-.54-1.343,2.108,2.108,0,0,0-1.47-.489,2.947,2.947,0,0,0-1.326.335,4.429,4.429,0,0,0-1.251.957v-1.3a3.643,3.643,0,0,1,1.179-.827,3.856,3.856,0,0,1,1.548-.287A3.373,3.373,0,0,1,22.7-10a2.63,2.63,0,0,1,.875,2.082,3.726,3.726,0,0,1-.537,2.023,6.459,6.459,0,0,1-1.835,1.75A22.013,22.013,0,0,0,19.431-2.83a2.588,2.588,0,0,0-.625.759,1.988,1.988,0,0,0-.178.882h5.264V0H17.233V-.526a4.287,4.287,0,0,1,.25-1.555,3.87,3.87,0,0,1,.824-1.244A12.075,12.075,0,0,1,20.1-4.778a6.96,6.96,0,0,0,1.7-1.535A2.581,2.581,0,0,0,22.251-7.813ZM28.526,0V-9.058a4.5,4.5,0,0,1-1.063.7,6.336,6.336,0,0,1-1.384.547V-9.119a8.937,8.937,0,0,0,1.8-.742,7.847,7.847,0,0,0,1.47-.96h.506V0ZM33.1-2.8h2.2v-3.91h4.84V-9.14h-4.02a20.922,20.922,0,0,1-2.064,3.063,7.116,7.116,0,0,0-.848-.766,14.851,14.851,0,0,0,2.912-4.908l1.121.314q-.287.677-.6,1.313h9.406v.984h-4.8v2.434h4.566v.957H41.248V-2.8h5.414v.984H41.248V1.88H40.141V-1.812H33.1Zm3.281,0h3.76V-5.749h-3.76ZM54.325-9.762A39.614,39.614,0,0,0,51.7-4.372,18.555,18.555,0,0,0,50.524,0H49.13a18.682,18.682,0,0,1,1.2-4.259,39.871,39.871,0,0,1,2.522-5.147H47.6v-1.183h6.727ZM58.557-2.81A9.044,9.044,0,0,1,56.5,1.962a11.938,11.938,0,0,0-.943-.82,7.342,7.342,0,0,0,1.777-3.418,20.255,20.255,0,0,0,.314-4.047v-4.73H66.78V-.39q0,2.023-1.928,2.023-.807,0-2.078-.027-.068-.492-.205-1.148Q63.827.54,64.552.54A.967.967,0,0,0,65.659-.54V-2.81Zm.109-1h6.993V-6.433H58.769Q58.769-5.065,58.666-3.808Zm.1-6.221v2.6h6.891v-2.6Z" transform="translate(244 81)" fill="#333b44"/>
      <path id="路径_8234" data-name="路径 8234" d="M0,0H236V1H0Z" transform="translate(162 91)" fill="rgba(0,0,0,0.08)"/>
      <path id="路径_8261" data-name="路径 8261" d="M3.41,5.9H16.686V6.993H3.41Zm5.2-2.885,1-.561q.656.93,1.586,2.475l-1.121.6A24.6,24.6,0,0,0,8.605,3.015ZM7.512,8.606l1.176.615a43.307,43.307,0,0,1-4.293,6.316q-.437-.383-1.025-.861A26.057,26.057,0,0,0,7.512,8.606Zm3.705.793.943-.7q2.242,2.8,4.348,5.838l-1.148.848Q13.008,11.683,11.217,9.4Z" transform="translate(365 112)" fill="#9699ac"/>
      <path id="路径_8262" data-name="路径 8262" d="M3.273,14.075H6.459l.793-5.359H4.135V7.677H7.416l.492-3.322H3.766V3.315H16.152V4.354h-7.1L8.564,7.677H14.58v6.4h2.215V15.1H3.273ZM13.432,8.716H8.414l-.807,5.359h5.824Z" transform="translate(334 112)" fill="#9699ac"/>
      <path id="路径_8235" data-name="路径 8235" d="M4.258,3.739H15.715V4.915H4.258Zm-.848,9.9H16.617v1.148H3.41ZM4.873,8.429H15.1V9.591H4.873Z" transform="translate(271 112)" fill="#9699ac"/>
      <path id="路径_8236" data-name="路径 8236" d="M4.271,3.37H16.043V15.757H14.895v-.82H5.42v.82H4.271Zm8.846,6.809q.643,0,1.6-.027l-.205,1.121H12.939q-1.818,0-1.818-1.654V4.464H9.166a18.969,18.969,0,0,1-.451,5.072,5.261,5.261,0,0,1-2.406,2.789,9.362,9.362,0,0,0-.848-.875,4.421,4.421,0,0,0,2.2-2.393,16.9,16.9,0,0,0,.383-4.594H5.42V13.87h9.475V4.464H12.242v5Q12.242,10.179,13.117,10.179Z" transform="translate(302 112)" fill="#9699ac"/>
      <path id="路径_8237" data-name="路径 8237" d="M4.422,4.122H15.578V5.3H4.422ZM3.41,13.077H16.549v1.148H3.41Z" transform="translate(240 112)" fill="#9699ac"/>
      <path id="路径_8238" data-name="路径 8238" d="M3.219,8.087h13.59v1.2H3.219Z" transform="translate(208 112)" fill="#9699ac"/>
      <path id="路径_8263" data-name="路径 8263" d="M12.688,4.292V3.242h-4.9L6.864,8.394l1.022.056a2.93,2.93,0,0,1,.805-.679,2.071,2.071,0,0,1,1.043-.259,2.413,2.413,0,0,1,.917.168,2.059,2.059,0,0,1,.707.469,2.1,2.1,0,0,1,.455.714,2.465,2.465,0,0,1,.161.9,2.883,2.883,0,0,1-.168,1.029,2.112,2.112,0,0,1-.455.735,1.851,1.851,0,0,1-.672.441,2.238,2.238,0,0,1-.805.147,2.412,2.412,0,0,1-.819-.133,1.925,1.925,0,0,1-.644-.378,1.867,1.867,0,0,1-.434-.574,1.915,1.915,0,0,1-.189-.707H6.6a2.924,2.924,0,0,0,.266,1.2,2.543,2.543,0,0,0,.686.889,3.1,3.1,0,0,0,1,.546,3.805,3.805,0,0,0,1.211.189,3.906,3.906,0,0,0,1.519-.273,3.119,3.119,0,0,0,1.085-.735,3.059,3.059,0,0,0,.651-1.057,3.549,3.549,0,0,0,.217-1.225,4.039,4.039,0,0,0-.252-1.491A3.035,3.035,0,0,0,12.3,7.309a2.763,2.763,0,0,0-1.022-.637,3.677,3.677,0,0,0-1.246-.21,3.118,3.118,0,0,0-1.015.175,1.915,1.915,0,0,0-.833.539l-.028-.028.532-2.856Z" transform="translate(365 306)" fill="#c1c4cb"/>
      <path id="路径_8264" data-name="路径 8264" d="M10.854,9.626H7.522l3.3-4.858h.028Zm1.12,0V3.074h-.952L6.5,9.528v1.148h4.354V13h1.12V10.676h1.344V9.626Z" transform="translate(334 306)" fill="#c1c4cb"/>
      <path id="路径_8265" data-name="路径 8265" d="M6.724,6.588h1.19A3.368,3.368,0,0,1,8.005,5.7a2.368,2.368,0,0,1,.343-.791,1.865,1.865,0,0,1,.609-.567,1.731,1.731,0,0,1,.889-.217,2.174,2.174,0,0,1,.742.126,1.764,1.764,0,0,1,1.022.931,1.713,1.713,0,0,1,.154.735,2.382,2.382,0,0,1-.161.91,2.39,2.39,0,0,1-.476.728,4.9,4.9,0,0,1-.791.665q-.476.329-1.106.721-.518.308-.994.658a4.688,4.688,0,0,0-.854.812,4.024,4.024,0,0,0-.623,1.085A5.271,5.271,0,0,0,6.444,13h6.482V11.95H7.83a1.881,1.881,0,0,1,.357-.819,3.848,3.848,0,0,1,.658-.665,7.29,7.29,0,0,1,.847-.581q.462-.273.924-.553t.9-.616a4.531,4.531,0,0,0,.77-.721,3.312,3.312,0,0,0,.539-.9,3.093,3.093,0,0,0,.2-1.162A2.917,2.917,0,0,0,12.779,4.7a2.546,2.546,0,0,0-.665-.889,2.942,2.942,0,0,0-.987-.546,3.805,3.805,0,0,0-1.211-.189,3.5,3.5,0,0,0-1.4.266,2.858,2.858,0,0,0-1.029.735,2.967,2.967,0,0,0-.609,1.113A4.014,4.014,0,0,0,6.724,6.588Z" transform="translate(271 306)" fill="#c1c4cb"/>
      <path id="路径_8266" data-name="路径 8266" d="M9.16,7.33V8.338A5.763,5.763,0,0,1,9.874,8.3a2.808,2.808,0,0,1,.833.119,1.767,1.767,0,0,1,1.113.966,1.9,1.9,0,0,1,.168.819,1.787,1.787,0,0,1-.644,1.407,2.127,2.127,0,0,1-.686.378,2.553,2.553,0,0,1-.826.133,1.953,1.953,0,0,1-1.554-.609,2.419,2.419,0,0,1-.56-1.575H6.528a3.623,3.623,0,0,0,.217,1.372,2.726,2.726,0,0,0,.665,1.015,2.819,2.819,0,0,0,1.05.623,4.233,4.233,0,0,0,1.372.21,4.534,4.534,0,0,0,1.323-.189A3.124,3.124,0,0,0,12.24,12.4a2.735,2.735,0,0,0,.735-.945,2.983,2.983,0,0,0,.273-1.309,2.725,2.725,0,0,0-.441-1.554,2.068,2.068,0,0,0-1.351-.854V7.708a2.507,2.507,0,0,0,.98-.784,1.919,1.919,0,0,0,.392-1.19,2.834,2.834,0,0,0-.231-1.19,2.209,2.209,0,0,0-.637-.826A2.77,2.77,0,0,0,11,3.235a4.266,4.266,0,0,0-1.2-.161,3.359,3.359,0,0,0-1.309.238,2.607,2.607,0,0,0-.945.658,2.9,2.9,0,0,0-.581,1.008,4.518,4.518,0,0,0-.231,1.3h1.19a2.993,2.993,0,0,1,.112-.826,1.975,1.975,0,0,1,.343-.686A1.669,1.669,0,0,1,8.971,4.3,1.871,1.871,0,0,1,9.8,4.124a1.967,1.967,0,0,1,1.26.4,1.434,1.434,0,0,1,.5,1.2,1.544,1.544,0,0,1-.154.7A1.48,1.48,0,0,1,11,6.931a1.837,1.837,0,0,1-.6.308,2.45,2.45,0,0,1-.721.105H9.286A.649.649,0,0,1,9.16,7.33Z" transform="translate(302 306)" fill="#c1c4cb"/>
      <path id="路径_8267" data-name="路径 8267" d="M11.092,13V3.074h-.91A2.182,2.182,0,0,1,9.818,4a1.963,1.963,0,0,1-.651.574,2.676,2.676,0,0,1-.861.287,6.128,6.128,0,0,1-.98.077v.952H9.9V13Z" transform="translate(240 306)" fill="#c1c4cb"/>
      <path id="路径_8268" data-name="路径 8268" d="M5.268,7.33V8.338A5.763,5.763,0,0,1,5.982,8.3a2.808,2.808,0,0,1,.833.119,1.767,1.767,0,0,1,1.113.966A1.9,1.9,0,0,1,8.1,10.2a1.787,1.787,0,0,1-.644,1.407,2.127,2.127,0,0,1-.686.378,2.553,2.553,0,0,1-.826.133,1.953,1.953,0,0,1-1.554-.609,2.419,2.419,0,0,1-.56-1.575H2.636a3.623,3.623,0,0,0,.217,1.372,2.726,2.726,0,0,0,.665,1.015,2.819,2.819,0,0,0,1.05.623,4.233,4.233,0,0,0,1.372.21,4.534,4.534,0,0,0,1.323-.189A3.124,3.124,0,0,0,8.348,12.4a2.735,2.735,0,0,0,.735-.945,2.983,2.983,0,0,0,.273-1.309A2.725,2.725,0,0,0,8.915,8.59a2.068,2.068,0,0,0-1.351-.854V7.708a2.507,2.507,0,0,0,.98-.784,1.919,1.919,0,0,0,.392-1.19A2.834,2.834,0,0,0,8.7,4.544a2.209,2.209,0,0,0-.637-.826,2.77,2.77,0,0,0-.959-.483,4.266,4.266,0,0,0-1.2-.161A3.359,3.359,0,0,0,4.6,3.312a2.607,2.607,0,0,0-.945.658,2.9,2.9,0,0,0-.581,1.008,4.518,4.518,0,0,0-.231,1.3h1.19a2.993,2.993,0,0,1,.112-.826,1.975,1.975,0,0,1,.343-.686A1.669,1.669,0,0,1,5.079,4.3a1.871,1.871,0,0,1,.833-.175,1.967,1.967,0,0,1,1.26.4,1.434,1.434,0,0,1,.5,1.2,1.544,1.544,0,0,1-.154.7,1.48,1.48,0,0,1-.413.511,1.837,1.837,0,0,1-.6.308,2.45,2.45,0,0,1-.721.105H5.394A.649.649,0,0,1,5.268,7.33ZM14.984,13V3.074h-.91A2.182,2.182,0,0,1,13.71,4a1.963,1.963,0,0,1-.651.574,2.676,2.676,0,0,1-.861.287,6.128,6.128,0,0,1-.98.077v.952h2.576V13Z" transform="translate(208 306)" fill="#333b44"/>
      <path id="路径_8269" data-name="路径 8269" d="M2.832,6.588h1.19A3.368,3.368,0,0,1,4.113,5.7a2.368,2.368,0,0,1,.343-.791,1.865,1.865,0,0,1,.609-.567,1.731,1.731,0,0,1,.889-.217A2.174,2.174,0,0,1,6.7,4.25a1.764,1.764,0,0,1,1.022.931,1.713,1.713,0,0,1,.154.735,2.382,2.382,0,0,1-.161.91,2.39,2.39,0,0,1-.476.728,4.9,4.9,0,0,1-.791.665q-.476.329-1.106.721-.518.308-.994.658a4.688,4.688,0,0,0-.854.812,4.024,4.024,0,0,0-.623,1.085A5.271,5.271,0,0,0,2.552,13H9.034V11.95h-5.1a1.881,1.881,0,0,1,.357-.819,3.848,3.848,0,0,1,.658-.665A7.29,7.29,0,0,1,5.8,9.885q.462-.273.924-.553t.9-.616a4.531,4.531,0,0,0,.77-.721,3.312,3.312,0,0,0,.539-.9,3.093,3.093,0,0,0,.2-1.162A2.917,2.917,0,0,0,8.887,4.7a2.546,2.546,0,0,0-.665-.889,2.942,2.942,0,0,0-.987-.546,3.805,3.805,0,0,0-1.211-.189,3.5,3.5,0,0,0-1.4.266,2.858,2.858,0,0,0-1.029.735,2.967,2.967,0,0,0-.609,1.113A4.014,4.014,0,0,0,2.832,6.588Zm9.044,4.018h-1.19a2.556,2.556,0,0,0,.938,1.918,3.318,3.318,0,0,0,2.072.63,2.824,2.824,0,0,0,2.625-1.379A7.821,7.821,0,0,0,17.14,7.82a8.333,8.333,0,0,0-.273-2.331,3.87,3.87,0,0,0-.735-1.449,2.528,2.528,0,0,0-1.078-.749,3.932,3.932,0,0,0-1.316-.217,3.548,3.548,0,0,0-1.316.238,3.064,3.064,0,0,0-1.036.665A2.953,2.953,0,0,0,10.714,5a3.494,3.494,0,0,0-.238,1.309,4.272,4.272,0,0,0,.2,1.344,2.842,2.842,0,0,0,.6,1.05,2.762,2.762,0,0,0,.987.679,3.469,3.469,0,0,0,1.344.245,2.6,2.6,0,0,0,2.3-1.372l.028.028a6.324,6.324,0,0,1-.6,2.891,1.775,1.775,0,0,1-1.638.945,1.983,1.983,0,0,1-1.232-.392A1.515,1.515,0,0,1,11.876,10.606Zm3.85-4.214a2.5,2.5,0,0,1-.14.833,2.09,2.09,0,0,1-.406.7,1.931,1.931,0,0,1-.644.476,1.975,1.975,0,0,1-.84.175,1.773,1.773,0,0,1-.791-.175,1.965,1.965,0,0,1-.616-.469,2.23,2.23,0,0,1-.406-.672,2.145,2.145,0,0,1-.147-.784,3.624,3.624,0,0,1,.1-.882,2.232,2.232,0,0,1,.336-.749,1.683,1.683,0,0,1,.6-.525,1.913,1.913,0,0,1,.9-.2,2.012,2.012,0,0,1,.882.182,1.855,1.855,0,0,1,.637.5,2.2,2.2,0,0,1,.392.721A2.771,2.771,0,0,1,15.726,6.392Z" transform="translate(365 274)" fill="#333b44"/>
      <path id="路径_8270" data-name="路径 8270" d="M2.832,6.588h1.19A3.368,3.368,0,0,1,4.113,5.7a2.368,2.368,0,0,1,.343-.791,1.865,1.865,0,0,1,.609-.567,1.731,1.731,0,0,1,.889-.217A2.174,2.174,0,0,1,6.7,4.25a1.764,1.764,0,0,1,1.022.931,1.713,1.713,0,0,1,.154.735,2.382,2.382,0,0,1-.161.91,2.39,2.39,0,0,1-.476.728,4.9,4.9,0,0,1-.791.665q-.476.329-1.106.721-.518.308-.994.658a4.688,4.688,0,0,0-.854.812,4.024,4.024,0,0,0-.623,1.085A5.271,5.271,0,0,0,2.552,13H9.034V11.95h-5.1a1.881,1.881,0,0,1,.357-.819,3.848,3.848,0,0,1,.658-.665A7.29,7.29,0,0,1,5.8,9.885q.462-.273.924-.553t.9-.616a4.531,4.531,0,0,0,.77-.721,3.312,3.312,0,0,0,.539-.9,3.093,3.093,0,0,0,.2-1.162A2.917,2.917,0,0,0,8.887,4.7a2.546,2.546,0,0,0-.665-.889,2.942,2.942,0,0,0-.987-.546,3.805,3.805,0,0,0-1.211-.189,3.5,3.5,0,0,0-1.4.266,2.858,2.858,0,0,0-1.029.735,2.967,2.967,0,0,0-.609,1.113A4.014,4.014,0,0,0,2.832,6.588ZM12.17,5.65a1.455,1.455,0,0,1,.14-.658,1.491,1.491,0,0,1,.371-.476,1.532,1.532,0,0,1,.553-.294,2.3,2.3,0,0,1,.672-.1,1.825,1.825,0,0,1,1.2.385,1.39,1.39,0,0,1,.469,1.141,1.509,1.509,0,0,1-.462,1.176,1.681,1.681,0,0,1-1.176.42,2.344,2.344,0,0,1-.686-.1,1.6,1.6,0,0,1-.56-.294,1.394,1.394,0,0,1-.378-.5A1.662,1.662,0,0,1,12.17,5.65Zm-1.26-.042a2.188,2.188,0,0,0,.378,1.239,2.141,2.141,0,0,0,1.008.819,2.518,2.518,0,0,0-1.288.945,2.637,2.637,0,0,0-.448,1.533,3.157,3.157,0,0,0,.259,1.323,2.628,2.628,0,0,0,.714.945,2.971,2.971,0,0,0,1.071.56,4.675,4.675,0,0,0,1.33.182,4.136,4.136,0,0,0,1.288-.2,2.957,2.957,0,0,0,1.043-.581,2.792,2.792,0,0,0,.7-.945,3.037,3.037,0,0,0,.259-1.288,2.707,2.707,0,0,0-.434-1.561,2.409,2.409,0,0,0-1.33-.917,2.3,2.3,0,0,0,1-.833,2.151,2.151,0,0,0,.371-1.225,2.668,2.668,0,0,0-.168-.931,2.232,2.232,0,0,0-.525-.812,2.589,2.589,0,0,0-.931-.574,3.929,3.929,0,0,0-1.386-.217,3.584,3.584,0,0,0-1.1.168,2.91,2.91,0,0,0-.931.49,2.3,2.3,0,0,0-.882,1.876Zm.91,4.592a1.854,1.854,0,0,1,.161-.784,1.784,1.784,0,0,1,.448-.6,1.992,1.992,0,0,1,.672-.385A2.491,2.491,0,0,1,13.92,8.3a2.154,2.154,0,0,1,1.442.546,1.85,1.85,0,0,1,.441.6,1.741,1.741,0,0,1,.161.749,1.969,1.969,0,0,1-.147.77,1.78,1.78,0,0,1-.42.609,1.989,1.989,0,0,1-.644.406,2.2,2.2,0,0,1-.819.147,2.249,2.249,0,0,1-1.519-.511A1.757,1.757,0,0,1,11.82,10.2Z" transform="translate(334 274)" fill="#333b44"/>
      <path id="路径_8271" data-name="路径 8271" d="M2.832,6.588h1.19A3.368,3.368,0,0,1,4.113,5.7a2.368,2.368,0,0,1,.343-.791,1.865,1.865,0,0,1,.609-.567,1.731,1.731,0,0,1,.889-.217A2.174,2.174,0,0,1,6.7,4.25a1.764,1.764,0,0,1,1.022.931,1.713,1.713,0,0,1,.154.735,2.382,2.382,0,0,1-.161.91,2.39,2.39,0,0,1-.476.728,4.9,4.9,0,0,1-.791.665q-.476.329-1.106.721-.518.308-.994.658a4.688,4.688,0,0,0-.854.812,4.024,4.024,0,0,0-.623,1.085A5.271,5.271,0,0,0,2.552,13H9.034V11.95h-5.1a1.881,1.881,0,0,1,.357-.819,3.848,3.848,0,0,1,.658-.665A7.29,7.29,0,0,1,5.8,9.885q.462-.273.924-.553t.9-.616a4.531,4.531,0,0,0,.77-.721,3.312,3.312,0,0,0,.539-.9,3.093,3.093,0,0,0,.2-1.162A2.917,2.917,0,0,0,8.887,4.7a2.546,2.546,0,0,0-.665-.889,2.942,2.942,0,0,0-.987-.546,3.805,3.805,0,0,0-1.211-.189,3.5,3.5,0,0,0-1.4.266,2.858,2.858,0,0,0-1.029.735,2.967,2.967,0,0,0-.609,1.113A4.014,4.014,0,0,0,2.832,6.588ZM15.8,5.608h1.19a2.748,2.748,0,0,0-.84-1.883,2.832,2.832,0,0,0-1.96-.651,3.214,3.214,0,0,0-1.764.448,3.344,3.344,0,0,0-1.12,1.19,5.392,5.392,0,0,0-.6,1.7,11.015,11.015,0,0,0-.175,1.981,11.58,11.58,0,0,0,.119,1.624,4.758,4.758,0,0,0,.483,1.54,3.057,3.057,0,0,0,1.036,1.148,3.156,3.156,0,0,0,1.778.448,3.534,3.534,0,0,0,1.575-.315,2.956,2.956,0,0,0,1.022-.8A3.044,3.044,0,0,0,17.1,10.97a4.123,4.123,0,0,0,.168-1.134,3.761,3.761,0,0,0-.21-1.274,3.085,3.085,0,0,0-.595-1.022,2.666,2.666,0,0,0-.952-.679,3.485,3.485,0,0,0-2.716.063,2.557,2.557,0,0,0-1.043.994l-.028-.028a10.057,10.057,0,0,1,.112-1.232,4.543,4.543,0,0,1,.357-1.225,2.531,2.531,0,0,1,.721-.938,1.887,1.887,0,0,1,1.218-.371,1.613,1.613,0,0,1,1.148.406A1.712,1.712,0,0,1,15.8,5.608ZM14,7.666a2.012,2.012,0,0,1,.882.182,1.862,1.862,0,0,1,.63.483,1.928,1.928,0,0,1,.371.714,3.146,3.146,0,0,1,.119.875,2.617,2.617,0,0,1-.133.833,2.207,2.207,0,0,1-.385.707,1.767,1.767,0,0,1-.623.483,2,2,0,0,1-.861.175,2.093,2.093,0,0,1-.875-.175,1.883,1.883,0,0,1-.644-.469,2.062,2.062,0,0,1-.4-.7,2.644,2.644,0,0,1-.14-.868,2.837,2.837,0,0,1,.133-.875,1.98,1.98,0,0,1,.4-.714,1.931,1.931,0,0,1,.644-.476A2.08,2.08,0,0,1,14,7.666Z" transform="translate(271 274)" fill="#333b44"/>
      <path id="路径_8272" data-name="路径 8272" d="M2.832,6.588h1.19A3.368,3.368,0,0,1,4.113,5.7a2.368,2.368,0,0,1,.343-.791,1.865,1.865,0,0,1,.609-.567,1.731,1.731,0,0,1,.889-.217A2.174,2.174,0,0,1,6.7,4.25a1.764,1.764,0,0,1,1.022.931,1.713,1.713,0,0,1,.154.735,2.382,2.382,0,0,1-.161.91,2.39,2.39,0,0,1-.476.728,4.9,4.9,0,0,1-.791.665q-.476.329-1.106.721-.518.308-.994.658a4.688,4.688,0,0,0-.854.812,4.024,4.024,0,0,0-.623,1.085A5.271,5.271,0,0,0,2.552,13H9.034V11.95h-5.1a1.881,1.881,0,0,1,.357-.819,3.848,3.848,0,0,1,.658-.665A7.29,7.29,0,0,1,5.8,9.885q.462-.273.924-.553t.9-.616a4.531,4.531,0,0,0,.77-.721,3.312,3.312,0,0,0,.539-.9,3.093,3.093,0,0,0,.2-1.162A2.917,2.917,0,0,0,8.887,4.7a2.546,2.546,0,0,0-.665-.889,2.942,2.942,0,0,0-.987-.546,3.805,3.805,0,0,0-1.211-.189,3.5,3.5,0,0,0-1.4.266,2.858,2.858,0,0,0-1.029.735,2.967,2.967,0,0,0-.609,1.113A4.014,4.014,0,0,0,2.832,6.588ZM17.126,4.264V3.242H10.7v1.12h5.208a15.15,15.15,0,0,0-1.463,1.806,14.492,14.492,0,0,0-1.2,2.079,14.2,14.2,0,0,0-.847,2.3A12.345,12.345,0,0,0,11.988,13h1.33a12.419,12.419,0,0,1,.392-2.394,15.968,15.968,0,0,1,.833-2.394,15.7,15.7,0,0,1,1.169-2.184A10.177,10.177,0,0,1,17.126,4.264Z" transform="translate(302 274)" fill="#333b44"/>
      <path id="路径_8273" data-name="路径 8273" d="M2.832,6.588h1.19A3.368,3.368,0,0,1,4.113,5.7a2.368,2.368,0,0,1,.343-.791,1.865,1.865,0,0,1,.609-.567,1.731,1.731,0,0,1,.889-.217A2.174,2.174,0,0,1,6.7,4.25a1.764,1.764,0,0,1,1.022.931,1.713,1.713,0,0,1,.154.735,2.382,2.382,0,0,1-.161.91,2.39,2.39,0,0,1-.476.728,4.9,4.9,0,0,1-.791.665q-.476.329-1.106.721-.518.308-.994.658a4.688,4.688,0,0,0-.854.812,4.024,4.024,0,0,0-.623,1.085A5.271,5.271,0,0,0,2.552,13H9.034V11.95h-5.1a1.881,1.881,0,0,1,.357-.819,3.848,3.848,0,0,1,.658-.665A7.29,7.29,0,0,1,5.8,9.885q.462-.273.924-.553t.9-.616a4.531,4.531,0,0,0,.77-.721,3.312,3.312,0,0,0,.539-.9,3.093,3.093,0,0,0,.2-1.162A2.917,2.917,0,0,0,8.887,4.7a2.546,2.546,0,0,0-.665-.889,2.942,2.942,0,0,0-.987-.546,3.805,3.805,0,0,0-1.211-.189,3.5,3.5,0,0,0-1.4.266,2.858,2.858,0,0,0-1.029.735,2.967,2.967,0,0,0-.609,1.113A4.014,4.014,0,0,0,2.832,6.588Zm13.748-2.3V3.242h-4.9l-.924,5.152,1.022.056a2.93,2.93,0,0,1,.805-.679,2.071,2.071,0,0,1,1.043-.259,2.413,2.413,0,0,1,.917.168,2.059,2.059,0,0,1,.707.469,2.1,2.1,0,0,1,.455.714,2.465,2.465,0,0,1,.161.9A2.883,2.883,0,0,1,15.7,10.8a2.112,2.112,0,0,1-.455.735,1.851,1.851,0,0,1-.672.441,2.238,2.238,0,0,1-.805.147,2.412,2.412,0,0,1-.819-.133,1.925,1.925,0,0,1-.644-.378,1.867,1.867,0,0,1-.434-.574,1.915,1.915,0,0,1-.189-.707H10.49a2.924,2.924,0,0,0,.266,1.2,2.543,2.543,0,0,0,.686.889,3.1,3.1,0,0,0,1,.546,3.805,3.805,0,0,0,1.211.189,3.906,3.906,0,0,0,1.519-.273,3.119,3.119,0,0,0,1.085-.735,3.059,3.059,0,0,0,.651-1.057,3.549,3.549,0,0,0,.217-1.225,4.039,4.039,0,0,0-.252-1.491,3.035,3.035,0,0,0-.686-1.064,2.763,2.763,0,0,0-1.022-.637,3.677,3.677,0,0,0-1.246-.21,3.118,3.118,0,0,0-1.015.175,1.915,1.915,0,0,0-.833.539l-.028-.028.532-2.856Z" transform="translate(240 274)" fill="#333b44"/>
      <path id="路径_8274" data-name="路径 8274" d="M2.832,6.588h1.19A3.368,3.368,0,0,1,4.113,5.7a2.368,2.368,0,0,1,.343-.791,1.865,1.865,0,0,1,.609-.567,1.731,1.731,0,0,1,.889-.217A2.174,2.174,0,0,1,6.7,4.25a1.764,1.764,0,0,1,1.022.931,1.713,1.713,0,0,1,.154.735,2.382,2.382,0,0,1-.161.91,2.39,2.39,0,0,1-.476.728,4.9,4.9,0,0,1-.791.665q-.476.329-1.106.721-.518.308-.994.658a4.688,4.688,0,0,0-.854.812,4.024,4.024,0,0,0-.623,1.085A5.271,5.271,0,0,0,2.552,13H9.034V11.95h-5.1a1.881,1.881,0,0,1,.357-.819,3.848,3.848,0,0,1,.658-.665A7.29,7.29,0,0,1,5.8,9.885q.462-.273.924-.553t.9-.616a4.531,4.531,0,0,0,.77-.721,3.312,3.312,0,0,0,.539-.9,3.093,3.093,0,0,0,.2-1.162A2.917,2.917,0,0,0,8.887,4.7a2.546,2.546,0,0,0-.665-.889,2.942,2.942,0,0,0-.987-.546,3.805,3.805,0,0,0-1.211-.189,3.5,3.5,0,0,0-1.4.266,2.858,2.858,0,0,0-1.029.735,2.967,2.967,0,0,0-.609,1.113A4.014,4.014,0,0,0,2.832,6.588ZM14.746,9.626H11.414l3.3-4.858h.028Zm1.12,0V3.074h-.952L10.392,9.528v1.148h4.354V13h1.12V10.676H17.21V9.626Z" transform="translate(208 274)" fill="#333b44"/>
      <path id="路径_8275" data-name="路径 8275" d="M2.832,6.588h1.19A3.368,3.368,0,0,1,4.113,5.7a2.368,2.368,0,0,1,.343-.791,1.865,1.865,0,0,1,.609-.567,1.731,1.731,0,0,1,.889-.217A2.174,2.174,0,0,1,6.7,4.25a1.764,1.764,0,0,1,1.022.931,1.713,1.713,0,0,1,.154.735,2.382,2.382,0,0,1-.161.91,2.39,2.39,0,0,1-.476.728,4.9,4.9,0,0,1-.791.665q-.476.329-1.106.721-.518.308-.994.658a4.688,4.688,0,0,0-.854.812,4.024,4.024,0,0,0-.623,1.085A5.271,5.271,0,0,0,2.552,13H9.034V11.95h-5.1a1.881,1.881,0,0,1,.357-.819,3.848,3.848,0,0,1,.658-.665A7.29,7.29,0,0,1,5.8,9.885q.462-.273.924-.553t.9-.616a4.531,4.531,0,0,0,.77-.721,3.312,3.312,0,0,0,.539-.9,3.093,3.093,0,0,0,.2-1.162A2.917,2.917,0,0,0,8.887,4.7a2.546,2.546,0,0,0-.665-.889,2.942,2.942,0,0,0-.987-.546,3.805,3.805,0,0,0-1.211-.189,3.5,3.5,0,0,0-1.4.266,2.858,2.858,0,0,0-1.029.735,2.967,2.967,0,0,0-.609,1.113A4.014,4.014,0,0,0,2.832,6.588Zm7.784,0h1.19A3.368,3.368,0,0,1,11.9,5.7a2.368,2.368,0,0,1,.343-.791,1.865,1.865,0,0,1,.609-.567,1.731,1.731,0,0,1,.889-.217,2.174,2.174,0,0,1,.742.126,1.764,1.764,0,0,1,1.022.931,1.713,1.713,0,0,1,.154.735,2.382,2.382,0,0,1-.161.91,2.39,2.39,0,0,1-.476.728,4.9,4.9,0,0,1-.791.665q-.476.329-1.106.721-.518.308-.994.658a4.688,4.688,0,0,0-.854.812,4.024,4.024,0,0,0-.623,1.085A5.271,5.271,0,0,0,10.336,13h6.482V11.95h-5.1a1.881,1.881,0,0,1,.357-.819,3.848,3.848,0,0,1,.658-.665,7.29,7.29,0,0,1,.847-.581q.462-.273.924-.553t.9-.616a4.531,4.531,0,0,0,.77-.721,3.312,3.312,0,0,0,.539-.9,3.093,3.093,0,0,0,.2-1.162A2.917,2.917,0,0,0,16.671,4.7a2.546,2.546,0,0,0-.665-.889,2.942,2.942,0,0,0-.987-.546,3.805,3.805,0,0,0-1.211-.189,3.5,3.5,0,0,0-1.4.266,2.858,2.858,0,0,0-1.029.735,2.967,2.967,0,0,0-.609,1.113A4.014,4.014,0,0,0,10.616,6.588Z" transform="translate(365 242)" fill="#333b44"/>
      <path id="路径_8276" data-name="路径 8276" d="M2.832,6.588h1.19A3.368,3.368,0,0,1,4.113,5.7a2.368,2.368,0,0,1,.343-.791,1.865,1.865,0,0,1,.609-.567,1.731,1.731,0,0,1,.889-.217A2.174,2.174,0,0,1,6.7,4.25a1.764,1.764,0,0,1,1.022.931,1.713,1.713,0,0,1,.154.735,2.382,2.382,0,0,1-.161.91,2.39,2.39,0,0,1-.476.728,4.9,4.9,0,0,1-.791.665q-.476.329-1.106.721-.518.308-.994.658a4.688,4.688,0,0,0-.854.812,4.024,4.024,0,0,0-.623,1.085A5.271,5.271,0,0,0,2.552,13H9.034V11.95h-5.1a1.881,1.881,0,0,1,.357-.819,3.848,3.848,0,0,1,.658-.665A7.29,7.29,0,0,1,5.8,9.885q.462-.273.924-.553t.9-.616a4.531,4.531,0,0,0,.77-.721,3.312,3.312,0,0,0,.539-.9,3.093,3.093,0,0,0,.2-1.162A2.917,2.917,0,0,0,8.887,4.7a2.546,2.546,0,0,0-.665-.889,2.942,2.942,0,0,0-.987-.546,3.805,3.805,0,0,0-1.211-.189,3.5,3.5,0,0,0-1.4.266,2.858,2.858,0,0,0-1.029.735,2.967,2.967,0,0,0-.609,1.113A4.014,4.014,0,0,0,2.832,6.588ZM14.984,13V3.074h-.91A2.182,2.182,0,0,1,13.71,4a1.963,1.963,0,0,1-.651.574,2.676,2.676,0,0,1-.861.287,6.128,6.128,0,0,1-.98.077v.952h2.576V13Z" transform="translate(334 242)" fill="#333b44"/>
      <path id="路径_8239" data-name="路径 8239" d="M2.832,6.588h1.19A3.368,3.368,0,0,1,4.113,5.7a2.368,2.368,0,0,1,.343-.791,1.865,1.865,0,0,1,.609-.567,1.731,1.731,0,0,1,.889-.217A2.174,2.174,0,0,1,6.7,4.25a1.764,1.764,0,0,1,1.022.931,1.713,1.713,0,0,1,.154.735,2.382,2.382,0,0,1-.161.91,2.39,2.39,0,0,1-.476.728,4.9,4.9,0,0,1-.791.665q-.476.329-1.106.721-.518.308-.994.658a4.688,4.688,0,0,0-.854.812,4.024,4.024,0,0,0-.623,1.085A5.271,5.271,0,0,0,2.552,13H9.034V11.95h-5.1a1.881,1.881,0,0,1,.357-.819,3.848,3.848,0,0,1,.658-.665A7.29,7.29,0,0,1,5.8,9.885q.462-.273.924-.553t.9-.616a4.531,4.531,0,0,0,.77-.721,3.312,3.312,0,0,0,.539-.9,3.093,3.093,0,0,0,.2-1.162A2.917,2.917,0,0,0,8.887,4.7a2.546,2.546,0,0,0-.665-.889,2.942,2.942,0,0,0-.987-.546,3.805,3.805,0,0,0-1.211-.189,3.5,3.5,0,0,0-1.4.266,2.858,2.858,0,0,0-1.029.735,2.967,2.967,0,0,0-.609,1.113A4.014,4.014,0,0,0,2.832,6.588Zm9.016,1.526q0-.364.007-.805a7.018,7.018,0,0,1,.07-.882,6.556,6.556,0,0,1,.182-.861,2.282,2.282,0,0,1,.35-.735,1.8,1.8,0,0,1,.581-.511,1.958,1.958,0,0,1,1.708,0,1.8,1.8,0,0,1,.581.511,2.282,2.282,0,0,1,.35.735,6.556,6.556,0,0,1,.182.861,7.019,7.019,0,0,1,.07.882q.007.441.007.805,0,.56-.035,1.253a5.275,5.275,0,0,1-.224,1.3,2.459,2.459,0,0,1-.609,1.029,1.59,1.59,0,0,1-1.176.42,1.59,1.59,0,0,1-1.176-.42,2.459,2.459,0,0,1-.609-1.029,5.275,5.275,0,0,1-.224-1.3Q11.848,8.674,11.848,8.114Zm-1.26.014q0,.546.028,1.134a7.717,7.717,0,0,0,.14,1.148,5.458,5.458,0,0,0,.322,1.057,2.846,2.846,0,0,0,.574.875,2.538,2.538,0,0,0,.917.6,3.621,3.621,0,0,0,1.323.217,3.608,3.608,0,0,0,1.33-.217,2.549,2.549,0,0,0,.91-.6,2.846,2.846,0,0,0,.574-.875,5.458,5.458,0,0,0,.322-1.057,7.717,7.717,0,0,0,.14-1.148q.028-.588.028-1.134t-.028-1.134a7.717,7.717,0,0,0-.14-1.148,5.629,5.629,0,0,0-.322-1.064,2.824,2.824,0,0,0-.574-.882,2.614,2.614,0,0,0-.917-.6,3.519,3.519,0,0,0-1.323-.224,3.519,3.519,0,0,0-1.323.224,2.614,2.614,0,0,0-.917.6,2.824,2.824,0,0,0-.574.882,5.629,5.629,0,0,0-.322,1.064,7.717,7.717,0,0,0-.14,1.148Q10.588,7.582,10.588,8.128Z" transform="translate(302 242)" fill="#333b44"/>
      <path id="路径_8240" data-name="路径 8240" d="M7.2,13V3.074H6.29A2.182,2.182,0,0,1,5.926,4a1.963,1.963,0,0,1-.651.574,2.676,2.676,0,0,1-.861.287,6.128,6.128,0,0,1-.98.077v.952H6.01V13Zm4.97-7.35a1.455,1.455,0,0,1,.14-.658,1.491,1.491,0,0,1,.371-.476,1.532,1.532,0,0,1,.553-.294,2.3,2.3,0,0,1,.672-.1,1.825,1.825,0,0,1,1.2.385,1.39,1.39,0,0,1,.469,1.141,1.509,1.509,0,0,1-.462,1.176,1.681,1.681,0,0,1-1.176.42,2.344,2.344,0,0,1-.686-.1,1.6,1.6,0,0,1-.56-.294,1.394,1.394,0,0,1-.378-.5A1.662,1.662,0,0,1,12.17,5.65Zm-1.26-.042a2.188,2.188,0,0,0,.378,1.239,2.141,2.141,0,0,0,1.008.819,2.518,2.518,0,0,0-1.288.945,2.637,2.637,0,0,0-.448,1.533,3.157,3.157,0,0,0,.259,1.323,2.628,2.628,0,0,0,.714.945,2.971,2.971,0,0,0,1.071.56,4.675,4.675,0,0,0,1.33.182,4.136,4.136,0,0,0,1.288-.2,2.957,2.957,0,0,0,1.043-.581,2.792,2.792,0,0,0,.7-.945,3.037,3.037,0,0,0,.259-1.288,2.707,2.707,0,0,0-.434-1.561,2.409,2.409,0,0,0-1.33-.917,2.3,2.3,0,0,0,1-.833,2.151,2.151,0,0,0,.371-1.225,2.668,2.668,0,0,0-.168-.931,2.232,2.232,0,0,0-.525-.812,2.589,2.589,0,0,0-.931-.574,3.929,3.929,0,0,0-1.386-.217,3.584,3.584,0,0,0-1.1.168,2.91,2.91,0,0,0-.931.49,2.3,2.3,0,0,0-.882,1.876Zm.91,4.592a1.854,1.854,0,0,1,.161-.784,1.784,1.784,0,0,1,.448-.6,1.992,1.992,0,0,1,.672-.385A2.491,2.491,0,0,1,13.92,8.3a2.154,2.154,0,0,1,1.442.546,1.85,1.85,0,0,1,.441.6,1.741,1.741,0,0,1,.161.749,1.969,1.969,0,0,1-.147.77,1.78,1.78,0,0,1-.42.609,1.989,1.989,0,0,1-.644.406,2.2,2.2,0,0,1-.819.147,2.249,2.249,0,0,1-1.519-.511A1.757,1.757,0,0,1,11.82,10.2Z" transform="translate(240 242)" fill="#333b44"/>
      <path id="路径_8241" data-name="路径 8241" d="M7.2,13V3.074H6.29A2.182,2.182,0,0,1,5.926,4a1.963,1.963,0,0,1-.651.574,2.676,2.676,0,0,1-.861.287,6.128,6.128,0,0,1-.98.077v.952H6.01V13Zm9.926-8.736V3.242H10.7v1.12h5.208a15.15,15.15,0,0,0-1.463,1.806,14.492,14.492,0,0,0-1.2,2.079,14.2,14.2,0,0,0-.847,2.3A12.345,12.345,0,0,0,11.988,13h1.33a12.419,12.419,0,0,1,.392-2.394,15.968,15.968,0,0,1,.833-2.394,15.7,15.7,0,0,1,1.169-2.184A10.177,10.177,0,0,1,17.126,4.264Z" transform="translate(208 242)" fill="#333b44"/>
      <path id="路径_8277" data-name="路径 8277" d="M7.2,13V3.074H6.29A2.182,2.182,0,0,1,5.926,4a1.963,1.963,0,0,1-.651.574,2.676,2.676,0,0,1-.861.287,6.128,6.128,0,0,1-.98.077v.952H6.01V13Zm9.38-8.708V3.242h-4.9l-.924,5.152,1.022.056a2.93,2.93,0,0,1,.805-.679,2.071,2.071,0,0,1,1.043-.259,2.413,2.413,0,0,1,.917.168,2.059,2.059,0,0,1,.707.469,2.1,2.1,0,0,1,.455.714,2.465,2.465,0,0,1,.161.9A2.883,2.883,0,0,1,15.7,10.8a2.112,2.112,0,0,1-.455.735,1.851,1.851,0,0,1-.672.441,2.238,2.238,0,0,1-.805.147,2.412,2.412,0,0,1-.819-.133,1.925,1.925,0,0,1-.644-.378,1.867,1.867,0,0,1-.434-.574,1.915,1.915,0,0,1-.189-.707H10.49a2.924,2.924,0,0,0,.266,1.2,2.543,2.543,0,0,0,.686.889,3.1,3.1,0,0,0,1,.546,3.805,3.805,0,0,0,1.211.189,3.906,3.906,0,0,0,1.519-.273,3.119,3.119,0,0,0,1.085-.735,3.059,3.059,0,0,0,.651-1.057,3.549,3.549,0,0,0,.217-1.225,4.039,4.039,0,0,0-.252-1.491,3.035,3.035,0,0,0-.686-1.064,2.763,2.763,0,0,0-1.022-.637,3.677,3.677,0,0,0-1.246-.21,3.118,3.118,0,0,0-1.015.175,1.915,1.915,0,0,0-.833.539l-.028-.028.532-2.856Z" transform="translate(365 210)" fill="#333b44"/>
      <path id="路径_8278" data-name="路径 8278" d="M7.2,13V3.074H6.29A2.182,2.182,0,0,1,5.926,4a1.963,1.963,0,0,1-.651.574,2.676,2.676,0,0,1-.861.287,6.128,6.128,0,0,1-.98.077v.952H6.01V13Zm7.546-3.374H11.414l3.3-4.858h.028Zm1.12,0V3.074h-.952L10.392,9.528v1.148h4.354V13h1.12V10.676H17.21V9.626Z" transform="translate(334 210)" fill="#333b44"/>
      <path id="路径_8242" data-name="路径 8242" d="M7.2,13V3.074H6.29A2.182,2.182,0,0,1,5.926,4a1.963,1.963,0,0,1-.651.574,2.676,2.676,0,0,1-.861.287,6.128,6.128,0,0,1-.98.077v.952H6.01V13Zm3.416-6.412h1.19A3.368,3.368,0,0,1,11.9,5.7a2.368,2.368,0,0,1,.343-.791,1.865,1.865,0,0,1,.609-.567,1.731,1.731,0,0,1,.889-.217,2.174,2.174,0,0,1,.742.126,1.764,1.764,0,0,1,1.022.931,1.713,1.713,0,0,1,.154.735,2.382,2.382,0,0,1-.161.91,2.39,2.39,0,0,1-.476.728,4.9,4.9,0,0,1-.791.665q-.476.329-1.106.721-.518.308-.994.658a4.688,4.688,0,0,0-.854.812,4.024,4.024,0,0,0-.623,1.085A5.271,5.271,0,0,0,10.336,13h6.482V11.95h-5.1a1.881,1.881,0,0,1,.357-.819,3.848,3.848,0,0,1,.658-.665,7.29,7.29,0,0,1,.847-.581q.462-.273.924-.553t.9-.616a4.531,4.531,0,0,0,.77-.721,3.312,3.312,0,0,0,.539-.9,3.093,3.093,0,0,0,.2-1.162A2.917,2.917,0,0,0,16.671,4.7a2.546,2.546,0,0,0-.665-.889,2.942,2.942,0,0,0-.987-.546,3.805,3.805,0,0,0-1.211-.189,3.5,3.5,0,0,0-1.4.266,2.858,2.858,0,0,0-1.029.735,2.967,2.967,0,0,0-.609,1.113A4.014,4.014,0,0,0,10.616,6.588Z" transform="translate(271 210)" fill="#333b44"/>
      <path id="路径_8243" data-name="路径 8243" d="M7.2,13V3.074H6.29A2.182,2.182,0,0,1,5.926,4a1.963,1.963,0,0,1-.651.574,2.676,2.676,0,0,1-.861.287,6.128,6.128,0,0,1-.98.077v.952H6.01V13Zm5.852-5.67V8.338a5.763,5.763,0,0,1,.714-.042,2.808,2.808,0,0,1,.833.119,1.767,1.767,0,0,1,1.113.966,1.9,1.9,0,0,1,.168.819,1.787,1.787,0,0,1-.644,1.407,2.127,2.127,0,0,1-.686.378,2.553,2.553,0,0,1-.826.133,1.953,1.953,0,0,1-1.554-.609,2.419,2.419,0,0,1-.56-1.575H10.42a3.623,3.623,0,0,0,.217,1.372,2.726,2.726,0,0,0,.665,1.015,2.819,2.819,0,0,0,1.05.623,4.233,4.233,0,0,0,1.372.21,4.534,4.534,0,0,0,1.323-.189,3.124,3.124,0,0,0,1.085-.567,2.735,2.735,0,0,0,.735-.945,2.983,2.983,0,0,0,.273-1.309A2.725,2.725,0,0,0,16.7,8.59a2.068,2.068,0,0,0-1.351-.854V7.708a2.507,2.507,0,0,0,.98-.784,1.919,1.919,0,0,0,.392-1.19,2.834,2.834,0,0,0-.231-1.19,2.209,2.209,0,0,0-.637-.826,2.77,2.77,0,0,0-.959-.483,4.266,4.266,0,0,0-1.2-.161,3.359,3.359,0,0,0-1.309.238,2.607,2.607,0,0,0-.945.658,2.9,2.9,0,0,0-.581,1.008,4.518,4.518,0,0,0-.231,1.3h1.19a2.993,2.993,0,0,1,.112-.826,1.975,1.975,0,0,1,.343-.686,1.669,1.669,0,0,1,.588-.469,1.871,1.871,0,0,1,.833-.175,1.967,1.967,0,0,1,1.26.4,1.434,1.434,0,0,1,.5,1.2,1.544,1.544,0,0,1-.154.7,1.48,1.48,0,0,1-.413.511,1.837,1.837,0,0,1-.6.308,2.45,2.45,0,0,1-.721.105h-.392A.649.649,0,0,1,13.052,7.33Z" transform="translate(302 210)" fill="#333b44"/>
      <path id="路径_8244" data-name="路径 8244" d="M7.2,13V3.074H6.29A2.182,2.182,0,0,1,5.926,4a1.963,1.963,0,0,1-.651.574,2.676,2.676,0,0,1-.861.287,6.128,6.128,0,0,1-.98.077v.952H6.01V13Zm7.784,0V3.074h-.91A2.182,2.182,0,0,1,13.71,4a1.963,1.963,0,0,1-.651.574,2.676,2.676,0,0,1-.861.287,6.128,6.128,0,0,1-.98.077v.952h2.576V13Z" transform="translate(240 210)" fill="#333b44"/>
      <path id="路径_8245" data-name="路径 8245" d="M7.2,13V3.074H6.29A2.182,2.182,0,0,1,5.926,4a1.963,1.963,0,0,1-.651.574,2.676,2.676,0,0,1-.861.287,6.128,6.128,0,0,1-.98.077v.952H6.01V13Zm4.648-4.886q0-.364.007-.805a7.018,7.018,0,0,1,.07-.882,6.556,6.556,0,0,1,.182-.861,2.282,2.282,0,0,1,.35-.735,1.8,1.8,0,0,1,.581-.511,1.958,1.958,0,0,1,1.708,0,1.8,1.8,0,0,1,.581.511,2.282,2.282,0,0,1,.35.735,6.556,6.556,0,0,1,.182.861,7.019,7.019,0,0,1,.07.882q.007.441.007.805,0,.56-.035,1.253a5.275,5.275,0,0,1-.224,1.3,2.459,2.459,0,0,1-.609,1.029,1.59,1.59,0,0,1-1.176.42,1.59,1.59,0,0,1-1.176-.42,2.459,2.459,0,0,1-.609-1.029,5.275,5.275,0,0,1-.224-1.3Q11.848,8.674,11.848,8.114Zm-1.26.014q0,.546.028,1.134a7.717,7.717,0,0,0,.14,1.148,5.458,5.458,0,0,0,.322,1.057,2.846,2.846,0,0,0,.574.875,2.538,2.538,0,0,0,.917.6,3.621,3.621,0,0,0,1.323.217,3.608,3.608,0,0,0,1.33-.217,2.549,2.549,0,0,0,.91-.6,2.846,2.846,0,0,0,.574-.875,5.458,5.458,0,0,0,.322-1.057,7.717,7.717,0,0,0,.14-1.148q.028-.588.028-1.134t-.028-1.134a7.717,7.717,0,0,0-.14-1.148,5.629,5.629,0,0,0-.322-1.064,2.824,2.824,0,0,0-.574-.882,2.614,2.614,0,0,0-.917-.6,3.519,3.519,0,0,0-1.323-.224,3.519,3.519,0,0,0-1.323.224,2.614,2.614,0,0,0-.917.6,2.824,2.824,0,0,0-.574.882,5.629,5.629,0,0,0-.322,1.064,7.717,7.717,0,0,0-.14,1.148Q10.588,7.582,10.588,8.128Z" transform="translate(208 210)" fill="#333b44"/>
      <path id="路径_8279" data-name="路径 8279" d="M8.278,5.65a1.455,1.455,0,0,1,.14-.658,1.491,1.491,0,0,1,.371-.476,1.532,1.532,0,0,1,.553-.294,2.3,2.3,0,0,1,.672-.1,1.825,1.825,0,0,1,1.2.385A1.39,1.39,0,0,1,11.68,5.65a1.509,1.509,0,0,1-.462,1.176,1.681,1.681,0,0,1-1.176.42,2.344,2.344,0,0,1-.686-.1,1.6,1.6,0,0,1-.56-.294,1.394,1.394,0,0,1-.378-.5A1.662,1.662,0,0,1,8.278,5.65Zm-1.26-.042A2.188,2.188,0,0,0,7.4,6.847,2.141,2.141,0,0,0,8.4,7.666a2.518,2.518,0,0,0-1.288.945,2.637,2.637,0,0,0-.448,1.533,3.157,3.157,0,0,0,.259,1.323,2.628,2.628,0,0,0,.714.945,2.971,2.971,0,0,0,1.071.56,4.675,4.675,0,0,0,1.33.182,4.136,4.136,0,0,0,1.288-.2,2.957,2.957,0,0,0,1.043-.581,2.792,2.792,0,0,0,.7-.945,3.037,3.037,0,0,0,.259-1.288A2.707,2.707,0,0,0,12.9,8.583a2.409,2.409,0,0,0-1.33-.917,2.3,2.3,0,0,0,1-.833,2.151,2.151,0,0,0,.371-1.225,2.668,2.668,0,0,0-.168-.931,2.232,2.232,0,0,0-.525-.812,2.589,2.589,0,0,0-.931-.574A3.929,3.929,0,0,0,9.93,3.074a3.584,3.584,0,0,0-1.1.168,2.91,2.91,0,0,0-.931.49,2.3,2.3,0,0,0-.882,1.876Zm.91,4.592a1.854,1.854,0,0,1,.161-.784,1.784,1.784,0,0,1,.448-.6,1.992,1.992,0,0,1,.672-.385,2.491,2.491,0,0,1,.819-.133,2.154,2.154,0,0,1,1.442.546,1.85,1.85,0,0,1,.441.6,1.741,1.741,0,0,1,.161.749,1.969,1.969,0,0,1-.147.77,1.78,1.78,0,0,1-.42.609,1.989,1.989,0,0,1-.644.406,2.2,2.2,0,0,1-.819.147,2.249,2.249,0,0,1-1.519-.511A1.757,1.757,0,0,1,7.928,10.2Z" transform="translate(365 178)" fill="#333b44"/>
      <path id="路径_8280" data-name="路径 8280" d="M13.234,4.264V3.242H6.808v1.12h5.208a15.15,15.15,0,0,0-1.463,1.806,14.492,14.492,0,0,0-1.2,2.079,14.2,14.2,0,0,0-.847,2.3A12.345,12.345,0,0,0,8.1,13h1.33a12.419,12.419,0,0,1,.392-2.394,15.968,15.968,0,0,1,.833-2.394A15.7,15.7,0,0,1,11.82,6.028,10.177,10.177,0,0,1,13.234,4.264Z" transform="translate(334 178)" fill="#333b44"/>
      <path id="路径_8246" data-name="路径 8246" d="M12.688,4.292V3.242h-4.9L6.864,8.394l1.022.056a2.93,2.93,0,0,1,.805-.679,2.071,2.071,0,0,1,1.043-.259,2.413,2.413,0,0,1,.917.168,2.059,2.059,0,0,1,.707.469,2.1,2.1,0,0,1,.455.714,2.465,2.465,0,0,1,.161.9,2.883,2.883,0,0,1-.168,1.029,2.112,2.112,0,0,1-.455.735,1.851,1.851,0,0,1-.672.441,2.238,2.238,0,0,1-.805.147,2.412,2.412,0,0,1-.819-.133,1.925,1.925,0,0,1-.644-.378,1.867,1.867,0,0,1-.434-.574,1.915,1.915,0,0,1-.189-.707H6.6a2.924,2.924,0,0,0,.266,1.2,2.543,2.543,0,0,0,.686.889,3.1,3.1,0,0,0,1,.546,3.805,3.805,0,0,0,1.211.189,3.906,3.906,0,0,0,1.519-.273,3.119,3.119,0,0,0,1.085-.735,3.059,3.059,0,0,0,.651-1.057,3.549,3.549,0,0,0,.217-1.225,4.039,4.039,0,0,0-.252-1.491A3.035,3.035,0,0,0,12.3,7.309a2.763,2.763,0,0,0-1.022-.637,3.677,3.677,0,0,0-1.246-.21,3.118,3.118,0,0,0-1.015.175,1.915,1.915,0,0,0-.833.539l-.028-.028.532-2.856Z" transform="translate(271 178)" fill="#333b44"/>
      <path id="路径_8247" data-name="路径 8247" d="M11.9,5.608h1.19a2.748,2.748,0,0,0-.84-1.883,2.832,2.832,0,0,0-1.96-.651,3.214,3.214,0,0,0-1.764.448,3.344,3.344,0,0,0-1.12,1.19,5.392,5.392,0,0,0-.6,1.7A11.015,11.015,0,0,0,6.64,8.394a11.58,11.58,0,0,0,.119,1.624,4.758,4.758,0,0,0,.483,1.54,3.057,3.057,0,0,0,1.036,1.148,3.156,3.156,0,0,0,1.778.448,3.534,3.534,0,0,0,1.575-.315,2.956,2.956,0,0,0,1.022-.8,3.044,3.044,0,0,0,.553-1.071,4.123,4.123,0,0,0,.168-1.134,3.761,3.761,0,0,0-.21-1.274,3.085,3.085,0,0,0-.595-1.022,2.666,2.666,0,0,0-.952-.679,3.2,3.2,0,0,0-1.281-.245A3.2,3.2,0,0,0,8.9,6.924a2.557,2.557,0,0,0-1.043.994L7.83,7.89a10.057,10.057,0,0,1,.112-1.232A4.543,4.543,0,0,1,8.3,5.433a2.531,2.531,0,0,1,.721-.938,1.887,1.887,0,0,1,1.218-.371,1.613,1.613,0,0,1,1.148.406A1.712,1.712,0,0,1,11.9,5.608ZM10.112,7.666a2.012,2.012,0,0,1,.882.182,1.862,1.862,0,0,1,.63.483,1.928,1.928,0,0,1,.371.714,3.146,3.146,0,0,1,.119.875,2.617,2.617,0,0,1-.133.833,2.207,2.207,0,0,1-.385.707,1.767,1.767,0,0,1-.623.483,2,2,0,0,1-.861.175,2.093,2.093,0,0,1-.875-.175,1.883,1.883,0,0,1-.644-.469,2.062,2.062,0,0,1-.4-.7,2.644,2.644,0,0,1-.14-.868,2.837,2.837,0,0,1,.133-.875,1.98,1.98,0,0,1,.4-.714,1.931,1.931,0,0,1,.644-.476A2.08,2.08,0,0,1,10.112,7.666Z" transform="translate(302 178)" fill="#333b44"/>
      <path id="路径_8248" data-name="路径 8248" d="M10.854,9.626H7.522l3.3-4.858h.028Zm1.12,0V3.074h-.952L6.5,9.528v1.148h4.354V13h1.12V10.676h1.344V9.626Z" transform="translate(240 178)" fill="#333b44"/>
      <path id="路径_8249" data-name="路径 8249" d="M9.16,7.33V8.338A5.763,5.763,0,0,1,9.874,8.3a2.808,2.808,0,0,1,.833.119,1.767,1.767,0,0,1,1.113.966,1.9,1.9,0,0,1,.168.819,1.787,1.787,0,0,1-.644,1.407,2.127,2.127,0,0,1-.686.378,2.553,2.553,0,0,1-.826.133,1.953,1.953,0,0,1-1.554-.609,2.419,2.419,0,0,1-.56-1.575H6.528a3.623,3.623,0,0,0,.217,1.372,2.726,2.726,0,0,0,.665,1.015,2.819,2.819,0,0,0,1.05.623,4.233,4.233,0,0,0,1.372.21,4.534,4.534,0,0,0,1.323-.189A3.124,3.124,0,0,0,12.24,12.4a2.735,2.735,0,0,0,.735-.945,2.983,2.983,0,0,0,.273-1.309,2.725,2.725,0,0,0-.441-1.554,2.068,2.068,0,0,0-1.351-.854V7.708a2.507,2.507,0,0,0,.98-.784,1.919,1.919,0,0,0,.392-1.19,2.834,2.834,0,0,0-.231-1.19,2.209,2.209,0,0,0-.637-.826A2.77,2.77,0,0,0,11,3.235a4.266,4.266,0,0,0-1.2-.161,3.359,3.359,0,0,0-1.309.238,2.607,2.607,0,0,0-.945.658,2.9,2.9,0,0,0-.581,1.008,4.518,4.518,0,0,0-.231,1.3h1.19a2.993,2.993,0,0,1,.112-.826,1.975,1.975,0,0,1,.343-.686A1.669,1.669,0,0,1,8.971,4.3,1.871,1.871,0,0,1,9.8,4.124a1.967,1.967,0,0,1,1.26.4,1.434,1.434,0,0,1,.5,1.2,1.544,1.544,0,0,1-.154.7A1.48,1.48,0,0,1,11,6.931a1.837,1.837,0,0,1-.6.308,2.45,2.45,0,0,1-.721.105H9.286A.649.649,0,0,1,9.16,7.33Z" transform="translate(208 178)" fill="#333b44"/>
      <path id="路径_8281" data-name="路径 8281" d="M11.092,13V3.074h-.91A2.182,2.182,0,0,1,9.818,4a1.963,1.963,0,0,1-.651.574,2.676,2.676,0,0,1-.861.287,6.128,6.128,0,0,1-.98.077v.952H9.9V13Z" transform="translate(365 146)" fill="#333b44"/>
      <path id="路径_8282" data-name="路径 8282" d="M5.268,7.33V8.338A5.763,5.763,0,0,1,5.982,8.3a2.808,2.808,0,0,1,.833.119,1.767,1.767,0,0,1,1.113.966A1.9,1.9,0,0,1,8.1,10.2a1.787,1.787,0,0,1-.644,1.407,2.127,2.127,0,0,1-.686.378,2.553,2.553,0,0,1-.826.133,1.953,1.953,0,0,1-1.554-.609,2.419,2.419,0,0,1-.56-1.575H2.636a3.623,3.623,0,0,0,.217,1.372,2.726,2.726,0,0,0,.665,1.015,2.819,2.819,0,0,0,1.05.623,4.233,4.233,0,0,0,1.372.21,4.534,4.534,0,0,0,1.323-.189A3.124,3.124,0,0,0,8.348,12.4a2.735,2.735,0,0,0,.735-.945,2.983,2.983,0,0,0,.273-1.309A2.725,2.725,0,0,0,8.915,8.59a2.068,2.068,0,0,0-1.351-.854V7.708a2.507,2.507,0,0,0,.98-.784,1.919,1.919,0,0,0,.392-1.19A2.834,2.834,0,0,0,8.7,4.544a2.209,2.209,0,0,0-.637-.826,2.77,2.77,0,0,0-.959-.483,4.266,4.266,0,0,0-1.2-.161A3.359,3.359,0,0,0,4.6,3.312a2.607,2.607,0,0,0-.945.658,2.9,2.9,0,0,0-.581,1.008,4.518,4.518,0,0,0-.231,1.3h1.19a2.993,2.993,0,0,1,.112-.826,1.975,1.975,0,0,1,.343-.686A1.669,1.669,0,0,1,5.079,4.3a1.871,1.871,0,0,1,.833-.175,1.967,1.967,0,0,1,1.26.4,1.434,1.434,0,0,1,.5,1.2,1.544,1.544,0,0,1-.154.7,1.48,1.48,0,0,1-.413.511,1.837,1.837,0,0,1-.6.308,2.45,2.45,0,0,1-.721.105H5.394A.649.649,0,0,1,5.268,7.33ZM14.984,13V3.074h-.91A2.182,2.182,0,0,1,13.71,4a1.963,1.963,0,0,1-.651.574,2.676,2.676,0,0,1-.861.287,6.128,6.128,0,0,1-.98.077v.952h2.576V13Z" transform="translate(334 146)" fill="#c1c4cb"/>
      <path id="路径_8250" data-name="路径 8250" d="M2.832,6.588h1.19A3.368,3.368,0,0,1,4.113,5.7a2.368,2.368,0,0,1,.343-.791,1.865,1.865,0,0,1,.609-.567,1.731,1.731,0,0,1,.889-.217A2.174,2.174,0,0,1,6.7,4.25a1.764,1.764,0,0,1,1.022.931,1.713,1.713,0,0,1,.154.735,2.382,2.382,0,0,1-.161.91,2.39,2.39,0,0,1-.476.728,4.9,4.9,0,0,1-.791.665q-.476.329-1.106.721-.518.308-.994.658a4.688,4.688,0,0,0-.854.812,4.024,4.024,0,0,0-.623,1.085A5.271,5.271,0,0,0,2.552,13H9.034V11.95h-5.1a1.881,1.881,0,0,1,.357-.819,3.848,3.848,0,0,1,.658-.665A7.29,7.29,0,0,1,5.8,9.885q.462-.273.924-.553t.9-.616a4.531,4.531,0,0,0,.77-.721,3.312,3.312,0,0,0,.539-.9,3.093,3.093,0,0,0,.2-1.162A2.917,2.917,0,0,0,8.887,4.7a2.546,2.546,0,0,0-.665-.889,2.942,2.942,0,0,0-.987-.546,3.805,3.805,0,0,0-1.211-.189,3.5,3.5,0,0,0-1.4.266,2.858,2.858,0,0,0-1.029.735,2.967,2.967,0,0,0-.609,1.113A4.014,4.014,0,0,0,2.832,6.588Zm9.044,4.018h-1.19a2.556,2.556,0,0,0,.938,1.918,3.318,3.318,0,0,0,2.072.63,2.824,2.824,0,0,0,2.625-1.379A7.821,7.821,0,0,0,17.14,7.82a8.333,8.333,0,0,0-.273-2.331,3.87,3.87,0,0,0-.735-1.449,2.528,2.528,0,0,0-1.078-.749,3.932,3.932,0,0,0-1.316-.217,3.548,3.548,0,0,0-1.316.238,3.064,3.064,0,0,0-1.036.665A2.953,2.953,0,0,0,10.714,5a3.494,3.494,0,0,0-.238,1.309,4.272,4.272,0,0,0,.2,1.344,2.842,2.842,0,0,0,.6,1.05,2.762,2.762,0,0,0,.987.679,3.469,3.469,0,0,0,1.344.245,2.6,2.6,0,0,0,2.3-1.372l.028.028a6.324,6.324,0,0,1-.6,2.891,1.775,1.775,0,0,1-1.638.945,1.983,1.983,0,0,1-1.232-.392A1.515,1.515,0,0,1,11.876,10.606Zm3.85-4.214a2.5,2.5,0,0,1-.14.833,2.09,2.09,0,0,1-.406.7,1.931,1.931,0,0,1-.644.476,1.975,1.975,0,0,1-.84.175,1.773,1.773,0,0,1-.791-.175,1.965,1.965,0,0,1-.616-.469,2.23,2.23,0,0,1-.406-.672,2.145,2.145,0,0,1-.147-.784,3.624,3.624,0,0,1,.1-.882,2.232,2.232,0,0,1,.336-.749,1.683,1.683,0,0,1,.6-.525,1.913,1.913,0,0,1,.9-.2,2.012,2.012,0,0,1,.882.182,1.855,1.855,0,0,1,.637.5,2.2,2.2,0,0,1,.392.721A2.771,2.771,0,0,1,15.726,6.392Z" transform="translate(271 146)" fill="#c1c4cb"/>
      <path id="路径_8251" data-name="路径 8251" d="M5.268,7.33V8.338A5.763,5.763,0,0,1,5.982,8.3a2.808,2.808,0,0,1,.833.119,1.767,1.767,0,0,1,1.113.966A1.9,1.9,0,0,1,8.1,10.2a1.787,1.787,0,0,1-.644,1.407,2.127,2.127,0,0,1-.686.378,2.553,2.553,0,0,1-.826.133,1.953,1.953,0,0,1-1.554-.609,2.419,2.419,0,0,1-.56-1.575H2.636a3.623,3.623,0,0,0,.217,1.372,2.726,2.726,0,0,0,.665,1.015,2.819,2.819,0,0,0,1.05.623,4.233,4.233,0,0,0,1.372.21,4.534,4.534,0,0,0,1.323-.189A3.124,3.124,0,0,0,8.348,12.4a2.735,2.735,0,0,0,.735-.945,2.983,2.983,0,0,0,.273-1.309A2.725,2.725,0,0,0,8.915,8.59a2.068,2.068,0,0,0-1.351-.854V7.708a2.507,2.507,0,0,0,.98-.784,1.919,1.919,0,0,0,.392-1.19A2.834,2.834,0,0,0,8.7,4.544a2.209,2.209,0,0,0-.637-.826,2.77,2.77,0,0,0-.959-.483,4.266,4.266,0,0,0-1.2-.161A3.359,3.359,0,0,0,4.6,3.312a2.607,2.607,0,0,0-.945.658,2.9,2.9,0,0,0-.581,1.008,4.518,4.518,0,0,0-.231,1.3h1.19a2.993,2.993,0,0,1,.112-.826,1.975,1.975,0,0,1,.343-.686A1.669,1.669,0,0,1,5.079,4.3a1.871,1.871,0,0,1,.833-.175,1.967,1.967,0,0,1,1.26.4,1.434,1.434,0,0,1,.5,1.2,1.544,1.544,0,0,1-.154.7,1.48,1.48,0,0,1-.413.511,1.837,1.837,0,0,1-.6.308,2.45,2.45,0,0,1-.721.105H5.394A.649.649,0,0,1,5.268,7.33Zm6.58.784q0-.364.007-.805a7.018,7.018,0,0,1,.07-.882,6.556,6.556,0,0,1,.182-.861,2.282,2.282,0,0,1,.35-.735,1.8,1.8,0,0,1,.581-.511,1.958,1.958,0,0,1,1.708,0,1.8,1.8,0,0,1,.581.511,2.282,2.282,0,0,1,.35.735,6.556,6.556,0,0,1,.182.861,7.019,7.019,0,0,1,.07.882q.007.441.007.805,0,.56-.035,1.253a5.275,5.275,0,0,1-.224,1.3,2.459,2.459,0,0,1-.609,1.029,1.59,1.59,0,0,1-1.176.42,1.59,1.59,0,0,1-1.176-.42,2.459,2.459,0,0,1-.609-1.029,5.275,5.275,0,0,1-.224-1.3Q11.848,8.674,11.848,8.114Zm-1.26.014q0,.546.028,1.134a7.717,7.717,0,0,0,.14,1.148,5.458,5.458,0,0,0,.322,1.057,2.846,2.846,0,0,0,.574.875,2.538,2.538,0,0,0,.917.6,3.621,3.621,0,0,0,1.323.217,3.608,3.608,0,0,0,1.33-.217,2.549,2.549,0,0,0,.91-.6,2.846,2.846,0,0,0,.574-.875,5.458,5.458,0,0,0,.322-1.057,7.717,7.717,0,0,0,.14-1.148q.028-.588.028-1.134t-.028-1.134a7.717,7.717,0,0,0-.14-1.148,5.629,5.629,0,0,0-.322-1.064,2.824,2.824,0,0,0-.574-.882,2.614,2.614,0,0,0-.917-.6,3.519,3.519,0,0,0-1.323-.224,3.519,3.519,0,0,0-1.323.224,2.614,2.614,0,0,0-.917.6,2.824,2.824,0,0,0-.574.882,5.629,5.629,0,0,0-.322,1.064,7.717,7.717,0,0,0-.14,1.148Q10.588,7.582,10.588,8.128Z" transform="translate(302 146)" fill="#c1c4cb"/>
      <path id="路径_8252" data-name="路径 8252" d="M2.832,6.588h1.19A3.368,3.368,0,0,1,4.113,5.7a2.368,2.368,0,0,1,.343-.791,1.865,1.865,0,0,1,.609-.567,1.731,1.731,0,0,1,.889-.217A2.174,2.174,0,0,1,6.7,4.25a1.764,1.764,0,0,1,1.022.931,1.713,1.713,0,0,1,.154.735,2.382,2.382,0,0,1-.161.91,2.39,2.39,0,0,1-.476.728,4.9,4.9,0,0,1-.791.665q-.476.329-1.106.721-.518.308-.994.658a4.688,4.688,0,0,0-.854.812,4.024,4.024,0,0,0-.623,1.085A5.271,5.271,0,0,0,2.552,13H9.034V11.95h-5.1a1.881,1.881,0,0,1,.357-.819,3.848,3.848,0,0,1,.658-.665A7.29,7.29,0,0,1,5.8,9.885q.462-.273.924-.553t.9-.616a4.531,4.531,0,0,0,.77-.721,3.312,3.312,0,0,0,.539-.9,3.093,3.093,0,0,0,.2-1.162A2.917,2.917,0,0,0,8.887,4.7a2.546,2.546,0,0,0-.665-.889,2.942,2.942,0,0,0-.987-.546,3.805,3.805,0,0,0-1.211-.189,3.5,3.5,0,0,0-1.4.266,2.858,2.858,0,0,0-1.029.735,2.967,2.967,0,0,0-.609,1.113A4.014,4.014,0,0,0,2.832,6.588ZM12.17,5.65a1.455,1.455,0,0,1,.14-.658,1.491,1.491,0,0,1,.371-.476,1.532,1.532,0,0,1,.553-.294,2.3,2.3,0,0,1,.672-.1,1.825,1.825,0,0,1,1.2.385,1.39,1.39,0,0,1,.469,1.141,1.509,1.509,0,0,1-.462,1.176,1.681,1.681,0,0,1-1.176.42,2.344,2.344,0,0,1-.686-.1,1.6,1.6,0,0,1-.56-.294,1.394,1.394,0,0,1-.378-.5A1.662,1.662,0,0,1,12.17,5.65Zm-1.26-.042a2.188,2.188,0,0,0,.378,1.239,2.141,2.141,0,0,0,1.008.819,2.518,2.518,0,0,0-1.288.945,2.637,2.637,0,0,0-.448,1.533,3.157,3.157,0,0,0,.259,1.323,2.628,2.628,0,0,0,.714.945,2.971,2.971,0,0,0,1.071.56,4.675,4.675,0,0,0,1.33.182,4.136,4.136,0,0,0,1.288-.2,2.957,2.957,0,0,0,1.043-.581,2.792,2.792,0,0,0,.7-.945,3.037,3.037,0,0,0,.259-1.288,2.707,2.707,0,0,0-.434-1.561,2.409,2.409,0,0,0-1.33-.917,2.3,2.3,0,0,0,1-.833,2.151,2.151,0,0,0,.371-1.225,2.668,2.668,0,0,0-.168-.931,2.232,2.232,0,0,0-.525-.812,2.589,2.589,0,0,0-.931-.574,3.929,3.929,0,0,0-1.386-.217,3.584,3.584,0,0,0-1.1.168,2.91,2.91,0,0,0-.931.49,2.3,2.3,0,0,0-.882,1.876Zm.91,4.592a1.854,1.854,0,0,1,.161-.784,1.784,1.784,0,0,1,.448-.6,1.992,1.992,0,0,1,.672-.385A2.491,2.491,0,0,1,13.92,8.3a2.154,2.154,0,0,1,1.442.546,1.85,1.85,0,0,1,.441.6,1.741,1.741,0,0,1,.161.749,1.969,1.969,0,0,1-.147.77,1.78,1.78,0,0,1-.42.609,1.989,1.989,0,0,1-.644.406,2.2,2.2,0,0,1-.819.147,2.249,2.249,0,0,1-1.519-.511A1.757,1.757,0,0,1,11.82,10.2Z" transform="translate(240 146)" fill="#c1c4cb"/>
      <path id="路径_8253" data-name="路径 8253" d="M2.832,6.588h1.19A3.368,3.368,0,0,1,4.113,5.7a2.368,2.368,0,0,1,.343-.791,1.865,1.865,0,0,1,.609-.567,1.731,1.731,0,0,1,.889-.217A2.174,2.174,0,0,1,6.7,4.25a1.764,1.764,0,0,1,1.022.931,1.713,1.713,0,0,1,.154.735,2.382,2.382,0,0,1-.161.91,2.39,2.39,0,0,1-.476.728,4.9,4.9,0,0,1-.791.665q-.476.329-1.106.721-.518.308-.994.658a4.688,4.688,0,0,0-.854.812,4.024,4.024,0,0,0-.623,1.085A5.271,5.271,0,0,0,2.552,13H9.034V11.95h-5.1a1.881,1.881,0,0,1,.357-.819,3.848,3.848,0,0,1,.658-.665A7.29,7.29,0,0,1,5.8,9.885q.462-.273.924-.553t.9-.616a4.531,4.531,0,0,0,.77-.721,3.312,3.312,0,0,0,.539-.9,3.093,3.093,0,0,0,.2-1.162A2.917,2.917,0,0,0,8.887,4.7a2.546,2.546,0,0,0-.665-.889,2.942,2.942,0,0,0-.987-.546,3.805,3.805,0,0,0-1.211-.189,3.5,3.5,0,0,0-1.4.266,2.858,2.858,0,0,0-1.029.735,2.967,2.967,0,0,0-.609,1.113A4.014,4.014,0,0,0,2.832,6.588ZM17.126,4.264V3.242H10.7v1.12h5.208a15.15,15.15,0,0,0-1.463,1.806,14.492,14.492,0,0,0-1.2,2.079,14.2,14.2,0,0,0-.847,2.3A12.345,12.345,0,0,0,11.988,13h1.33a12.419,12.419,0,0,1,.392-2.394,15.968,15.968,0,0,1,.833-2.394,15.7,15.7,0,0,1,1.169-2.184A10.177,10.177,0,0,1,17.126,4.264Z" transform="translate(208 146)" fill="#c1c4cb"/>
      <path id="路径_8254" data-name="路径 8254" d="M5.133,3.261h9.748V15.675H13.719V14.7H6.295v.971H5.133ZM6.295,9.4v4.307h7.424V9.4Zm0-5.113V8.374h7.424V4.286Z" transform="translate(177 112)" fill="#9699ac"/>
      <path id="路径_8283" data-name="路径 8283" d="M5.268,7.33V8.338A5.763,5.763,0,0,1,5.982,8.3a2.808,2.808,0,0,1,.833.119,1.767,1.767,0,0,1,1.113.966A1.9,1.9,0,0,1,8.1,10.2a1.787,1.787,0,0,1-.644,1.407,2.127,2.127,0,0,1-.686.378,2.553,2.553,0,0,1-.826.133,1.953,1.953,0,0,1-1.554-.609,2.419,2.419,0,0,1-.56-1.575H2.636a3.623,3.623,0,0,0,.217,1.372,2.726,2.726,0,0,0,.665,1.015,2.819,2.819,0,0,0,1.05.623,4.233,4.233,0,0,0,1.372.21,4.534,4.534,0,0,0,1.323-.189A3.124,3.124,0,0,0,8.348,12.4a2.735,2.735,0,0,0,.735-.945,2.983,2.983,0,0,0,.273-1.309A2.725,2.725,0,0,0,8.915,8.59a2.068,2.068,0,0,0-1.351-.854V7.708a2.507,2.507,0,0,0,.98-.784,1.919,1.919,0,0,0,.392-1.19A2.834,2.834,0,0,0,8.7,4.544a2.209,2.209,0,0,0-.637-.826,2.77,2.77,0,0,0-.959-.483,4.266,4.266,0,0,0-1.2-.161A3.359,3.359,0,0,0,4.6,3.312a2.607,2.607,0,0,0-.945.658,2.9,2.9,0,0,0-.581,1.008,4.518,4.518,0,0,0-.231,1.3h1.19a2.993,2.993,0,0,1,.112-.826,1.975,1.975,0,0,1,.343-.686A1.669,1.669,0,0,1,5.079,4.3a1.871,1.871,0,0,1,.833-.175,1.967,1.967,0,0,1,1.26.4,1.434,1.434,0,0,1,.5,1.2,1.544,1.544,0,0,1-.154.7,1.48,1.48,0,0,1-.413.511,1.837,1.837,0,0,1-.6.308,2.45,2.45,0,0,1-.721.105H5.394A.649.649,0,0,1,5.268,7.33Zm6.58.784q0-.364.007-.805a7.018,7.018,0,0,1,.07-.882,6.556,6.556,0,0,1,.182-.861,2.282,2.282,0,0,1,.35-.735,1.8,1.8,0,0,1,.581-.511,1.958,1.958,0,0,1,1.708,0,1.8,1.8,0,0,1,.581.511,2.282,2.282,0,0,1,.35.735,6.556,6.556,0,0,1,.182.861,7.019,7.019,0,0,1,.07.882q.007.441.007.805,0,.56-.035,1.253a5.275,5.275,0,0,1-.224,1.3,2.459,2.459,0,0,1-.609,1.029,1.59,1.59,0,0,1-1.176.42,1.59,1.59,0,0,1-1.176-.42,2.459,2.459,0,0,1-.609-1.029,5.275,5.275,0,0,1-.224-1.3Q11.848,8.674,11.848,8.114Zm-1.26.014q0,.546.028,1.134a7.717,7.717,0,0,0,.14,1.148,5.458,5.458,0,0,0,.322,1.057,2.846,2.846,0,0,0,.574.875,2.538,2.538,0,0,0,.917.6,3.621,3.621,0,0,0,1.323.217,3.608,3.608,0,0,0,1.33-.217,2.549,2.549,0,0,0,.91-.6,2.846,2.846,0,0,0,.574-.875,5.458,5.458,0,0,0,.322-1.057,7.717,7.717,0,0,0,.14-1.148q.028-.588.028-1.134t-.028-1.134a7.717,7.717,0,0,0-.14-1.148,5.629,5.629,0,0,0-.322-1.064,2.824,2.824,0,0,0-.574-.882,2.614,2.614,0,0,0-.917-.6,3.519,3.519,0,0,0-1.323-.224,3.519,3.519,0,0,0-1.323.224,2.614,2.614,0,0,0-.917.6,2.824,2.824,0,0,0-.574.882,5.629,5.629,0,0,0-.322,1.064,7.717,7.717,0,0,0-.14,1.148Q10.588,7.582,10.588,8.128Z" transform="translate(177 306)" fill="#333b44"/>
      <path id="路径_8284" data-name="路径 8284" d="M2.832,6.588h1.19A3.368,3.368,0,0,1,4.113,5.7a2.368,2.368,0,0,1,.343-.791,1.865,1.865,0,0,1,.609-.567,1.731,1.731,0,0,1,.889-.217A2.174,2.174,0,0,1,6.7,4.25a1.764,1.764,0,0,1,1.022.931,1.713,1.713,0,0,1,.154.735,2.382,2.382,0,0,1-.161.91,2.39,2.39,0,0,1-.476.728,4.9,4.9,0,0,1-.791.665q-.476.329-1.106.721-.518.308-.994.658a4.688,4.688,0,0,0-.854.812,4.024,4.024,0,0,0-.623,1.085A5.271,5.271,0,0,0,2.552,13H9.034V11.95h-5.1a1.881,1.881,0,0,1,.357-.819,3.848,3.848,0,0,1,.658-.665A7.29,7.29,0,0,1,5.8,9.885q.462-.273.924-.553t.9-.616a4.531,4.531,0,0,0,.77-.721,3.312,3.312,0,0,0,.539-.9,3.093,3.093,0,0,0,.2-1.162A2.917,2.917,0,0,0,8.887,4.7a2.546,2.546,0,0,0-.665-.889,2.942,2.942,0,0,0-.987-.546,3.805,3.805,0,0,0-1.211-.189,3.5,3.5,0,0,0-1.4.266,2.858,2.858,0,0,0-1.029.735,2.967,2.967,0,0,0-.609,1.113A4.014,4.014,0,0,0,2.832,6.588Zm10.22.742V8.338a5.763,5.763,0,0,1,.714-.042,2.808,2.808,0,0,1,.833.119,1.767,1.767,0,0,1,1.113.966,1.9,1.9,0,0,1,.168.819,1.787,1.787,0,0,1-.644,1.407,2.127,2.127,0,0,1-.686.378,2.553,2.553,0,0,1-.826.133,1.953,1.953,0,0,1-1.554-.609,2.419,2.419,0,0,1-.56-1.575H10.42a3.623,3.623,0,0,0,.217,1.372,2.726,2.726,0,0,0,.665,1.015,2.819,2.819,0,0,0,1.05.623,4.233,4.233,0,0,0,1.372.21,4.534,4.534,0,0,0,1.323-.189,3.124,3.124,0,0,0,1.085-.567,2.735,2.735,0,0,0,.735-.945,2.983,2.983,0,0,0,.273-1.309A2.725,2.725,0,0,0,16.7,8.59a2.068,2.068,0,0,0-1.351-.854V7.708a2.507,2.507,0,0,0,.98-.784,1.919,1.919,0,0,0,.392-1.19,2.834,2.834,0,0,0-.231-1.19,2.209,2.209,0,0,0-.637-.826,2.77,2.77,0,0,0-.959-.483,4.266,4.266,0,0,0-1.2-.161,3.359,3.359,0,0,0-1.309.238,2.607,2.607,0,0,0-.945.658,2.9,2.9,0,0,0-.581,1.008,4.518,4.518,0,0,0-.231,1.3h1.19a2.993,2.993,0,0,1,.112-.826,1.975,1.975,0,0,1,.343-.686,1.669,1.669,0,0,1,.588-.469,1.871,1.871,0,0,1,.833-.175,1.967,1.967,0,0,1,1.26.4,1.434,1.434,0,0,1,.5,1.2,1.544,1.544,0,0,1-.154.7,1.48,1.48,0,0,1-.413.511,1.837,1.837,0,0,1-.6.308,2.45,2.45,0,0,1-.721.105h-.392A.649.649,0,0,1,13.052,7.33Z" transform="translate(177 274)" fill="#333b44"/>
      <path id="路径_8255" data-name="路径 8255" d="M7.2,13V3.074H6.29A2.182,2.182,0,0,1,5.926,4a1.963,1.963,0,0,1-.651.574,2.676,2.676,0,0,1-.861.287,6.128,6.128,0,0,1-.98.077v.952H6.01V13Zm8.6-7.392h1.19a2.748,2.748,0,0,0-.84-1.883,2.832,2.832,0,0,0-1.96-.651,3.214,3.214,0,0,0-1.764.448,3.344,3.344,0,0,0-1.12,1.19,5.392,5.392,0,0,0-.6,1.7,11.015,11.015,0,0,0-.175,1.981,11.58,11.58,0,0,0,.119,1.624,4.758,4.758,0,0,0,.483,1.54,3.057,3.057,0,0,0,1.036,1.148,3.156,3.156,0,0,0,1.778.448,3.534,3.534,0,0,0,1.575-.315,2.956,2.956,0,0,0,1.022-.8A3.044,3.044,0,0,0,17.1,10.97a4.123,4.123,0,0,0,.168-1.134,3.761,3.761,0,0,0-.21-1.274,3.085,3.085,0,0,0-.595-1.022,2.666,2.666,0,0,0-.952-.679,3.485,3.485,0,0,0-2.716.063,2.557,2.557,0,0,0-1.043.994l-.028-.028a10.057,10.057,0,0,1,.112-1.232,4.543,4.543,0,0,1,.357-1.225,2.531,2.531,0,0,1,.721-.938,1.887,1.887,0,0,1,1.218-.371,1.613,1.613,0,0,1,1.148.406A1.712,1.712,0,0,1,15.8,5.608ZM14,7.666a2.012,2.012,0,0,1,.882.182,1.862,1.862,0,0,1,.63.483,1.928,1.928,0,0,1,.371.714,3.146,3.146,0,0,1,.119.875,2.617,2.617,0,0,1-.133.833,2.207,2.207,0,0,1-.385.707,1.767,1.767,0,0,1-.623.483,2,2,0,0,1-.861.175,2.093,2.093,0,0,1-.875-.175,1.883,1.883,0,0,1-.644-.469,2.062,2.062,0,0,1-.4-.7,2.644,2.644,0,0,1-.14-.868,2.837,2.837,0,0,1,.133-.875,1.98,1.98,0,0,1,.4-.714,1.931,1.931,0,0,1,.644-.476A2.08,2.08,0,0,1,14,7.666Z" transform="translate(177 242)" fill="#333b44"/>
      <path id="路径_8256" data-name="路径 8256" d="M7.984,10.606H6.794a2.556,2.556,0,0,0,.938,1.918,3.318,3.318,0,0,0,2.072.63,2.824,2.824,0,0,0,2.625-1.379,7.821,7.821,0,0,0,.819-3.955,8.333,8.333,0,0,0-.273-2.331A3.87,3.87,0,0,0,12.24,4.04a2.528,2.528,0,0,0-1.078-.749,3.932,3.932,0,0,0-1.316-.217,3.548,3.548,0,0,0-1.316.238,3.064,3.064,0,0,0-1.036.665A2.953,2.953,0,0,0,6.822,5a3.494,3.494,0,0,0-.238,1.309,4.272,4.272,0,0,0,.2,1.344,2.842,2.842,0,0,0,.6,1.05,2.762,2.762,0,0,0,.987.679,3.469,3.469,0,0,0,1.344.245,2.6,2.6,0,0,0,2.3-1.372l.028.028a6.324,6.324,0,0,1-.6,2.891,1.775,1.775,0,0,1-1.638.945,1.983,1.983,0,0,1-1.232-.392A1.515,1.515,0,0,1,7.984,10.606Zm3.85-4.214a2.5,2.5,0,0,1-.14.833,2.09,2.09,0,0,1-.406.7,1.931,1.931,0,0,1-.644.476,1.975,1.975,0,0,1-.84.175A1.773,1.773,0,0,1,9.013,8.4,1.965,1.965,0,0,1,8.4,7.932a2.23,2.23,0,0,1-.406-.672,2.145,2.145,0,0,1-.147-.784,3.624,3.624,0,0,1,.105-.882,2.232,2.232,0,0,1,.336-.749,1.683,1.683,0,0,1,.6-.525,1.913,1.913,0,0,1,.9-.2,2.012,2.012,0,0,1,.882.182,1.855,1.855,0,0,1,.637.5,2.2,2.2,0,0,1,.392.721A2.771,2.771,0,0,1,11.834,6.392Z" transform="translate(177 210)" fill="#333b44"/>
      <path id="路径_8257" data-name="路径 8257" d="M6.724,6.588h1.19A3.368,3.368,0,0,1,8.005,5.7a2.368,2.368,0,0,1,.343-.791,1.865,1.865,0,0,1,.609-.567,1.731,1.731,0,0,1,.889-.217,2.174,2.174,0,0,1,.742.126,1.764,1.764,0,0,1,1.022.931,1.713,1.713,0,0,1,.154.735,2.382,2.382,0,0,1-.161.91,2.39,2.39,0,0,1-.476.728,4.9,4.9,0,0,1-.791.665q-.476.329-1.106.721-.518.308-.994.658a4.688,4.688,0,0,0-.854.812,4.024,4.024,0,0,0-.623,1.085A5.271,5.271,0,0,0,6.444,13h6.482V11.95H7.83a1.881,1.881,0,0,1,.357-.819,3.848,3.848,0,0,1,.658-.665,7.29,7.29,0,0,1,.847-.581q.462-.273.924-.553t.9-.616a4.531,4.531,0,0,0,.77-.721,3.312,3.312,0,0,0,.539-.9,3.093,3.093,0,0,0,.2-1.162A2.917,2.917,0,0,0,12.779,4.7a2.546,2.546,0,0,0-.665-.889,2.942,2.942,0,0,0-.987-.546,3.805,3.805,0,0,0-1.211-.189,3.5,3.5,0,0,0-1.4.266,2.858,2.858,0,0,0-1.029.735,2.967,2.967,0,0,0-.609,1.113A4.014,4.014,0,0,0,6.724,6.588Z" transform="translate(177 178)" fill="#333b44"/>
      <path id="路径_8258" data-name="路径 8258" d="M2.832,6.588h1.19A3.368,3.368,0,0,1,4.113,5.7a2.368,2.368,0,0,1,.343-.791,1.865,1.865,0,0,1,.609-.567,1.731,1.731,0,0,1,.889-.217A2.174,2.174,0,0,1,6.7,4.25a1.764,1.764,0,0,1,1.022.931,1.713,1.713,0,0,1,.154.735,2.382,2.382,0,0,1-.161.91,2.39,2.39,0,0,1-.476.728,4.9,4.9,0,0,1-.791.665q-.476.329-1.106.721-.518.308-.994.658a4.688,4.688,0,0,0-.854.812,4.024,4.024,0,0,0-.623,1.085A5.271,5.271,0,0,0,2.552,13H9.034V11.95h-5.1a1.881,1.881,0,0,1,.357-.819,3.848,3.848,0,0,1,.658-.665A7.29,7.29,0,0,1,5.8,9.885q.462-.273.924-.553t.9-.616a4.531,4.531,0,0,0,.77-.721,3.312,3.312,0,0,0,.539-.9,3.093,3.093,0,0,0,.2-1.162A2.917,2.917,0,0,0,8.887,4.7a2.546,2.546,0,0,0-.665-.889,2.942,2.942,0,0,0-.987-.546,3.805,3.805,0,0,0-1.211-.189,3.5,3.5,0,0,0-1.4.266,2.858,2.858,0,0,0-1.029.735,2.967,2.967,0,0,0-.609,1.113A4.014,4.014,0,0,0,2.832,6.588ZM15.8,5.608h1.19a2.748,2.748,0,0,0-.84-1.883,2.832,2.832,0,0,0-1.96-.651,3.214,3.214,0,0,0-1.764.448,3.344,3.344,0,0,0-1.12,1.19,5.392,5.392,0,0,0-.6,1.7,11.015,11.015,0,0,0-.175,1.981,11.58,11.58,0,0,0,.119,1.624,4.758,4.758,0,0,0,.483,1.54,3.057,3.057,0,0,0,1.036,1.148,3.156,3.156,0,0,0,1.778.448,3.534,3.534,0,0,0,1.575-.315,2.956,2.956,0,0,0,1.022-.8A3.044,3.044,0,0,0,17.1,10.97a4.123,4.123,0,0,0,.168-1.134,3.761,3.761,0,0,0-.21-1.274,3.085,3.085,0,0,0-.595-1.022,2.666,2.666,0,0,0-.952-.679,3.485,3.485,0,0,0-2.716.063,2.557,2.557,0,0,0-1.043.994l-.028-.028a10.057,10.057,0,0,1,.112-1.232,4.543,4.543,0,0,1,.357-1.225,2.531,2.531,0,0,1,.721-.938,1.887,1.887,0,0,1,1.218-.371,1.613,1.613,0,0,1,1.148.406A1.712,1.712,0,0,1,15.8,5.608ZM14,7.666a2.012,2.012,0,0,1,.882.182,1.862,1.862,0,0,1,.63.483,1.928,1.928,0,0,1,.371.714,3.146,3.146,0,0,1,.119.875,2.617,2.617,0,0,1-.133.833,2.207,2.207,0,0,1-.385.707,1.767,1.767,0,0,1-.623.483,2,2,0,0,1-.861.175,2.093,2.093,0,0,1-.875-.175,1.883,1.883,0,0,1-.644-.469,2.062,2.062,0,0,1-.4-.7,2.644,2.644,0,0,1-.14-.868,2.837,2.837,0,0,1,.133-.875,1.98,1.98,0,0,1,.4-.714,1.931,1.931,0,0,1,.644-.476A2.08,2.08,0,0,1,14,7.666Z" transform="translate(177 146)" fill="#c1c4cb"/>
      <path id="路径_8259" data-name="路径 8259" d="M14,0A14,14,0,1,1,0,14,14,14,0,0,1,14,0Z" transform="translate(267 236)" fill="#377CFD"/>
      <path id="路径_8260" data-name="路径 8260" d="M7.2,13V3.074H6.29A2.182,2.182,0,0,1,5.926,4a1.963,1.963,0,0,1-.651.574,2.676,2.676,0,0,1-.861.287,6.128,6.128,0,0,1-.98.077v.952H6.01V13Zm4.676-2.394h-1.19a2.556,2.556,0,0,0,.938,1.918,3.318,3.318,0,0,0,2.072.63,2.824,2.824,0,0,0,2.625-1.379A7.821,7.821,0,0,0,17.14,7.82a8.333,8.333,0,0,0-.273-2.331,3.87,3.87,0,0,0-.735-1.449,2.528,2.528,0,0,0-1.078-.749,3.932,3.932,0,0,0-1.316-.217,3.548,3.548,0,0,0-1.316.238,3.064,3.064,0,0,0-1.036.665A2.953,2.953,0,0,0,10.714,5a3.494,3.494,0,0,0-.238,1.309,4.272,4.272,0,0,0,.2,1.344,2.842,2.842,0,0,0,.6,1.05,2.762,2.762,0,0,0,.987.679,3.469,3.469,0,0,0,1.344.245,2.6,2.6,0,0,0,2.3-1.372l.028.028a6.324,6.324,0,0,1-.6,2.891,1.775,1.775,0,0,1-1.638.945,1.983,1.983,0,0,1-1.232-.392A1.515,1.515,0,0,1,11.876,10.606Zm3.85-4.214a2.5,2.5,0,0,1-.14.833,2.09,2.09,0,0,1-.406.7,1.931,1.931,0,0,1-.644.476,1.975,1.975,0,0,1-.84.175,1.773,1.773,0,0,1-.791-.175,1.965,1.965,0,0,1-.616-.469,2.23,2.23,0,0,1-.406-.672,2.145,2.145,0,0,1-.147-.784,3.624,3.624,0,0,1,.1-.882,2.232,2.232,0,0,1,.336-.749,1.683,1.683,0,0,1,.6-.525,1.913,1.913,0,0,1,.9-.2,2.012,2.012,0,0,1,.882.182,1.855,1.855,0,0,1,.637.5,2.2,2.2,0,0,1,.392.721A2.771,2.771,0,0,1,15.726,6.392Z" transform="translate(271 242)" fill="#fff"/>
    </g>
  </g>
</svg>
