<svg xmlns="http://www.w3.org/2000/svg" xmlns:xlink="http://www.w3.org/1999/xlink" width="300" height="360" viewBox="0 0 300 360">
  <defs>
    <filter id="路径_8406" x="21" y="68.953" width="258" height="264.046" filterUnits="userSpaceOnUse">
      <feOffset dy="3" input="SourceAlpha"/>
      <feGaussianBlur stdDeviation="3" result="blur"/>
      <feFlood flood-opacity="0.02"/>
      <feComposite operator="in" in2="blur"/>
      <feComposite in="SourceGraphic"/>
    </filter>
    <clipPath id="clip-u-6">
      <rect width="300" height="360"/>
    </clipPath>
  </defs>
  <g id="u-6" clip-path="url(#clip-u-6)">
    <rect width="300" height="360" fill="#fff"/>
    <g id="组_16112" data-name="组 16112" transform="translate(-10)">
      <g id="路径_8404" data-name="路径 8404" transform="translate(40 39)" fill="none">
        <path d="M4,0H236a4,4,0,0,1,4,4V28a4,4,0,0,1-4,4H4a4,4,0,0,1-4-4V4A4,4,0,0,1,4,0Z" stroke="none"/>
        <path d="M 4 1 C 2.345779418945312 1 1 2.345781326293945 1 4 L 1 28 C 1 29.65421867370605 2.345779418945312 31 4 31 L 236 31 C 237.6542205810547 31 239 29.65421867370605 239 28 L 239 4 C 239 2.345781326293945 237.6542205810547 1 236 1 L 4 1 M 4 0 L 236 0 C 238.2091217041016 0 240 1.790874481201172 240 4 L 240 28 C 240 30.20912551879883 238.2091217041016 32 236 32 L 4 32 C 1.790847778320312 32 0 30.20912551879883 0 28 L 0 4 C 0 1.790874481201172 1.790847778320312 0 4 0 Z" stroke="none" fill="#377CFD"/>
      </g>
      <path id="路径_8405" data-name="路径 8405" d="M6.1,1.729H5.031V-5.2h7.6V.116a1.337,1.337,0,0,1-1.518,1.49q-.807.014-2.064.014Q8.982,1.183,8.846.567q1.189.082,1.941.082.779,0,.779-.711V-.745H6.1ZM3.828-6.9H8.244v-.943h-3.5V-8.7h3.5v-.916H4.266v-.861H8.244v-1.23H9.352v1.23h4.17v.861H9.352V-8.7h3.814v.861H9.352V-6.9h4.443v.861H3.828Zm.67,5.25q.041.684.1,1.189-1.477.984-2.5,1.777l-.629-.9A1.555,1.555,0,0,0,1.928-.772V-5.94H.26v-1H2.967V-.567Q3.732-1.087,4.5-1.647Zm7.068-2.68H6.1v.943h5.469ZM6.1-1.593h5.469v-.943H6.1ZM1.8-11.245q1.121,1.107,1.982,2.064l-.957.793a27.535,27.535,0,0,0-1.846-2.16ZM17.842-6.022h4.525V-8.306h-2.3a17.086,17.086,0,0,1-.854,1.859,6.5,6.5,0,0,0-.957-.492,15.132,15.132,0,0,0,1.586-4.156l1.066.232q-.239.854-.5,1.613h1.962v-2.379h1.066v2.379H27v.943H23.434v2.283h4.225v.943H24.432v2.926q0,.725.6.725h.656a.671.671,0,0,0,.725-.656q.082-.533.15-1.613a11.081,11.081,0,0,0,1.039.4q-.109.943-.232,1.586A1.391,1.391,0,0,1,25.813-.5H24.8q-1.422,0-1.422-1.545V-5.079H21.54q-.007.622-.034,1.107A4.175,4.175,0,0,1,18.635-.185q-.273-.4-.684-.916,2.406-1,2.5-2.871.027-.41.048-1.107H17.842ZM19.893.431,22.75.458l5.031-.1q-.15.451-.383,1.08L22.634,1.5,19.77,1.456A3.8,3.8,0,0,1,16.365-.2a20.544,20.544,0,0,0-1.641,1.832L14.164.5q1.21-1.169,1.75-1.675v-4.6H14.287V-6.788h2.68V-.943A3.227,3.227,0,0,0,19.893.431Zm-4.02-11.812q.7.848,1.914,2.584l-.971.684Q15.709-9.851,15-10.794Zm17.213,1.367v-.943h7.807v.916a8.092,8.092,0,0,1-2.666,2.8,14.209,14.209,0,0,0,3.6.889q-.342.615-.574,1.08a14.531,14.531,0,0,1-4.061-1.354,18.936,18.936,0,0,1-4.1,1.518,6.111,6.111,0,0,0-.465-1.012,19.971,19.971,0,0,0,3.548-1.135,6.613,6.613,0,0,1-2.29-2.762Zm-.7,8.422h4.252V-3.179H33.223v-.984h3.418V-5.722H37.68v1.559h3.5v.984h-3.5v1.586h4.143v.984H37.68V1.729H36.641V-.608H32.389Zm-4.2-2.68q1-.226,1.928-.451V-7.978h-1.8v-.957h1.8V-11.6h1.025v2.666h1.75v.957h-1.75v2.994q.745-.191,1.436-.383a8.706,8.706,0,0,0,.1,1.012q-.8.212-1.531.417V.144q0,1.518-1.381,1.518-.328,0-1.285-.027A9.038,9.038,0,0,0,28.3.526a9.341,9.341,0,0,0,1.217.109q.6,0,.6-.725V-3.657q-.957.267-1.791.506Zm11.484-5.742H34.911a5.79,5.79,0,0,0,2.27,2.263A6.546,6.546,0,0,0,39.676-10.015Z" transform="translate(52 60)" fill="#c1c4cb"/>
      <g id="组_9249" data-name="组 9249" transform="translate(256.75 47.887)">
        <g id="组_9248" data-name="组 9248">
          <path id="路径_1302" data-name="路径 1302" d="M.964,4.821v7.714H12.536V1.929H10.607v.482a.482.482,0,1,1-.964,0V1.929H3.857v.482a.482.482,0,0,1-.964,0V1.929H.964V3.857H12.536v.964ZM3.857.964H9.643V.482a.482.482,0,0,1,.964,0V.964h2.411a.464.464,0,0,1,.482.482V13.018a.464.464,0,0,1-.482.482H.482A.464.464,0,0,1,0,13.018V1.446A.464.464,0,0,1,.482.964H2.893V.482a.482.482,0,0,1,.964,0ZM3.375,6.75h.964a.482.482,0,0,1,0,.964H3.375a.482.482,0,1,1,0-.964Zm0,2.893h.964a.482.482,0,0,1,0,.964H3.375a.482.482,0,1,1,0-.964ZM6.268,6.75h.964a.482.482,0,1,1,0,.964H6.268a.482.482,0,0,1,0-.964Zm0,2.893h.964a.482.482,0,0,1,0,.964H6.268a.482.482,0,0,1,0-.964ZM9.161,6.75h.964a.482.482,0,1,1,0,.964H9.161a.482.482,0,1,1,0-.964Zm0,2.893h.964a.482.482,0,1,1,0,.964H9.161a.482.482,0,1,1,0-.964Z" transform="translate(0)" fill="#c1c4cb" fill-rule="evenodd"/>
        </g>
      </g>
      <g transform="matrix(1, 0, 0, 1, 10, 0)" filter="url(#路径_8406)">
        <g id="路径_8406-2" data-name="路径 8406" transform="translate(30 74.95)" fill="#fff">
          <path d="M 236 245.5461120605469 L 4 245.5461120605469 C 2.070093631744385 245.5461120605469 0.5 243.9760284423828 0.5 242.0461120605469 L 0.5 3.999993562698364 C 0.5 2.070087194442749 2.070093631744385 0.4999935328960419 4 0.4999935328960419 L 236 0.4999935328960419 C 237.9299011230469 0.4999935328960419 239.5 2.070087194442749 239.5 3.999993562698364 L 239.5 242.0461120605469 C 239.5 243.9760284423828 237.9299011230469 245.5461120605469 236 245.5461120605469 Z" stroke="none"/>
          <path d="M 4 1 C 2.345779418945312 1 1 2.345779418945312 1 4 L 1 242.0461120605469 C 1 243.7003326416016 2.345779418945312 245.0461120605469 4 245.0461120605469 L 236 245.0461120605469 C 237.6542205810547 245.0461120605469 239 243.7003326416016 239 242.0461120605469 L 239 4 C 239 2.345779418945312 237.6542205810547 1 236 1 L 4 1 M 4 0 L 236 0 C 238.2091217041016 0 240 1.790863037109375 240 4 L 240 242.0461120605469 C 240 244.2552490234375 238.2091217041016 246.0461120605469 236 246.0461120605469 L 4 246.0461120605469 C 1.790847778320312 246.0461120605469 0 244.2552490234375 0 242.0461120605469 L 0 4 C 0 1.790863037109375 1.790847778320312 0 4 0 Z" stroke="none" fill="#e4e7ed"/>
        </g>
      </g>
      <g id="组件_382_16" data-name="组件 382 – 16" transform="translate(41 77)">
        <rect id="矩形_2739" data-name="矩形 2739" width="238" height="32" fill="none"/>
        <g id="组_9954" data-name="组 9954" transform="translate(14.971 11.777)">
          <path id="路径_1738" data-name="路径 1738" d="M12682.459,7014.777l-4.488,4.243,4.488,3.678" transform="translate(-12671.971 -7014.777)" fill="none" stroke="#9699ac" stroke-width="1.5"/>
          <path id="路径_1739" data-name="路径 1739" d="M12682.459,7014.777l-4.488,4.243,4.488,3.678" transform="translate(-12677.971 -7014.777)" fill="none" stroke="#9699ac" stroke-width="1.5"/>
        </g>
        <g id="组_9955" data-name="组 9955" transform="translate(222.383 19.698) rotate(180)">
          <path id="路径_1738-2" data-name="路径 1738" d="M4.488,0,0,4.243,4.488,7.921" transform="translate(6)" fill="none" stroke="#9699ac" stroke-width="1.5"/>
          <path id="路径_1739-2" data-name="路径 1739" d="M4.488,0,0,4.243,4.488,7.921" fill="none" stroke="#9699ac" stroke-width="1.5"/>
        </g>
        <text id="_2021年" data-name="2021年" transform="translate(119 21)" fill="#333b44" font-size="14" font-family="MicrosoftYaHeiUI, Microsoft YaHei UI"><tspan x="-23.42" y="0">2021年</tspan></text>
        <rect id="矩形_2740" data-name="矩形 2740" width="238" height="1" transform="translate(0 31)" fill="#e4e5eb"/>
      </g>
      <path id="路径_8407" data-name="路径 8407" d="M4,0H48a4,4,0,0,1,4,4V24a4,4,0,0,1-4,4H4a4,4,0,0,1-4-4V4A4,4,0,0,1,4,0Z" transform="translate(60 129)" fill="#fff"/>
      <path id="路径_8408" data-name="路径 8408" d="M-7.208,0V-9.058a4.5,4.5,0,0,1-1.063.7,6.336,6.336,0,0,1-1.384.547V-9.119a8.937,8.937,0,0,0,1.8-.742,7.847,7.847,0,0,0,1.47-.96h.506V0ZM.612-2.81A9.044,9.044,0,0,1-1.446,1.962a11.938,11.938,0,0,0-.943-.82A7.342,7.342,0,0,0-.612-2.276,20.255,20.255,0,0,0-.3-6.323v-4.73H8.835V-.39q0,2.023-1.928,2.023-.807,0-2.078-.027Q4.761,1.114,4.625.458,5.882.54,6.607.54A.967.967,0,0,0,7.714-.54V-2.81Zm.109-1H7.714V-6.433H.824Q.824-5.065.721-3.808Zm.1-6.221v2.6H7.714v-2.6Z" transform="translate(86 148)" fill="#333b44"/>
      <path id="路径_8409" data-name="路径 8409" d="M4,0H48a4,4,0,0,1,4,4V24a4,4,0,0,1-4,4H4a4,4,0,0,1-4-4V4A4,4,0,0,1,4,0Z" transform="translate(60 177)" fill="#fff"/>
      <path id="路径_8410" data-name="路径 8410" d="M-4.748-10.589V-3.6h1.586v1.107H-4.748V0h-1.3V-2.488h-4.942V-3.534A35.181,35.181,0,0,0-8.336-6.952a32.528,32.528,0,0,0,2.2-3.637ZM-9.485-3.6h3.438V-8.641q-.711,1.278-1.524,2.478T-9.485-3.6Zm10.1.786A9.044,9.044,0,0,1-1.446,1.962a11.938,11.938,0,0,0-.943-.82A7.342,7.342,0,0,0-.612-2.276,20.255,20.255,0,0,0-.3-6.323v-4.73H8.835V-.39q0,2.023-1.928,2.023-.807,0-2.078-.027Q4.761,1.114,4.625.458,5.882.54,6.607.54A.967.967,0,0,0,7.714-.54V-2.81Zm.109-1H7.714V-6.433H.824Q.824-5.065.721-3.808Zm.1-6.221v2.6H7.714v-2.6Z" transform="translate(86 196)" fill="#333b44"/>
      <path id="路径_8411" data-name="路径 8411" d="M4,0H48a4,4,0,0,1,4,4V24a4,4,0,0,1-4,4H4a4,4,0,0,1-4-4V4A4,4,0,0,1,4,0Z" transform="translate(60 225)" fill="#377CFD"/>
      <path id="路径_8412" data-name="路径 8412" d="M-3.62-9.762a39.614,39.614,0,0,0-2.622,5.39A18.555,18.555,0,0,0-7.42,0H-8.815a18.682,18.682,0,0,1,1.2-4.259A39.871,39.871,0,0,1-5.1-9.406h-5.25v-1.183H-3.62ZM.612-2.81A9.044,9.044,0,0,1-1.446,1.962a11.938,11.938,0,0,0-.943-.82A7.342,7.342,0,0,0-.612-2.276,20.255,20.255,0,0,0-.3-6.323v-4.73H8.835V-.39q0,2.023-1.928,2.023-.807,0-2.078-.027Q4.761,1.114,4.625.458,5.882.54,6.607.54A.967.967,0,0,0,7.714-.54V-2.81Zm.109-1H7.714V-6.433H.824Q.824-5.065.721-3.808Zm.1-6.221v2.6H7.714v-2.6Z" transform="translate(86 244)" fill="#fff"/>
      <path id="路径_8413" data-name="路径 8413" d="M4,0H48a4,4,0,0,1,4,4V24a4,4,0,0,1-4,4H4a4,4,0,0,1-4-4V4A4,4,0,0,1,4,0Z" transform="translate(60 273)" fill="#fff"/>
      <path id="路径_8414" data-name="路径 8414" d="M-11.313,0V-9.058a4.5,4.5,0,0,1-1.063.7,6.336,6.336,0,0,1-1.384.547V-9.119a8.937,8.937,0,0,0,1.8-.742,7.847,7.847,0,0,0,1.47-.96h.506V0Zm4.929-5.086a7.877,7.877,0,0,1,.93-4.242,3.013,3.013,0,0,1,2.693-1.439Q.6-10.767.6-5.339a7.381,7.381,0,0,1-.947,4.1A3.016,3.016,0,0,1-3,.178,2.823,2.823,0,0,1-5.5-1.169,7.151,7.151,0,0,1-6.385-5.086Zm1.367-.062q0,4.218,2.14,4.218,2.105,0,2.105-4.286,0-4.437-2.064-4.437Q-5.018-9.652-5.018-5.147ZM4.717-2.81A9.044,9.044,0,0,1,2.659,1.962a11.938,11.938,0,0,0-.943-.82A7.342,7.342,0,0,0,3.493-2.276a20.255,20.255,0,0,0,.314-4.047v-4.73H12.94V-.39q0,2.023-1.928,2.023-.807,0-2.078-.027Q8.866,1.114,8.729.458,9.987.54,10.712.54A.967.967,0,0,0,11.819-.54V-2.81Zm.109-1h6.993V-6.433H4.929Q4.929-5.065,4.826-3.808Zm.1-6.221v2.6h6.891v-2.6Z" transform="translate(86 292)" fill="#333b44"/>
      <path id="路径_8415" data-name="路径 8415" d="M4,0H48a4,4,0,0,1,4,4V24a4,4,0,0,1-4,4H4a4,4,0,0,1-4-4V4A4,4,0,0,1,4,0Z" transform="translate(134 129)" fill="#fff"/>
      <path id="路径_8416" data-name="路径 8416" d="M-5.274-7.813a1.72,1.72,0,0,0-.54-1.343,2.108,2.108,0,0,0-1.47-.489,2.947,2.947,0,0,0-1.326.335,4.429,4.429,0,0,0-1.251.957v-1.3a3.643,3.643,0,0,1,1.179-.827,3.856,3.856,0,0,1,1.548-.287A3.373,3.373,0,0,1-4.823-10a2.63,2.63,0,0,1,.875,2.082,3.726,3.726,0,0,1-.537,2.023A6.458,6.458,0,0,1-6.32-4.143,22.013,22.013,0,0,0-8.094-2.83a2.588,2.588,0,0,0-.625.759,1.988,1.988,0,0,0-.178.882h5.264V0h-6.658V-.526a4.287,4.287,0,0,1,.25-1.555,3.87,3.87,0,0,1,.824-1.244A12.075,12.075,0,0,1-7.427-4.778a6.96,6.96,0,0,0,1.7-1.535A2.581,2.581,0,0,0-5.274-7.813Zm5.886,5A9.044,9.044,0,0,1-1.446,1.962a11.938,11.938,0,0,0-.943-.82A7.342,7.342,0,0,0-.612-2.276,20.255,20.255,0,0,0-.3-6.323v-4.73H8.835V-.39q0,2.023-1.928,2.023-.807,0-2.078-.027Q4.761,1.114,4.625.458,5.882.54,6.607.54A.967.967,0,0,0,7.714-.54V-2.81Zm.109-1H7.714V-6.433H.824Q.824-5.065.721-3.808Zm.1-6.221v2.6H7.714v-2.6Z" transform="translate(160 148)" fill="#333b44"/>
      <path id="路径_8417" data-name="路径 8417" d="M4,0H48a4,4,0,0,1,4,4V24a4,4,0,0,1-4,4H4a4,4,0,0,1-4-4V4A4,4,0,0,1,4,0Z" transform="translate(134 177)" fill="#fff"/>
      <path id="路径_8418" data-name="路径 8418" d="M-3.9-3.268a3.245,3.245,0,0,1-1.029,2.5,3.915,3.915,0,0,1-2.765.95A4.375,4.375,0,0,1-9.916-.26V-1.627a3.974,3.974,0,0,0,2.188.7A2.571,2.571,0,0,0-5.94-1.542a2.078,2.078,0,0,0,.68-1.624,1.9,1.9,0,0,0-.708-1.576,3.136,3.136,0,0,0-2-.564,16.4,16.4,0,0,0-1.8.089l.39-5.373h4.949v1.176H-8.248l-.219,3,.964-.041a3.885,3.885,0,0,1,2.642.837A2.95,2.95,0,0,1-3.9-3.268ZM.612-2.81A9.044,9.044,0,0,1-1.446,1.962a11.938,11.938,0,0,0-.943-.82A7.342,7.342,0,0,0-.612-2.276,20.255,20.255,0,0,0-.3-6.323v-4.73H8.835V-.39q0,2.023-1.928,2.023-.807,0-2.078-.027Q4.761,1.114,4.625.458,5.882.54,6.607.54A.967.967,0,0,0,7.714-.54V-2.81Zm.109-1H7.714V-6.433H.824Q.824-5.065.721-3.808Zm.1-6.221v2.6H7.714v-2.6Z" transform="translate(160 196)" fill="#333b44"/>
      <path id="路径_8419" data-name="路径 8419" d="M4,0H48a4,4,0,0,1,4,4V24a4,4,0,0,1-4,4H4a4,4,0,0,1-4-4V4A4,4,0,0,1,4,0Z" transform="translate(134 225)" fill="#fff"/>
      <path id="路径_8420" data-name="路径 8420" d="M-10.435-2.953a2.86,2.86,0,0,1,.547-1.688,3.005,3.005,0,0,1,1.408-1.1,3.13,3.13,0,0,1-1.094-1,2.341,2.341,0,0,1-.4-1.319,2.554,2.554,0,0,1,.386-1.374,2.686,2.686,0,0,1,1.073-.978A3.245,3.245,0,0,1-7-10.767a3.307,3.307,0,0,1,1.524.352,2.633,2.633,0,0,1,1.073.974A2.583,2.583,0,0,1-4.023-8.06,2.379,2.379,0,0,1-4.416-6.75a3.068,3.068,0,0,1-1.09,1.008A3.008,3.008,0,0,1-4.1-4.635a2.875,2.875,0,0,1,.54,1.682A3.07,3.07,0,0,1-4-1.336,2.911,2.911,0,0,1-5.219-.226,3.934,3.934,0,0,1-7,.171a3.876,3.876,0,0,1-1.771-.4A2.958,2.958,0,0,1-10-1.34,3.038,3.038,0,0,1-10.435-2.953Zm1.313-.062A2.015,2.015,0,0,0-8.542-1.5,2.116,2.116,0,0,0-7-.937a2.127,2.127,0,0,0,1.542-.578,1.993,1.993,0,0,0,.6-1.5,1.99,1.99,0,0,0-.6-1.473A2.092,2.092,0,0,0-7-5.086,2.1,2.1,0,0,0-8.521-4.5,1.984,1.984,0,0,0-9.123-3.015ZM-8.74-7.95a1.67,1.67,0,0,0,.506,1.22A1.677,1.677,0,0,0-7-6.221a1.712,1.712,0,0,0,1.241-.513A1.647,1.647,0,0,0-5.233-7.95a1.65,1.65,0,0,0-.5-1.217A1.717,1.717,0,0,0-7-9.666a1.7,1.7,0,0,0-1.248.489A1.652,1.652,0,0,0-8.74-7.95ZM.612-2.81A9.044,9.044,0,0,1-1.446,1.962a11.938,11.938,0,0,0-.943-.82A7.342,7.342,0,0,0-.612-2.276,20.255,20.255,0,0,0-.3-6.323v-4.73H8.835V-.39q0,2.023-1.928,2.023-.807,0-2.078-.027Q4.761,1.114,4.625.458,5.882.54,6.607.54A.967.967,0,0,0,7.714-.54V-2.81Zm.109-1H7.714V-6.433H.824Q.824-5.065.721-3.808Zm.1-6.221v2.6H7.714v-2.6Z" transform="translate(160 244)" fill="#333b44"/>
      <path id="路径_8421" data-name="路径 8421" d="M4,0H48a4,4,0,0,1,4,4V24a4,4,0,0,1-4,4H4a4,4,0,0,1-4-4V4A4,4,0,0,1,4,0Z" transform="translate(134 273)" fill="#fff"/>
      <path id="路径_8422" data-name="路径 8422" d="M-11.313,0V-9.058a4.5,4.5,0,0,1-1.063.7,6.336,6.336,0,0,1-1.384.547V-9.119a8.937,8.937,0,0,0,1.8-.742,7.847,7.847,0,0,0,1.47-.96h.506V0ZM-3.1,0V-9.058a4.5,4.5,0,0,1-1.063.7,6.336,6.336,0,0,1-1.384.547V-9.119a8.937,8.937,0,0,0,1.8-.742,7.847,7.847,0,0,0,1.47-.96h.506V0Zm7.82-2.81A9.044,9.044,0,0,1,2.659,1.962a11.938,11.938,0,0,0-.943-.82A7.342,7.342,0,0,0,3.493-2.276a20.255,20.255,0,0,0,.314-4.047v-4.73H12.94V-.39q0,2.023-1.928,2.023-.807,0-2.078-.027Q8.866,1.114,8.729.458,9.987.54,10.712.54A.967.967,0,0,0,11.819-.54V-2.81Zm.109-1h6.993V-6.433H4.929Q4.929-5.065,4.826-3.808Zm.1-6.221v2.6h6.891v-2.6Z" transform="translate(160 292)" fill="#333b44"/>
      <path id="路径_8423" data-name="路径 8423" d="M4,0H48a4,4,0,0,1,4,4V24a4,4,0,0,1-4,4H4a4,4,0,0,1-4-4V4A4,4,0,0,1,4,0Z" transform="translate(208 129)" fill="#fff"/>
      <path id="路径_8424" data-name="路径 8424" d="M-10.127-1.771A3.907,3.907,0,0,0-7.673-.93,2.61,2.61,0,0,0-5.94-1.466,1.783,1.783,0,0,0-5.3-2.905q0-2.01-2.878-2.01h-.882V-6.022h.841q2.55,0,2.55-1.887,0-1.743-1.948-1.743a3.4,3.4,0,0,0-2.1.752v-1.265a4.757,4.757,0,0,1,2.427-.6,3.212,3.212,0,0,1,2.174.708A2.31,2.31,0,0,1-4.3-8.224,2.575,2.575,0,0,1-6.416-5.551v.027a2.858,2.858,0,0,1,1.815.81A2.362,2.362,0,0,1-3.934-3,2.877,2.877,0,0,1-4.963-.7,4.083,4.083,0,0,1-7.7.178a4.632,4.632,0,0,1-2.427-.561ZM.612-2.81A9.044,9.044,0,0,1-1.446,1.962a11.938,11.938,0,0,0-.943-.82A7.342,7.342,0,0,0-.612-2.276,20.255,20.255,0,0,0-.3-6.323v-4.73H8.835V-.39q0,2.023-1.928,2.023-.807,0-2.078-.027Q4.761,1.114,4.625.458,5.882.54,6.607.54A.967.967,0,0,0,7.714-.54V-2.81Zm.109-1H7.714V-6.433H.824Q.824-5.065.721-3.808Zm.1-6.221v2.6H7.714v-2.6Z" transform="translate(234 148)" fill="#333b44"/>
      <path id="路径_8425" data-name="路径 8425" d="M4,0H48a4,4,0,0,1,4,4V24a4,4,0,0,1-4,4H4a4,4,0,0,1-4-4V4A4,4,0,0,1,4,0Z" transform="translate(208 177)" fill="#fff"/>
      <path id="路径_8426" data-name="路径 8426" d="M-4.146-9.229a3.744,3.744,0,0,0-1.729-.424,2.572,2.572,0,0,0-2.208,1.2,5.7,5.7,0,0,0-.848,3.268H-8.9A2.518,2.518,0,0,1-6.5-6.645a2.831,2.831,0,0,1,2.194.9,3.385,3.385,0,0,1,.82,2.379A3.555,3.555,0,0,1-4.43-.82a3.185,3.185,0,0,1-2.417,1A2.962,2.962,0,0,1-9.379-1.083,6,6,0,0,1-10.3-4.662,7.394,7.394,0,0,1-9.092-9.116a3.752,3.752,0,0,1,3.175-1.651,4.172,4.172,0,0,1,1.771.308Zm-4.7,5.763a2.906,2.906,0,0,0,.557,1.791,1.758,1.758,0,0,0,1.48.745A1.779,1.779,0,0,0-5.39-1.572a2.463,2.463,0,0,0,.547-1.654,2.553,2.553,0,0,0-.516-1.7,1.817,1.817,0,0,0-1.466-.608,1.886,1.886,0,0,0-1.463.615A2.09,2.09,0,0,0-8.849-3.466ZM.612-2.81A9.044,9.044,0,0,1-1.446,1.962a11.938,11.938,0,0,0-.943-.82A7.342,7.342,0,0,0-.612-2.276,20.255,20.255,0,0,0-.3-6.323v-4.73H8.835V-.39q0,2.023-1.928,2.023-.807,0-2.078-.027Q4.761,1.114,4.625.458,5.882.54,6.607.54A.967.967,0,0,0,7.714-.54V-2.81Zm.109-1H7.714V-6.433H.824Q.824-5.065.721-3.808Zm.1-6.221v2.6H7.714v-2.6Z" transform="translate(234 196)" fill="#333b44"/>
      <path id="路径_8427" data-name="路径 8427" d="M4,0H48a4,4,0,0,1,4,4V24a4,4,0,0,1-4,4H4a4,4,0,0,1-4-4V4A4,4,0,0,1,4,0Z" transform="translate(208 225)" fill="#fff"/>
      <path id="路径_8428" data-name="路径 8428" d="M-9.84-1.436A3.706,3.706,0,0,0-7.954-.93a2.534,2.534,0,0,0,2.2-1.121,5.52,5.52,0,0,0,.783-3.186l-.014.007-.014-.007A2.438,2.438,0,0,1-7.338-3.91a2.924,2.924,0,0,1-2.208-.916,3.3,3.3,0,0,1-.875-2.379,3.554,3.554,0,0,1,.957-2.56,3.278,3.278,0,0,1,2.481-1A2.866,2.866,0,0,1-4.515-9.526a6.167,6.167,0,0,1,.889,3.613A7.584,7.584,0,0,1-4.775-1.4,3.712,3.712,0,0,1-7.954.178,4.423,4.423,0,0,1-9.84-.185Zm.772-5.94a2.481,2.481,0,0,0,.547,1.692,1.9,1.9,0,0,0,1.511.625,1.9,1.9,0,0,0,1.4-.571,1.891,1.891,0,0,0,.567-1.384A3.053,3.053,0,0,0-5.605-8.9a1.773,1.773,0,0,0-1.487-.749A1.789,1.789,0,0,0-8.507-9,2.4,2.4,0,0,0-9.068-7.376ZM.612-2.81A9.044,9.044,0,0,1-1.446,1.962a11.938,11.938,0,0,0-.943-.82A7.342,7.342,0,0,0-.612-2.276,20.255,20.255,0,0,0-.3-6.323v-4.73H8.835V-.39q0,2.023-1.928,2.023-.807,0-2.078-.027Q4.761,1.114,4.625.458,5.882.54,6.607.54A.967.967,0,0,0,7.714-.54V-2.81Zm.109-1H7.714V-6.433H.824Q.824-5.065.721-3.808Zm.1-6.221v2.6H7.714v-2.6Z" transform="translate(234 244)" fill="#333b44"/>
      <path id="路径_8429" data-name="路径 8429" d="M4,0H48a4,4,0,0,1,4,4V24a4,4,0,0,1-4,4H4a4,4,0,0,1-4-4V4A4,4,0,0,1,4,0Z" transform="translate(208 273)" fill="#fff"/>
      <path id="路径_8430" data-name="路径 8430" d="M-11.313,0V-9.058a4.5,4.5,0,0,1-1.063.7,6.336,6.336,0,0,1-1.384.547V-9.119a8.937,8.937,0,0,0,1.8-.742,7.847,7.847,0,0,0,1.47-.96h.506V0ZM-1.169-7.813a1.72,1.72,0,0,0-.54-1.343,2.108,2.108,0,0,0-1.47-.489A2.947,2.947,0,0,0-4.5-9.311a4.429,4.429,0,0,0-1.251.957v-1.3a3.643,3.643,0,0,1,1.179-.827,3.856,3.856,0,0,1,1.548-.287A3.373,3.373,0,0,1-.718-10,2.63,2.63,0,0,1,.157-7.916,3.726,3.726,0,0,1-.379-5.893a6.458,6.458,0,0,1-1.835,1.75A22.013,22.013,0,0,0-3.989-2.83a2.588,2.588,0,0,0-.625.759,1.988,1.988,0,0,0-.178.882H.472V0H-6.187V-.526a4.287,4.287,0,0,1,.25-1.555,3.87,3.87,0,0,1,.824-1.244A12.075,12.075,0,0,1-3.322-4.778a6.96,6.96,0,0,0,1.7-1.535A2.581,2.581,0,0,0-1.169-7.813Zm5.886,5A9.044,9.044,0,0,1,2.659,1.962a11.938,11.938,0,0,0-.943-.82A7.342,7.342,0,0,0,3.493-2.276a20.255,20.255,0,0,0,.314-4.047v-4.73H12.94V-.39q0,2.023-1.928,2.023-.807,0-2.078-.027Q8.866,1.114,8.729.458,9.987.54,10.712.54A.967.967,0,0,0,11.819-.54V-2.81Zm.109-1h6.993V-6.433H4.929Q4.929-5.065,4.826-3.808Zm.1-6.221v2.6h6.891v-2.6Z" transform="translate(234 292)" fill="#333b44"/>
    </g>
  </g>
</svg>
