<svg xmlns="http://www.w3.org/2000/svg" xmlns:xlink="http://www.w3.org/1999/xlink" width="300" height="300" viewBox="0 0 300 300">
  <defs>
    <filter id="矩形_2707" x="22" y="87" width="258" height="196" filterUnits="userSpaceOnUse">
      <feOffset dy="3" input="SourceAlpha"/>
      <feGaussianBlur stdDeviation="3" result="blur"/>
      <feFlood flood-opacity="0.02"/>
      <feComposite operator="in" in2="blur"/>
      <feComposite in="SourceGraphic"/>
    </filter>
    <clipPath id="clip-u-7">
      <rect width="300" height="300"/>
    </clipPath>
  </defs>
  <g id="u-7" clip-path="url(#clip-u-7)">
    <rect width="300" height="300" fill="#fff"/>
    <g id="组_16108" data-name="组 16108" transform="translate(-130)">
      <g transform="matrix(1, 0, 0, 1, 130, 0)" filter="url(#矩形_2707)">
        <g id="矩形_2707-2" data-name="矩形 2707" transform="translate(31 93)" fill="#fff" stroke="#e4e7ed" stroke-width="1">
          <rect width="240" height="178" rx="4" stroke="none"/>
          <rect x="0.5" y="0.5" width="239" height="177" rx="3.5" fill="none"/>
        </g>
      </g>
      <g id="矩形_4280" data-name="矩形 4280" transform="translate(160 29)" fill="#fff" stroke="#e4e5eb" stroke-width="1">
        <rect width="240" height="60" rx="4" stroke="none"/>
        <rect x="0.5" y="0.5" width="239" height="59" rx="3.5" fill="none"/>
      </g>
      <path id="路径_1716" data-name="路径 1716" d="M3.5,0H53a3.588,3.588,0,0,1,3.5,3.667V18.333A3.588,3.588,0,0,1,53,22H3.5A3.588,3.588,0,0,1,0,18.333V3.667A3.588,3.588,0,0,1,3.5,0Z" transform="translate(164 62)" fill="#f0f2f5" stroke="#e4e5eb" stroke-width="1"/>
      <text id="佛山" transform="translate(199 78)" fill="#333b44" font-size="14" font-family="MicrosoftYaHeiUI, Microsoft YaHei UI"><tspan x="-28" y="0">佛山</tspan></text>
      <rect id="矩形_2543" data-name="矩形 2543" width="16" height="16" transform="translate(201.5 65)" fill="none"/>
      <path id="路径_1714" data-name="路径 1714" d="M17163.486,8546.222l-6.73,6.729" transform="translate(-16951.256 -8476.223)" fill="none" stroke="#c0c4cc" stroke-width="1"/>
      <path id="路径_1715" data-name="路径 1715" d="M17156.756,8546.222l6.73,6.729" transform="translate(-16951.256 -8476.223)" fill="none" stroke="#c0c4cc" stroke-width="1"/>
      <path id="路径_1716-2" data-name="路径 1716" d="M3.5,0H53a3.588,3.588,0,0,1,3.5,3.667V18.333A3.588,3.588,0,0,1,53,22H3.5A3.588,3.588,0,0,1,0,18.333V3.667A3.588,3.588,0,0,1,3.5,0Z" transform="translate(285 34)" fill="#f0f2f5" stroke="#e4e5eb" stroke-width="1"/>
      <text id="深圳" transform="translate(320 50)" fill="#333b44" font-size="14" font-family="MicrosoftYaHeiUI, Microsoft YaHei UI"><tspan x="-28" y="0">深圳</tspan></text>
      <rect id="矩形_2543-2" data-name="矩形 2543" width="16" height="16" transform="translate(322.5 37)" fill="none"/>
      <path id="路径_1714-2" data-name="路径 1714" d="M17163.486,8546.222l-6.73,6.729" transform="translate(-16830.256 -8504.223)" fill="none" stroke="#c0c4cc" stroke-width="1"/>
      <path id="路径_1715-2" data-name="路径 1715" d="M17156.756,8546.222l6.73,6.729" transform="translate(-16830.256 -8504.223)" fill="none" stroke="#c0c4cc" stroke-width="1"/>
      <path id="路径_1716-3" data-name="路径 1716" d="M3.5,0H53a3.588,3.588,0,0,1,3.5,3.667V18.333A3.588,3.588,0,0,1,53,22H3.5A3.588,3.588,0,0,1,0,18.333V3.667A3.588,3.588,0,0,1,3.5,0Z" transform="translate(224.5 34)" fill="#f0f2f5" stroke="#e4e5eb" stroke-width="1"/>
      <text id="珠海" transform="translate(259.5 50)" fill="#333b44" font-size="14" font-family="MicrosoftYaHeiUI, Microsoft YaHei UI"><tspan x="-28" y="0">珠海</tspan></text>
      <rect id="矩形_2543-3" data-name="矩形 2543" width="16" height="16" transform="translate(262 37)" fill="none"/>
      <path id="路径_1714-3" data-name="路径 1714" d="M17163.486,8546.222l-6.73,6.729" transform="translate(-16890.756 -8504.223)" fill="none" stroke="#c0c4cc" stroke-width="1"/>
      <path id="路径_1715-3" data-name="路径 1715" d="M17156.756,8546.222l6.73,6.729" transform="translate(-16890.756 -8504.223)" fill="none" stroke="#c0c4cc" stroke-width="1"/>
      <path id="路径_1716-4" data-name="路径 1716" d="M3.5,0H53a3.588,3.588,0,0,1,3.5,3.667V18.333A3.588,3.588,0,0,1,53,22H3.5A3.588,3.588,0,0,1,0,18.333V3.667A3.588,3.588,0,0,1,3.5,0Z" transform="translate(164 34)" fill="#f0f2f5" stroke="#e4e5eb" stroke-width="1"/>
      <text id="广州" transform="translate(199 50)" fill="#333b44" font-size="14" font-family="MicrosoftYaHeiUI, Microsoft YaHei UI"><tspan x="-28" y="0">广州</tspan></text>
      <rect id="矩形_2543-4" data-name="矩形 2543" width="16" height="16" transform="translate(201.5 37)" fill="none"/>
      <path id="路径_1714-4" data-name="路径 1714" d="M17163.486,8546.222l-6.73,6.729" transform="translate(-16951.256 -8504.223)" fill="none" stroke="#c0c4cc" stroke-width="1"/>
      <path id="路径_1715-4" data-name="路径 1715" d="M17156.756,8546.222l6.73,6.729" transform="translate(-16951.256 -8504.223)" fill="none" stroke="#c0c4cc" stroke-width="1"/>
      <text id="_" data-name="  " transform="translate(170 50)" fill="#377CFD" font-size="14" font-family="MicrosoftYaHeiUI, Microsoft YaHei UI"><tspan x="0" y="0" xml:space="preserve">  </tspan></text>
      <rect id="矩形_5263" data-name="矩形 5263" width="238" height="34" transform="translate(162 199)" fill="rgba(55,124,253,0.1)"/>
      <path id="减去_86" data-name="减去 86" d="M-12165.544,11588.509h0l-3.947-4.45h7.9l-3.949,4.45Z" transform="translate(12549.545 -11527.059)" fill="rgba(0,0,0,0.24)"/>
      <rect id="矩形_2523" data-name="矩形 2523" width="238" height="34" transform="translate(162 97)" fill="rgba(55,124,253,0.1)"/>
      <text id="广州-2" data-name="广州" transform="translate(181 119)" fill="#377CFD" font-size="14" font-family="MicrosoftYaHeiUI, Microsoft YaHei UI"><tspan x="0" y="0">广州</tspan></text>
      <rect id="矩形_2524" data-name="矩形 2524" width="238" height="34" transform="translate(162 131)" fill="none"/>
      <text id="清远" transform="translate(181 153)" fill="rgba(0,0,0,0.8)" font-size="14" font-family="MicrosoftYaHeiUI, Microsoft YaHei UI"><tspan x="0" y="0">清远</tspan></text>
      <text id="珠海-2" data-name="珠海" transform="translate(181 221)" fill="#377CFD" font-size="14" font-family="MicrosoftYaHeiUI, Microsoft YaHei UI"><tspan x="0" y="0">珠海</tspan></text>
      <rect id="矩形_2524-2" data-name="矩形 2524" width="238" height="34" transform="translate(162 232.992)" fill="none" opacity="0.5"/>
      <text id="汕头" transform="translate(181 254.992)" fill="rgba(0,0,0,0.8)" font-size="14" font-family="MicrosoftYaHeiUI, Microsoft YaHei UI"><tspan x="0" y="0">汕头</tspan></text>
      <rect id="矩形_2525" data-name="矩形 2525" width="238" height="34" transform="translate(162 164.992)" fill="#fff"/>
      <text id="茂名" transform="translate(181 186.992)" fill="rgba(0,0,0,0.8)" font-size="14" font-family="MicrosoftYaHeiUI, Microsoft YaHei UI"><tspan x="0" y="0">茂名</tspan></text>
      <path id="路径_1727" data-name="路径 1727" d="M17003.027,3556.831l3.256,3.256,6.479-7.071" transform="translate(-16628 -3442.516)" fill="none" stroke="#377CFD" stroke-width="2"/>
      <path id="路径_6388" data-name="路径 6388" d="M17003.027,3556.831l3.256,3.256,6.479-7.071" transform="translate(-16628 -3340.516)" fill="none" stroke="#377CFD" stroke-width="2"/>
      <rect id="矩形_4281" data-name="矩形 4281" width="6" height="50" rx="3" transform="translate(387 98)" fill="#c2c2c2" opacity="0.6"/>
    </g>
  </g>
</svg>
