<svg xmlns="http://www.w3.org/2000/svg" xmlns:xlink="http://www.w3.org/1999/xlink" width="300" height="300" viewBox="0 0 300 300">
  <defs>
    <filter id="矩形_2649" x="21" y="84" width="138" height="175" filterUnits="userSpaceOnUse">
      <feOffset dy="3" input="SourceAlpha"/>
      <feGaussianBlur stdDeviation="3" result="blur"/>
      <feFlood flood-opacity="0.02"/>
      <feComposite operator="in" in2="blur"/>
      <feComposite in="SourceGraphic"/>
    </filter>
    <filter id="矩形_2737" x="140" y="84" width="138.998" height="175" filterUnits="userSpaceOnUse">
      <feOffset dy="3" input="SourceAlpha"/>
      <feGaussianBlur stdDeviation="3" result="blur-2"/>
      <feFlood flood-opacity="0.02"/>
      <feComposite operator="in" in2="blur-2"/>
      <feComposite in="SourceGraphic"/>
    </filter>
    <clipPath id="clip-u-8">
      <rect width="300" height="300"/>
    </clipPath>
  </defs>
  <g id="u-8" clip-path="url(#clip-u-8)">
    <rect width="300" height="300" fill="#fff"/>
    <g id="组_16111" data-name="组 16111" transform="translate(-130)">
      <g id="矩形_2499" data-name="矩形 2499" transform="translate(160 54)" fill="#fff" stroke="#377CFD" stroke-width="1">
        <rect width="240" height="32" rx="4" stroke="none"/>
        <rect x="0.5" y="0.5" width="239" height="31" rx="3.5" fill="none"/>
      </g>
      <text id="广东_珠海" data-name="广东 / 珠海" transform="translate(170 75)" fill="rgba(0,0,0,0.8)" font-size="14" font-family="MicrosoftYaHeiUI, Microsoft YaHei UI"><tspan x="0" y="0">广东 / 珠海</tspan></text>
      <path id="减去_87" data-name="减去 87" d="M-12159.3,11227.449h-7.9l3.949-4.448,3.949,4.446Z" transform="translate(12547.254 -11155)" fill="#377CFD"/>
      <g transform="matrix(1, 0, 0, 1, 130, 0)" filter="url(#矩形_2649)">
        <g id="矩形_2649-2" data-name="矩形 2649" transform="translate(30 90)" fill="#fff" stroke="#e4e7ed" stroke-width="1">
          <path d="M4,0H120a0,0,0,0,1,0,0V157a0,0,0,0,1,0,0H4a4,4,0,0,1-4-4V4A4,4,0,0,1,4,0Z" stroke="none"/>
          <path d="M4,.5H119a.5.5,0,0,1,.5.5V156a.5.5,0,0,1-.5.5H4A3.5,3.5,0,0,1,.5,153V4A3.5,3.5,0,0,1,4,.5Z" fill="none"/>
        </g>
      </g>
      <g transform="matrix(1, 0, 0, 1, 130, 0)" filter="url(#矩形_2737)">
        <g id="矩形_2737-2" data-name="矩形 2737" transform="translate(149 90)" fill="#fff" stroke="rgba(0,0,0,0.08)" stroke-width="1">
          <path d="M0,0H117a4,4,0,0,1,4,4V153a4,4,0,0,1-4,4H0a0,0,0,0,1,0,0V0A0,0,0,0,1,0,0Z" stroke="none"/>
          <path d="M1,.5H117A3.5,3.5,0,0,1,120.5,4V153a3.5,3.5,0,0,1-3.5,3.5H1a.5.5,0,0,1-.5-.5V1A.5.5,0,0,1,1,.5Z" fill="none"/>
        </g>
      </g>
      <rect id="矩形_2523" data-name="矩形 2523" width="118" height="34" transform="translate(161 98.992)" fill="rgba(55,124,253,0.1)"/>
      <text id="广东" transform="translate(173 120.992)" fill="#377CFD" font-size="14" font-family="MicrosoftYaHeiUI, Microsoft YaHei UI"><tspan x="0" y="0">广东</tspan></text>
      <rect id="矩形_4289" data-name="矩形 4289" width="16" height="16" transform="translate(254 108)" fill="none"/>
      <path id="路径_6390" data-name="路径 6390" d="M95.754,96.45l3.963-3.964-3.963-3.964" transform="translate(163.746 23.577)" fill="none" stroke="#377CFD" stroke-miterlimit="10" stroke-width="1.5"/>
      <rect id="矩形_2523-2" data-name="矩形 2523" width="118" height="34" transform="translate(161 132.992)" fill="none"/>
      <text id="浙江" transform="translate(173 154.992)" fill="#c1c4cb" font-size="14" font-family="MicrosoftYaHeiUI, Microsoft YaHei UI" opacity="0.6"><tspan x="0" y="0">浙江</tspan></text>
      <rect id="矩形_4289-2" data-name="矩形 4289" width="16" height="16" transform="translate(254 142)" fill="none"/>
      <path id="路径_6390-2" data-name="路径 6390" d="M95.754,96.45l3.963-3.964-3.963-3.964" transform="translate(163.746 57.577)" fill="none" stroke="#858585" stroke-miterlimit="10" stroke-width="1.5"/>
      <rect id="矩形_2523-3" data-name="矩形 2523" width="119" height="34" transform="translate(280 132.992)" fill="rgba(55,124,253,0.1)"/>
      <text id="珠海市" transform="translate(291 154.992)" fill="#377CFD" font-size="14" font-family="MicrosoftYaHeiUI, Microsoft YaHei UI"><tspan x="0" y="0">珠海市</tspan></text>
      <rect id="矩形_2523-4" data-name="矩形 2523" width="118" height="34" transform="translate(279 166.992)" fill="none"/>
      <text id="深圳市" transform="translate(291 188.992)" fill="#333b44" font-size="14" font-family="MicrosoftYaHeiUI, Microsoft YaHei UI"><tspan x="0" y="0">深圳市</tspan></text>
      <rect id="矩形_2523-5" data-name="矩形 2523" width="118" height="34" transform="translate(279 200.992)" fill="none"/>
      <text id="佛山市" transform="translate(291 222.992)" fill="#333b44" font-size="14" font-family="MicrosoftYaHeiUI, Microsoft YaHei UI"><tspan x="0" y="0">佛山市</tspan></text>
      <rect id="矩形_2523-6" data-name="矩形 2523" width="118" height="34" transform="translate(279 98.992)" fill="none"/>
      <text id="广州市" transform="translate(291 120.992)" fill="#333b44" font-size="14" font-family="MicrosoftYaHeiUI, Microsoft YaHei UI"><tspan x="0" y="0">广州市</tspan></text>
      <rect id="矩形_4290" data-name="矩形 4290" width="6" height="40" rx="3" transform="translate(390 94)" fill="#c2c2c2" opacity="0.6"/>
    </g>
  </g>
</svg>
