<svg xmlns="http://www.w3.org/2000/svg" xmlns:xlink="http://www.w3.org/1999/xlink" width="300" height="300" viewBox="0 0 300 300">
  <defs>
    <filter id="联合_53" x="21" y="84.999" width="258" height="172" filterUnits="userSpaceOnUse">
      <feOffset dy="3" input="SourceAlpha"/>
      <feGaussianBlur stdDeviation="3" result="blur"/>
      <feFlood flood-opacity="0.02"/>
      <feComposite operator="in" in2="blur"/>
      <feComposite in="SourceGraphic"/>
    </filter>
    <clipPath id="clip-u-9">
      <rect width="300" height="300"/>
    </clipPath>
  </defs>
  <g id="u-9" clip-path="url(#clip-u-9)">
    <rect width="300" height="300" fill="#fff"/>
    <g id="组_16110" data-name="组 16110" transform="translate(-13257 11047)">
      <g id="组_13305" data-name="组 13305" transform="translate(11871 -13950)">
        <g id="组_13307" data-name="组 13307" transform="translate(1336 2361)">
          <g id="_4" data-name="4" transform="translate(79.5 596)">
            <g id="矩形_2511" data-name="矩形 2511" transform="translate(0.5 1)" fill="none" stroke="#377CFD" stroke-width="1">
              <rect width="240" height="32" rx="4" stroke="none"/>
              <rect x="0.5" y="0.5" width="239" height="31" rx="3.5" fill="none"/>
            </g>
            <text id="_09:43:01" data-name="09:43:01" transform="translate(12.5 22)" fill="#333b44" font-size="14" font-family="MicrosoftYaHeiUI, Microsoft YaHei UI"><tspan x="0" y="0">09:43:01</tspan></text>
          </g>
          <g id="组_13309" data-name="组 13309">
            <g id="椭圆_228" data-name="椭圆 228" transform="translate(297 606)" fill="none" stroke="#c1c4cb" stroke-width="1">
              <circle cx="7" cy="7" r="7" stroke="none"/>
              <circle cx="7" cy="7" r="6.5" fill="none"/>
            </g>
            <path id="路径_1746" data-name="路径 1746" d="M12871.577,8775.092v4.489h-3.555" transform="translate(-12567 -8166)" fill="none" stroke="#c1c4cb" stroke-width="1"/>
          </g>
        </g>
        <g id="组_13308" data-name="组 13308" transform="translate(1336 602.957)">
          <g transform="matrix(1, 0, 0, 1, 50, 2300.04)" filter="url(#联合_53)">
            <g id="联合_53-2" data-name="联合 53" transform="translate(12573.5 2568.96)" fill="#fff">
              <path d="M -12307.5 -2324.455810546875 L -12539.5 -2324.455810546875 C -12541.4296875 -2324.455810546875 -12543 -2326.02587890625 -12543 -2327.955810546875 L -12543 -2473.955810546875 C -12543 -2475.8857421875 -12541.4296875 -2477.455810546875 -12539.5 -2477.455810546875 L -12307.5 -2477.455810546875 C -12305.5703125 -2477.455810546875 -12304 -2475.8857421875 -12304 -2473.955810546875 L -12304 -2327.955810546875 C -12304 -2326.02587890625 -12305.5703125 -2324.455810546875 -12307.5 -2324.455810546875 Z" stroke="none"/>
              <path d="M -12539.5 -2476.955810546875 C -12541.154296875 -2476.955810546875 -12542.5 -2475.610107421875 -12542.5 -2473.955810546875 L -12542.5 -2327.955810546875 C -12542.5 -2326.301513671875 -12541.154296875 -2324.955810546875 -12539.5 -2324.955810546875 L -12307.5 -2324.955810546875 C -12305.845703125 -2324.955810546875 -12304.5 -2326.301513671875 -12304.5 -2327.955810546875 L -12304.5 -2473.955810546875 C -12304.5 -2475.610107421875 -12305.845703125 -2476.955810546875 -12307.5 -2476.955810546875 L -12539.5 -2476.955810546875 M -12539.5 -2477.955810546875 L -12307.5 -2477.955810546875 C -12305.291015625 -2477.955810546875 -12303.5 -2476.1650390625 -12303.5 -2473.955810546875 L -12303.5 -2327.955810546875 C -12303.5 -2325.74658203125 -12305.291015625 -2323.955810546875 -12307.5 -2323.955810546875 L -12539.5 -2323.955810546875 C -12541.708984375 -2323.955810546875 -12543.5 -2325.74658203125 -12543.5 -2327.955810546875 L -12543.5 -2473.955810546875 C -12543.5 -2476.1650390625 -12541.708984375 -2477.955810546875 -12539.5 -2477.955810546875 Z" stroke="none" fill="#e4e7ed"/>
            </g>
          </g>
          <rect id="矩形_2763" data-name="矩形 2763" width="1" height="153" transform="translate(239 2392)" fill="#e4e7ed"/>
          <rect id="矩形_2766" data-name="矩形 2766" width="1" height="153" transform="translate(160 2392)" fill="#e4e7ed"/>
          <path id="路径_1748" data-name="路径 1748" d="M0,0H79V24H0Z" transform="translate(81 2401)" fill="#377CFD" opacity="0.1"/>
          <path id="路径_1749" data-name="路径 1749" d="M0,0H78V24H0Z" transform="translate(161 2401)" fill="rgba(55,124,253,0.1)"/>
          <path id="路径_1750" data-name="路径 1750" d="M0,0H78.741V24H0Z" transform="translate(240 2401)" fill="rgba(55,124,253,0.1)"/>
          <text id="_09_10_11_12_13_14" data-name="09
10
11
12
13
14" transform="translate(111 2404)" fill="#377CFD" font-size="14" font-family="MicrosoftYaHeiUI, Microsoft YaHei UI"><tspan x="-8.21" y="14">09</tspan><tspan fill="#333b44"><tspan x="-8.21" y="37">10</tspan><tspan x="-8.21" y="60">11</tspan><tspan x="-8.21" y="83">12</tspan><tspan x="-8.21" y="106">13</tspan><tspan x="-8.21" y="129">14</tspan></tspan></text>
          <text id="_01_02_03_04_05_06" data-name="01
02
03
04
05
06" transform="translate(270 2404)" fill="#377CFD" font-size="14" font-family="MicrosoftYaHeiUI, Microsoft YaHei UI"><tspan x="-8.21" y="14">01</tspan><tspan fill="#333b44"><tspan x="-8.21" y="37">02</tspan><tspan x="-8.21" y="60">03</tspan><tspan x="-8.21" y="83">04</tspan><tspan x="-8.21" y="106">05</tspan><tspan x="-8.21" y="129">06</tspan></tspan></text>
          <text id="_43_44_45_46_47_48" data-name="43
44
45
46
47
48" transform="translate(190 2404)" fill="#377CFD" font-size="14" font-family="MicrosoftYaHeiUI, Microsoft YaHei UI"><tspan x="-8.21" y="14">43</tspan><tspan fill="#333b44"><tspan x="-8.21" y="37">44</tspan><tspan x="-8.21" y="60">45</tspan><tspan x="-8.21" y="83">46</tspan><tspan x="-8.21" y="106">47</tspan><tspan x="-8.21" y="129">48</tspan></tspan></text>
        </g>
        <rect id="矩形_4292" data-name="矩形 4292" width="6" height="40" rx="3" transform="translate(1486 3018)" fill="#c2c2c2" opacity="0.6"/>
        <rect id="矩形_4293" data-name="矩形 4293" width="6" height="40" rx="3" transform="translate(1565 3058)" fill="#c2c2c2" opacity="0.6"/>
        <rect id="矩形_4294" data-name="矩形 4294" width="6" height="40" rx="3" transform="translate(1646 2998)" fill="#c2c2c2" opacity="0.6"/>
      </g>
    </g>
  </g>
</svg>
