<svg xmlns="http://www.w3.org/2000/svg" xmlns:xlink="http://www.w3.org/1999/xlink" width="980" height="486" viewBox="0 0 980 486">
  <defs>
    <filter id="矩形_4556" x="12.5" y="13.5" width="955" height="461" filterUnits="userSpaceOnUse">
      <feOffset dy="1" input="SourceAlpha"/>
      <feGaussianBlur stdDeviation="2.5" result="blur"/>
      <feFlood flood-opacity="0.02"/>
      <feComposite operator="in" in2="blur"/>
      <feComposite in="SourceGraphic"/>
    </filter>
    <filter id="矩形_5369" x="162" y="124" width="471" height="78" filterUnits="userSpaceOnUse">
      <feOffset input="SourceAlpha"/>
      <feGaussianBlur stdDeviation="6" result="blur-2"/>
      <feFlood flood-opacity="0.122"/>
      <feComposite operator="in" in2="blur-2"/>
      <feComposite in="SourceGraphic"/>
    </filter>
    <filter id="矩形_5370" x="162" y="202" width="471" height="78" filterUnits="userSpaceOnUse">
      <feOffset input="SourceAlpha"/>
      <feGaussianBlur stdDeviation="6" result="blur-3"/>
      <feFlood flood-opacity="0.122"/>
      <feComposite operator="in" in2="blur-3"/>
      <feComposite in="SourceGraphic"/>
    </filter>
    <filter id="矩形_5371" x="162" y="280" width="471" height="78" filterUnits="userSpaceOnUse">
      <feOffset input="SourceAlpha"/>
      <feGaussianBlur stdDeviation="6" result="blur-4"/>
      <feFlood flood-opacity="0.122"/>
      <feComposite operator="in" in2="blur-4"/>
      <feComposite in="SourceGraphic"/>
    </filter>
    <filter id="矩形_5372" x="162" y="358" width="471" height="78" filterUnits="userSpaceOnUse">
      <feOffset input="SourceAlpha"/>
      <feGaussianBlur stdDeviation="6" result="blur-5"/>
      <feFlood flood-opacity="0.122"/>
      <feComposite operator="in" in2="blur-5"/>
      <feComposite in="SourceGraphic"/>
    </filter>
    <clipPath id="clip-y-10">
      <rect width="980" height="486"/>
    </clipPath>
  </defs>
  <g id="y-10" clip-path="url(#clip-y-10)">
    <rect width="980" height="486" fill="#fff"/>
    <g id="组件_443_61" data-name="组件 443 – 61">
      <g id="矩形_4553" data-name="矩形 4553" fill="#f5f7fc" stroke="#edeff6" stroke-width="1">
        <rect width="980" height="486" rx="4" stroke="none"/>
        <rect x="0.5" y="0.5" width="979" height="485" rx="3.5" fill="none"/>
      </g>
      <g transform="matrix(1, 0, 0, 1, 0, 0)" filter="url(#矩形_4556)">
        <g id="矩形_4556-2" data-name="矩形 4556" transform="translate(20 20)" fill="#fff" stroke="rgba(231,235,246,0.7)" stroke-width="1">
          <rect width="940" height="446" rx="4" stroke="none"/>
          <rect x="0.5" y="0.5" width="939" height="445" rx="3.5" fill="none"/>
        </g>
      </g>
    </g>
    <text id="全局提示_Message_" data-name="全局提示（Message）" transform="translate(48 68)" fill="rgba(0,0,0,0.8)" font-size="20" font-family="MicrosoftYaHeiUI, Microsoft YaHei UI"><tspan x="0" y="0">全局提示（Message）</tspan></text>
    <rect id="矩形_5320" data-name="矩形 5320" width="884" height="1" transform="translate(48 93)" fill="#fff"/>
    <path id="矩形_5320_-_轮廓" data-name="矩形 5320 - 轮廓" d="M0,0H884V1H0Z" transform="translate(48 93)" fill="#e4e5eb"/>
    <g transform="matrix(1, 0, 0, 1, 0, 0)" filter="url(#矩形_5369)">
      <rect id="矩形_5369-2" data-name="矩形 5369" width="435" height="42" rx="4" transform="translate(180 142)" fill="#fff"/>
    </g>
    <g transform="matrix(1, 0, 0, 1, 0, 0)" filter="url(#矩形_5370)">
      <rect id="矩形_5370-2" data-name="矩形 5370" width="435" height="42" rx="4" transform="translate(180 220)" fill="#fff"/>
    </g>
    <g transform="matrix(1, 0, 0, 1, 0, 0)" filter="url(#矩形_5371)">
      <rect id="矩形_5371-2" data-name="矩形 5371" width="435" height="42" rx="4" transform="translate(180 298)" fill="#fff"/>
    </g>
    <g transform="matrix(1, 0, 0, 1, 0, 0)" filter="url(#矩形_5372)">
      <rect id="矩形_5372-2" data-name="矩形 5372" width="435" height="42" rx="4" transform="translate(180 376)" fill="#fff"/>
    </g>
    <text id="普通提示" transform="translate(72 169)" fill="rgba(0,0,0,0.8)" font-size="16" font-family="MicrosoftYaHeiUI-Bold, Microsoft YaHei UI" font-weight="700"><tspan x="0" y="0">普通提示</tspan></text>
    <text id="成功提示" transform="translate(72 247)" fill="rgba(0,0,0,0.8)" font-size="16" font-family="MicrosoftYaHeiUI-Bold, Microsoft YaHei UI" font-weight="700"><tspan x="0" y="0">成功提示</tspan></text>
    <text id="警告提示" transform="translate(72 325)" fill="rgba(0,0,0,0.8)" font-size="16" font-family="MicrosoftYaHeiUI-Bold, Microsoft YaHei UI" font-weight="700"><tspan x="0" y="0">警告提示</tspan></text>
    <text id="错误提示" transform="translate(72 403)" fill="rgba(0,0,0,0.8)" font-size="16" font-family="MicrosoftYaHeiUI-Bold, Microsoft YaHei UI" font-weight="700"><tspan x="0" y="0">错误提示</tspan></text>
    <g id="组_16176" data-name="组 16176" transform="translate(-327 12)">
      <g id="组_16174" data-name="组 16174" transform="translate(372)">
        <text id="这是一条正常消息_会主动消失_" data-name="这是一条正常消息，会主动消失。" transform="translate(173 156)" fill="rgba(0,0,0,0.8)" font-size="14" font-family="MicrosoftYaHeiUI, Microsoft YaHei UI"><tspan x="0" y="0">这是一条正常消息，会主动消失。</tspan></text>
        <g id="组_16187" data-name="组 16187" transform="translate(5 24.988)">
          <path id="联合_121" data-name="联合 121" d="M-3081,8665.012a7.014,7.014,0,0,1,7.012-7.013,7.014,7.014,0,0,1,7.012,7.013,7.013,7.013,0,0,1-7.012,7.012A7.013,7.013,0,0,1-3081,8665.012Z" transform="translate(3227 -8539)" fill="#377cfd"/>
          <path id="路径_8788" data-name="路径 8788" d="M45.629,119.628H43v.876h.876v3.506h1.68l.876-.876h-.8Zm-1.753-.885h1.753V116.99H43.876Z" transform="translate(108.259 5.507)" fill="#fff"/>
        </g>
      </g>
    </g>
    <text id="这是一条正常消息_会主动消失_2" data-name="这是一条正常消息，会主动消失。" transform="translate(218 246)" fill="rgba(0,0,0,0.8)" font-size="14" font-family="MicrosoftYaHeiUI, Microsoft YaHei UI"><tspan x="0" y="0">这是一条正常消息，会主动消失。</tspan></text>
    <text id="这是一条正常消息_会主动消失_3" data-name="这是一条正常消息，会主动消失。" transform="translate(218 324)" fill="rgba(0,0,0,0.8)" font-size="14" font-family="MicrosoftYaHeiUI, Microsoft YaHei UI"><tspan x="0" y="0">这是一条正常消息，会主动消失。</tspan></text>
    <text id="这是一条正常消息_会主动消失_4" data-name="这是一条正常消息，会主动消失。" transform="translate(218 402)" fill="rgba(0,0,0,0.8)" font-size="14" font-family="MicrosoftYaHeiUI, Microsoft YaHei UI"><tspan x="0" y="0">这是一条正常消息，会主动消失。</tspan></text>
    <g id="首页_生产者" transform="translate(-595.5 168.5)">
      <g id="编组-3" transform="translate(791 143)">
        <circle id="椭圆形" cx="7" cy="7" r="7" transform="translate(0.5 0.5)" fill="#f3940d"/>
        <path id="_" data-name="！" d="M6,3H8L7.63,8H6.37Zm.994,6a1.011,1.011,0,0,1,.723.278A.992.992,0,0,1,8,9.993.963.963,0,0,1,6.994,11a.941.941,0,0,1-.7-.291,1.01,1.01,0,0,1,0-1.43A.93.93,0,0,1,6.994,9Z" transform="translate(0.5 0.5)" fill="#fff"/>
      </g>
    </g>
    <g id="组_16264" data-name="组 16264" transform="translate(-130 50)">
      <path id="联合_120" data-name="联合 120" d="M-2903,8576a7,7,0,0,1,7-7,7,7,0,0,1,7,7,7,7,0,0,1-7,7A7,7,0,0,1-2903,8576Z" transform="translate(3229 -8385)" fill="#13ce66"/>
      <path id="联合_120_-_轮廓" data-name="联合 120 - 轮廓" d="M-2896,8568.5a7.508,7.508,0,0,1,7.5,7.5,7.508,7.508,0,0,1-7.5,7.5,7.509,7.509,0,0,1-7.5-7.5A7.51,7.51,0,0,1-2896,8568.5Zm0,14a6.507,6.507,0,0,0,6.5-6.5,6.507,6.507,0,0,0-6.5-6.5,6.508,6.508,0,0,0-6.5,6.5A6.508,6.508,0,0,0-2896,8582.5Z" transform="translate(3229 -8385)" fill="rgba(0,0,0,0)"/>
      <path id="路径_8777" data-name="路径 8777" d="M335.586,188.211l-3.544,3.579-1.743-1.742-1.414,1.414,3.157,3.157,1.414-1.414,3.544-3.58Z" fill="#fff"/>
    </g>
    <g id="组_16265" data-name="组 16265" transform="translate(45 246)">
      <g id="首页_生产者-2" data-name="首页_生产者" transform="translate(-640.5 0.5)">
        <g id="编组-3-2" data-name="编组-3" transform="translate(791 143)">
          <circle id="椭圆形-2" data-name="椭圆形" cx="7" cy="7" r="7" transform="translate(0.5 0.5)" fill="#ff4949"/>
        </g>
      </g>
      <g id="组_16190" data-name="组 16190" transform="translate(154.654 147.65)">
        <path id="路径_8791" data-name="路径 8791" d="M190.475,170l1.216,1.216-5.475,5.475L185,175.475Z" transform="translate(-185 -170)" fill="#fff" fill-rule="evenodd"/>
        <path id="路径_8792" data-name="路径 8792" d="M186.216,170,185,171.216l5.475,5.475,1.216-1.216Z" transform="translate(-185 -170)" fill="#fff" fill-rule="evenodd"/>
      </g>
    </g>
  </g>
</svg>
