<svg xmlns="http://www.w3.org/2000/svg" xmlns:xlink="http://www.w3.org/1999/xlink" width="980" height="486" viewBox="0 0 980 486">
  <defs>
    <filter id="矩形_4556" x="12.5" y="13.5" width="955" height="461" filterUnits="userSpaceOnUse">
      <feOffset dy="1" input="SourceAlpha"/>
      <feGaussianBlur stdDeviation="2.5" result="blur"/>
      <feFlood flood-opacity="0.02"/>
      <feComposite operator="in" in2="blur"/>
      <feComposite in="SourceGraphic"/>
    </filter>
    <filter id="矩形_5374" x="169" y="178" width="592" height="211" filterUnits="userSpaceOnUse">
      <feOffset dy="4" input="SourceAlpha"/>
      <feGaussianBlur stdDeviation="4" result="blur-2"/>
      <feFlood flood-opacity="0.251"/>
      <feComposite operator="in" in2="blur-2"/>
      <feComposite in="SourceGraphic"/>
    </filter>
    <clipPath id="clip-y-11">
      <rect width="980" height="486"/>
    </clipPath>
  </defs>
  <g id="y-11" clip-path="url(#clip-y-11)">
    <rect width="980" height="486" fill="#fff"/>
    <g id="组件_443_62" data-name="组件 443 – 62">
      <g id="矩形_4553" data-name="矩形 4553" fill="#f5f7fc" stroke="#edeff6" stroke-width="1">
        <rect width="980" height="486" rx="4" stroke="none"/>
        <rect x="0.5" y="0.5" width="979" height="485" rx="3.5" fill="none"/>
      </g>
      <g transform="matrix(1, 0, 0, 1, 0, 0)" filter="url(#矩形_4556)">
        <g id="矩形_4556-2" data-name="矩形 4556" transform="translate(20 20)" fill="#fff" stroke="rgba(231,235,246,0.7)" stroke-width="1">
          <rect width="940" height="446" rx="4" stroke="none"/>
          <rect x="0.5" y="0.5" width="939" height="445" rx="3.5" fill="none"/>
        </g>
      </g>
    </g>
    <text id="模态对话框_Modal_" data-name="模态对话框（Modal）" transform="translate(48 68)" fill="rgba(0,0,0,0.8)" font-size="20" font-family="MicrosoftYaHeiUI, Microsoft YaHei UI"><tspan x="0" y="0">模态对话框（Modal）</tspan></text>
    <rect id="矩形_5320" data-name="矩形 5320" width="884" height="1" transform="translate(48 93)" fill="#fff"/>
    <path id="矩形_5320_-_轮廓" data-name="矩形 5320 - 轮廓" d="M0,0H884V1H0Z" transform="translate(48 93)" fill="#e4e5eb"/>
    <rect id="矩形_5373" data-name="矩形 5373" width="884" height="324" transform="translate(48 118)" fill="rgba(0,0,0,0.3)"/>
    <g transform="matrix(1, 0, 0, 1, 0, 0)" filter="url(#矩形_5374)">
      <rect id="矩形_5374-2" data-name="矩形 5374" width="568" height="187" rx="10" transform="translate(181 186)" fill="#fff"/>
    </g>
    <text id="警告" transform="translate(237 228)" fill="rgba(0,0,0,0.8)" font-size="18" font-family="MicrosoftYaHeiUI-Bold, Microsoft YaHei UI" font-weight="700"><tspan x="0" y="0">警告</tspan></text>
    <g id="组件_464_4" data-name="组件 464 – 4" transform="translate(705 202)">
      <g id="组件_463_1" data-name="组件 463 – 1">
        <g id="组_16165" data-name="组 16165" transform="translate(-242 -161)">
          <rect id="矩形_5321" data-name="矩形 5321" width="28" height="28" rx="14" transform="translate(242 161)" fill="#f0f0f0"/>
        </g>
        <g id="组_16164" data-name="组 16164" transform="translate(-915.232 -504.282)">
          <line id="直线_875" data-name="直线 875" x1="9" y2="9" transform="translate(924.732 513.782)" fill="none" stroke="rgba(0,0,0,0.8)" stroke-miterlimit="10" stroke-width="2"/>
          <line id="直线_876" data-name="直线 876" x2="9" y2="9" transform="translate(924.732 513.782)" fill="none" stroke="rgba(0,0,0,0.8)" stroke-miterlimit="10" stroke-width="2"/>
        </g>
      </g>
    </g>
    <g id="组_16266" data-name="组 16266" transform="translate(54 68)">
      <g id="首页_生产者" transform="translate(151 144)">
        <g id="编组-3">
          <circle id="椭圆形" cx="10" cy="10" r="10" fill="#ff4949"/>
        </g>
      </g>
      <g id="组_16190" data-name="组 16190" transform="translate(156.22 149.215)">
        <path id="路径_8791" data-name="路径 8791" d="M192.821,170l1.738,1.738-7.821,7.821L185,177.821Z" transform="translate(-185 -170)" fill="#fff" fill-rule="evenodd"/>
        <path id="路径_8792" data-name="路径 8792" d="M186.738,170,185,171.738l7.821,7.821,1.738-1.738Z" transform="translate(-185 -170)" fill="#fff" fill-rule="evenodd"/>
      </g>
    </g>
    <text id="您已经超过10分钟误操作_为确保信息安全_系统将自动退出_如需操作请重新登录" data-name="您已经超过10分钟误操作，为确保信息安全，系统将自动退出，如需操作请重新登录" transform="translate(205 276)" fill="rgba(0,0,0,0.8)" font-size="14" font-family="MicrosoftYaHeiUI, Microsoft YaHei UI"><tspan x="0" y="0">您已经超过10分钟误操作，为确保信息安全，系统将自动退出，如需操作请重新登录</tspan></text>
    <g id="组_16267" data-name="组 16267" transform="translate(4)">
      <rect id="矩形_5375" data-name="矩形 5375" width="90" height="37" rx="4" transform="translate(639 320)" fill="#377cfd"/>
      <text id="知道了" transform="translate(663 344)" fill="#fff" font-size="14" font-family="MicrosoftYaHeiUI, Microsoft YaHei UI"><tspan x="0" y="0">知道了</tspan></text>
    </g>
  </g>
</svg>
