<svg xmlns="http://www.w3.org/2000/svg" xmlns:xlink="http://www.w3.org/1999/xlink" width="980" height="420" viewBox="0 0 980 420">
  <defs>
    <filter id="矩形_4556" x="12.5" y="13.5" width="955" height="395" filterUnits="userSpaceOnUse">
      <feOffset dy="1" input="SourceAlpha"/>
      <feGaussianBlur stdDeviation="2.5" result="blur"/>
      <feFlood flood-opacity="0.02"/>
      <feComposite operator="in" in2="blur"/>
      <feComposite in="SourceGraphic"/>
    </filter>
    <clipPath id="clip-y-12">
      <rect width="980" height="420"/>
    </clipPath>
  </defs>
  <g id="y-12" clip-path="url(#clip-y-12)">
    <rect width="980" height="420" fill="#fff"/>
    <g id="组件_443_63" data-name="组件 443 – 63">
      <g id="矩形_4553" data-name="矩形 4553" fill="#f5f7fc" stroke="#edeff6" stroke-width="1">
        <rect width="980" height="420" rx="4" stroke="none"/>
        <rect x="0.5" y="0.5" width="979" height="419" rx="3.5" fill="none"/>
      </g>
      <g transform="matrix(1, 0, 0, 1, 0, 0)" filter="url(#矩形_4556)">
        <g id="矩形_4556-2" data-name="矩形 4556" transform="translate(20 20)" fill="#fff" stroke="rgba(231,235,246,0.7)" stroke-width="1">
          <rect width="940" height="380" rx="4" stroke="none"/>
          <rect x="0.5" y="0.5" width="939" height="379" rx="3.5" fill="none"/>
        </g>
      </g>
    </g>
    <text id="结果页" transform="translate(48 68)" fill="rgba(0,0,0,0.8)" font-size="20" font-family="MicrosoftYaHeiUI, Microsoft YaHei UI"><tspan x="0" y="0">结果页</tspan></text>
    <rect id="矩形_5320" data-name="矩形 5320" width="884" height="1" transform="translate(48 93)" fill="#fff"/>
    <path id="矩形_5320_-_轮廓" data-name="矩形 5320 - 轮廓" d="M0,0H884V1H0Z" transform="translate(48 93)" fill="#e4e5eb"/>
    <g id="组_16277" data-name="组 16277" transform="translate(0 -6)">
      <rect id="矩形_5340" data-name="矩形 5340" width="884" height="1" transform="translate(48 238)" fill="#fff"/>
      <path id="矩形_5340_-_轮廓" data-name="矩形 5340 - 轮廓" d="M0,0H884V1H0Z" transform="translate(48 238)" fill="#e4e5eb"/>
      <text id="您还可以进行以下操作" transform="translate(48 285)" fill="rgba(0,0,0,0.8)" font-size="16" font-family="MicrosoftYaHeiUI, Microsoft YaHei UI"><tspan x="0" y="0">您还可以进行以下操作</tspan></text>
      <g id="组_16275" data-name="组 16275" transform="translate(0 -6)">
        <g id="组_16274" data-name="组 16274" transform="translate(20 -3)">
          <text id="提交成功" transform="translate(108 180)" fill="rgba(0,0,0,0.8)" font-size="20" font-family="MicrosoftYaHeiUI-Bold, Microsoft YaHei UI" font-weight="700"><tspan x="0" y="0">提交成功</tspan></text>
          <text id="稍后刷新网页可查看最新的内容" transform="translate(108 211)" fill="rgba(0,0,0,0.48)" font-size="14" font-family="MicrosoftYaHeiUI, Microsoft YaHei UI"><tspan x="0" y="0">稍后刷新网页可查看最新的内容</tspan></text>
        </g>
        <g id="组_16268" data-name="组 16268" transform="translate(-278 -30.004)">
          <path id="联合_120" data-name="联合 120" d="M0,30A30,30,0,1,1,30.006,60,30,30,0,0,1,0,30Z" transform="translate(326 184.004)" fill="#13ce66"/>
          <path id="联合_120_-_轮廓" data-name="联合 120 - 轮廓" d="M30.006,60.5A30.507,30.507,0,0,1,18.131,1.9,30.508,30.508,0,0,1,41.874,58.1,30.3,30.3,0,0,1,30.006,60.5Zm0-60A29.5,29.5,0,1,0,59.5,30,29.536,29.536,0,0,0,30.006.5Z" transform="translate(326 184.004)" fill="rgba(0,0,0,0)"/>
          <path id="路径_8777" data-name="路径 8777" d="M357.263,188.211l-15.009,15.157-7.381-7.377-5.988,5.988,13.37,13.37,5.988-5.988L363.251,194.2Z" transform="translate(9.332 13.626)" fill="#fff"/>
        </g>
      </g>
      <g id="组_16276" data-name="组 16276" transform="translate(0 15)">
        <g id="组_16267" data-name="组 16267" transform="translate(-591 -22)">
          <rect id="矩形_5375" data-name="矩形 5375" width="90" height="37" rx="4" transform="translate(639 320)" fill="#377cfd"/>
          <text id="操作1" transform="translate(666 344)" fill="#fff" font-size="14" font-family="MicrosoftYaHeiUI, Microsoft YaHei UI"><tspan x="0" y="0">操作1</tspan></text>
        </g>
        <g id="组_16272" data-name="组 16272" transform="translate(-489 -22)">
          <rect id="矩形_5375-2" data-name="矩形 5375" width="90" height="37" rx="4" transform="translate(639 320)" fill="#fff"/>
          <path id="矩形_5375_-_轮廓" data-name="矩形 5375 - 轮廓" d="M4,1A3,3,0,0,0,1,4V33a3,3,0,0,0,3,3H86a3,3,0,0,0,3-3V4a3,3,0,0,0-3-3H4M4,0H86a4,4,0,0,1,4,4V33a4,4,0,0,1-4,4H4a4,4,0,0,1-4-4V4A4,4,0,0,1,4,0Z" transform="translate(639 320)" fill="#377cfd"/>
          <text id="操作2" transform="translate(666 344)" fill="#377cfd" font-size="14" font-family="MicrosoftYaHeiUI, Microsoft YaHei UI"><tspan x="0" y="0">操作2</tspan></text>
        </g>
        <g id="组_16273" data-name="组 16273" transform="translate(-387 -22)">
          <rect id="矩形_5375-3" data-name="矩形 5375" width="90" height="37" rx="4" transform="translate(639 320)" fill="#fff"/>
          <path id="矩形_5375_-_轮廓-2" data-name="矩形 5375 - 轮廓" d="M4,1A3,3,0,0,0,1,4V33a3,3,0,0,0,3,3H86a3,3,0,0,0,3-3V4a3,3,0,0,0-3-3H4M4,0H86a4,4,0,0,1,4,4V33a4,4,0,0,1-4,4H4a4,4,0,0,1-4-4V4A4,4,0,0,1,4,0Z" transform="translate(639 320)" fill="#377cfd"/>
          <text id="操作3" transform="translate(666 344)" fill="#377cfd" font-size="14" font-family="MicrosoftYaHeiUI, Microsoft YaHei UI"><tspan x="0" y="0">操作3</tspan></text>
        </g>
      </g>
    </g>
  </g>
</svg>
