<svg xmlns="http://www.w3.org/2000/svg" xmlns:xlink="http://www.w3.org/1999/xlink" width="980" height="660" viewBox="0 0 980 660">
  <defs>
    <filter id="矩形_4556" x="12.5" y="13.5" width="955" height="635" filterUnits="userSpaceOnUse">
      <feOffset dy="1" input="SourceAlpha"/>
      <feGaussianBlur stdDeviation="2.5" result="blur"/>
      <feFlood flood-opacity="0.02"/>
      <feComposite operator="in" in2="blur"/>
      <feComposite in="SourceGraphic"/>
    </filter>
    <linearGradient id="linear-gradient" x1="0.5" x2="0.5" y2="0.921" gradientUnits="objectBoundingBox">
      <stop offset="0" stop-color="#ffe0e1"/>
      <stop offset="1" stop-color="#fff" stop-opacity="0"/>
    </linearGradient>
    <linearGradient id="linear-gradient-2" x1="0.074" y1="0.666" x2="1.121" y2="0.225" gradientUnits="objectBoundingBox">
      <stop offset="0" stop-color="#fbb1b3"/>
      <stop offset="1" stop-color="#fcdcdc"/>
    </linearGradient>
    <linearGradient id="linear-gradient-3" y1="0.347" x2="1" y2="0.347" gradientUnits="objectBoundingBox">
      <stop offset="0" stop-color="#ffb2b5"/>
      <stop offset="1" stop-color="#ffcccd"/>
    </linearGradient>
    <linearGradient id="linear-gradient-4" x1="0.664" y1="0.276" x2="0.262" y2="0.779" gradientUnits="objectBoundingBox">
      <stop offset="0" stop-color="#ff9da0"/>
      <stop offset="1" stop-color="#ffc8c9"/>
    </linearGradient>
    <linearGradient id="linear-gradient-5" x1="0.363" y1="0.612" x2="0.591" y2="0.308" gradientUnits="objectBoundingBox">
      <stop offset="0" stop-color="#fba8ab"/>
      <stop offset="1" stop-color="#ef6569"/>
    </linearGradient>
    <linearGradient id="linear-gradient-6" x1="0.5" y1="0.912" x2="0.5" y2="0.082" gradientUnits="objectBoundingBox">
      <stop offset="0" stop-color="#ffc2c4"/>
      <stop offset="1" stop-color="#ffefef"/>
    </linearGradient>
    <linearGradient id="linear-gradient-7" x1="0.773" y1="0.589" x2="0.591" y2="0.178" xlink:href="#linear-gradient-5"/>
    <linearGradient id="linear-gradient-8" x1="0.453" y1="0.583" x2="0.57" y2="0.379" gradientUnits="objectBoundingBox">
      <stop offset="0" stop-color="#fcafb2"/>
      <stop offset="1" stop-color="#ffdadb"/>
    </linearGradient>
    <linearGradient id="linear-gradient-9" x1="0.5" y1="1" x2="0.5" gradientUnits="objectBoundingBox">
      <stop offset="0" stop-color="#ffc0c2"/>
      <stop offset="1" stop-color="#ffefef"/>
    </linearGradient>
    <linearGradient id="linear-gradient-10" x1="0.249" y1="0.555" x2="0.965" y2="0.436" gradientUnits="objectBoundingBox">
      <stop offset="0" stop-color="#ffc2c4"/>
      <stop offset="1" stop-color="#ffe4e5"/>
    </linearGradient>
    <linearGradient id="linear-gradient-11" x1="0.057" y1="0.837" x2="0.261" y2="0.653" gradientUnits="objectBoundingBox">
      <stop offset="0" stop-color="#ffa2a5"/>
      <stop offset="1" stop-color="#ffc2c4"/>
    </linearGradient>
    <linearGradient id="linear-gradient-12" x1="0.057" y1="0.717" x2="0.972" y2="0.26" gradientUnits="objectBoundingBox">
      <stop offset="0" stop-color="#ffa9ab"/>
      <stop offset="1" stop-color="#ffccce"/>
    </linearGradient>
    <linearGradient id="linear-gradient-13" x1="0.973" y1="0.049" x2="0.455" y2="0.952" gradientUnits="objectBoundingBox">
      <stop offset="0" stop-color="#ffc2c4"/>
      <stop offset="1" stop-color="#ffdcdd"/>
    </linearGradient>
    <linearGradient id="linear-gradient-15" x1="0.676" y1="0.419" x2="0.73" y2="0.663" gradientUnits="objectBoundingBox">
      <stop offset="0" stop-color="#da3136" stop-opacity="0"/>
      <stop offset="1" stop-color="#da3136" stop-opacity="0.502"/>
    </linearGradient>
    <linearGradient id="linear-gradient-16" x1="0.5" x2="0.5" y2="1" gradientUnits="objectBoundingBox">
      <stop offset="0" stop-color="#f98b8f"/>
      <stop offset="1" stop-color="#ffdedf"/>
    </linearGradient>
    <linearGradient id="linear-gradient-17" y1="0.088" y2="0.918" xlink:href="#linear-gradient-6"/>
    <linearGradient id="linear-gradient-18" x1="0.5" x2="0.5" y2="1" gradientUnits="objectBoundingBox">
      <stop offset="0" stop-color="#f98b8f"/>
      <stop offset="1" stop-color="#ffd1d2"/>
    </linearGradient>
    <linearGradient id="linear-gradient-19" x1="0.844" y1="0.2" x2="0.13" y2="0.794" gradientUnits="objectBoundingBox">
      <stop offset="0" stop-color="#f2f2f2"/>
      <stop offset="1" stop-color="#fff"/>
    </linearGradient>
    <linearGradient id="linear-gradient-21" x1="0.686" y1="0.467" x2="0.73" y2="0.603" xlink:href="#linear-gradient-15"/>
    <linearGradient id="linear-gradient-22" y1="1" y2="0" xlink:href="#linear-gradient-16"/>
    <linearGradient id="linear-gradient-25" x1="0.676" y1="0.474" x2="0.73" y2="0.554" xlink:href="#linear-gradient-15"/>
    <linearGradient id="linear-gradient-26" y1="0.5" x2="1" y2="0.5" gradientUnits="objectBoundingBox">
      <stop offset="0" stop-color="#f98b8f"/>
      <stop offset="0.736" stop-color="#ffe1e1"/>
      <stop offset="1" stop-color="#ffcecf"/>
    </linearGradient>
    <clipPath id="clip-y-13">
      <rect width="980" height="660"/>
    </clipPath>
  </defs>
  <g id="y-13" clip-path="url(#clip-y-13)">
    <rect width="980" height="660" fill="#fff"/>
    <g id="组件_443_64" data-name="组件 443 – 64">
      <g id="矩形_4553" data-name="矩形 4553" fill="#f5f7fc" stroke="#edeff6" stroke-width="1">
        <rect width="980" height="660" rx="4" stroke="none"/>
        <rect x="0.5" y="0.5" width="979" height="659" rx="3.5" fill="none"/>
      </g>
      <g transform="matrix(1, 0, 0, 1, 0, 0)" filter="url(#矩形_4556)">
        <g id="矩形_4556-2" data-name="矩形 4556" transform="translate(20 20)" fill="#fff" stroke="rgba(231,235,246,0.7)" stroke-width="1">
          <rect width="940" height="620" rx="4" stroke="none"/>
          <rect x="0.5" y="0.5" width="939" height="619" rx="3.5" fill="none"/>
        </g>
      </g>
    </g>
    <text id="缺省页" transform="translate(48 68)" fill="rgba(0,0,0,0.8)" font-size="20" font-family="MicrosoftYaHeiUI, Microsoft YaHei UI"><tspan x="0" y="0">缺省页</tspan></text>
    <rect id="矩形_5320" data-name="矩形 5320" width="884" height="1" transform="translate(48 93)" fill="#fff"/>
    <path id="矩形_5320_-_轮廓" data-name="矩形 5320 - 轮廓" d="M0,0H884V1H0Z" transform="translate(48 93)" fill="#e4e5eb"/>
    <g id="组_16282" data-name="组 16282" transform="translate(0 2)">
      <g id="组_13908" data-name="组 13908" transform="translate(4 -658)">
        <text id="出错啦_您所访问的页面不存在" data-name="出错啦！您所访问的页面不存在" transform="translate(156 985)" fill="rgba(0,0,0,0.48)" font-size="14" font-family="SourceHanSansCN-Normal, Source Han Sans CN"><tspan x="0" y="0">出错啦！您所访问的页面不存在</tspan></text>
        <g id="页面-1" transform="translate(182 817)" style="mix-blend-mode: luminosity;isolation: isolate">
          <g id="一见鲜_缺省页">
            <g id="该商品已失效">
              <rect id="矩形备份-20" width="144" height="144" fill="#fff" opacity="0"/>
              <g id="编组备份-4" transform="translate(0 34.698)">
                <g id="组_13907" data-name="组 13907" transform="translate(0 0)">
                  <path id="椭圆形备份" d="M143.749,158.318c0-19.505-32.179-35.318-71.874-35.318S0,138.812,0,158.318,143.749,177.823,143.749,158.318Z" transform="translate(0 -72.399)" fill-rule="evenodd" fill="url(#linear-gradient)"/>
                  <g id="树" transform="translate(11.566 49.569)" opacity="0.8">
                    <g id="树1" transform="translate(0)">
                      <path id="直线" d="M0,9.745a2,2,0,0,1-2-2V0A2,2,0,0,1,0-2,2,2,0,0,1,2,0V7.745A2,2,0,0,1,0,9.745Z" transform="translate(6.403 15.542)" fill="#fcaeb0"/>
                      <path id="路径-15" d="M6.194,0Q-.852,7.4.117,11.25C1.086,15.1,4.941,15.7,5.894,15.7s6.5.073,6.5-5.064Q12.392,5.5,6.194,0Z" fill="#ffd2d4"/>
                    </g>
                    <g id="树2" transform="translate(105.333 2.891)">
                      <path id="直线-2" data-name="直线" d="M0,6.922a1.5,1.5,0,0,1-1.5-1.5V0A1.5,1.5,0,0,1,0-1.5,1.5,1.5,0,0,1,1.5,0V5.422A1.5,1.5,0,0,1,0,6.922Z" transform="translate(4.337 10.921)" fill="#fcaeb0"/>
                      <path id="路径-15-2" data-name="路径-15" d="M4.336,0Q-.6,5.255.082,7.994a4.281,4.281,0,0,0,4.044,3.159c.667,0,4.549.052,4.549-3.6Q8.674,3.905,4.336,0Z" transform="translate(0)" fill="#ffd9db"/>
                    </g>
                    <g id="树3" transform="translate(119.791 13.218)">
                      <path id="直线-3" data-name="直线" d="M0,5.76a1.5,1.5,0,0,1-1.5-1.5V0A1.5,1.5,0,0,1,0-1.5,1.5,1.5,0,0,1,1.5,0V4.26A1.5,1.5,0,0,1,0,5.76Z" transform="translate(3.098 7.99)" fill="#fcaeb0"/>
                      <path id="路径-15-3" data-name="路径-15" d="M3.3,0Q-.454,3.893.062,5.921a3.256,3.256,0,0,0,3.081,2.34c.508,0,3.466.038,3.466-2.665Q6.609,2.893,3.3,0Z" transform="translate(0)" fill="#ffd9db"/>
                    </g>
                  </g>
                  <path id="矩形" d="M100,64.443,127.676,59.5V87.589H100Z" transform="translate(-58.693 -35.129)" opacity="0.6" fill="url(#linear-gradient-2)"/>
                  <path id="矩形-2" data-name="矩形" d="M167,59.5l33.459,4.525V89.654H167Z" transform="translate(-98.017 -35.129)" opacity="0.6" fill="url(#linear-gradient-3)"/>
                  <path id="矩形-3" data-name="矩形" d="M100,71.454l32.22,6.767v39.911L100,109.523Z" transform="translate(-58.693 -42.145)" fill="#fff"/>
                  <path id="矩形-4" data-name="矩形" d="M178,77.663l28.915-7.209v37.553L178,117.544Z" transform="translate(-104.473 -41.558)" fill="#fff"/>
                  <path id="矩形-5" data-name="矩形" d="M100,71.454l32.22,6.767v39.911L100,109.523Z" transform="translate(-58.693 -42.145)" opacity="0.7" fill="url(#linear-gradient-4)"/>
                  <path id="矩形-6" data-name="矩形" d="M101,88h31.806l-3.2,17.929L101,98.525Z" transform="translate(-59.28 -51.856)" fill-rule="evenodd" opacity="0.3" fill="url(#linear-gradient-5)"/>
                  <path id="路径-19" d="M167.078,59.2l-.95-.311c.2-.61.432-1.252.69-1.908l.931.366C167.5,57.989,167.271,58.613,167.078,59.2Zm1.441-3.67-.91-.415c.291-.638.592-1.251.9-1.822l.883.47C169.093,54.321,168.8,54.915,168.518,55.535Zm4.847-2.372a2.974,2.974,0,0,1-1.55-.415l.519-.855a2.151,2.151,0,0,0,1.57.212l.208.978A3.585,3.585,0,0,1,173.366,53.163Zm-2.991-1.084-.839-.544c.255-.393.51-.755.763-1.081a6.693,6.693,0,0,1-.147-.835,4.353,4.353,0,0,1-.008-.885l1,.091a3.352,3.352,0,0,0,.006.681,5.512,5.512,0,0,0,.156.834l.224.2A12.868,12.868,0,0,0,170.375,52.079Zm5.73-.119-.758-.652a1.006,1.006,0,0,0,.2-.341,1.837,1.837,0,0,0,0-1.075l.953-.3a2.821,2.821,0,0,1,.005,1.673A1.975,1.975,0,0,1,176.105,51.96Zm-3.181-2.575-.471-.882A3.646,3.646,0,0,1,174.675,48l-.144.99A2.733,2.733,0,0,0,172.924,49.385Zm-1.259-2.29-.9-.44a10.82,10.82,0,0,1,1.117-1.771l.8.606A9.826,9.826,0,0,0,171.665,47.095Zm2.285-3.073-.721-.693c.44-.457.934-.932,1.47-1.411l.667.745C174.849,43.125,174.373,43.582,173.95,44.022Zm2.923-2.633-.626-.78c.5-.4,1.039-.816,1.6-1.232l.595.8C177.891,40.59,177.363,41,176.873,41.389Zm3.183-2.361-.569-.822c.531-.368,1.093-.746,1.67-1.124l.548.836C181.136,38.292,180.581,38.665,180.057,39.028Z" transform="translate(-97.517 -22.216)" fill="#707070" opacity="0.2"/>
                  <path id="矩形-7" data-name="矩形" d="M178,77.663l28.915-7.209v37.553L178,117.544Z" transform="translate(-104.473 -41.558)" opacity="0.8" fill="url(#linear-gradient-6)"/>
                  <path id="矩形-8" data-name="矩形" d="M90.609,71.454l32.22,6.8-6.405,14.7L84,84.592Z" transform="translate(-49.302 -42.145)" fill="#fff"/>
                  <path id="矩形-9" data-name="矩形" d="M178,88h28.5V98.243l-25.859,9.573Z" transform="translate(-104.473 -51.856)" fill-rule="evenodd" opacity="0.5" fill="url(#linear-gradient-7)"/>
                  <path id="矩形-10" data-name="矩形" d="M90.609,71.454l32.22,6.8-6.405,14.7L84,84.592Z" transform="translate(-49.302 -42.145)" opacity="0.5" fill="url(#linear-gradient-8)"/>
                  <path id="矩形-11" data-name="矩形" d="M178,77.663l28.915-7.209,6.176,12.975-27.554,8.937Z" transform="translate(-104.473 -41.558)" fill="#fff"/>
                  <path id="矩形-12" data-name="矩形" d="M178,77.663l28.915-7.209,6.176,12.975-27.554,8.937Z" transform="translate(-104.473 -41.558)" opacity="0.6" fill="url(#linear-gradient-9)"/>
                  <path id="路径-2" d="M185.286,103.216l-7.731-15.082.89-.456L185.788,102,212.937,93.2l.309.951Z" transform="translate(-104.473 -51.801)" fill="#ffdfe0"/>
                  <path id="路径-12" d="M116.711,103.2,83.875,94.732l.25-.968,32.01,8.254,6.235-14.312.917.4Z" transform="translate(-49.302 -51.801)" fill="#ffeced" opacity="0.604"/>
                  <g id="飞机" transform="translate(79.723)">
                    <path id="路径-16备份" d="M24.371,0,0,4.617,6.2,8.73Z" transform="translate(0 0)" fill="url(#linear-gradient-10)"/>
                    <path id="路径-16备份-2" d="M33.175,0,15,8.73V15.7Z" transform="translate(-8.804)" fill="url(#linear-gradient-11)"/>
                    <path id="路径-16备份-2-2" data-name="路径-16备份-2" d="M33.175,0,15,8.73,18.592,12.6Z" transform="translate(-8.804 0)" fill="url(#linear-gradient-12)"/>
                    <path id="路径-16备份-2-3" data-name="路径-16备份" d="M36.885,0,21.321,10.485l7.477,4.8Z" transform="translate(-12.514)" fill="url(#linear-gradient-13)"/>
                    <path id="路径-16" d="M6.121,4.424a.5.5,0,0,1-.269-.079L-.27.421A.5.5,0,0,1-.421-.27.5.5,0,0,1,.27-.421L6.391,3.5a.5.5,0,0,1-.27.921Z" transform="translate(0.075 4.806)" fill="#ffe2e2"/>
                    <path id="路径-17" d="M7.163,5.091a.5.5,0,0,1-.269-.079L-.27.421A.5.5,0,0,1-.421-.27.5.5,0,0,1,.27-.421L7.433,4.17a.5.5,0,0,1-.27.921Z" transform="translate(8.926 10.635)" fill="#ffecec"/>
                    <path id="路径-18" d="M0,7.259a.5.5,0,0,1-.5-.5V0A.5.5,0,0,1,0-.5.5.5,0,0,1,.5,0V6.759A.5.5,0,0,1,0,7.259Z" transform="translate(6.196 8.73)" fill="#ffe2e2"/>
                  </g>
                </g>
              </g>
            </g>
          </g>
        </g>
      </g>
      <text id="_404" data-name="404" transform="translate(53 157)" fill="rgba(0,0,0,0.8)" font-size="18" font-family="MicrosoftYaHeiUI-Bold, Microsoft YaHei UI" font-weight="700"><tspan x="0" y="0">404</tspan></text>
      <text id="搜索为空" transform="translate(504 157)" fill="rgba(0,0,0,0.8)" font-size="18" font-family="MicrosoftYaHeiUI-Bold, Microsoft YaHei UI" font-weight="700"><tspan x="0" y="0">搜索为空</tspan></text>
      <text id="对不起_没有找到相关结果" data-name="对不起，没有找到相关结果" transform="translate(625 327)" fill="rgba(0,0,0,0.48)" font-size="14" font-family="SourceHanSansCN-Normal, Source Han Sans CN"><tspan x="0" y="0">对不起，没有找到相关结果</tspan></text>
      <g id="组_13912" data-name="组 13912" transform="translate(-58 -146)" style="mix-blend-mode: luminosity;isolation: isolate">
        <rect id="矩形-13" data-name="矩形" width="144" height="144" transform="translate(695 305)" fill="#fff" opacity="0"/>
        <path id="椭圆形备份-2" data-name="椭圆形备份" d="M144,242.379C144,222.84,111.765,207,72,207S0,222.84,0,242.379,144,261.919,144,242.379Z" transform="translate(695 183.655)" fill-rule="evenodd" fill="url(#linear-gradient)"/>
        <g id="树1-2" data-name="树1" transform="translate(706.586 389.414)">
          <path id="直线-4" data-name="直线" d="M0,20.75a2,2,0,0,1-2-2V0A2,2,0,0,1,0-2,2,2,0,0,1,2,0V18.75A2,2,0,0,1,0,20.75Z" transform="translate(6.414 4.578)" fill="#fcaeb0"/>
          <path id="路径-15-4" data-name="路径-15" d="M6.2,0Q-.853,7.409.117,11.27c.97,3.861,4.832,4.454,5.787,4.454s6.51.073,6.51-5.072Q12.414,5.506,6.2,0Z" transform="translate(0)" fill="#ffd2d4"/>
        </g>
        <g id="树2-2" data-name="树2" transform="translate(812.103 392.31)">
          <path id="直线-5" data-name="直线" d="M0,14.625a1.5,1.5,0,0,1-1.5-1.5V0A1.5,1.5,0,0,1,0-1.5,1.5,1.5,0,0,1,1.5,0V13.125A1.5,1.5,0,0,1,0,14.625Z" transform="translate(4.345 3.246)" fill="#fcaeb0"/>
          <path id="路径-15-5" data-name="路径-15" d="M4.343,0Q-.6,5.265.082,8.008a4.288,4.288,0,0,0,4.051,3.165c.668,0,4.557.052,4.557-3.6Q8.69,3.912,4.343,0Z" transform="translate(0)" fill="#ffd9db"/>
        </g>
        <g id="树3-2" data-name="树3" transform="translate(826.586 402.655)">
          <path id="直线-6" data-name="直线" d="M0,11.813a1.5,1.5,0,0,1-1.5-1.5V0A1.5,1.5,0,0,1,0-1.5,1.5,1.5,0,0,1,1.5,0V10.313A1.5,1.5,0,0,1,0,11.813Z" transform="translate(3.103 1.959)" fill="#fcaeb0"/>
          <path id="路径-15-6" data-name="路径-15" d="M3.309,0Q-.455,3.9.063,5.932A3.262,3.262,0,0,0,3.149,8.276c.509,0,3.472.039,3.472-2.67Q6.621,2.9,3.309,0Z" transform="translate(0)" fill="#ffd9db"/>
        </g>
        <path id="矩形-14" data-name="矩形" d="M182.135,226.241l5.739-5.179,17.378,13.216h-4.138Z" transform="translate(588.231 175.412)" fill-rule="evenodd" fill="url(#linear-gradient-15)"/>
        <rect id="矩形备份" width="88" height="89" transform="translate(811 423) rotate(180)" fill="#fff" opacity="0"/>
        <path id="形状结合备份" d="M18.377,57.276A27.758,27.758,0,1,0,21.868,15.1L8.144,1.4a4.767,4.767,0,0,0-6.753,6.73l.006.006h0L15.171,21.882A27.707,27.707,0,0,0,18.377,57.276Z" transform="translate(795.433 409.933) rotate(180)" fill="url(#linear-gradient-16)"/>
        <rect id="矩形-15" data-name="矩形" width="3.656" height="2.437" transform="translate(793.809 409.933) rotate(180)" fill="#f98c8f"/>
        <path id="形状结合" d="M19.256,58.155a27.505,27.505,0,1,0,3.652-41.971L8.117,1.393A4.755,4.755,0,0,0,1.393,8.117L16.184,22.909A27.513,27.513,0,0,0,19.256,58.155Z" transform="translate(798.277 409.933) rotate(180)" fill="url(#linear-gradient-17)"/>
        <ellipse id="椭圆形备份-2-2" data-name="椭圆形备份-2" cx="17.966" cy="17.944" rx="17.966" ry="17.944" transform="translate(785.301 371.552) rotate(135)" fill="url(#linear-gradient-18)"/>
        <g id="椭圆形备份-2-3" data-name="椭圆形备份-2" transform="translate(781.957 371.563) rotate(135)">
          <ellipse id="椭圆_462" data-name="椭圆 462" cx="16.78" cy="16.774" rx="16.78" ry="16.774" fill="url(#linear-gradient-19)"/>
        </g>
      </g>
      <g id="组_16281" data-name="组 16281" transform="translate(0 -59)">
        <g id="组_13917" data-name="组 13917" transform="translate(4 -338)">
          <text id="空空如也_没有内容" data-name="空空如也，没有内容" transform="translate(191 985)" fill="rgba(0,0,0,0.48)" font-size="14" font-family="SourceHanSansCN-Normal, Source Han Sans CN"><tspan x="0" y="0">空空如也，没有内容</tspan></text>
          <g id="页面-1-2" data-name="页面-1" transform="translate(182 817)">
            <g id="一见鲜_缺省页-2" data-name="一见鲜_缺省页" style="mix-blend-mode: luminosity;isolation: isolate">
              <g id="消息">
                <rect id="矩形备份-19" width="144" height="144" fill="#fff" opacity="0"/>
                <g id="编组-7" transform="translate(0 83.47)">
                  <g id="编组备份-4-2" data-name="编组备份-4" transform="translate(0 0)">
                    <path id="椭圆形备份-3" data-name="椭圆形备份" d="M143.8,38.822C143.8,19.038,111.61,3,71.9,3S0,19.038,0,38.822,143.8,58.605,143.8,38.822Z" transform="translate(0 -1.953)" fill-rule="evenodd" fill="url(#linear-gradient)"/>
                    <g id="树-2" data-name="树" transform="translate(11.731)" opacity="0.8">
                      <g id="树1-3" data-name="树1" transform="translate(0)">
                        <path id="直线-7" data-name="直线" d="M0,9.856a2,2,0,0,1-2-2V0A2,2,0,0,1,0-2,2,2,0,0,1,2,0V7.856A2,2,0,0,1,0,9.856Z" transform="translate(6.494 15.764)" fill="#fcaeb0"/>
                        <path id="路径-15-7" data-name="路径-15" d="M6.282,0Q-.864,7.5.119,11.411c.983,3.909,4.893,4.51,5.859,4.51s6.591.074,6.591-5.136Q12.569,5.575,6.282,0Z" transform="translate(0)" fill="#ffd2d4"/>
                      </g>
                      <g id="树2-3" data-name="树2" transform="translate(104.837 2.933)">
                        <path id="直线-8" data-name="直线" d="M0,7A1.5,1.5,0,0,1-1.5,5.5V0A1.5,1.5,0,0,1,0-1.5,1.5,1.5,0,0,1,1.5,0V5.5A1.5,1.5,0,0,1,0,7Z" transform="translate(4.399 11.076)" fill="#fcaeb0"/>
                        <path id="路径-15-8" data-name="路径-15" d="M4.4,0Q-.6,5.33.083,8.108a4.342,4.342,0,0,0,4.1,3.2c.676,0,4.614.053,4.614-3.649Q8.8,3.961,4.4,0Z" transform="translate(0)" fill="#ffd9db"/>
                      </g>
                      <g id="树3-3" data-name="树3" transform="translate(119.501 13.407)">
                        <path id="直线-9" data-name="直线" d="M0,5.821a1.5,1.5,0,0,1-1.5-1.5V0A1.5,1.5,0,0,1,0-1.5,1.5,1.5,0,0,1,1.5,0V4.321A1.5,1.5,0,0,1,0,5.821Z" transform="translate(3.142 8.104)" fill="#fcaeb0"/>
                        <path id="路径-15-9" data-name="路径-15" d="M3.351,0Q-.461,3.949.063,6.006A3.3,3.3,0,0,0,3.188,8.379c.515,0,3.515.039,3.515-2.7Q6.7,2.934,3.351,0Z" transform="translate(0)" fill="#ffd9db"/>
                      </g>
                    </g>
                  </g>
                </g>
                <g id="编组" transform="translate(32.26 39.662)">
                  <path id="矩形-16" data-name="矩形" d="M0,125.652l8.145-7.1,19.937,12.758-13.466-.9Z" transform="translate(0 -68.881)" fill-rule="evenodd" fill="url(#linear-gradient-21)"/>
                  <path id="形状" d="M50.609,32.665A16.5,16.5,0,0,0,67.242,16.331a16.636,16.636,0,0,0-33.266,0A16.5,16.5,0,0,0,50.609,32.665ZM44.23,35.193C32.648,35.193,24,43.4,24,55.329v1.284c0,6.233,9.269,6.233,21,6.233H57.463c11.27,0,21,0,21-6.233V55.329c0-11.923-8.65-20.136-20.23-20.136H44.23Z" transform="translate(-13.945 0)" fill="url(#linear-gradient-22)"/>
                  <path id="形状-2" data-name="形状" d="M56.609,32.665A16.5,16.5,0,0,0,73.242,16.331a16.636,16.636,0,0,0-33.266,0A16.5,16.5,0,0,0,56.609,32.665ZM50.23,35.193C38.648,35.193,30,43.4,30,55.329v1.284c0,6.233,9.269,6.233,21,6.233H63.463c11.27,0,21,0,21-6.233V55.329c0-11.923-8.65-20.136-20.23-20.136H50.23Z" transform="translate(-17.431)" fill="url(#linear-gradient-6)"/>
                </g>
              </g>
            </g>
          </g>
        </g>
        <text id="没有用户数据" transform="translate(53 478)" fill="rgba(0,0,0,0.8)" font-size="18" font-family="MicrosoftYaHeiUI-Bold, Microsoft YaHei UI" font-weight="700"><tspan x="0" y="0">没有用户数据</tspan></text>
        <text id="数据加载失败" transform="translate(504 478)" fill="rgba(0,0,0,0.8)" font-size="18" font-family="MicrosoftYaHeiUI-Bold, Microsoft YaHei UI" font-weight="700"><tspan x="0" y="0">数据加载失败</tspan></text>
        <text id="数据加载失败-2" data-name="数据加载失败" transform="translate(667 647)" fill="rgba(0,0,0,0.48)" font-size="14" font-family="SourceHanSansCN-Normal, Source Han Sans CN"><tspan x="0" y="0">数据加载失败</tspan></text>
        <g id="页面-1-3" data-name="页面-1" transform="translate(638 480)" style="mix-blend-mode: luminosity;isolation: isolate">
          <g id="一见鲜_缺省页-3" data-name="一见鲜_缺省页">
            <g id="数据加载失败-3" data-name="数据加载失败">
              <rect id="矩形备份-9" width="143" height="143" fill="#fff" opacity="0"/>
              <g id="编组-22" transform="translate(0 41.914)">
                <g id="编组-11备份" transform="translate(0 28.52)">
                  <g id="编组-7备份-2" transform="translate(0 12.983)">
                    <g id="编组备份-4-3" data-name="编组备份-4" transform="translate(0 0)">
                      <path id="椭圆形备份-4" data-name="椭圆形备份" d="M143,39.134C143,19.73,110.989,4,71.5,4S0,19.73,0,39.134,143,58.537,143,39.134Z" transform="translate(0 -2.562)" fill-rule="evenodd" fill="url(#linear-gradient)"/>
                      <g id="树-3" data-name="树" transform="translate(11.506)" opacity="0.8">
                        <g id="树1-4" data-name="树1" transform="translate(0)">
                          <path id="直线-10" data-name="直线" d="M0,9.7a2,2,0,0,1-2-2V0A2,2,0,0,1,0-2,2,2,0,0,1,2,0V7.7A2,2,0,0,1,0,9.7Z" transform="translate(6.369 15.461)" fill="#fcaeb0"/>
                          <path id="路径-15-10" data-name="路径-15" d="M6.162,0Q-.847,7.358.116,11.192c.964,3.834,4.8,4.423,5.746,4.423s6.465.073,6.465-5.037Q12.328,5.468,6.162,0Z" transform="translate(0)" fill="#ffd2d4"/>
                        </g>
                        <g id="树2-4" data-name="树2" transform="translate(104.784 2.876)">
                          <path id="直线-11" data-name="直线" d="M0,6.893a1.5,1.5,0,0,1-1.5-1.5V0A1.5,1.5,0,0,1,0-1.5,1.5,1.5,0,0,1,1.5,0V5.393A1.5,1.5,0,0,1,0,6.893Z" transform="translate(4.315 10.864)" fill="#fcaeb0"/>
                          <path id="路径-15-11" data-name="路径-15" d="M4.313,0Q-.593,5.228.082,7.952A4.259,4.259,0,0,0,4.1,11.095c.663,0,4.525.052,4.525-3.579Q8.629,3.885,4.313,0Z" transform="translate(0)" fill="#ffd9db"/>
                        </g>
                        <g id="树3-4" data-name="树3" transform="translate(119.167 13.149)">
                          <path id="直线-12" data-name="直线" d="M0,5.738a1.5,1.5,0,0,1-1.5-1.5V0A1.5,1.5,0,0,1,0-1.5,1.5,1.5,0,0,1,1.5,0V4.238A1.5,1.5,0,0,1,0,5.738Z" transform="translate(3.082 7.949)" fill="#fcaeb0"/>
                          <path id="路径-15-12" data-name="路径-15" d="M3.286,0Q-.452,3.873.062,5.89A3.239,3.239,0,0,0,3.127,8.218c.506,0,3.448.038,3.448-2.651Q6.575,2.878,3.286,0Z" fill="#ffd9db"/>
                        </g>
                      </g>
                    </g>
                  </g>
                  <path id="路径-12备份" d="M116.542,15.623,83.875,7.2l.25-.968,31.841,8.211,6.2-14.236.917.4Z" transform="translate(-49.483 -0.405)" fill="#ffeced" opacity="0.604"/>
                  <path id="矩形-17" data-name="矩形" d="M106.717,57.814h10.878l21.29,10.529H127.262Z" transform="translate(-63.865 -34.248)" fill-rule="evenodd" fill="url(#linear-gradient-25)"/>
                </g>
                <rect id="矩形-18" data-name="矩形" width="11" height="15" transform="translate(65 48.086)" fill="url(#linear-gradient-26)"/>
                <rect id="矩形-19" data-name="矩形" width="1" height="14" rx="0.5" transform="translate(72 49.086)" fill="#fff"/>
                <path id="形状结合备份-2" d="M127.426,2.462l25.954,37.2a5.753,5.753,0,0,1-4.718,9.044H96.753a5.753,5.753,0,0,1-4.718-9.044l25.954-37.2a5.753,5.753,0,0,1,9.436,0Z" transform="translate(-53.606 0)" fill="url(#linear-gradient-22)"/>
                <path id="形状结合-2" data-name="形状结合" d="M133.426,2.462l25.954,37.2a5.753,5.753,0,0,1-4.718,9.044H102.753a5.753,5.753,0,0,1-4.718-9.044l25.954-37.2a5.753,5.753,0,0,1,9.436,0Z" transform="translate(-57.141 0)" fill="url(#linear-gradient-6)"/>
                <g id="编组-14" transform="translate(68 13.086)">
                  <rect id="矩形备份-8" width="7" height="19" rx="3.5" transform="translate(0)" fill="url(#linear-gradient-22)"/>
                  <ellipse id="椭圆形备份-8" cx="3.5" cy="4" rx="3.5" ry="4" transform="translate(0 23)" fill="url(#linear-gradient-22)"/>
                  <rect id="矩形-20" data-name="矩形" width="6" height="18" rx="3" transform="translate(0 1)" fill="#fff"/>
                  <circle id="椭圆形" cx="3" cy="3" r="3" transform="translate(0 24)" fill="#fff"/>
                </g>
              </g>
            </g>
          </g>
        </g>
      </g>
    </g>
  </g>
</svg>
