<svg xmlns="http://www.w3.org/2000/svg" xmlns:xlink="http://www.w3.org/1999/xlink" width="980" height="246" viewBox="0 0 980 246">
  <defs>
    <filter id="矩形_4556" x="12.5" y="13.5" width="955" height="221" filterUnits="userSpaceOnUse">
      <feOffset dy="1" input="SourceAlpha"/>
      <feGaussianBlur stdDeviation="2.5" result="blur"/>
      <feFlood flood-opacity="0.02"/>
      <feComposite operator="in" in2="blur"/>
      <feComposite in="SourceGraphic"/>
    </filter>
    <clipPath id="clip-y-9">
      <rect width="980" height="246"/>
    </clipPath>
  </defs>
  <g id="y-9" clip-path="url(#clip-y-9)">
    <rect width="980" height="246" fill="#fff"/>
    <g id="组件_443_60" data-name="组件 443 – 60">
      <g id="矩形_4553" data-name="矩形 4553" fill="#f5f7fc" stroke="#edeff6" stroke-width="1">
        <rect width="980" height="246" rx="4" stroke="none"/>
        <rect x="0.5" y="0.5" width="979" height="245" rx="3.5" fill="none"/>
      </g>
      <g transform="matrix(1, 0, 0, 1, 0, 0)" filter="url(#矩形_4556)">
        <g id="矩形_4556-2" data-name="矩形 4556" transform="translate(20 20)" fill="#fff" stroke="rgba(231,235,246,0.7)" stroke-width="1">
          <rect width="940" height="206" rx="4" stroke="none"/>
          <rect x="0.5" y="0.5" width="939" height="205" rx="3.5" fill="none"/>
        </g>
      </g>
    </g>
    <text id="报错" transform="translate(48 68)" fill="rgba(0,0,0,0.8)" font-size="20" font-family="MicrosoftYaHeiUI, Microsoft YaHei UI"><tspan x="0" y="0">报错</tspan></text>
    <rect id="矩形_5320" data-name="矩形 5320" width="884" height="1" transform="translate(48 93)" fill="#fff"/>
    <path id="矩形_5320_-_轮廓" data-name="矩形 5320 - 轮廓" d="M0,0H884V1H0Z" transform="translate(48 93)" fill="#e4e5eb"/>
    <text id="标题名称_" data-name="标题名称：" transform="translate(48 151)" fill="rgba(0,0,0,0.8)" font-size="14" font-family="MicrosoftYaHeiUI-Bold, Microsoft YaHei UI" font-weight="700"><tspan x="0" y="0">标题名称：</tspan></text>
    <g id="组_16241" data-name="组 16241" transform="translate(-300 -1310)">
      <rect id="矩形_5341" data-name="矩形 5341" width="240" height="32" rx="4" transform="translate(429 1440)" fill="#fff"/>
      <path id="矩形_5341_-_轮廓" data-name="矩形 5341 - 轮廓" d="M4,1A3,3,0,0,0,1,4V28a3,3,0,0,0,3,3H236a3,3,0,0,0,3-3V4a3,3,0,0,0-3-3H4M4,0H236a4,4,0,0,1,4,4V28a4,4,0,0,1-4,4H4a4,4,0,0,1-4-4V4A4,4,0,0,1,4,0Z" transform="translate(429 1440)" fill="#ff4949"/>
      <text id="_" data-name="%" transform="translate(439 1461)" fill="rgba(0,0,0,0.8)" font-size="14" font-family="MicrosoftYaHeiUI, Microsoft YaHei UI"><tspan x="0" y="0">%</tspan></text>
      <rect id="矩形_5358" data-name="矩形 5358" width="1" height="20" transform="translate(451 1446)" fill="rgba(0,0,0,0.48)"/>
      <path id="矩形_5358_-_轮廓" data-name="矩形 5358 - 轮廓" d="M0,0H1V20H0Z" transform="translate(451 1446)" fill="#707070"/>
    </g>
    <text id="请输入正确的字符" transform="translate(129 186)" fill="#ff4949" font-size="14" font-family="MicrosoftYaHeiUI, Microsoft YaHei UI"><tspan x="0" y="0">请输入正确的字符</tspan></text>
  </g>
</svg>
