<?xml version="1.0" encoding="utf-8"?>
<!-- Generator: Adobe Illustrator 24.0.1, SVG Export Plug-In . SVG Version: 6.00 Build 0)  -->
<svg version="1.1" id="图层_1" xmlns="http://www.w3.org/2000/svg" xmlns:xlink="http://www.w3.org/1999/xlink" x="0px" y="0px"
	 viewBox="0 0 24 24" style="enable-background:new 0 0 24 24;" xml:space="preserve">
<style type="text/css">
	.st0{opacity:0.3;fill:#5B606A;enable-background:new    ;}
</style>
<title>xiazai</title>
<desc>Created with Sketch.</desc>
<g id="icons8-download">
	<path id="形状结合" class="st0" d="M9,10V3c0-0.6,0.4-1,1-1h4c0.6,0,1,0.4,1,1v7h4.7c0.1,0,0.3,0.1,0.4,0.2
		c0.2,0.2,0.2,0.5,0,0.7l-7.7,6.8c-0.2,0.2-0.5,0.2-0.7,0L4,10.9c-0.1-0.1-0.2-0.2-0.2-0.4C3.8,10.2,4,10,4.3,10H9z M3,20.5
		C3,20.2,3.2,20,3.5,20h17c0.3,0,0.5,0.2,0.5,0.5v1c0,0.3-0.2,0.5-0.5,0.5h-17C3.2,22,3,21.8,3,21.5V20.5z"/>
</g>
</svg>
